<mxfile host="Electron" modified="2024-02-02T19:54:47.221Z" agent="Mozilla/5.0 (Windows NT 10.0; Win64; x64) AppleWebKit/537.36 (KHTML, like Gecko) draw.io/23.0.2 Chrome/120.0.6099.109 Electron/28.1.0 Safari/537.36" etag="O4cSA-BMpKKdpFOzljPK" version="23.0.2" type="device">
  <diagram id="C5RBs43oDa-KdzZeNtuy" name="Page-1">
    <mxGraphModel dx="1235" dy="731" grid="1" gridSize="10" guides="1" tooltips="1" connect="1" arrows="1" fold="1" page="1" pageScale="1" pageWidth="827" pageHeight="1169" background="none" math="0" shadow="0">
      <root>
        <mxCell id="WIyWlLk6GJQsqaUBKTNV-0" />
        <mxCell id="WIyWlLk6GJQsqaUBKTNV-1" parent="WIyWlLk6GJQsqaUBKTNV-0" />
        <mxCell id="iqmGGK62Io1WVzKbsAf8-0" value="" style="shape=image;verticalLabelPosition=bottom;labelBackgroundColor=default;verticalAlign=top;aspect=fixed;imageAspect=0;image=data:image/webp,UklGRnYgAgBXRUJQVlA4WAoAAAAgAAAA/wcAfwQASUNDUAwCAAAAAAIMbGNtcwIQAABtbnRyUkdCIFhZWiAH3AABABkAAwApADlhY3NwQVBQTAAAAAAAAAAAAAAAAAAAAAAAAAAAAAAAAAAA9tYAAQAAAADTLWxjbXMAAAAAAAAAAAAAAAAAAAAAAAAAAAAAAAAAAAAAAAAAAAAAAAAAAAAAAAAAAAAAAApkZXNjAAAA/AAAAF5jcHJ0AAABXAAAAAt3dHB0AAABaAAAABRia3B0AAABfAAAABRyWFlaAAABkAAAABRnWFlaAAABpAAAABRiWFlaAAABuAAAABRyVFJDAAABzAAAAEBnVFJDAAABzAAAAEBiVFJDAAABzAAAAEBkZXNjAAAAAAAAAANjMgAAAAAAAAAAAAAAAAAAAAAAAAAAAAAAAAAAAAAAAAAAAAAAAAAAAAAAAAAAAAAAAAAAAAAAAAAAAAAAAAAAAAAAAAAAAAAAAAAAAAAAAAAAAAB0ZXh0AAAAAEZCAABYWVogAAAAAAAA9tYAAQAAAADTLVhZWiAAAAAAAAADFgAAAzMAAAKkWFlaIAAAAAAAAG+iAAA49QAAA5BYWVogAAAAAAAAYpkAALeFAAAY2lhZWiAAAAAAAAAkoAAAD4QAALbPY3VydgAAAAAAAAAaAAAAywHJA2MFkghrC/YQPxVRGzQh8SmQMhg7kkYFUXdd7WtwegWJsZp8rGm/fdPD6TD//1ZQOCBEHgIAMCIInQEqAAiABD5hMJRHpCMiI6OWCSCADAlpbvr/2qjV9JQgn617Znwb/h1Fc1v0v9qY32vb+V6eZ6SIsd3J5ytojnv+Sf7HkJ79f/t+AvNfzD9r/mf3J9yblfwB9lfev1r8lWBH19/P8q7ln/d/4L8ifob/u/+v/nvdT/af89/4v8T8Af6nf7f/H+vT+2Huz/v3/f9Q39K/vn/d/yP7//Mf/z/2v9z/90/2H7Z/6r5Av6B/lf+P+f/zT+px/c//h///cE/oX+Y//ntJf+D9v/hX/tP/M/cT/mfIp/S/8L/6vz/+QD/+e2X/AP//0o/ln7R/kr7h/Mr85/jf2c/w3pT+OfSv33+7/5P/P/3r/7/6/5Kv87/VeW72f+w/5n+k/1nsZ/LPu1+P/vf+c/4f+A/fj5y/4P+g/13/G/zPqj8o/8D/H/6f/q/6T5CPyH+bf4T+5/5P/g/3v98/q2+3/7f+m/2H7TefXtH+1/7f+k9gv16+p/7L+//5z/4/5f3bPpv+b/nPyH+K/03/G/8n/G/6b/0f4j////H9Af5T/TP9n/eP33/0X/////3j/zf2o8xf8X/0P2t+AT+lf4X/8f6j/ifCv/if+z/V/8L93feL+jf7D/y/6f/Z/uD/////+hn89/uv/O/xv+o/aH/////muxdM9lT0EtmlBT0EtmlBT0EtmlBT0EtmlBT0EtmlBT0EtmlBT0EtmlBT0EtmlBT0EtmlBT0EtmlBT0EtmlBT0EtmlBT0EtmlBT0EtmlBT0EtmlBT0EtmlBT0EtmlBT0EtmlBT0EtmlBT0EtmlBT0EtmlBT0EtmlBT0EtmlBT0EtmlBT0EtmlBT0EtmlBT0EtmlBT0EtmlBT0EtmlBT0EtmlBT0EtmlBT0EtmlBT0EtmlBT0EtmlBT0EtmlBT0EtmlBT0EtmlBT0EtmlBT0EtmlBT0EtmlBT0EtmlBT0EtmlBT0EtmlBT0EtmlBT0EtmlBT0EtmlBT0EtmlBT0EtmlBT0EtmlBT0EtmlBT0EtmlBT0EtmlBT0EtmlBT0EtmlBT0EtmlBT0EtmlBT0EtmlBT0EtmlBT0EtmlBT0EtmlBT0EtmlBT0EtmlBT0EtmlBT0EtmlBT0EtmlBT0EtmlBT0EtmlBT0EtmlBT0EtmlBT0EtmlBT0EtmlBT0EtmlBT0EtmlBT0EtmlBT0EtmlBT0EtmlBT0EtmlBT0EtmlBT0EtmlBT0EtmlBT0EtmlBT0EtmlBT0EtmlBT0EtmlBT0EtmlBT0EtmlBT0EtmlBT0EtmlBT0EtmlBT0EtmlBT0EtmlBT0EtmlBT0EtmlBT0EtmlBT0EtmlBT0EtmlBT0EtmlBT0EtmlBT0EtmlBT0EtmlBT0EtmlBT0EtmlBT0EtmlBT0EtmlBT0EtmlBT0EtmlBT0EtmlBT0EtmlBT0EtmlBT0EtmlBT0EtmlBT0EtmlBT0EtmlBT0EtmlBT0EtmlBT0EtmlBT0EtmlBT0EtmlBT0EtmlBT0EtmlBT0EtmlBT0EtmlBT0EtmlBT0EtmlBT0EtmlBT0EtmlBT0EtmlBT0EtmlBT0EtmlBT0EtmlBT0EtmlBT0EtmlBT0EtmlBT0EtmlBT0EtmlBT0EtmlBT0EtmlBT0EtmlBT0EtmlBT0EtmlBT0EtmlBT0EtmlBT0EtmlBT0EtmlBT0EtmlBT0EtmlBT0EtmlBT0EtmlBT0EtmlBT0EtmlBT0EtmlBT0EtmlBT0EtmlBT0EtmlBT0EtmlBT0EtmlBT0EtmlBT0EtmlBT0EtmlBT0EtmlBT0EtmlBT0EtmlBT0EtmlBT0EtmlBT0EtmlBT0EtmlBT0EtmlBT0EtmlBT0EtmlBT0EtmlBT0EtmlBT0EtmlBT0EtmlBT0EtmlBT0EtmlBT0EtmlBT0EtmlBT0EtmlBT0EtmlBT0EtmlBT0EtmlBT0EtmlBT0EtmlBT0EtmlBT0EtmlBT0EtmlBT0EtmlBT0EtmlBT0EtmlBT0EtmlBT0EtmlBT0EtmlBT0EtmlBT0EtmlBT0EtmlBT0EtmlBT0EtmlBT0EtmlBT0EtmlBT0EtmlBTxhRX/HvNQ6GTkzpmWcnPScEHf6nRGenSr6Z176Rk6E6MWbUmR5UZ+bAH7+9f267ZDsz5CME4Zg2PTL9Mg1g/J3DKoedjJDZR1sG8qTg8r5nl+ZyST355/TM7zQOOkoeQlTU4Dm/7SutMLNSJwr73Zg1Y3v/06QyVFDxqWlgzWtYZtV/+QdJIuajI22EIEqYc1hu5wkj0OFbkwl986Hj18q6N6zIz/5v1qcDvT1e01ynC1c9n70Ieb3d4bPtht6kYlMEeg9VhUHiZhb8BJg/DtB5F1fnuc6PPa3Xkb54OnCg1aqiaQC6DYFl4Rjsvj85C5CoIE8gfXitmlBT0EtmlBT0EtmlBT0EtmlBT0EtmlBT0EtmlBN+qfp+YXGl7hJ9JGX67RTz0Pmce8ZkV45YHgX/6hDaL0ROdM3WTkd1VlxDd8IQcNpHQlTFW36hIr2Bh2U5AfBPMtVX5II5OJWdTntOIBvlSUdLVV0Jys2+MOgQvtRc/z+OfIrtY9TsWV5d7mHWWdfJar2Ag53Yn/c9Jz6i3LROTqEkqZVGeP/Lla6jZZzC8Tr6GVSxTtuQ+k2qeM7pg7u7SjCtQ2crh17RwB+8mvq6iNWumpyCVDkp56xaUrF4HJjnaK+WeM2GJrlXMOQs/3cr5804JXC6Qg1olAT2Wd2YG0rdYawUCSbFzCqjJZzYK6JSIUo2VNbPbL/w1MvuQeL2ubLeNrP51jI/hhebkHRySHNEw1tyS9wPqMceLKhcHfHo8q3x7tyveUrprkFWqYuwSWkWKt6bxHn6LRN/Pru966QOi/xpU9BLZpQU9BLZpQU9BLZpQU9BLZpQU9BLZpQFwvrdsfZAPD54n4sNmgmgTpgsg2bLvoWgHzoorEznMzZwwrUrYRQZl6ni/LpIvELVz9yyrMxCsAVIqNsUnVmyaZ0jHU9iE19BDV45CCj4MfGZxeK/m7GcAFIOeSc2V8cuzKYFsZh3s+p3V1qUrPQCsOlrIcoKTrM90OU4Hywzp95FoMAe11F0Uws9f/Ya3nrJ8xLV6V9gy2b4Dv5lqU+SxdMq51fC26+sQojpzRvhemcN58akjrSaBMUMvfFdF0du9Mebqn8PZPkZdqouW6jbQUh3tBEuao7t7uIT75BVDAWbYAOg3flPpp5pMH/9uV/D/Lff+/dIs14RO0oo1D6X9swWz4fNBy5CVoK6S2Ha9YucxE3fKt9ZVD6qqIaoaRHPRDRVOUuMwv3PSK7Pu0yC3Cko32TYSRc2Jd9QAXUXDoAwoJbNKCnoJbNKCnoJbNKCnoJbNKCnoJbNKCnoJbNJYGxIFcVUrHAtBlenGXGljulgEXEbSYPXN8weqnblK7uvWKwWPdHl3sDDWAixFFg6PqHpI4+l+xnKk82onS1aA5QrEMr60nMH4Lrbn98OIAoq3FpEG/nJ73f+DkNdoLOzODAvUFcAg5MSmwnGifzgeLLpDeWQ4/9wPxaLs4caGOJc1dCciV7lBIam+7j23pm7rS7vxBD8mFs8awD31fY86Ri6sO+0sslH1l2rRi6iAJ2llik4nYteFGBgd/bkDkb0XWpXDFVahGbzFb/v3yOQmqw151QxasKFzwcqmR8zFHqJey3RJLDH6S8xoxeT+c/9PXnKPS3uVZ/DLHCEhDkK8P4vJC17FG8FJy8vQgoe8y51xvtbm6jM/g0c/I2H+FjX5bbe2cc89pNWJrd+JGgBCqWCotut2qhFP5PLxAUIGXhmFMHdq2aUFPQS2aUFPQS2aUFPQS2aUFPQS2aUFPQS2aUE+CZ8VBrspmT0T03mobi8/cQXC33naBPrYbYnhTOG67UhGVyfVHyCiE43GLnJr5jkVno4SgnE4mmxmUurddq390s1QQtm7SS7PhVigbH6Aqx77qit3vwexSo05DmzTvf75kvrqvGt1+RmvEvezrxlc6LZdnNnhGuP7xZrPoQjh/JL7BrGECB8ArCioEYnm2sfEwoH5akav78APhulb/ZUUpCrkNUcUHsyi/lw339UJ4R5r4+1FsQCayOdssdQO/B5lcb0mJ0jnbwp7YCW6HCX7eL2L+qH/Sk0tIBGPzJfxMFzBJND94epHpGMypu7ZuLVtJsS1r1KcANr+B7zkVou/t9GDRL+jMqK+qmb+a+uULa5mK5BMNvJSp77N/5IKWpvDOItMtvEfTiT+YDEZbt9HedXutccMDAXj9LZtVuprKHWjymzcmvr3H7zANYbxcpEu7hFZdalhRH7g6abk59TYB1GjPaUFPQS2aUFPQS2aUFPQS2aUFPQS2aUFPQS2aUFPJWNqIP++eIlLXrlXnb0uXVtSRsEMXN3OPAsgTJN409RWAQLoFpcE9NOeR80KDnVk8w70GotVOAWstmmWzAqfvVcxTQodkovcYb7Xad68wEPH+nX67MAThQFc8YpdFDHnhK2pkrzb6Pc7Lj/MFDWJpPOl7PYc3BfQ/U3bYz7nx6lYBqLNIyr6ktOB/r0KDe8aeKhrP7zhdA6HXwR5HggJKqtOxwf2mmJWKun0pjLRR8LkM/56ZPoPP9ANQg8iN8zK0vRjmRFpUN98Bak4a+Dxt7IbD4VVTjHB/MpBKs7cjpFvReXuFKus5vwwIDreY+32D1w8b87TcdcTQTWd/OhyUXjsK7TO0ud5ej1sHr3w6hU4TS9rI7ndDia17ZDf9pqCtiRhRVKOOYhJAzpZDj6fEtSvuF/jSp6CWzSgp6CWzSgp6CWzSgp6CWzSgp6CWzSgpqfG6Gecq6vy051cknlJZw8J72yLyKkHarDmIdou4pwehTYRL/+yf4A+lmxr3Q7NIjxvy7ERZFFQWdlzt2WefsE86aJFeLIMJMTLfyW7EHJzO5zppP2lthNKZ7d6ebXlIT46xfu4SOUgHr6aHMNH2i4r++c6TovRziKqfGUd7NblTejERK7ShhoHkdgYu5Bbnjc4TAL7/Rp/jnhIIJfoZ2UoKhXFyJRkk/9bjzYS/ygN/mRfuc5o8oL3K5WEgajmzyCSnNu3XVyfOIDH5FO+9/4/Y2khdh883ZrcPngRcRA6cf5Vgx3+4dNagB6y6+VcRy7zqzMc7gvrNSXqpWSIxFpp7lcpFJI0phKG65iiSCkTxCRly66HIv2N2zzKqEWG9Xq/7kuW1gczqJdkRqsaLPAfQA7dj7zUYpk6VY8J2RV1f8aVPQS2aUFPQS2aUFPQS2aUFPQS2aUFPQS2aSv5Z1acr24BzRsekHpkN8otCCOB/AHS1Jk54BbH1jYiJtXBETtYvKThMxRb6PuyB0DtbdV0/dH1boSUhDxy8fjjKLDb8IA4vi1PVkTKTvyZ6Ly7E5LQZ7v2+grSKomqw9yUNnxyzEGubNtQhQOKb+7gCjquejOahVy01QTubIKqmT8W58X6zvGVyNet9+U3sN3mt6t94q0hihyWCKECgqLyvfBQeiUsvcNB74Y3CLJ5sVJqTEoGafnWaPIKnrhIHqx/ULwEa8eent4O2ZtgCh9F7RCg+N0e6kZH9BwIJ5AAFLCIabBhl18EQ9rD7YFouOZk9W+bjQmBOM3IsqlRALNzxs4cbTlSp/sSQdPFSBvdgFItwhZvNAn/6JuEf17UcfclTlQE60K0g7uscdxTR9zqEMSHgrEvQcDreS/WhheGJ+H3eo/RqCLK2aUFPQS2aUFPQS2aUFPQS2aUFPQS2aUFPQS1yFnuV88nQ7aIGFM1f9EjlXxhBJY6GlyOe/HVd+hXyWoa0fx1hgcf8xQ78Rma1lSFIBy2fhqTnAnrbANkSMHGOrMpoyE3WHpTmaCkpj3KZSOsEBCBT53DFdRhQY8ywvdhSTiG+eHs3hBjaNTD9dh+9HpjuWFdjn0AZbXgr7XW1AGyv1g2i1mReptBeWHEO+hHtuR298JxYF66TbVzFD1aG8185CL/mIlwulxntTgVxr5uPDBsnHVmXi8tE507xjeXsaoTqL+W3Y3nSnSn83p9SSq+C3D3Kyt33MwdoZw3lDPueFDlOu9jQrmF9PkkDBPUt69zbKAJ5Y/0D5ut1boMC4AVBHKQgYY+dbLOrh1CsrNDGtSgAPIsFVJIFfk49K8a7AKTEid/yLI7o/bU8BW/1vpkWitMlVnxeiqyZ9Q/J0fmYn0B/jADm6O3Ga+NEsFvLejyrB9kJ2asT06RoNKCnoJbNKCnoJbNKCnoJbNKCnoJbNKCnoJbNKCnju+ODbcBopSDMCsSj5Q+NU2krpjbc9WRdRv85/OuVS9iP6MxJ6FnODoYWv67vEkNajtDhaQf8cNF+ypI7ohVOia9bIZKeUlEV589lHLuGwdTLK7/uo0Gb5OyLA//r72epaqQ3I43LGGh2W34NyMgMx/rfcMmicH18qxqJIUE8OExwB0HGL/C4a9WyCFmeB/CAAaaUZAcv0ftbeoVbf1BZMvoXkylHJfoNcRSE53MkqBYVhyx+oYng5S/XIWMJERmSSOiWGcPBH2SeBilkm5zNRz+gw/R92nOM4POi1VdfYZpPyvx4dgG5gjkK1PFGPvX4tJ36EtLV9MQT8mVDzzbz8jFet+3z8cVNoNsBOckHkc9adlgT7KIwAADnfVWYHgwDcOAdK1Bgplf7mOtiOSFXb9oAaJkBWS/a8Fjsicn5gHZDC6Pj9R4FyhYZ8YqaCRjU6gnPbMeZEa6v+NKnoJbNKCnoJbNKCnoJbNKCnoJbNKCnoIEmFdbjIwaaEN+m7RLekfyKhRCwMij6IRBRzCgInq81j1t2MYG+6hPzd08iqD5CMXkBsBYlJ0fg/PVMErlPVcIx64AZug/zjQtegpPbIo4e21QrcJtr9vHsSGow43NqzrPHDtGX06LG56SmoycSh5DVnUQMZf/r4HE4soMGeX3mZSQpfqYJakLk1y0CxpNjkieObCInzd4iW3wmNB/IcbruOWll92qMAohd0PTKRy5pNKQoKpH2JiccfjXXAX5V3D6UvlpD6Uj476PCs/ioVzrD72Utgs+E4OFb9L3S+6nVcwOgL2ZdY98c2WMmA0zryjCEOilPUQ0shaDwV+bV50SqitHAg60UjCjnedAqT7MDPH6z2SoeytsO6wiJXF2wUm3IaiwlDpDaHVtYnjR5RlUbAJhMZm6YTn/Wzmj6RVcGVs7ULExDU/iPAyuU3BGcSNuvsPkcQO8ctH7lBThAVWvMOK3/ys0f04X/9GsP6JFAxu54upSX7Sgp6CWzSgp6CWzSgp6CWzSgp6CWzSgp6CWzSgpqgtJX3XqjuDCDl54cT875iLPD2Vz9h9IZmOEdLa7e0zAbF57Mv2TxP4QBluACSLWHIuKvOsrwptqxGX8FiIa+nd9v5dcgVXD62qT0GpWAJFbM/xkddjPknTYTL6PloWChgQMsdh940vUw9IENqxYARNKqRWN9YR1epJqnpwISFfKEXQv8Ul9ml8UbBl3XwMHlebt5RfxhZQlYQO9a1m+DmXbdLjgtlVZQdw8v3RjHt2aJBI0PaPfGUN+QOTZ0s6OJjejVRjRSDeCLytUgZopjlcoWWwqjUuxyH/yxTZ4Znalg6IYx1fueGH45miV6ZNQ4tM+zJKyAtwXtkobyaKd/KvCLVuIyGU7t4h9vseiuN32lXp21CVZfZkfLocAYgOc+IZk6DP7S5KVX358/+ko/h/n50zNOoHkaVMmlco91iZRLUQlR9WFpFxqVh/7GZX06pSjimKox9bF46bs1pzn42rmbqqV/xpU9BLZpQU9BLZpQU9BLZpQU9BLZpQU9BLZpQTMoX6Jdrhas/AIs2KQfm5NlfcqLcBcIsJn53TUuOZg5xvlNp2mw6vvdprpwG39a7dIei22uOVqEXTTTpEkCcyyOD0RzVmzITA0X0PH6MivVqvV5/VyXVjLZVFATKI8aENUbKmCJ22Nsemj2jpN4zshorTDCtDlPCfiaTB8VEVRId4ZVJcFjIrnGIGizpCElERwKOnPY++3DRWHqkuyz+q9+cioLyp71LyMLKUiICIiLK6ZVO2IBuhjCmzj6lCXewVLuoZWBq/pH/jn0IVUxHxyMgOomVRQbFW73au8C+rqKdph9ryNnAX5wq8et9qfCW2sMKWlSMb6mKFtP83qZdmezHaNhZ0nLSnYysDSDQ57VzBQoxXP/hhuIdoARLYfZD+yN+K8m5BRRA7DV+ugcFMlsDqpA6mVURyll+nuXeWdYQzIBfIdWSKYvFtjIzc4Jc65BQVUKJ6G05dpv2K5jM5HzIRf9oJ0Wgse+0oKegls0oKegls0oKegls0oKegls0oKegls0oKCiYc30qKxrZeAoDujJuKo4ipMDQEoNJU4/vrAitP+L9858Nk2motLOvQPWwhdAfkPsnPeDMAgMe0gKOL6I84sfXYmXpajXeSUq1vje4R2PbsR0xgs/dG4V8xe3+GMrYbs0/bJZGqH4bE3wkawKTLQ00HIKZMBD/IfbBw9KTCYYDwogl9Z8aa366mH1GdsaMP957lYrTbTty/4C+yqgLkvboUm9P+d79PK1k6y6MF3rZolKfxuqOxmQCapxAfgOnxooY64C3BdypP+ROnE3VAmPcjG0DSrAg74Yix8in4ks3Tf96rGQT3+mNHYyXsHaOObUultU8iatQ/CeY70InSRlLpZtBYDE3ye+VfloVlKJsB+5YwtQqJ+5qOU4Wv9MekAcjNB992Mg1+HWU1k6vyfslwczt0Zpr19wDL7gK5rFcbaZfsTRr1gj5e0Rn3PUsIuVZGLpUjfzfDGEDFidM+46e5kTfnRlcZpQU9BLZpQU9BLZpQU9BLZpQU9BLZpQU9BLZhaFueIkmP6B1fd7hyEIjZT2zekiT2ZYTq792jhcLr3/9nzh7oYjaYJmt4fgpQdDLhyetZSxV7M2wkzGeyuaV99oVRD977hTySM0aG7VAd3mWrVmLuqFjgpAi+ChB89Wje/x9lh3fH4xSGc+YxhR4QfT9Q5dxY8VkBJK9edOTS7md4MiyYADpdkxosf+Nb8ehh38hOH/48orGLbKwM/+keI6wsJzUhM/f+xjALFM/yZk71dYp9VppIgXBblTfwP7p9hYYKbozNDwiUBeNn7MrjsA7SaA0MzLUnwUksPmgGu78TcwKhOpH9Zerusd+OdVn4+pqlpS3K0ii2gocsVzmJR1XhraLdWmp3pZ19fctbPKAbnXvMr3VrMj+DpejQhlE0fvd1tiE5PUm3BrrSJeooCP1kY7ZTW6xvLdvDBsN2WDcH5xpfMXpPpgJM6MRMmL9q1kKN9maY+c/OwooXFHyRnlSAeOJ6QHp+ctSPF7YRSb8T8/nO1LuAWVwA+f9W09VwYeS2aUFPQS2aUFPQS2aUFPQS2aUFPQS2aUFPQS2Wmgkv5vWu8oN9efks9WgUxkLCpaLKkLX9P0f1LhkjNL8oYWt4gtIkN2Y0CNbuN7BsdFbSlnOoib1As3ZfFjPga5cdrtzanu288cPvhK+//ovpCPBchufGiZTpIKm46Fta6GWZpLH4z7xh0OxCGWFyZ1FnafRL9OChcOPC4b2wZ4mt2FGjK0T+KJ/1Hv/qg/FG8CU3wIccZbrjJ306U0AdWQtT+xfkPNP75qfpYv3HPUGh/kbKrDG5V7zNYQJGzaMER2/CzmZWKGYc/oJX9NjvniuEcQjfwM1pk6iMyPprnDXup6vGiRQNFe0gaktEn4qsO+YbGtUTR50qaVeSzi6gQgW0s9PeOMN+6ZcS6SXTMpaxTJN9ip2Fh3Zp9dg4Jt4xoYITKoMuluc+M5s2Ogjd0QgROENHkXRgtAu3yFspeAHs4b9wdt5J1sZFM/kM3T88ACIJJ99Xes7ZC4Awd3ZeyOudqLE1cpXC1zG3xeyxeazLb9bTAf5VDe8UKXpPkUXIJR6CWzSgp6CWzSgp6CWzSgp6CWzSgp6CWzSgp6CWzQqfOUt0INaQu9RQrJGw4UVEk3e5NiSMJZQ/Dd0f1Nz8fxsADqNZyiL8/BafT/4Xz73kYPK63Wwz5xFxg4eSaodMXPsETsCkkaZqn5i4uFa7ZJX8q/LPTesSexSU0rcLj/y0RfbVHfyk+q9OBUqvkynIt6SXPKyDS60mUxTTJGk3dyCXwsqIolv9AMtZo9YGOdA0S7XUG2tWaqZ047jqh47dP2FRGBJ38FJE2S9JftDxDbRGs9jkJeG4oDBtfS2AWteitsrdh/igepspKfvQJiJUVQJEVxiozcoaOKhR6eFH3J7IGO/45BRRsLoW+nSahZvB2C4zehpYXWkXt8pvbPWUNtEeFTv3h1BdXnA//8lNajauXBcq4jhD9Gop+2iKjagrx9GWNiknp86QqYlLvMpmWCB2S8jihvYBVrEECbue4x8Wil68aYunbHHIK6rgNpo4nbCo2ruRmNn8jLAm+4Fk13LO7eHLb5pEa6v+NKnoJbNKCnoJbNKCnoJbNKCnoJbNKCnoJbRa8hPfXcubrJu8d56FU/23sFCPTxcvSCbyfSnsv7x+pbxJu3z7lRQo2cHeONRgjXqsrcMd756nDNSeMZ+cDNki1jvO2769DBqTLayENl1rBpMtt5+0E5MEmn4fncsw5L8vdCeDVPUlW5+TbslSB4fy7FB0crIiVWIXcGK5KFtl8b7QCI5t2JrsC0G1CP7QOzhJ/8sTtbatElbxcjXRlUb5sfek0eDEj1aOGbb7KriFgrHdl/lvdyyjsYQXkclvjmDFIF5Q4lckHlgNpHWWbkUqXItPoo1elXeQG0yjC2qRwiT51WDQavHag+nqRrB3ShQ8x1VDZ/2ipQl/pNH3pbhslaH+BhVlaEsWjhMKXTVOUmN5/Vdy5fYS2CA6V9Ndx6GyKzIpA4MLmIrTO3OJXFVbNgR19KIIkPGXO3utLegAP3oPXirQox78nwmD7oytzj7gFwzUj8H1pu7poSEP4JatBXX3egls0oKegls0oKegls0oKegls0oKegls0oKegls1zV4Sl2gLeLWDjyQ4vhPJM4AfDJNvOZweGgNy3VsNG7+c7m/8Qe5r5lop83/zWOSnlgrxlJNkVj3JEXKHLkJZsosF6At5+CC/gTRpwk8vZqpYgjMX230mn4TbhW7yIec3crP4Rupp2ZLIb1UuQgcLDhgjwiHKUWsCJDLiNIicMw5PjAbwNUvzOCQgvCpMwPlrWIv8syYyTp7iiZQqv6vyI/kwlDuPTsJqg+5/PDf1iS+vNVOOdL4HBFPI8TjpqbFUUuwsQ2/iMRwEoCUS2N3EjNDj0QQ4G/LAUIymkjtsHFNtm6Na1wCiB1rFuU1LCuR6Ny1TXxPbzlcC4UUv9SfJqcWIaFpWiUFc+CgGPPcO2oXOi1JVGEIZxxmKLpLR4AooqIlauP+5Ck5fgLWh5QFHvZbX48x0NCAmVdsIf8+vTThUkPlg8yE2G1SqGhk5W81pO2jFlonhZVwT/aEz7URIZe544D5xfH68kfkud+ArzYdvjRVi4nVY47lRnJ2lBT0EtmlBT0EtmlBT0EtmlBT0EtmlBT0EtmlBTUcwhSJ++onHk1jL5+HTrLYIp54cGxt6J2jlelMSYuxzmtNbaFtH/PE/8SqRB2FOdmB4N/FPeElMUX2Y1oCmORsykHN8fx34oCd9BwwNB2426oKBgZGiYp3mdegKpKIcd9XuvjjIioNkYCartlVoIwkM754BeB4/eMXANGqws0q8qtSHIl2xrpZaoK4rk6pxtqqQJWilvXRESfLPjWSrOKO/LTeXmO+epKn0zd0f5rOZUjohU/MnoRuk7zODNYKonUgmzh6GGd0PjeD/Sox1awLmocW1QnlRtJe+FUPLvqSAmCBlspqRJm5iTEBUwif+761I4NPEv2jpff/Bnz/iL/EldSHJbHPx9vR31aHN/yc2VAfpXswqdE0rVAaxdwf6i/Rr35IXLFF3rukFL17US8aPCMHUiuiZ8JXvPxR0uE8yEuisF2+LCB9y1GDmZA2RVC0iulK+TqbcUc9X4/iDxNjNKCnoJbNKCnoJbNKCnoJbNKCnoJbNKCnoJbNJ/n0GdYHzW7RI9Iiy+NeL30+GobLbUrIA427R8vKoBsqrieEgatMo5nQUInDzF+UYXbEgEU7AYwmduENxxd5yfB3aQOCplV8zN+6NiFsUo8sKkeffg+HYl37BojM2dWjT0qXwxn6F4NrVfqb/ZU3PmXDhmAuW2iQt7rwz3kFCgZ2gH2lZnOXdjuSAUN+52bWp9UbRGASyggkF0l6u6HIrQIopkNaGLb+sdUMXvRAwcWxyB3UpYofiVJ8btKogzEb4BU7iU3Oes1Yc2+VtdJFTlqaGf+nDe1ahUFbeaQFA5RAW36GCjbWnmwXxycagJOSw4Kjkt9hrMfY8vVmt+uNXEToKcaBPG6Mb/f1lrZGrBxhlOgHWZG2HWsaN+DAA+3S73Dg3lrsq6uscyJKE72bUNlAFtONK9ZsMAmUShl+xrIq36bjfQ4FRf40qegls0oKegls0oKegls0oKegls0oKeglTp18UBVmjUUHT5nqmq/Ocx94hn90K6qbDusmwhNqSHu8wcWsf6Zx7EIBK+eoTfEsFjged8+olCvhfD52QSFyGy8DoYVfHAcY6dhzSB/G427ROfj0hqqkE3K4mijiJ5jHolPmOFDR5t52lQx9NMZMaNhbodRtZaIbL2HWzMxMpv8dMI/8gX7nVd5hktU6INEK82gM6xVgy0kvnmZjky1HD1jx7YAYWDGVKVsJctjjlel/UBRtQeu/+4bXrgPlrqkS766F6jvaOoudoUtJ8E315oztDFV7EbeaOblWvcIqQw7y18hf15GGt0gJZ5E3exSLj3fR+KgnchrxW4yQDgkSM0U8AhAI8BSkflUqX5ASnM+sSjiyCVyMeT1Wwjp/LFfMCzr0YaZ0MO6snYeB/1yLXEGUR1cf5hgBhf7ZnLq55qUzbCM8XbFw8BU0tCb8zebHA5a9GziPBtGV2oyfvGNvPZakcXjMgshKS7WLYiR6v+NKnoJbNKCnoJbNKCnoJbNKCnoJbNKCnoJbNJYVikPfRFV1FIIsFHa2uBFBwntgP4QMe6fXR/OrBV8dTscPeINYIjxbtnIK1AAVJFjHL0uAYiHXknw2xezsDO3Pb5VLE/f9lUYDuuwLZXdERJna8A4hCTa6FKhu1yzXzHsK7ykVC0w6Gayokp7nFX12GFhRPoZXPu0Sp3xXuuyEpPHkZ/rukEYKC5orwjitbbDAZp71aVNJcaBfwsMiZ0vdcuxliPwhEdLKRmicY46QwrRzQrPA8Om0zvjHgfTYhSsD7+2IA/Usd6VUrFJavEDFT1v0Zxln8S0tarHtIV4LqKaAzhMjJrSE1t1gsaDqScq8LFSIjG9pb1AxWfMDtuioHOLZeeDr1u3Cs3LrzsHru0OwVaJllwXhXD2EIFo03hDmPHqpR3GANxFb8M7xMh9tEXlet+xlz1UhIOQCV/WabaK/ErXafDp1Z1npOnSgguDgvjZrayeReLOT48dnumuqoFjfcHcvOxgcm6g5Gi7EdGgk0k5EMhBfvQhDAWuZ12Rr7QLZU9BLZpQU9BLZpQU9BLZpQU9BLZpQU9BLZpQU8eLBEMrfkMvu1GdIv2PoP/VHQq/SIr+q5V8BFLwJrFWxcrpJ/lwNLffyA3queUkQtm5T0aiJDHJNH2RCOm2LwSG+OwZSHSudcphQR4T5V6ZRcLS7ugeNqSmI8k4qb7evgTXo4u8J6sRuerooroFkxaozh+2fRdMeO5V0hSlAl1blwuAPKFqqy/egwueXJ3honrkhXplY2bhl9UuoPMSb/3d7oBE+REHowWoRbMWY0evgIC0P7skXqZx/oddX/K8BT3wE1IIeJsBxJ6O6CDm5M+Fdh0J+oHcO2eNCNEtNUCjyT63/b7/yqr4ZThfLMmC1UgaCRwrc5JDxGYvpnWioo3cKIO1M4P7HjYr1ej8STPl85m18vAXWvaHyjBtBXOrIEGQczt7Sst6cNg4Y7Znme8SaMehVhQmQScPdpu/JVHWbBGFtZbyhXiZ8O49yK876/cqXXJAZqbn7IEU38rG1mpB+K+4sl3HWMgLnZXmT2pSo9Zx0NtNJd2ZVueW6n4le44e+8xqkRE6+p7mxrq/40qegls0oKegls0oKegls0oKegls0oKegls0DdC3goZqBj+rNfS+MAUsHBmA3r8Zb8h6x2nHR6Y5ji/KTA+2MPzcS5bLcvYyh18o/li4XRPFABr4YT0S1CUSAWwsz/6ZqqwM7ZWT78o1x12eEjnFdivHThzpAjh62WoFx8Q8CVjvz0Ybe2v1P1VWcHCoHFoljWpsaWVXpbSX3AJNcwS7yY6169Ec4o9Cd8yc0tI27/SskArntLsfrp8HvxaGwEvTIWnUI+1JQfO3vdz1ACBPodo+jpFVN6ms28U9NJFiNYvLeQVp2lRUi2ONS2sSBWIOZtc4IOXTJW8+2EX6pmPhV8D7I72hw44+0G7owFVbiLp8merB48NIHnXnuEBkvc+X+KlQdpLlVoNBk3yIBG99nEqHC0OtOWWreiIFVfH2nTyKLskckJsy3PqpIGQr1sJDj06rzVOLoZDo4uWk7Mco/8onG8W1iWvEI355CaR9I2119uPVlWUAdZmSWrAUoZKuA4iL4VsM1V/Km1kDXV/xpU9BLZpQU9BLZpQU9BLZpQU9BLZpQU9BLZYKRIOj/RDMKWGNLUmt+wym65c76PTNn4Xn+2mkqcy8T5k6Hegy5UN3Q7fEfPAJZVnEPm3ps6x8H33k/97YUgAlcKAlJmDiskgxrOzX3lxWdHxqOANSEebyJA20OHfJffG3M5w3NtTopF3mMbKa+IQbPCh0QBBXrboavjbQk39EeoV3PFJLauCk1o0MfKDOHp+95EXiiWIbzJ1Ji1F744p7zjbujfco9ejBtzzbIc7dXyLbBA1kbyh8w6VvuM5GD3Q7vuECLjZIXebqHvoNrp3OUZ1+oh7AofktdgjZf8ljsIgFXBofd7W6KDDIeaeHyM1XRov+l34nmrXjYsyJI96w+20Czl9sa1O/WjEdcWHlb32JxI8mOhcLiLz2Me6XD2o9bRmIHt066dwOhOS+rC0KeX4oc49hDDxUKKV086ws/ugrXzImQgPfyohJCNCuC+jiBrWmnNEZ6CvcwwynxkDIh4moQ/i0J6OZsB4pbj7neIfCov8aVPQS2aUFPQS2aUFPQS2aUFPQS2aUFPQS2aUfBelvzUdXnA0ZLe/ynu6fRO7fw4vCDtR3cLHTQssqpXzwMoLynwH8knEeM2pOfv6q8oChK00x6mh5BK7W3mD+c/25L2dR4FW4rbJtNG47OR9cwTRi/W6YGsYcU9XAl0cjeQO67BoKMJixzigl+4pWPOOnAV+AhxALRVBIGRxf+pYyO9VlBEAwKeWVvCzlKuwvHqF+M/wrkNAA9SA/ft2U5t7Bpaja1RIZr70VaLjOGoqdk3RIMmdUkgZL47vGOtJ6Hka7zJDCVdEwxv42qIcGetpVCFle2sZ+zKMMTxsCR7o8KNw90iWljnbk66uPJgBt8Qq4tPqv7DNiVBOYICZ++Yokioi5xjM2nj0LLZoK1by68br6hVAhcISW94JPIwZMk4ytjGFpn/OfZMt7g4zX1casLyfFnyF0kB0pRTiA2uL3DLqW4BFyba6L6Nv/ukowZMl4UiQ2GCNXnaPLfi+UVOFUDA4ibYtmsYltphFBSp6CWzSgp6CWzSgp6CWzSgp6CWzSgp6CWzSgp6CIoRifVjr2GrhF7eOcRytqHo/9h+cqvfnlzFSp9Bb3tk/DzzgU6OiTlVeticMpcVAbbvrxRE4wcwXKkRIdxDwT3IGb+h8T2AtL7L1tOVMPGtgB3SwDZfjtvas4sE2V9GeYdd1q1m9mSFw5EjUc/mnwsyfsGUq7WsqCRJdet+6JEEFbhiTLqTEG6ixPiSDcFZJKKJO58eRAlh/y8HF8is+4iYQ9utb0Yx2bJDOUDQvc0Lw6Zp/MA9Z1sFsS9S/PfYXwiZJBVY5Ksfx0WkqDOH9lzSSHW7/Q5qH472V//9idtNZtju3lMvAKgL7TI3d4Q7XvI/5Kpr0QUMVp6NZPAt9dRI3sBERjjI/a2NyzLH0mElhJ/vAI4C0JF0mXH18eyhVbeMA2AQjdPGjr51U6RQEefsUIKUd9FRh0ZDQtyiyUNmQ4LxVhzyH+Z6+aHsqegls0oKegls0oKegls0oKegls0oKegls0oKegIXh24+MUfXhd8zlBArX/dl4FRfkPbpjdK2LSwCrFeQapNPlMdYuQCAY1ylasudUZxn/y60hu55oVIc3A1o0TOi//pk1eOHQSissvASGVJLyU1tfXuTFHPAbf94NGJXElZNGGSw5298ng0TmyGdQwcT6CXxIf7clKur3gWeExoUMQwg2rZyqeKAAK9qMMtOeXFuUr8zeakrQ3ROFeViYmhP1YjXOIUkRB2NkrJHhdeyINmc2X84TYFltKSkpSzl2DESmx+YfGe4phUsrJMfocwbbQ+NyDpv3Hzix/8Fm+RJVo6RYyxAE8AjRlv1oSa6NCNnUP5PZKEpOg3YFSW2uwYCRYf9F9Jwt6SMspaZuMm5Z8Fq+hpFlFQ9lT0EtmlBT0EtmlBT0EtmlBT0EtmlBT0EtmlBT0ZN7migasZsS/2qwZaYcniKn71/PzT6OMfNostAeRHZf9SLzodwt+UeLaGvJSSCfaB4RU/imug/hqLG+jAEXanjninD79fHsfZ3YAuOotP/+VI4lYBbgO4UpynAf/4xNrxyW9hU5uwtnnYH3UNuNUm10ONPn2ubxgz1yDFAw5s42e4Y36yAbq9Fp381p/z+fJNjCvY1GPSJh03YqC7teAMGKRGoy7ODnvR30l9zE8QqztMNqswB/cHOCLB/Fe5qM8AQ7L3wuPBZVpgOXQATUshalejP4GOSwlDfE51ibPcASqaoTvrOYd4k5w4ydm2HcMlpRxHlEeh6TNAsNBbNqn522jOOyXyD1Q6wGYF37N+YGttEA4bv46HzVQLiIqzctjjosp0aqpbuhYCvceDlxWYDDQ9lT0EtmlBT0EtmlBT0EtmlBT0EtmlBT0EtmlBTz8ZE7dUetAIf0XFm9G/jNvnR5RUXJ/0J+t1Oz4Q4ZWNssqBbnvmOsurunNEd0bi23IBiY1nFEraCs4pqsrD8A+gZXTX1PdTK6eBhQ1pzU4o2UTkuQvv9lBjNBUwHmvCM0n27Ash/HF7db8i3XeGwvdulK/4oPcla0tGCGRC2MIg06UV8JmUWtrG4rzC8UidzEEMY7kwcTmbyJpHFC+iTLkjqrQSULBjOUA44JjzM0OwZq9UQ998LXUnN9LfGjt/pQTRfl/vFzM826e+w3xNeYO8MSS8qJkzEuYk+XlfS9Yc00gwuf1euJSt8rUcz8S6rRuQYbMN2cWOZkVuNdhR07bFzdFJfd+2HTkv3BPWTEIB8fS9hvEGj0rqMOiJgyPk4FshkB23eeXKez0K7dibrnAw1TZpQU9BLZpQU9BLZpQU9BLZpQU9BLZpQU9BLZpQU4Uthy+/S1HX5zbqPgQmhlFBd1e+LWpUaD+3suFLPfsX8hHBQV3kjcivqE8Pf33zKrvoES32vb5JB6d4MA7bZH0/ZnBy/C9Ntm3lOa/WXGpzBZg/jbXfzuxM/d4KCP8mc4y7Qm5yvB6hUYYjBA0mJCtPHCKMZF1Ifds11IgS0SylUq7vSy6uLyJom+OvTWsLRv4jw1a35mvRSU1+aWSrZrio3mkrvv/w7vWdnSg8CkXD5pfBO+8DdzbU6MAiKO7Av0iZeo6uQ/x+sXjsH3lcbDZC5n3FAbEuFa7H6wHEWNrMvidb57MKPx5xxFXCsoUwEOqjpywKRic1ewXwMSzvQDLLebGAI2Of+HKOLEmvdUqaOODzs0qMrvJJCdJ/+zAPJmgZcXXYTuZSb2Du4KOow+RmItsTzdPmaqGgTDR3YXuIy9f7EEhFlbNKCnoJbNKCnoJbNKCnoJbNKCnoJbNKCnoJbMC1E5eTtV/cD+LgUxLJa5ok/LvYPvW6pBX/3FMqFgHZGNNDivdAcMvdAQP15QGAvGsplPL+tesWZsu/ca3ZBzQv56jDjK3vF9sGgQH2pcnSwuutOIycHwY5Z3Js5Cnr01AWtoFbZIHbKdeysbuau4mUma/rP0cSG3Tlr3lZxN8SbDVKUyZY51QY3EvvVYakAGJxueTfZDXwQSZKYO/0RyMzQtgZ3svDnN+QjEzRKfirvFYWaovi+5DFGb+fNJExmvd05I34kZGajmaSPRrdC5/jvZwlYmbT4DSc4hjR4ILYXgGUjKsUwnqKBlqa3+dWx7Ciwu5ejb7R+JmVDjtz7fC0kysEhBIIgcJ+LzEgwHM0tQp+RoK1b+Hf5UgPjLjwV5Ua9E5FJ+pdSB0dot+YJ14zm9gULk1bs8ORwp0OBUX+NKnoJbNKCnoJbNKCnoJbNKCnoJbNKCnoJawbANzWs/qpNKWtAu7ePTQ+E8Xpa8kisaHjzvsGwqXGtSD9X+f8O47FmL420+licr3HgUgYJ2JrzLU9qGSoaaLlDBjpiK4jc62naIOYMdO0sxtL/JObqIVYHSw8G/GR/b/GzSYhUzggJmGtEU2+kO/8fcIOT7EsHPyUI2Ryb9R1BBkjny9iMM/l8pRgAjP6e3a2q2alCyN/b5FBe7EUAbBUzlqpt3uC1QPV4450z1YhLUxcln9Ju7Ldkb8HyvCP+I7oRtOkRP32BAMW7JpntazCcbDg1WmKQxf5Uk1XnlUdKQ4wyAVu8efaPULExxPFfC5NCYtnJX4Ph/fOj0kmxjuk4/ZJrfbxFbPWKvyNebPhRpUEp5i90e5l+4qBEL5fRxkyxDX2sG2T0TiCI20g4zb0gnA3/2dP+OoxFYMXKE7nGzgYAyaL10eoAt59dNDBy0G+ciwyhbvqja0hhCddzqLxeamn672xr3O6ot/+5oZqX9Iz19iTASRGur/jSp6CWzSgp6CWzSgp6CWzSgp6CWzSgp6CU7rIXWBN6eTpuqzZwL/HKg7upDNPbxCe925/iZOYo3uaHjbN0rJg7/IqYJeUUUmhHdlQc5NwtCNTh6Vfi+nyulW5/gSgmlwtMX5HAXYnbYdAyjoWzQZ/GchJ48DcKPNgw9JkIvTSNrBTEJqjgg9/bQ1B6MzjsE4ImoGa8a5ONyO8DJ5YFonJhM7uhpyiH09JGWYy9Tx+1J0vWC49ADOmM3HiKGsFvFmbE1UVR3pKEn5eHAOH57pWpR+UcRcewDKeLbwwNjPd9jxDnsfdrBuhBIUrxq1t2z/01SHkO6QY6Lqt3AtyrTkClQj8oHSY2IXjKCLRa4/lsmFMjSgxCI/aS6SonDSkAWEu3MJ0vPQv89RIzv5qz7DQmkiencTfIRtEuPj307GPBRAJ7r9GNVSHP2RtYnMXMbJ4RB78BR4tO+bDglUFDrRAZ9e1CWkHra9Uuz/wckO5Ez6JjfV/zFJ7SFuKx1pmlEpivTgwU4Fh7RCK5b24p6K/FybbIT5Ea6v+NKnoJbNKCnoJbNKCnoJbNKCnoJbNKCnoJTz3LtlP5/IZannSMGQuzLUnrmuFpL9xkYZOQP1Z5dgvgPCpbO2Am+fhnmLMZTBd+6wYyN0nhlFuDvhsUFZCCtfA79pM2Lj02qkMt1Z4rq96AfABR+W2SV/eyENr+2ux8D7dQ2EzBEp2q+4mZRp9ahCXkvx/gKguqw/YtEQFwPxyeXCS/TY7CjsIfFLKkUFPkXO/XpgprUoGKQqyvT0pTh+me3LNrDsZ5+zklf1n6XDo7ylNhsXAum+npFJ1PJXnlzop2n+W5KisJz+cgN5O1JfB1ygKIQ+5pHxKej0jfzLc33vbIXBWhfUxfRh4++mUEyAsyxWFqVQAVBZEI27bKgwHEN+l8f45RhD0p3/YIPSFzIniwqaXREgS27kh9LuLDl0xChIAQtW55Dh2Ddt6+yUu61MH+JrQyUCf2bduTlsiNx/S06uxWPJdZN94aZT80fl951zP0yyRLb6Mc/eBUX+NKnoJbNKCnoJbNKCnoJbNKCnoJbNKCnoJau9DfB6HY+wFl4xsypIoSyLBU2RTpTJq4cz8ANr8F5J861lBamWxMxUvG9d6lOzlbJk1hvhq4qaz+gB7N+hG+IZ4ZgXyD4T9hQDtJxh7dx+cJtDBbflbEzyTQrzlDuTXKgXIAIYuyPQcGekuOj5odHH/U4oAFPWHlybzFWe1WNYKL5iUoWCitTJ04nBzY4L/1AFl5UPaGNsC09bkM63HatyXWZki+y+R0XK5oYaQ3pIa+OGOy4h+H2O7nGw1bBfeyuzxWX2M/NzSfH+d+XoojBXD6/uJ2C+a2IO9aPFibiDjVcO03p8yDbSEKGlc12MBFiSrrmMjrjCcH1FJrK78NAIO7MZWFfqgiG+ltgOcX2YiB7JNwxUBkxEGQV+3gkDh8HNEMjG7LIMrR6oRh1ogTNK7ZuVjuiO9c5IDhdD4ZRCUuz07o+kvylyV/Etezm5Astgs9gfHzzilkbuOBYqM79lT0EtmlBT0EtmlBT0EtmlBT0EtmlBT0EtmlBT0EBh3Y6kd8bqp0KFV/imym2mtEukXw/pbUTSrtXVXqU5MYWfnB7nVezVMfo+aEyBP2IoOQX+E4S/YaLGZTF7GK6ZVzAzDeyBYSvTnF7ueQIoAvQB+VTUyRKKTBCtacoqXvZGcjoh/P1ItQ+mtYVFaBVQm0apP4MCUlNq6gOGbZdrGpIR4IegtC0iSz1tYMUn3lwUR1Bf8kmUwXHtng/LeMwiBC6mvCOF7PB6tHLsvovgs+QUFxO8uUb3gtD2pDjDk4p6CWzSgp6CWzSgp6CWzSgp6CWzSgp6CWzSgp6CWzSxHyXTLZU9BLaxoKegls0oKfuXGaUFPQS2aUFPHUCr/5noFRf40qegls0oKegls0oKegls0oKegls0oKegls0oKegls0oKegls0oKegls0oKegls0oKegls0oKegls0oKegls0oKegls0oKegls0oKegls0oKegls0oKegls0oKegls0oKegls0oKegls0oKegls0oKegls0oKegls0oKegls0oKegls0oKegls0oKegls0oKegls0oKegls0oKegls0oKegls0oKegls0oKegls0oKegls0oKegls0oKegls0oKegls0oKegls0oKegls0oKegls0oKegls0oKegls0oKegls0oKegls0oKegls0oKegls0oKegls0oKegls0oKegls0oKegls0oKegls0oKegls0oKegls0oKegls0oKegls0oKegls0oKegls0oKegls0oKegls0oKegls0oKegls0oKegls0oKegls0oKegls0oKegls0oKegls0oKegls0oKegls0oKegls0oKegls0oKegls0oKegls0oKegls0oKegls0oKegls0oKegls0oKegls0oKegls0oKegls0oKegls0oKegls0oKegls0oKegls0oKegls0oKegls0oKegls0oKegls0oKegls0oKegls0oKegls0oKegls0oKegls0oKegls0oKegls0oKegls0oKegls0oKegls0oKegls0oKegls0oKegls0oKegls0oKegls0oKegls0oKegls0oKegls0oKegls0oKegls0oKegls0oKegls0oKegls0oKegls0oKegls0oKegls0oKegls0oKegls0oKegls0oKegls0oKegls0oKegls0oKegls0oKegls0oKegls0oKegls0oKegls0oKegls0oKegls0oKegls0oKegls0oKegls0oKegls0oKegls0oKegls0oKegls0oKegls0oKegls0oKegls0oKegls0oKegls0oKegls0oKegls0oKegls0oKegls0oKegls0oKegls0oKegls0oKegls0oKegls0oKegls0oKegls0oKegls0oKegls0oKegls0oKegls0oKegls0oKegls0oKegls0oKegls0oKegls0oKegls0oKegls0oKegls0oKegls0oKegls0oKegls0oKegls0oKegls0oKegls0oKegls0oKegls0oKegls0oKegls0oKegls0oKegls0oKegls0oKegls0oKegls0oKegls0oKegls0oKegls0oKegls0oKegls0oKegls0oKegls0oKegls0oKegls0oKegls0oKegls0oKegls0oKeKAAD+/+/QAAAAAAAAAAAAAAAAAAAAAAAAAAAAAAAAAAAAAAAAAAAAAAAAAAAAAAAAAAAAAAAAAAAAAAAAAAAAAAAAAAAAAAAAAAAAAAAAAAAAAAAAAAAAAAF/ciV+Oys9WoZ+SnSm36iTLy5K6rxsgp4c/scQaj9DiYPeioi2GPFetbewVQg263N7yI7bNvNvNnOgQUiHa/nZQhnJpq/aaY82nBn83la5kdsGh82KnMBbDI+bzMcDvysiBplkMAtdeGZKmuxdObLMQS5ttg0xiBTT5D+OVqseyqwm5c+gCHj+tDwWi3bPVjHe/B45UaZqS/xmo+8VQTyKzzKfSBd47rF/xoIBvIGTKRk3SVdWODQK0JuCKI8cQMj31AxD+HUPtqW72U5jJaySYea9ykYVXEMlNpT1etbWU3zpfu5M2+1YLjAQWddn0PwO9Jl2fVEwAzRjchCnNxBm7z+W7b4DNG4/EX3VVwxUeZVgJCz6tcCnVI7RTtWXqzs1GordGfEJ7iEwVQpCvZtb3N/gAe6tEapSvcQwgRAMTil62lgduEFv+LlBDAuUvthWaQCXfXA9iI7MAQxlCv40Sska48n3r3OQhV6xiv05XgjoJV84DZh0gSnFk6JHZnmX7cnJhXZl+lKQyuevSfgNdXFVYczX5Nsyf9xph/rYlW3lzECx8sQ1RpyT6DDK7pDZYuP9v1WpSNj8x94/Jjr940f88PrWhgKnsu48CAeY1KZ9LcK0iK8StjiMFIIOocJpMBBpO/RW2SdjwEZ8vPlU5PRR/A3wMSu7fUVecfwV73H0fPfP6LA/+cNzPJf6CgYZWfPmh1iVuokAWj8NRAAdkTT/uF9FnwqPScGbb7rMnDyftAYxEaPA3v8MAOUDrZMjcP8RtGB2sVaRLCLqdUNK6nN/nFi0Xh2LYewufa7YGlS12Zb0LdR3oBPbeCjV4SPeCH5FUrjyHUe6Q0nsliFITJq9i/brg0n44g1YS7i09WupV+9rdrY491QTWPS9Pf/3jXo+V3Vv/Bcdtl6V6tPAAECKIuSI96vT1TwH+G0V4n3NCPXyedO0BPT/cxlhQUuKVGy5J5mrTGw4svLPMlAbGucmpLIl9mLwhMB0ZRp+XxAUL7cTNjUuPlm2cbYlQ6B/UfCojFW7Ojcz6B+eNMht40JWuzLyI9lWFZc75bqM9zKmuFcRcqEZmFqbCwn8yFUh4mtegcNpDvu57fEC+MRvF21ALwR+sYaqIXltH63613XbBnV0zfJn1nDIGJjfEb+rHKewEohtccpHFdzXOawTtF4dKsqzhbj4BuMpWSz24gfhiCpqhmt3sn4rIVvKbbXhpXW2MVPxqkjiyCtmrf37l/vISD2rcECZWWHKF9dkNs57nYphKJWAOZKMG/hvEFBc2A7sm2cx1kCU6KnhA4b1a8Ds3tEpUuiYIBFcbYY/ZvdzDzxffWhUyMta16ugfB/ULk3EGhjz4XDBjKl2tIOAG00hn6/KA5QJ4hYU/9XhL8qNN9v2YN+t9MXRPHvM0AQjWTm9wckz4ZS+Ah8DGpxr9+BcKREj5BHi/jnwsVAbkYiSpm5znAqbVzv6ZzJAU0M/cwc8AE67JclQdn5X0+Nmvd25L+GhCxBgLPP8AuvVUGsHfvQdq7Wt0u8syhOnWhkVr3QAcsVCkeJQLDjbfn6eYyNijb3TyMRJkyLfsNZPc6KmEP2pURBuiAWf8FGsmwZhaJkoPdGBqsWL8faFaZbDT5A+1My+SXXUfOjeT7TpCulFjP0ysTzxzVo5QJRfcp2I0IJiO13KvCUHDc152ItxkJHsDCcnucBnV7TkMp8EA6mE9/8Smx9Qrou6Y8iGdlhamykas3XGa3/BeQ7nmZ3GaafqG1K1cJbNsQHo+nRMg4ED3FzVSe5sskQRXD74a3D2b3BYOHjn8eW9l0KMO9VJmbPNKdcVLRO7X36JDLz86YrlXwtcIBBrBU/sabcyg8APo1BSZOp5doujb82Hs2Lr66J34YNGFubYd4H49Z4Ur7kVoRam4nTeBYt6imrwGlcfLgr/A0vJV0b4+Lesn4oeloHr8x6M2AY52mRgIINc3UeqJ4npqsxXzz3u7XBuSTZV2XbKTVaKMRg1fjtxBgHuXmT2GIG+DiZ+UorshocQqvfPQto9/iRbAkhUvnLNU59Xami4pq0CaxCMe++wMtuVUzQ5rdOWWpDAW//gPSoji3yCm3e7k2rDs66Jw3SfzNygnDZsdF8Xh+J4To0S7xSoFXFNO33S7pSrKCiRknz8fVXufKAvyNfz2iovNhgpDToqzfdw9lv2wYQS3OxTGf30c8xEr4ExfWPi0o6Xgel1IM8F7wz2tcAKSfIWuZoV0KFCfdYFhJFI/AGmMPW6RbeILKb97oVtTmvLjsQvIOqSM1epkBzaiKIMdDHtz2tmpXMSUkzTDG54xR3Uic0OP6GuVl0M1pHfNkcIe9rBypS8B6xZ3hhs3L4OryNdVB0TiA5xjrm5MX7ZHPIYrsSUwi2XWfsBzGBCehLBkbBassnKsIuG/hJGxhB/DHPGt5FBs2IjAG0706OVhGOY86CZSz6uRzqCcj7dhgT2/nHspGbMXJGiHQGjrjUm9v/qOwtMzhWcR3Yxp2MerqT5XZIRkqJDfEfNgYzKY7HuK4ILicM+aIQaShbOc9Z5wAADq4JI5y+TZer7g8xUXpcOfzG8fcAn4/UeG7CNuKh+clt67SlyelUedh9rxCJU7wM5lMsFHiwwipJuhOG1uGdjE7cYYy1Nr48DUlfKNTEoRk24EBERUzL5+P6iWe9Frn5D2jo2mcJIDg+xs9CtX3CD4fXo+nTJ3BAM5qHEdfUMqfjqLx1ECQmsEAZIrBIoyBrI2m5IsodAEI2jh+NrREOYLnzyqkHWcSlI+Zr+DQBNtOTk/Zlhaep/ofg/f7JVO1wbiuCwWLP0SwI9/mOhfYgAfSMCs3F1qLK+jnRqDkOof4ZGLgPZdDBzN8cu20mT8rEx/sM0Tn1K518qfsb7DfToxNMz5WZTa7jlFhISyqLNdymh9RTc9/3al9S3jsQeaMIBnP5myGV8rQzW05kevQdinSmSPFp9q3FNzncHxkJ09mMYin2m0XkSPClc38dLMMXIAUmfsG/SVYeOZMY7dl0Peo43neteNP7HI2w+eR+MLxUM7aJ1Y7X4DzW2aI6LWH9VfmLiRSdyPRZzFV3pq9iwzKuJaTjUfMZBbwSuAB2GJcFtia48GOb4wGT6FKN7Teg0dNvyjm+mYrty14MdtjRwQV7MJFWx2FKNA5XnvwzZq3cuAZQaNOosILAgC53Nr6OaBbVHVmuNfv7SnIHOhQQJLc5V9PohaiXm+vlcBJVTbSyjRZKvGSNwNMCFq2m0EJbfg0Wb6Kjha1+eQX5Kjfi3IoqJqBR/Y7WvYx+ClolOEwumCeAgvQFb+pIgj5LJHNZVzi+Yl2a12VRbMIcIkPv+oSFgBtZuJNo6p0eLZuTNu9iCacNoOEZ1Zl287l/9dHbZGzhY3W+u4QhB9/tG7xLDekV6DdLrn4dTSzrqRM0z7TXAOgCF6/1NwNXYYsFCP05GY5d/CqQJEOvJ6ULTh0e3LqS1kMQbBGQkPBK8qtyjrPqg5wWg1BaY3iQ1xBCVgQEAYxntNAa2uMFRO1V87rHSD6Sq3tnhjknCzb3WstFMsYHHEs0XQ4RYe7HZE6W/9e+yBEw0vVIzVqTVvByPpeGtEBKA8RvQpzcn9CrVV4betufpbZNcWQRqO9lid7MD+wHgBXgFgRmWkA8uxi7p6FecxosHRCPUCpf3bOwxpuw3Zvig/zaExY+3Oy0aUVLSixYWNEkslGV0Qmo0yfOzviUopLRp6nBcFKdrhrEoq6vLhWlHgJnXv0iiKBh0RzzxuqkfcRLfpz/Jv5omaWRuTvVN4aWV7C6ELYVpugdotIblEm0FaZLoUyYuRsmR9EQ5Cptvf4lriYD2vNKRYfg4JqmCwR9Wtvwt/Kgwvw8o38n5lojwvns6Tl7i8Lrup1ea/wjKTEIhYerNUDzs+Xagojq4J78weR+z0g/Bxe60uI94eCs02/+9fykUVuLpMEsF9ahwNnii4m5Wub9YPcKXwJBK9whTP8/+ijPMEQ3y0soDZjlrAwRTZCXKWjlg0InR5h7hR/8vbltSgQRR8LVNbV6aB8stx0Qj8kENkm4O374ZoU+yEnqiLSL7axc+gixzUhoS2zWgWy6cTNwwr3EpEJ1pbOUVEeQNe+V7LSHtrS5dAOjCquhhDlhCpFIHfpT8reTctXTN0cHB+Dcvif4+/81RhHvmYtEWLfV+GDS13gDPPHlBjKQWaLwcDYh9eCUKhEGsLR8F7sWAyLcKSEQIe2n4IvDmNhfA2ZmncOlZTLd341VdDSxX2hXFIuhZOVNI+PvRZ1ryXgXo3/YBXmuX2fy+gXwiv1EUCntxSYu1JMTfTKY7RLJKxj8jVn/ypVXLpv2REZvOxd/F633SwXoc6VbviJlAeLmWKiwaiZWY7aJggYwZob5719QZDeowAzFB0JtrD71DfhJy9vwUu8LDj8V2g5KSExZXbhW8cH5C/+7gyTuSh0REQ7lCcc0AcCIORPIfhYjj8yDEibrye4+ldD1Zl2ZK7tM6Is/ogJ5MFkTM+8cbUXi/iafigDW9odMOqWXYurXQaWSif+c+KZus92CqcXDaYSpTh7THKOo+C0W0Dq0YNWfIzsEI4QTXiCP54gMl+328z9qgY482ttBMjJkFwmW0tKpSZlvlWiggB1MxcUA57vE7jSl1CRGdUQVGhVKBZhxigmQ4DrsX8B40XbEpYAFdEhNHg2A8icVr8ciDNxHl3g1bZI4L3Mx11HAgMeYCVvxL+rMQxXX5TdEYprBe5/uC2qHwQRUr4v2R2CNMc7LeOTcK3N5iEDepah0gOJp4nZAwiM4W+9lI9h4c1fF9evhfrn3z7ULHxSZ8243mH5o4enGExE3olw3MUPzgwlk+2rWgrqr8VBZRDOVJtedFnsqWAWc2yXjFd+jy3E/G7n3ZySaWF/N3yI10w7rE3EWAxIjUw7jdSZon8Gv3xQJjgkk2kINLF5pFM+hajS6UDlhon5ji08j6KjCKsnq73vrwtDthQ+FRGowI+fh2mTb3icImAPhrkrPt0RerL2gCTvRQ/sqB1KB/XJ+dyPAqy6Wig8E0rzk2+UokzS6LRrtMgckH42jrAHAJ2LRqQ4XHwFu6qRLOYIRaAx6IOj6NezMkZwp++I3zGX2XOXR84Zk6xOKr4NJmI7ZWUE9XVFnaVqjfgpT3oC4nQl5sXNr1HT+EVK2BjAZxIfel5RX39XOoT0+sfh1EDoZfpan7t3I8Myw8UUpcwyWkIbDMIDw+RNuZWF28kwcPRRGA3LWlImEZUDWathwNus2jihmJToomt/iPCOONmCYalkPsAlNOqvrzDXxs5swQ5OJyfPTfGndjGCasWDiQ7mnD1x+flychgCUiBYZ47A0ebXGsrj16UOOsVsQ5RTl5Ln7eKVbUdMQRbjSyOgpzTVmuVQdORDz+5KTTRd/0XoJtLtrlhrC19QQO1tHX0cgSEm4yGcJ008L9KKPawP92EIsZODknodu0DVEjJdaIRF2viNjH1F8eQ4gKuvBKpmNZ/3m5yGQbzikDc93+O4BmiLAJuqaNCUm9xno47yaqbR+4S9hb2bsq+TFzr8kcGezryLubSXhNDyUPRkegVjvVpFsdpCjTHKSqg2L0LLn1I6MSZm2PyJegwUv/Dc/S+Cbyd54qfONeqNNQcV7Um2g2nWpMERaBqNoE0VxtiOUZK8Tmm4LA2s1itWjmKMxm0O4GUZHLiJAuQAJO2rNMLEMXb1UWp0lqlnwVzJDwrK3pu4BLvChywSC+l+tUX7mAM/EDeaFEtrCXDJ7rUxobeHEYnflRNkC8fSR5hmCPcn4FbAauMZTcz8XQ8KwfLZI1Cw/zyukOtt67dS+a79PcmjVyokQedkSwDH37MNqqGu/W900ITQ6lfMLR2TVgr8O4Y3N5wv5JDMKpB9C5BtMBBh3+bSPd3pdwBhwGWhaPOKaotmAVG+Cdo69nbgU1ajujyzBBgAAAYoGSHAemk8q1J4mkitGplpvaiX/oj3s/+rsgvMJyL9zroJyeAZqSZgqZWzPQau4UzL4ByudsVFZUgBNahynOFyc/LoXtUn+04tEolJhwUxCdj+8FkBV9eTE46aL5oLRfyRnJ1JCBvCrSAxS/V1KejeLfJIYfYOX5Nptv7shvkwsJBDH3lZXnHvINJ2h7LKYy5M1MGEdEY9yQ1bTTGEVTSmhV53/B/mvZ8T18pv9F19hhioUdeBNQf965Pn3p4u2zB2lneqjIBaRolbwCNj4RRiBCoPhpGZPV9ud96P9SnRUdanQwfVwovH2JgiUn4lm2b89ln3u0lijuvxZqg0VvW+t/dRy+y0bagcaTEJlUg1yKbByEMabH1+3V4+OA2HMxeYBDRTwHJ1eYhyIJsbjU0o3Jx28ixVamV2lA9RPw0L0xZqDH+4f93cbXNJk/Y3j9S9PR+DEC26fEzuFjG3LW+DSb7sW5z32hlHsuWd4d4UrQRIP2xWz2pSDg9S2MFtKcrT0cujUNObuknPVKRKXq1B/Ix7vcljRjtE2FcRMzGxJV0Sg3co/Pa7KCbBFFkjnbeZdkL3QowzKkV+9hAwtTjIvPWsXH25p0pD0W5xjs3fxMLArH4ylcnXJxmyvY7MFkNaEKZCnbHfNhvykx8CkC9uNBVTC2zy/7O+D7KxzEJSfvYaRXq6iDC3g7YMc+B/dNkN3r0qk8E/RiqWpqz3z61E9MNAdWz+d0inVKdJP4hAfolNJnjuIEiDq84VeVIKhFfMnzwtLUV87kUczE06WXmY12GvTzF7OwvsBnzR0UHe76aZnYWgYbfc3Qb/3rLNuqJBaxB51JX7ZxUk6XtV6znEWkKUALXY567VBBSbFtGySlmX2GJqDITVjtHQX6MQ1rxBu27gsFXqocg2BymI+0mW5iP/KqaauR9NNXkJuvoTwMd1EFa2MbWeXYVsXOlg5sJY2K8n/uDV1MHZwyT0lwwjJ1gU4fmqCT/k0TSaNGKamm4jXISX0MKq0xvDX1g+QLo/6EIDKUlSctIEgFVEfP7M9d9j1ES+AdYTy07nL/54zQYm10kCIbyBmsUF0EpZKvbl1nlMn4J6lslV/H0xKTpLV/8UycUP6wta4lY47Ngi//ALActLptQLwOxnWjiECTVHsqxz1ZNs2IgjjtRGP6iAUBtSvfFl7sGVQGO+AaeBX/iK21GoIA7+Y5xs2CRcvSHU5kWYf7BJRoM8JsGDqOzNkIxQ1tfK29RW83PDN37wR1oH9DXzDE4rZYbt0eTK6CmehKvuVCDFc9MbpGVoow6m34NffoOuN+RGMfhyjMCSkHQT9Ru9DkppxJOr84CgnWNLqXjHo9gEG4vV5mL1FdtCxsJfcCcgVEwcydZwugP1+956szBhDaSkGP3ECWeHFpH4xq9/EHy9YUGZp8rO36g0Qj2mpvmNEVjG0efz0tMgY7ZNtIg3dpzTxPgZm1UWphaq8TGIuxiJn6JY9AujoSYvhvt0QQ2zbGJUaVmzuqTyYAf6J82gPbRBFlqYtvLuhcV3yxbUde0PpNteWgdI5D09ojfsUPtFaCBo3YdW6H9XouCq0/HUBkiU+zK2RRU8YjaXQKjsy64QqBv9JQ4xK9EYI5Mcw+1p9o6Xyy49w+iQ+VcajrMEjbccLgunCXxeWpQ7ht7Qfiqn8KDuDTfe03UP5ITSFtOvhj+tzYEPnRxaWEMxnRTf9SvP321XG1Tvo/PQM89EP/mdTsAxGr8TueIkUCuPbaBkbUI0epKS2in79Z6IiECwe2pRAoXmfzJ2zrHL3ZpbLBbioJLnA2MjLyKmmDMdOLI6iaBZf3dcRkaJa2WQekPnLhtX3glWm2v5KDvrdQdPwyq+U/NxTe1iQVEuEHDxU6Uo8t3XqmUqmakir0pTEIF8RQ1Qbt0aKfWxcRY4G+sryPpdvBSEYQDARZfYjLEZQj50ucF1jQ5zQRekexwtNGEo3ha3OgKAPu0DrIWlXpFODfdX30uIni55cW54H9M+h9PwuLXMVX5cLc9x4XQOsy2s/W35cpt3ZGuUQNvBIt/4hv2ayN6o9bw0uIFGvk2kcRaeAZ4qsnSOeHDW+Q2ZrfajiyhFh7NwNkpxYTZO9ESaaVrNPPYbQlTRGAsQYM9PpV5KLvYnRjYaKltddVcBBjGnZR8nmnVWcpFfJG36RuHZGs6E72NfW1sWHPuuXOWtnVdZI/c35xN6ppcHRhLSZ+BqEylNRmyIIxPqB63HkHc0d7al8okWReomAFiwKsoY4rvpvVqfqcVEAJ1iTYXdxCfAIA07nVlIbPia/hf+5MPPqG5ZHVi7V5vc9F/vbrbFWPizLrHE4xIJAqYsyYh1/NYwwW+VS5+uXY2yrqxcHdO024vGCPT5j9axXPLzbeBVdgzUQoRjpGOKc22C2l6/eKUDZ94d2dDGqIVgCht32RiaX2Mveli8STb9PzVD3SMu5ihohcq6p4rDbB3dWXGtVj+g32yKC2lwc1/c0DKAnSuhfr9IHd24AdNXbTrIu3foo3oRA2wzHd0tyc18XsdbTYMjrMWr0W5TUfZ9IiSLfQ8lP4SvZ8i98r/p47I5skfp1mjq333dDMQ1TUhlUECP2vLbjLDeFlvRwSFM8ve322MGL05UUQgolIyPKvra7wmGEXfYT+M2AkE29uuhTBhXJnsKhUK01BuqHJujG6mDRrYptK6K1tfiePSIvhJ6exfxxPEy3nbwS/VrZk9wHU4EihliLnzJFfKhQlqQnwzpwH0nV/x/wK/THaOh5or85eovJAtwrwcTInwE8Lw4TLP+3v8x6iWziiHe4cSVf87L+FMu86BNUGJArdlk7JlCiiAKOwoeW2Xzf4jyZhVDDlBtrPY5/P2dYwWpaG8FqpYnUntYp5FvuH2p7YP3i/tg0X6Lyz76ka2ilNJkjGn5Ll5LiAvJjTggAdsGJBneYRK58xlQDBRYd5s8Id4oJaHGBgWtd+DYNU5Y9+jWcupdphlhll5nN5rw12PQbBJms0y2/HcNTI5Sdi7aMYqW21eujxbYJbyeOTTGQNzOdR06V2GBKgHnXPBaDs3WJUkNoDQh7TehfUcouavpSLJZS/dkoP/3+BUMwiNjnrhUdvkpZTZMjqHl3VuzV8RnbDRcnSqpJX+lIGRPbWixjhCC5VBmr2Wog/As/2tLVT5+0IkIt4uMvovXq3VoaCDnUue48HWtyhEquYAAA1tWelggdReC3bb7lCCZCJRZkqj+njKGmKA09YpFtQZOvEmkVGL1WlKIiVKg1+n9XzA39CydzbpZkok+eVDj4vPeEWesjq40MLPzyoYo76DbhNUcSjVM+QaaNSh22wsJwbUjKLmKuCcX9L+NKF0d5xJWOJjrc9pBIdA7lOaOffmyti1QBRgSUrjIGfQwokPCrs14eESkRUFDooWfBp2zLxmOT/D8B/mZeUdo98aRiWqXwBRxAWbEXkpEInqy3+2c+mCy5Gu6hqdc4/qSqtP8i1GHRZ8JBFo37qu8rRhUuCaMG3A+gbYtEZgsqOxLc4WqcyGpY2SKvMibAjB2UuvnMC8kGjmx0nl8otl7k3cBsKZwU/AScr/BkPgavcZgFAb0Ro6gJDcCql4eJZlu9bzheCtMoQ4bBGE0t054xxWyu4arUvPD9/5K6Qql7nfK3NgufqXYtmsDhQz07lX1qweZhpHpKc5zbA2MUvxWx4eTYDwgFkj+sdaTv7WZzC0QoIH77hSYoTGYQhY/X6Q11lSHB4tpffw60+LJNPEr7ANXFG8ZvEG0LiL/bU0NAXnMfGLdwpexS9+Uhx7MxMe9DVGBpkFRZjgnY9SYyqcfqGChETAdKalxBI2pNFUPTk2X12HBNFk/ueciOe1jUqH1gH1dA6c3moDFkzDrmu0iToReZrgP/N3349W93QMi1+dRvSiGjeQ+llbIcE3LGxFMvD7L024Qd7PFv3eXn0ARTBeB4bPwz6XYYuOjO6rd0Uq6pKUoetX9BVBUYd0cHPeIVk4DyAEhwEGQYu2WNxQjBVSdwMcq0kHdRU6b0/lPEVW+a6Mbqzpw3K//uSxtln7ZpKPICm4kYi9pLyDgTZhK0DaCdrvkEhHxdrNFXy5WJo//o1fpTbHgFNBmiERo8mp2csMfXQ1zIwk6+O7xMpmA5WMIQ2SnR3oRu+FNktmCi+EucDQUiAXHOblVskCSRVoNLo2/mhWJeopFoDNtAHhvR8jLSWzJch42btxuJD4YJHtZdzBU0jkNG1DNWMpDmRGt8fBIR9UAxrVr8nZJ73ox+gxv5mUcfNQ+svCG6F2pF6Fgb9mpQwGwjQw7LJOzyfLFsQV0ok6iu/H2dV6BK+nVz3m8/elLoWBU4PRuOcS58HTqUzFb7n9/lIMdHA7MCQokU2wn/c286oXAGd2nWKfeHoKvxswiUCde4X/DiZPEass2Mce4P9B6wp4YS50p+B+5C6Eanwayc2P+mwGiAQKWw6WP74hCmBrrDT9zypTzvhb7iY3wrqgddwvke0QR8DkKlToDLnfB4isBZ8D6J+uWOYlgBvIy4jWy2h03i5+ySuvkKIsrodtRzEUqd9W/hsLw4ZN9OCydOC7CSuQ6xCxudcg+j8fYKrY0s3r/HBNFAfUpt/3l1Svqx/DxlC108jFFUPGJSQrI9ChCehgtHuP0D9aa79t9xkPKU4daaS2nt3fTm51TMGhioWrJv3DoaczXISgglhD+NOWNVDSzxpRUd8mJrqfhvyM2na9GbqCRvrlYefCD0k22pjrm/YJSU3bC+ZhATq2Vy2o+u46uF/yE3dopwK4bTJW6m6Tk2izz5pao6orJuwHdQ378SyohmM0XXrPDBJiFNrh9th5iBfBsw4tWJy2s2t2IC4rrxxHrddMpb0706ntMTtiR+EhnBzZFtASSV+d4/LMYHMF0m4YpTUihA/3rNJydEW9en5yUOGrile/wwN8JMSeW8wy6/CeIgfdkYDTkFzkuX0Cw+mEtasglyLFbanwYw9WrWtFUACRYDhssK9vfQnfuAiFmdykA1F05mf0SCnEzLnd+01vyrWXUZK6iXQMuHftf0C0azVsWHBeRHcKythfsFC0tKpod5iKTbbcylcZtyQIqai29irqVqEVaBtk1zCgMmWriwbUDS57LDc9tbUBqYARdtFdprSAFUWbs2mGO5JLIka52FPhSLE6ybPA6VjRiQcSp9tjmTptB6s81cVCZUhzCvdsnM22VdAsVqvbB2TMmpWURRby8p9IPq+762VzGRC5tQ5z05fInBiSEiBAA4OJdtpmVlNSQEkjSSa44Owh4J3OOT+3hGDbHcrc2net7DqkZUDOhFqtkUwrGgFvJzEpglgFl3DIIkEmW29p17Nhr0fQ0/FAIzZM5bNng0PgiyBYOoMKxXHbm0Z4eHiRZtwjMBhrfYLKRMcd6wpV7EJdglUkY42XpVsQDWXyhnOTvqgoAA/+aCDW8vaKbwpL58pozJsNmlWdRkJVOiqKvsEZgzlFGTu6SQJvNqcyWw/nvu+7c3991M5AsuqNkn5eqfSqznOxB2A0kQW7p2pp2vu/ijdsQ29D7H2airV0TKRXFyYROGqmxolXISHhqyf7FKETtPXRMCbGNkdwAhMaC3GgtOGxo3dwMWt/5HY+pTyP7Um/UDUqzttPh4FjX2VgaQrNQVN5D0the0IVuTOTMsOb//zF0eGuOiIqjaPX1TmWPhqKS/U9ka4d5W8LPgOACVRt0mtnVi/MwNYqtlSFtKxMbDlyGTP7YL1xXYasGbtXaZm1tt/FqmDgRbDmmqesLnVGkAA4SW4StykdCoF3KxDgoGV245GvsZEDyjEX8iRMU304WxP13znjOuJgpdNBep+inLcE7sf3TXsLKk3JisNSxtgm0inu1ISHUCz+rgh2xfnVEnEGhg+K55DFhbGnHukQdlDldsisTJRaLCBTRGQDoo6OQ4GcePl4rQohBTR4BwSYwYnaE1qsufaI87ozvBWgwcoUtCycyCV0S6aN8rfGAAnC2yWtiQU8CjC7SHQ85Hb6auFwhrPyOx47ffeslXtfryYr0PGmxG7N7Ah5aZHDPS8jFjTawQubwiIXgll4eVU8XchYwqbQ+d3nQszRdj582pS/5sf5b2Z8J/2wBo0R7rUKmkVpqzX+ZgrVX0USv0IYceOEZahHnt6OPWWhfjZOpQVPgub9ViGnRPeCpa7cvWs4iE2b2/DIfPlLdOnpU2sGOmaAsJQwTeZD4rW7HOi5Gf/FBL8eOjsFS6BiJK4huqcWN1mAiZj33invqqEmnMQl7PNPWY7ubUJ4NqLX88jGbhjjeqX4bJzsAp65NKBeMb1vZFpr9eAUB41jOkkc9poULlcz8xJLaHjSmQ1CuzViQHOeq7Q4AtNL2dhR4jPR+I+9D3RWr6Oy/0ROPVzmsdj5ZMjdV2gAAAFG7V2+DqOrISnrbWVEnwWZyLnXpDLz+VpTKPdXSY58cZoc8pFjH5MmAOp1wlccjvclw68ZsMIUEpWKkczUqW0BYQAFF9fRAjNeOB/Mg9wgzZg64VLeWrdfhp3+Hvmfu44sDP+zBaRwSDU+oCWW/eRzqRpZXPLyBDibJxYNrdwVmDwUS7348bFeBWon0522nXr9rXKtO/VhpLXrW4eXdCQWEM91ny7yXHdCMGzyx4bkMwf6cW/oUgKaKtXOq2ntT7Gy4pijO8kj7s0/rfP1ag1L5gVgoDgL2B9/vdl4kz0+EOMKuI5odGakE5Q4EfEMV2HPLq2J5v7bz1DiiMZxlpL4HYthzQ2hg6jiByBptlELeRpioY/uyV2rz81KkaBopNkGA1kqeUx+l8Il/ncEM0tqVfhQ6NMuc4MnLYZxG7Q4j+5QQImOk8T4mVM6MKIWf7nuYt26wyBtAnwqBhHZURZtFCa9+8FrT2rjnmp/a1Py0vp8geoijoUgQVuFr37thM054RuFN6AdKV5DYm2SJrqkUkHsitcRlrr2erWWHoypVoiq4XdIxPqt1wuh218fLbjxrFlvrkYHpKIoNVXR4xgAJH0M4OYRaKe72V13hJAj7++FC16WLMcrn7DVL7LuAJz86/qPQw28+7GBLIoFlilE1w15UcTw+tXZePkjc5nsj+rCAT62i73fbJJy3dmRs/9AEtMRYrtWNj8OaWpPoYp4vZ6i2vKK8pW8+iwq/hwvLj06lLENwsAV/XErUfcJzShL/UKZAcRucl3tv/McoxAyvm95RZ8L/a+ZzuNrNTZtVhB4mdxOWFHXqkgKLcHheGkkR8NMK025tAwgl/tf2m6kEauevM/KKgkXvuwr66UWD9iUTRCTWHZh/LWkKpeeIt2IEo5NO1LtDisPuMk2gLLkyz4gzpCLnzm2HvkaUQuV5HCbvlN+HQOZxuGiZK7P0eOk8I2VkVIRPsbrkkbIGtVWxiPnsUE21dRYzV2hyIK76fZn3McwPIegvWCe1wYdCkh70eUW3mQDvXCETdiOYWnTMg4ZzVb3LP3C2vUA+uUHNSJUTuTxizMF1q4JJCWNIkmvepJ6Ydglh9qnZbu03P30PWGriIIZvEtwUe8qEat+TKej6qbECF/xfrnIJexP2yy33VP+qE+9ZoXd3U6G8YV0tzBUTivhU3DX2ZRlk/D7YTkDGrr8CFkqHaIHcUcBDqSiOJtW1rFSFOOCln9SDKrHB7Pt64NvTAXM/aRFub2kOSxSVsnO7eNfM+kUNaYcU8rWOUNUcmqnLetmeEeMD+jI9ufBbrz3wS+osJjlNvpkiGLq7vPxLUILZfi9R/1aafLyxlyERbvGpSX7xF+jF2B68MZLyiS/IKu22EbNCe/b29HZgOFsZ48gT2UclgzyJgGpCJca+CB2skXwrJQDsn7mqFIUTypgkob/pzOnkARZ3uN7XqEArG6Z4F5uqLAQTzog5HrwdHZ34b4iL6MxVE9V3wG89pUxdaEZa4JSyQpHZ0azt3866RB6NHltB8Uxav4RvA5VZrvLk01cGh/qb97UZuO9Gi1pO/GSSj3K1HPfVC3V2ccAQES/U+lbaMjAGAAyCutlGZaIzKNh672RUDeuMaAv8VN+P2A4cYWbHgHWlRg9aE/7iy4H2sHiGaH5LEcntbNxEWWkqlP9vNJOROBpDGFOqUMf8Q1BhCpYLQ178o3bVI5PgamwcMtQukhxFA/L3yOzujG+q17axKXJA+fKBMT0CbR6izYzUA5XBTHixyutcODLbqMRjtZWMWGv6bpLAcauZf9rwKHuwvGq6RJkK/19wugM7t3BTnyvh6dNMVCfdqgQyCqo/n24wfzpaknimbF/5T/LeIvno2oQLMj+tPeIsWmFM4sBzj0kQ94um68/dvUglimWRvoKlg0pV4sr94wL1AJvyOOHMzB3cpuaXWmuRH9scXG23xiw7kqi13cFw4rryN0e/nke9B1euRAtAX1XbwOe8eOmkBwLGtgfw1nGKi5s2KKaJZtqVy6e1LWnjpVLxUZyeN9N7IpqGF4Z2l1k2Ha/Xnz4ksl7hMidjJnxm/tmuhgzdAndOMl9Rs9NKCndmkak0ElsL1vkQg5iGVMVupHyu0XhFhJ8cUSY60MhyLmA9cFoCFGX8EBaZ+7DUSCUwiETub/hTXs9OCA5+sxJCfC47ptVNQXtMEysSxaWo7Av0ozhExxrzt2Oj/iGz2ogh9iu5UUbqZQGg6ATyHa6xgIkTPui2lID8gWrR1obHRJYXItuHFosG9gcHtLgf0w8lw6caDncqA965HwdkoY+gnNO2EDvZU0+C9wVvbxZXHrFR4mSOiNHvGMILF7nug89J7xhudQgnNP2kSOmEfnzWcKid5+ibjyOisSPh2OwdjNUEkCpuWfIDm4UadXtoUQMgsHRhxoI63ue47wtuIRtkd9m2SpmdrgQK7wGrs7uqcu5T/Cw4qkfyBXTeYzbYMRK1QVQUt+Gk0L8uQytZxZ+V0sQ5Z/4p6pYOyVK6HLzWpXcv+ZAlEJ9ABdsTZnNsLQnBZr6scs169t1ZnRuhbCbueDxYkfETFKqJnj2IxdNNaqQ9g+QNu9kM/N4EZcNjRz9Y5qF+xhZ48Dtg1w5RqjU8AmWuFonqxadhohQErk6DNoc/hb3YPWvMx56J5QLeERrT4hp+SCbUgWHVEDyPj3UyxM7Piq4ZC2Ulxxj2TIfEuOiky/TQdNrtN26leFGb637aIvoKjc0ewfFCWUHRxykL2hkB2vPmGzYZMbktATwZ2Ff5ryugjAqhnTfqAaRI8v5XeOK7t+MGah+/CUljp/dN0s8A3OMq84Pm4z3W3okDgKetuLC7gXhAbKdAN+Tbvj8oFgvIESiNfvEzCHD3O8gnVBgLrvtpH5MpROKbRaYqOCYJNJF4AUsHSiMnbeQETCoL+Se7wtommesBeOuDY2TDU2Hmk0TgbGPJaXafokxHPh0xkilEYmSbyCQR9CQ5+RMHEPIZYYOtMFCukUHGlGLRx+JzAoNnb2lJGspPtvdpdh5hgmhCF9/B2zlV4ySprTiHwxwnut8jH+6/oy0KwMsZBg6szj2w/ZIMt1WUTGgQ5nYGhzeWEpFsfbcZgh+oy3nK84Dzcshc4bWC+9P77MbNbtfT4LKJGpv39EAzHxzjeJctd6L5APFxVhImUSR7W7iAEL9MW2E/KUGhsMwbafmgsT9HqOvr9/sMvgFKpOeRU1GY0mLTdZ1uHa2E7aOZqE5aL65zr5KpOYDr54kS7R+5ByCfXgr93x1Np+w03XhOuAKWx0b6Y2HldSydKX91ZDHPX/McUHJ6Y032ySUPriZxwaEjBABnYtUeN2c1QzkBOmgSe2e1YLCtWEFNOg5MREKHoADU/T5KyoTp22HnxpbbdpfdBwNX+BChj2KGE/rNjODcsgiERK4fuLEEb/YPGQ9wjtt3/Zux/8KTmbVJI7hNVzigWVl6SzPOO1honvxCSfeM1EMt7p+2GZ/b2pQpgx2H62wg3cz7C16GXEPbS6tcY6E9HjARnRdRG+kdzb80VvWvIHUYgkiTn872FGLGi5xLk0yhgHRP2pvYYa7DQtV9iqVjisc2w/GDAT+4VNHrbZ7E1mnPSW4WNXlfWBZXR+T3jt1N+ZH/FTa+6yhjGZ6MFgUTaKmqNkgtvP78lzG/blWvoinFWxf/l4GxLRPsiiCziZ2JwpQcAu4bHQrNOuRAqecttY9QZLlv4NBAa2HfYBSp8C4fRH7P7cIqMRtqDRRfZMrshg9IxKr7K+Dq0AdwIvX9g9fvXqBlGcIfPYSGP7TkUtV6pGxUb0zcBS5tPD2CyLhgWS4hQhEzFNkov2QYjjjHehm47n8BXVaxpsCgjO1MdPJH3AIMpBG1SNezjgZQGGCllc8VJtUh839hohnQZUbWeOzdT3CwaY5A5twXBAaHl7ph+Tr6IwZ24qNKtyqJyy//BXDYAAAL77MQvq0eshiFVqzXmwra9lZMPfTAzk6I+Q4pGvOY50fVS3VzlXVoDqLf5MIjLgORiRwjGYqObU36wMPiVYPgmeAR4+sRFov4y+uBs3ngWYrJgi4y4XM93Ub+XpEBOC3dCW/h9eZUlDlTIguqZK2vjj2EyqcWoGaImdOsPV5P6p2+xDu611WFnewWhBWPiih/GpiGq2xgKuv9jlykjwLo1R4AXyGNpbpFlYQhBAbdDxqYOpqSKzRaBDuUx8CrWTo4wti6xM6OJkZuyTBniJIhQMll/7NK4VhXy3fR+yUbs7dAbhRh9RsQCGXCBouZqLI8mD7j+eF+aEuj2im9/LfzaY68/4QT9jD/XURo03B19ezUQCBn4Y8KSqYA58e5Ra1MyZsmIaNgGRVoRDB3c1KgcuO6sv7o6POoUfjiM40j4dFPHdE4oyMDhftXeb4n39lViSXf0rHHQuP4eXvao8RKZh4csty73Qd135RzUdMNUulXV+VeACb1PifFAL/296/iUz4ExrjEhg4r48oPrnbbv/en/F4jt3b/f9/kRz9HMvRun9fdfbZr5Qbc6JytEbGRvr5itd4/BP26UfJUkEoGUhmca7IpIGmnVu0P904QSX7onn691NeJn99OAdIFuWbL2FRK5uGIcdBA1T5qKCaZ3rq73tbN8BrJfhdtlEJMXIdwNav4gafRfwo/iWEKpTENozlo4z3zAyG3ba/WaDjB6U+RBeNm7fVK8Trj01DwLNjU/E7zr2Nooyry8mmfwWkMAdCG/BBbo+2FxH+pgwi63UWVc++vJVUSzhaLtNGNLNUIcpZAJOvhTv1jlWBxC+OxuNB8sg0urhObR4Kwhsb/2OPFlOaT0OuKNLUqdAmzmawnejX1AOcnvO8dUoJISxWZSeYJRB8VcpOu49zlh36yu0d/uhJUKtc1xhmApfIl0n1ZPmTRFpDT4pFPtwVDeZUUYddez8XVyikqQno8Vx86y8GEeLuadNN6MNJX6rvQoXYXKl/ZM/1zxHcuN5B3iYrp7yeHsD3cKAtR/g0cJxKHUNX2N/Wb4dsNfWJQS4JtbJWsVlH6i1QZ86x3kt8gHRg2mdxohoD9UTeNkQeu38oqGhBDn9nOqh4NBVueRJW85BMG2sM1qT+MwY785uBS/op4Ia4hxu7SeIMDZbrCk49oSJLmAyLlNPEgyPkTyVjxSBgBP/Md2ZDPdsIcaobgm1Wnx/2VvdY2zHmUVZ7mRO09nPw2//Qvke6jy18RsJtOlaoDu2O0MZkmIrT5VoILi5k4MdId89N2pws2O77prsL6XmTeuqZMLkelzGJUQtl1XylbL7KtHFqYFAkGuOS+gmttn5D+bJIEM0Ya7yz03vBz1ORS9gOyYSPtEZqN9xR5vXsIic3APIbyMFvwxEtAfoQq4RsPskoo8RxPfky3A+phfdpIinhENJroq+E5d7ZL84tarC7LPKMpxxWKChAhpala5+P38K5Pz093+qPpc7qsvMX4X70xYXILwvLQOhG5bFo/XdlpmvKBsjxVBanpymVj5m3Z9W2fF9DouKjxz1MYWCsRjQ/o6I4ixSKm3mEkTp3dnInYtjSzzDh31vsfduQfozUuIEUWFVzJOc/9atn0Z2YF882CPI+icVR84ATaCD1CPcZv8XBgqSId8r/R8nbesMigmuVRMHS7OQsX1lGhD3ZQcGzQukhY2bjuOOR1tWP1Fbo2p9kR+NmpWgXV1rTS9JQVCwOPo3Ad5GpURME7YIjAxGytzltYchla8hgZ/PRtL5clZBYnTGRBis9ttPr7n68ZS67zlCxTn7MNB+Sy2jxti1J7WgbAtDvrBt0FgiKDV0vociDLy9g9MBV5YtjXHPZe3nShIUdcj5rUARdo00uNjujVzVahzubEN0sYpznIHLDw7zG8k4bUruo/mx6UZGCK7eFqurPHS3GweC5JLdM4qBPb4NZPE054lrD8mXMrUXtFohkQX+kLtcBTGPN0Uzt88ZJunGXZ8WrgOUzodtJVGvDfum01YiM0OjyzrFYznctDmH1L90MhxHw9p1lL1OTugdmKPY08Ic4DUw8fqV0gfFGBoKKCCNmqiL8UwNoBzvjioB5uIrUMYe9fbQxpegzT657H3RnZjQsV0MSsoZK+tlHClQyhIFKDr/Sl33JtZ7vitf1hyklUnlhI7u2JSlQwjpFz1dzRcOECbD024ECT80Bou1l72thdgCAViYqf5Vw3bqX0oCdvKgSq20TXzpjYCWoqbx94KnccsqUjT9HBgGQcMkHmKWL2jJ6RVrB6jCgytdFZ1eIuouC1JILHmjxEIGbhc84nDuX0s7w/1m2/8EKdqBb2OjoRfOtEYf+98Yzrmme+g386AG3G3/VNoRttVpScvq5fJ1bvtgMjchW1ORRNl+sEz/7RlCQ/roCUYQ9PuUoNYQ2dcxIWJ9XZ0eKzTLF1v9P3VtXSFpfcRE31+QHCs1qjJ1ZU4cce7XTW/FFV9reGLUPlBYRwZ6oO3b3Low/EE9RDbJtsURTDJbUy+8AJdtPGM0Us3ndZwusQ+yNShj4LEDMx7w0ogttg1u1v8LoP51awel4fRmfSqj4gEexsZpUZbWneTNhHOvC/tVEcS1dt+7zeHuVZHIZQWOntfbNdjpfC2Joe6fFiauFJM5Hf32MwWEYPLVoWKYjMHnAHUTsRpLLpkN6qOWrSI6yxGyBpM39aQTAIh7yO76ZHWOZcpnYcSS25y1fTirR0zSjCl2LZY/mg/lkwRJR0vlMR28LrXfLvUabjS19WAtZhMU4qZBrQNqtNPTtEVeFvWg5pu9mHFx6N8+n+8u7zt5Ab33Zm6CZboxU2+urOnzpnvPRmJgvrRqUsTa9J21tep7QphziMdvdVbewQ2yHGVWXUIOpKXFcJmAjbt7KCuAQLEj23bIfTGvq0SrjyuF2mjCS1jB75wECXwjgedFKNxzyU7qEbIiFTtTEGnjyyoUUQd/frQumGmLU4vXKHfeoroB6itosfqNxDhCmeJENOznQdXR0uxyk7NTXxDs/h6hEAvIsQCD+vNv/9rmdzYp44uBkFyciyaSFN0xb45gFirTQVqZ07P11ANDxN0HRkMCLaeaOcpGVV6/NttWJOPX9AmWBuxrjc//eWxSNQr1FiPi8uSp7BU4sMRu4R/mNrCBlL25In4vWSrZEv2//NcNW6xwjc0HW9hadG/O2tYA4uqLo6mRWeS0VYTLvL6GORDU5pn3wJ5CwGYV8Q2nHtT3dEcZVQJIVeK88b+bNuQ/Z0ucr76zP9eMxI0RQYwFrpUdQzqDKoFsJPVuDctTtJiSOLHKp6D4/mx+HRvcvicayZZTTXP3Jzyc7uPmVi6oHDcEkUkQffnqVnP2f5dm93aDam04IjEw5pRMmjBYnCNKoN1xf2tkGNBQFToR9Fv4oHOHhlQS2E/VR74gBBnpczTeMqWxKx7JKvSclDrynn5/YtwEyCzA0tl51qTUyI650XZl5na0mPn5NgHUYl3azgcIFIAAAE1UDv8kmdlX7mvPnq/4al/o4RAQxCTrztBDeqPRuOcCvwT83Qj1QEOMyaQCIHmK0z4ylR/9+rYP2k5qz5jwvUAKTEtNfW7A5iPC2LuAqWcrYQKs14dtPJC4pdg/vEljPkQ2sovDsfbNHOvhA42xndFfsVJf630Q7IlCl1xZZMxmX2oZ2YYWxcMKnPSybScinmbBtSWQmALqWM1aqnxl+gIcMzTuj4LvqWXqpyNRM+wjdaVW+4B4hQdLO8e1pnyAQabDpYnZGZ2CEOUh0Uzdv6xzq5mCzADast0oRulQU460UQPBfZTrnNPJefMV7KP0WH1bBKxohQz5zWl98eh3y45+zJvwekz6fospSTuwH3iPsQItMvuhJ1xnQEyWvsvjQDGjc4JX9rWoinnkvX0suVzhTAePUyAgVLD+pRIUqz8DRuSza+OnTNgPCvfNK9c0S9XGRfIaFEnlbepTHeGpUzU8EW3VgI1vjrShUhUV7tXTICkkEnG24jSyORjeIg0WJKO9BbINxTYm9791CJ3AqJ7srt09T3DXQQAgvIeolHSmRk1KSVwAxDR8pldqwKPy3CBVRiYHAMC2AHbmGO8D9tkwrh8FtMGb1R+44lGRY0q+HRSVRce28t+y6PZId1NrCBSr57HF9ninDYWR6qoi5zB1uFY6ZfSHlmWENcbNCkmJmiL1SExGrJYOuu3CZv3KUcBelXcwnrMsAtTAZhhsNpBcWgnSP9s9TjXMKTlA+zH4P/1RXzHHcVU41f0G+RntOo5aAUsW8ix17pN3bRuVOZU6CHK/2FRJ1lTnbl5hx++pbkMnP/WEA4/U8ZA86C/p3RzzPNafuvzsUelAVN/hZzFNtot819XQPJ6LYSEfZp8K1w9RdoQ0trUau7mvvG2haATOnYJ+GRirLdk/7SW3csc3lQSf+1yvOKcfRISZSKVxaG3+4N9k2wJMDK4ZqEjQupjEvZgNKsR3pzr0TH/AejjrdpZT0ZIGzmX9opAtfghQf/qt432NmgIXg5IkW53xdquGCquEJmC+xrtzH68x7/kI2gv0E+FeCj4FYdrNkkITPWWQXiMsQfTkg5Dx+6P9QNsQUZfu359tEyhmYB71wtHA/Gk0Q7ahIOqej3ld28hZTbLonhQ6srKiIWdiaKoBUmh09eNkDrJJnLUDbksuNh2aOhOvP5VQdLGfNStb5wjRvISme97Rcz7sHRbwP4VnyirrBQfdX8YGeD9LUVHs4TrmR+WSHG5AYQ0XgXMQkll/El6tg/f7Dt9b0KYetoNYmJBUXrERkKx4BkA2fzJX7x/9ReLyvMVPhAkmBM/2gQkZZu19KlUSCYb2tuHoX4FtL3+oCK/rHBndOoD3dK/f97oqkLW2K2znRRi49xyoRJ+5OPM5BJii61CzuR5vliJ1Cmb2w+gq7Ymfyl/cg959FNj0uCSX5GZhmUg63nSZbYiwV+baRDQQY3qzfeohB+GXkLGFgy2KarJJHfqB6Sff9V494KLtsKYabbsxF2VWIE1IWXtRL07TOuVRefEEOerDxoEzWzwv/MbXOs603VEo9yzSCZYM3EGlv14x93KV2HJaCcUUsYfBkPmWluF0YITpcdRj6oAvnjUTu+OijvcNhpkieRLozU3JjpUY1U37xR00BqgiFwDjx7D2qjmcxtDrqyZBZYFKR3FI0jBHWrxPeNSpNuwvJmCv7Zz5Wg/i32jbTleutKLDcpIqmPXX6hc0z2Ot9ljX0pk+Nj7AScU8cYTUtpe3O1bhaM+caXsE28WUymkIA45h93VZ9F64Loixa584yMFna0hoK27OHZrqkbFI53zaybPEsoJlHk6FkQWXA0u11tA51RfHl8d+2wVQubasvQx4GZxp5x+S15YEL9m3/GKVlfRFuSle8VM6/JQ+LnFa+fHu/7qON8S5FIAHDSYCC4qpumvgtHvqOpN3kYEGlYqXolfWzbdCSLJk4HLjS/eHlbNRWK/KaZGNKOWwEoFyR75YuMmFsmqZyLy4/1MX/qGqiaheszNHqkZxaHiIax9butwASlVq3iBgbeGepOI4rY3R8nUN6H6ANAzG7aZa7c6Mr6IMliZerYAFuWyIrNrjxiV6+Mz1EcVW5dfLLG+4s5cZFA9flkiz/nz1BiPFMpfpiRtfylY2xxBMXzNxrNFPHAoBfW40tIL4RAyU4FYEQkbbYFQvmnSlE8f/r4MmaThOYBsvYAeGnON9ZM4UL13ucd4Ub771KdEUe7qWq9M9mXFF1XVxcjF5ln63zG4SyAkl9MpJxnlK5d3MKsoYwmlVSb8hRh91NpSaW7BXEpA7PNa1OnXigrQm+SyyFoEeissr9O2AY5ePkG9VwStogKFV65gl0hkvbzsuJmyiU040eCr+0GD7EsZRimdeAmtAgyx1IfEBeSrn1u8nOJkiBiDfflkC+PaVV9+tKUEeWmxN89dHIvLFBOyxV3BX44Brq4avFGODl3qWNfCD0qVkr5QEkUEsWFghfL9GPd4vSV6fR0kGJPwdmQHRN6ww16i+lCtVkNhW0tQku170CwTPIKxOEPiJzdqDP+qLrO0L8PxHnSQMuXGqpl/EillPLgWjRatyP/0EGpmzKf0lgcBsUUIt+tr1q3e8YK07K0j6q6tM8c2LIivnruaJULoVJNyJFWNFckZu7JaugQknZ+cNx2eAUTbU446+cxiISKPSF8k3W2GvL7cjSNGrjvGSvQPLgrKLLdfYGl+AQh+BoZHXek2dZFfUNWVrdwEJsfMZnaAGLi0FiTgR4pN/tKTZCwdotIRMVs9pIkRVM0/mrjkew1UYiPds6TeYE+N+m9nAMHruYOqqzd+rzgOvs0BQgUYrx9/+eOksbuFYuH9HCUufOSzpXlnj9yeW1YToVw5LQJD5gyKxXQ6F1Og68lM78Wqw+4810c1OhK+St2OSxKqz/ExFMAJTAFAg4t+XdT5YeWg/UH2Kdp8WDrg/915PtjvaRcdL1CJMpHtazJK56sIUmS7SDmx4BgllMQ/SDNPr6cirJI9LJXmMuPH66EiYXR0mB1mA6P33jHG1shBu4O0di0VxatHckqU515UxEXZe9zPxpmoDQK8iZDjrmHXUf2FAeSIP1aRiY98/DtdaUPbAc/0BeWlmPnv91rHHfI5Dv8Nj/YrOMe0XsH3y+pyZAeotgdv6Bt3tsC9FpStURTHzbHiSRxR/q/l/ROSYcF3HGCZ1bkYdq4mlfbQGdLeT/JfEz1MPdW58CEluvU0FMxrNVUuSlco/BbPWw5yppr9QSyLHG9LVxqAxGayfJMkH79uNITab/Q1VR5JgHnE+LLuj8xyTqJzsANz6A5ax4k0bm1djDyIKlXvWJxev9LkWkRJhyUKWwfMjSIOOARZ2SuF0/GhY52oKEfWB0QXi483ounWuhVB7/S9alHTM7BX2qeLqkPmOJJhdXw3HYV6TW5pUXwY9r1rdZIaCwPx6x4Y/OXmf3DxRTm+1EYnPia708dpC2OXzFQ2tYzAQUn6UedydteU6BANGbm3F6DoxeObEQXrggUSsVZtAoPnAazG4y+6YYLAhusAT0YSIxkSFpghLfF9Cimzy1BR8V2g1q6uW8qB0paTt0z02nEW3pcCwNhzI53KT+/AcAWfnXJsVjQlUHMKKrs62wAz0lEug+Qn5ns0pQhbGBSiADw7kxvZAo3e4bQBe5TAQbQxoR5UylwBhHFKsJ7jExQNoRoAAG3j4aUnUpOXz+bKmaQ6eEJGFFo2DsyvO/sOo9JGaNIn5GvSxsmck9vvJgyHY3QMsQmrXTT+qLSi0nsUlRRvs3tWajV9qEPOqxgICIWZsGncuE8CDjqASIshzhQI9SF1xEwYxV3Fz8jzWpf/nmkfwS/kiWwcv4bYJpX+XL9BU5DCXiJs7IbSWMheRNQWVKxC6JwmJcuXASxtktHpKPQWvjHsK+pD8RS66OWghk1wMeXu9wA4K2szIxtuI/58wjipJ3Mp1jtBOCVNdJDF3Z1z1G4lVpkY9vddC91PQvWN0lP+IrES0p/LZvkfJL0+z2L5mTysovG+cAEXOgyChTvwvbs6dwbuSuM4bzBt1bczlUd5R/EnMckfbHrQav6ncIJ3cICLOIAcGIqZpTtkAxms4vrt6lMwu86bZc9+kEY2jcDeDiiNE/CdmFRPRwwLATHj8CVLN828R6f8ps7Zd5NPO9GecKJbdkkKxg5dj24yZlArmjL6c32bizgWtabI9sD2BUSt7S3gh5jn8bTyb75ntW11NF6jF67aOkIWHtIyfPErsSEFB/ciKUEL49YjNaxpR8iX5CGYCEedU02BgQgpqLJFWBXmCwbo02h816513T/eyEn3eEz1uFx2QsLJqn3PaE1IlOwncYsAflC2qFNqCU2WhHJKDzm5EolpkJhPay1xu7LAjAuWTFtApIiT1ZIfm60LFTGBgPZBOVhOqvtOMww6Ng7Nie3Nje4fObKS1gxWibhRBwfcqmBvOaojapiQpeGNupTbwNkGZ+UNc/QxI5piqOPEy4cYYoDp96lHnSzzta8FS19sfy2yaxNdykm4vBbJwtBz3USecK8685CSbSw+W/GCmErVqWadwMqfUi6rrsd8PxvoXqVHdFtgjFGidnaT5NvoN5Ij1dBK3Zs3N2jURf7bAsRFTe5S1DJX5gwSPemctJrW2F16gDuWZP8iheStMhr0eqV02cN9nnrS7uk1YSwAbha3Asjo1JFaHW3CycNJsEBS3IU9DL5MzLo2IJD8nWFuqvHp1RR8xroRYy3u0NpJT+rg8z6bj2oQ5N3OFQps6oVRma/EXiTYPmtPOzP9BYMn72JZYmB3fXgnm9EGKp8mkqeIf1r2vw8vJJcY6Sqg/2iydToqWtBG0Ylip6DVgpvGIF4zd+GqrUOFLNn24XcVIqDnDh8HniO9qax+0wNSmQlNaOIiVmVLRS7qFEkbvwxOKpeGZR1kqV11o56qsd0i9hA492zHQWMtoIbxcyAIKkda/m80Skx/QzQo7CL4Jm18QZOt/TZHsYnaxC9QncjXa+9iseuioRxZD2pVcVFXIxmLjUejHdnKWaDUT2xfVdeb4aTL7e486GEPlk2GN8opWiRiZm7GRGKr4qetl8oSjO3MeVPIQpgIvq2q1SdibEKOIbIG3XAiMfWVJB/qj9crcJBvYn+p+4A0X9OnUpgQvS+QscidWICdpuC4XqiCI0WEKph4bNUY8j2fIuzZzMbcMvcvPWeUvYlg8hPwKVvptUbNd3tVLuZnfBYbCD7GJFC/v7I7e01zYBKjY5M9d4QCuyV0E1VNepDlA+BO/iG8yF3oQtVWsrDLmrGRC1GbI1B8A/haVId51xG6z402V/UzyIM5qEW4cA3bZxtjTWYd4sQNbD/m5v9hgG4Da/1oQdjwbG8d6rlUJC7KG9uumm5VTZe+U7noQC6SIjz04xpzemqz1cRagSj31in4XmdKLfPAsznMm1q7ZgSMWog/t1d9H9Fszb4zqh5XUlQ4311CQxQRk6iCgLGMeBK5k033b7RYLprsvuzODno98gaiqo04H1WAZeTEsczY9vquC/q4wWGl3BLW/iNdhXaikx8aEum2QqLPYORFLAZOtUb8LkeiYoKVZ0nPaRweg0a+swWhkUr9QL+gAALbpxPV2l8N37D0lIdHoDRe0D2Gs3eWobYDf5CHrf1vW68gtG53niVcaHfsPyiGHDLP/s92gIsv1+iPkuqPa0AhDrYF134gUmF3LZGVL2JVcd5C3L75wy8Ayv+S8GOR/xzZs9aNkeMeGS+dYO0Y6T9abvt7Bsx2thHynqOUEoSeFcduUzPJWsOM8bHoLLDkxeouVCcN/iYni6NIWj/8O2E0X0ackBovfgK5tDKXyC8//Dhj80dot1WesaUPkL8/MKax+KobwwEyJFy6YISuqqTkasG1SVnfZ0U8MAKf+bU9lfp6D8Ugv5X+ya1tD+7NRxCyKCnXKFH07mWiadrlJCQrl6RxoWumSW7n/jfv3Wn8IuqXCPaKbOso7obKOiTlwBtLkr2AVCgRnhNKM956a3kLE5d3Dh8fRuLR5SftYfJiruNxXclGUwKVnE9mslgWbo4ORu7t02qVtm092L8UwzO7Ov4y0APF0ifqclob9ab0itNSgP8uDARSc39hNey0b9LgBc2VqxMpqVVyJJqb2TfMNsQa9qHs4L+3n9Rol500QYlx7kcCKOmMxQ5UobbMEdC3pIQ4PfldEF6NXwIq/JBZ85LpTpO9Vj4K/+2jx1cFD4jLAMZYpydKae5N1ryP4fy6S5BLWPwGL2N8rVM8kbKZGRAKU7UacQ3bxzfEIR3jhd91fNMXkYT2DFAk7Xt8MT/gGPKdpKRoJeZRE5DUV3Q5yKdD/kYhH6nPFM17Ggl8Q38sYIa2iqYwkyb2Y/RAr56D1jtcrhTncz6+I5NQgqOZEF48pJ5vt0jEXR3++f25JH2bvmkXp13+jO3TfrBgsUU3ie1mQKNerY2OXpcnuhSa/9UMF5i/I3NNtGhFjMerUbW9aK7/gZD8ZwilA7w2ekgoT+5CoAYf/q/N5T1DcSayAve8In/D3E7CxZnUnbtIfSXbq2fg0VSYsbYtyrrhzkyC2xHH0LaBTL8ols0hk+vHfCJySByot8Thp1fY9T8bul3eiXUlzATaQIULQNAtrQldr504hN3radbYpolcW9pwuXXrzn5YfzYJyIY1PS7X7ExlimnpPU3TbZaGUrb0ajqC6ADdQu3i+K36c2sUhU5f7wSwBgXdE+vr0DPQoXPVovwZ1+VwcRiQgW8vDPI0i7aQuaWBwA5xdmGlVyozyOAPfGlwD5ddlj+DTOpQ8HJ19s3A18OigZsWkn/CJfB6V4NYacLbXAfEV/nqnWlwXiFQFlkOYAa9WGVIpELiDKpsR/3+rMMKmrsua+3LI7jnn3ZUUnqtfC9BeMs/DotezdgSU91z7NX16XA0+YW8rID+M3SshCpxukmLBZzdPkOs/Q8Ash1VW14oEXVBkKarZHZah/165zbmvHpbh9OVVt8pVFbFsCbOKwKGfImS9dn+XnKzvDj1UkhNy/xfCmzwfOG+Kx8cF1uWYmoSqDVNC9MgK3YlZtl06Et+R02na/Mnl/JxCDGvbnAwfBY1slgSYecZvNnFUEq6pKSupv6b0pq3zZL5LviXOJ+BamDip3D3cVH2KEnqCzu1GAGn8ZPcz6bCfu0GGu9rYEHrjIGvqPsxTYrXeAzp5pRDeW/KB2k1MALoQwBGg4UQSSYzTxC1+Ow2OfMkILgjEoMYJJNDUfxCcVvngaARC8yPXH4oUwNgAFXasg68hVDvO+5brkl5G7FO3sBPObeLX4AVl30gLaGtiPbNijVZdOtX4PRH4b7+YnW68/E4TLuqcke+peVV8DU2X9iu6LUmlj0A4ZPxFwqUce6/FXg8efgDDzK1WTpEom9RYMEq5iHbzws02auokjJDWabKx3iddxDGnfmJ31ivc2cRK/+XkCWkqcT2YjAQICESbX87v+OCmMD95Z49abu32LwlBNr1UaVDmfZHjadWsOZ7hTz62JVbyVxEWZ48acDFT3w7eifHQZPP9Bpu7nOMik53VtGY7kuiUSRBt/nLFv1ytYVvUWY81+ntiYrkBgSsUQkp11r1tvIirl0YFrVd1L4YsHKCC4rbqwrJpBMAAAAsh0qiW1kNMQECaLH0igHmMrmJCkiyKo2z7Or9YGJ2f7CJl5W04zTmbhOBwMnM+2rVexmKhJ+RpQOtRHPaMhRbHF5PuiPPl8CaZbdYdArgv392mc1UcJUPsoRTxQhELXs8PQMQ7Nzq+qKzgurvy0KC30JREk1yHhLm+yDL0v21BmEizvTc5GV9Yp8wFIUU7MLfuyaTyCopSujNdhQgzAg61atUo2ybFg+nNS90N+OaZo2bRvALlI8PcQi0SpeW96N8BbKL7xJZFyRfEFWev9EWEwni0prYpAkjNQgn4Aek0lM4m6pNcnARujy8A4ke/2twxbmSSln8HZdU7qWG2Q1C0M/WgWSkwtcV0UxcT6u8i2Zw5Lnn8yZJiCsV18ED004GGLIVdymHP8qsFWX8IBtM4jqsDXfroJfLVNW+ngO5smURzkIBJY5Ztzzi93P75PoJFvd1qQK67dtEFqh6KiFLNNqbTlwVRp6xu/8doWpMPYNeEPlT+pJD9P58pdMcxtDhX7aBopV21RhklxaEX7BZ9wxMWb7787R6nD5sIfRhEU6SnLmKJ6tmnSWGNLYvDLupE83xNdNoEpYzH29DHrBLtBBuSqjGpTwu3PSQYHb+nXnEIOGjLDS2neWcG/lZq7XnlAxkngewf9All3/oIs/XnEg1OY6Yg2EfWGajxIX4yvksPalRJS1LqSjCklSjYgEoWT6T4ADVsyaPcBMNc130H0c0rw4JAXJaXFg/++wIVD3m4aLhM1bhZ3fPl6HZqRBWJPHmPeoqntHgf8fzAi2o19zHtf2FKM5epnKqZc86ZV7pf2Da/brIL9AGLXotwdBkyNrOSSH+uWOCEPXv+M9i7MqHSMzocExMMlUFJgOzPIhUVNRf71gXbZP9NMvbB1dPw2pI4sDie+wjcrrVE2QW14rON9EKUpaE8VHURPm/UKhnrnFND/DB9zhLNpIbyv99gSvTBaGszcDIZaxWyzM5uP+CtlLlG3GnLQBsYnwVR68E/hEFcSOD42qEs0dE7ozW4Vg9kWH7fXoIO0VFicMhk8/Bi3bfZSVuMbh1Ha/gm89hvx6NWJ7sucgwuhWIS6vK+nDKs6HhwG9nSDbShIG2w2ClaM1WabYRAotpQKlZCuwr3loFi44uNtFNX/aXPm+PJdDOGRnz/yC8LR4yuGtxNiVrFkrgNcJ/2H5eBt4RItSbv98he3QL/3WYqnmP0qcDu7yrYXNzlSbutlo5nrbzZ4m8eVCRkIQB+XjI+C2fAqSJwi0LLRPL8GiJNup41V/xMINVCrjTbB2E0tfc2TU0q3kxb3KykpI3Hxb/QAVZfTaVgKyKKnZchk+rcDwite+m17tFp0kXgTajMHxzfv1loY4pvPRhGyrSp5QrLHIUe5o866LfAqQ8uUao2hcAd6XxxSbvRhc0vqF9FikYttYt3PlPrOTrYYygFkSi05zLSMMsGHADc1NxClSR515IEoNyEUhHpeXuROKTlm377fetheutpOATHUdeNQpa8zb1gLf2Ay8hoZKSZbk4UPP6VgzGIgY6Ljgg1HtQTdcJtelMjSwaFYkytRnWKIvlljKWM0I1XKbSLB/WUW7XYpM2dh0cygqa14xlcnvnd8cHvWNloICJ6CalXE/aK6BVtVgzdQ2hEojZI1MVnV08eIuXb4qcRKQjp5J2701bSzdaKU9qXdR80oLWvnIzkSUdZMIV3DgKMZjQdGnO9J35NUaED+gt95FT53MkeA6aYqmq8yVxqXhgY05pcNXEf7xfStFkaRxAUrFbGaIWZCvFEo1CROwDrNswut8jU3+eCxThAIDokcJAqGIeMih6gDO/GEViph3lEq+f41cz/jfaCRrQNMiqIn5ahqZHQuzva9wUra7R274qeQ5f5yamm33aAvPhK9xgQVranorqoWdpEMGYvGMmXeakoQdUDCg8T2OWRMJK9p/BBUa5MFydZ2VftGguBhwlqb5qLHnBxUGeZ6t5+EHeJoCdeknNCym2NYJvKNrpAQNW8fkjpx4QUvx0j6aiLuw+eHbiUrTge/ea3OVxuQ8Q6u6edNRonbEL9smvZuuzXjAj0JSEn8HtQYy9Akg2b/F+agQFg6I6UrZWU1Hn53n6Bhbgr27u3jvGnmiH9ok8mXaJZ8vmuAgYKiq3vEC/04UDHsgLYxC5+z/BU3sAXeBbDiMyIKrNLwJuapK5BSNpv8OxTwOuckiSm1BfD6mx9q1TTqHXujtd49cQDaubyve/fJ3fg+6LHTw1GIE0a2yQCO/PK9OMl/WgyinbHdNp0E0na64yKEHS6KtK2SE+w3sC/cZiy2cIaQGq/DuTEkPnagaaHqQHRT/I4v6FynZdEJtdvMNtMpERXJki/yY9dnhPFjPStvto27tN34j+VZVM6P/DLuMNqdh9tK/bwuVT4/t23kya3+0h/N8u2ogCRB2EIroiGG53qvIJ50Tx+IsOzdcMrNf2ZZdRoKARsiJAt5wqms1ruTvETOYLfks2a1hBrJzUGWnN7XaUxJzDoWGIKu3JWHMGruXWWQEhk8WOu5i9F0t9wOMwXNarWvxuyAEmIZOt5jX7Px2WBGLlAoylHfLb9mYkiojtiWZMXTNwIEWRq6GUkFHczGauuA5fWB+MRKOBeQI4tJJQONN+WuF1nZ7Rnge8wc4Pp3FF0hW7Mzors/W+vD+JkMLhAoMEe1stkY3I5m3bgg0O8APoIKcsu7ANbFjUQE4Et4kTuu0DIOQxwFj3+l34dCjN5KLuyq3pkGNvY/cNgE0zZ8IjUtH6wVEk0R8CWpGxdlLD76lNioxF957vN8zNzyBQYJRMOm6Q+2fll/i/bpCvY+Sk089LQRLN1lHarKghR18GoJuTE6Bg596ZOrKP58eYT/eqHAOaQtgp3WPzyg35lmvuM9sv130/zhg7PiMp/agXmb5N2PP5lyWSxWJ3Xoj/gTce1o1Voh9waZKLZENiuLMEM5cnpydeO+mOd5vtJVuXNMKS0PmjonUCWoIln4upB+j4Ax/OjlkQDRgEMLVo+Pyn3yOGe7xZN/iyJKXjj7toj1H432bS5FlkBrQLHmURUMrkNqzjYCGVyiS7D9GZ0YAQRCMsKFqfymhA5QjCDylfBh+AFdxq96K/HPLxieFgfrDwOEPhW/s0u1Lq/IsMP4+yYwgK28kxLXG4JM+xzRRulC4g3a787XJHugQaoknD2Y5kHnL6YidIpGvjcYBXkMqRkEgvsVPZsRIMJHA0LVEE4F992j8ZLjKu02jc0fHUvR9/aM0c7XnCIObgDzNgX0I1KVTkxg6TKDtR+MbEiJQyu0CecJ5+4lTPg7X+wCCprAZgY3ajgWD2fFX8ZDNG1lRsI8hUiSCHQBoMC3hnA3GzuVvIxbV/eBxnn8fXZ1Rf5kZ+qA6Lm7uCfALjmfYC0a647nwLnXyfiWGUVnHwWf8kfswr/3vBhxq3K8NN480PvVROWkHva09jP85rX7azdXTkz5aKex5ittTrxvoF69bEfBu8HYR++bpC9PX7m/4SchtiUtZ9z4W01WSaIdlu3tq5DQ80Jri25Ijo4AACHO+kODSRKBGlMxm0cX1Eb5Ov5cF/k4g+4cfDmsYVMpwJooGEAKZrNquq1otBb7PzYgOn4LQBNJMf5x9Zn5x+mb+G7aY8kRGqsEHblmkBmjRhFxpHf6H28ZqngA5vE3mGJGsZdGg0qgjDxLj68q9f2ZM+ZeipzC7ji7KIJHCIqsUAzYFQgK/rH955lnUnNQW3QMMbjKZZY1oYZNKK0bNOng2M1zHNUj3bF6Q45HLtueCpotdIevL5ztwGVEpV/1mi8s9nJ2E41PZweViXqDprzWRX/RBIMUQ0+IDbG5LC2B5g83nSRyjZJ1meEHet7koL+DZ+I4VUdOOE1xsyvXSBGP0xX/qB1hW72r5BGd2266xRpmq8mlpPMjC9FWSh4awNaSg0MpiVLcq9HcqUfUgHPLm6rWdrSBf+mvj34GXlhcKE9Etgg3x5vh9qfm/M9hNs8LmyhvDgAAArJlYPTo1ZTwwzKwUfoDIh5VAXRrqIo046wo4qpgPJKZW6Bs2owmWAYAntVbGokpRoIKgUrgxDwgANYbQociQtsC/niBunSuI9ONsj2MVT35Cg/1QJUzPMk11ijjcTwI4CBfQENdc/xKmPCWsrfq/4nx5VsNHCMc4D9tzspKojf0YdD/bfQDugANMSxOgFYombenfFEDUXIe6n62fFk555vNup8QI2u0G97rqAYLBGDt7c5r4n8sdmuRYHknyt5Da6TiSHs4kf6LNHKhO3hR1bmBJVw9TD4Q8Tcnc9bZkpVkXVGCSKBO/GtqWIzEuVSH77qF8eu1rAM7X5FRE3h9ZqDdAy4hZDoORZA2aJyybKUgvr/SLdjqoPlLaN9YdZpi6ia/I+mhb9Hogumw6qXUbWraaj3+91wwn0HgqGOvs1PH2sfQ9032cwM42YAlrA+1tPfi+MflKnEzxAJQoffGnhjDIz7namNL80qFwtdImNiMaq2BDlPG5pEJpSTn8JyD1IL7NB+5UhOwjEla/25/8c2sAFQtZ+SDBEbjWnCUmuPqRb1ftJ2UMtgWmLYvSimiv6Aw0WweQTuMkfvCCAwq2vvUMtYIcwICr/Lsbb1smTvQg7sTdaJZQnLPDmrwuFxEpWLHyAmAG9f9uFSndtrntkcSoiVn4BW++MFNA8KP3mcjZydl2kUyIwMY87zpsjMCnJxQ+vKbCfXU/BQm1DmwOQaSRLuJoemFj4LQc00iiHc7A6U3jpwGcoK4Api94UX5Q/J5gICo3TUPxzDisx9g0XmceoOO71F3OEcwgOVmsge5Et8hk8teTU/FjzXIf0O18u5Ld9etn+bIj1CLDegUAr9iNO31Sa6vO0X3/1RzpX8SbOpw72Ro3bLYT41zGQc/X8AI0ivJ2Ehp0kApd14i/wAYQQoy2Us+dVOrtdm4R/ZIzym1K7VDf0MhslVYjFxYgnbgj8DuWbtrjdoUlvmklLgeoqUF4ysbOMbOt14rC04K+MR10d9IvzZ6iFA1L8dBj9OZOrbJcTxdr6XqOgcapzC7WLMqdZ9/cO42Ep6BgBkteJNp8bUgnMKgmISbCWdgbUUhEdjaT1lF421D49iqS713rV5UNhDvCHtbd4xImlxdvRlKI8XUBZYppYfpksRvM3kY7flTTqBlF85x2SHZ2D8yXqQvec8TgyF96RLGeNh0PbeYgjT8u1VMHs+ryL5uqtI+tmHdW3KU1AOjiNFGryDmXTBjzyX9Eez9wyOiJy05Ck77Meq2AuD5Ttr6OiZMu4kd8dKInYCUpI4fp7sQIck7OFyKUvehA79T2eCfJmRv9tVBrg4uP2JOzxrvGQVI5ylCSpRmhA8YazttAfcdvnWdqd5KJECV/clRZs8F6Z8gU1bN8xYHS09X8ua6GLB9rKoDkomQhkY3xlaQuI3/102WuBtUOrNErkff+B5+nztuSleaqyMHt7/OQw0GfoUtGrawJYzXQkOARVBKq1EwM9keZvmUmpwlyb/3Fum2dK4xv7jLwuBEc6fiJ1iYMqZE7dXJfB1CLPwzgzn6EmudJnU9ecXwx/ZVIX3lxc078oAzTEBIZxXok54EyNgnwIi6dEKST9lpaH0Y3t1xcfAq/V8sNwB5s2rvht1kYszxpGVIDpOEn7XanQXqfeoKXA9EzLwHZsymv8+P29uIQlUGkLXAlR23c7/Jv3m3hWkMEbRn4H4J/8Q/NpjY83MecLC6LjdpjgrgXXtvxCwHVjXjBZN01yUZ+t9I25UX2HoARoXB0krEAp7NR1i2jopzOZQZPAUHLr35IOgWSse24O+uYvcyEBa7XVk36XrN4Tj2cs5EU7Q1tX6radlVlvfjteX1j+U2LI7DNHMxubSCrw35KcwZFLvWxKJqHNPm4OdY3LymemuJFZIKo8yPsjKXAHLFaIQe1RII/c+XzQiXk5Yw1ixEU72+zJnS7Q1impxFbSpZMRWmpSKVeQJTBZ9ZQccPYtvVe0T2lAZWjI6W2lM0NhzMx8cj4jrlXZNuIpkIOX+yH7E4x0LbqBgx/+g/VwgWr/CvfY48dLYEm5QPQgdpJCwiIEowkHZGk0muLuHS1A5/y5HKGUzOqs5fY5RCHI/N0A40qBAFCgmRco3UC9st/Gz+WSILDoK1knV025vk4+LuA8X62ys+gyvEJjJ+HQZ55lJ1aGWtsAkznKK7uysuKFwY2ALdEqkTUDNSdCGykWlKw/gNtYepQGQA4Vq8LZF4zvEFtWwgWRtOBB6+LIuHSEzQ44xMwAn/7BzTUxVVfUL64BNZk4qguFxiEX4rGa3PpyictTV2rj71KFne8D8raoJZoOlMsn5WeSJWzlGYMHYSAhSiRUox+rTLKP0Whl17q3JPt54BxqxoLu+uIBtiNJimnayH8GfcfEdZF62UIqdF1IOl7nSt/saA2LrKDDrqXizFSXXuXDCCXaASkSfVaMXITPfjtkPPiLiA6CIV7oVbqKoucMqdYfgIORrwK5yrjt7p/3USviw7moqV5dvJ4KFfOaqW8P3hAoWUWBcU34DltD8Gp6PctePUa2H2WCrVif33PA1MjnNDP4Ftwx7DKambBHZguKQALxuyq0hpnUYoEvHq490SHDX5Uge9PdS7B9ORypgXxH6lSScZGvLW+CaJ6mUeiWp8TPiWnI1WsCMhTtXN3NZrO/pBc+1+q36k/61sSQ5v0BsxrYrl2WIfOOmzcGhgU904p20y9Umj9Z3QJ8JbnnMzd9S2MtWNfMODvVh8P6pBN6uhkGVnXo4Prt/HjkVwqAU4t0Qn7TU+D4DarjXrxLI/Su/vn57PP4cxj3Tg9NMraaUJl6jXbUEyDnSW0yedyxw5/F18p/Bnk4S59p3sxTXR5ZtjhEjXXV9jbNxxqmf7RpUaNOMQxGe3I7ehHEPe0NJ5Q9IV016LI0ByoHcAcfLIXvd78DqoEO6q2+bBEF8jIkUBFZOb2tnx1nxDZVT5U74ik2dkEyyfJ/MDrIYX5MbPHR56RJy2OhYctl9VNIkkPZXy6Tqix4bi+eQdEpKjKoTNNpmMnxZB2F+G9Hb0e7MtNXlQHr0hvHTkn8cxg7djegB+7jFD0HM8O0tjqpS1bifWUVWeAxkXiMA4gt7Z2NpLQgmdDU9YJZEu3ArbSJd8gOjy0AADysr0/QODpY1D9vSlvLXoEgsWw+Fgy0SJienZMo1wjkuUyL2Eh6cDBb6FE7CnbGK8LE/N8Wget8VETbPBV/THjXX1uwGkVLvNkH3okfFu01CAQgNXxBpz4ug3IkkF0RDKvkmLvKm8Qg/iv8v4Q30xNDL4EKS2QjVBK5Fdj9ssqTGmALPFJW+6J5vXRwLAfKYFWbH71eax43nOC0arqKMB9Mi0LrKaly7p/s8dZseSQSNHwzET5gT3bJRkNbbCe99bgYmy1D5mNlWVIeGMK38EH8Fhd7Kw2s+JABPvlFezhy6fKPD/ZDmgP9ZxE3i03XpdK5KGb9qjd6yL3C5Yj8IjZAPZJFNYRuP+OGos8M/BjSvPOtqtvaxnLU586tCyVgZ5hQ+OoSaOVNUPSM5q/aHMzNHcW4eIwB6vMhgBewvvlUnz/P/+xT5lBFwfCpaep8iblTbjaEqkSTSs5y2oAENl+k3uYq04bHZ1P+bb+brtlW5A5VQp+r2NqUqi5P9ardLGcWA6ssLny5SoFwzN9VaMNWYT27myBih/fkaj6/8tUWVzdWNmswzQlSMoHB17n7ag4OQWkQcPv9FB4K5rW8f11PYMcgyv5q6R6DnDGb8EFYupRUuM41iMo8Hk57FGoCJrjupIfP3VxQdLdTPauG86e63XzmTtpv2rhhTgVfe+AABbyoCMgzErRHD0gpfU6TJ43EaLurDHZFcFU5fsUdzEBYMluxO15XGZGqvoeEqYH5TA7bT2oA98FY+pUKaNXXuXFN/aA7FeII2RAz/Drbpqk/w5xAjj30+Jx7B4sEskgapbqmEo5u7a4xiypRRdXktANYC3ColeTZYZEs1kF49s6m42Nl9nQxJTk8hNJVWH4w7FtaaBqf4Z0K9pEAaJcX41BLKj9q9xeIRtjs50QT2qaDd9X6UhVSiknJD45YbAckBy8iP/8TKPE7D84ZNIJQTeoDX7pLLtg5AYhXEL5QEjNo9CqeVOF6lSMPLVWof6yT0kHrfinZRV5sDHIzKC1BIE2wCw8UUtr28gmloOtlaNbSyNFUhQ9FZ9OOQxkHoe0Dag8+aRYPD4xwh3MSpDmYnY2Xo/WYNQnSs6S5vzKcAc8zhWJwXafKjCukWDQP8QKxnmvVow7yca1MherXzx4Zmss+HQFdMGUXqHhucBYIWA8XcQNSCjwgtMHIWdeKVgqCvYP0S/n77BkFCMBCH2wayCqhBX8A3ycwTSmWKrB8QLTk9MgGEXqbzea/qZQyUCb61tvxTi1wK+0jy36acvTRJZr+aG+tlW6KRq/MqIRquQy1X1CfsnamFdTQSWdknlphibq5hvh+9TRYT8YsfItEA5dzytIbGNo/KnREz4n/Zvwze9hlmsSYfFJPqY0I1t1wzPHqapZKaEaFeBVfarNAVOQ0GgoSYBrs8V7fgg+yQ65ogM/6ZciOrGeuPZ+HqeMFNDS74GtnFy1PClqRHz73mriKbzWdsyVAZFpcPOm223VPufOYEvTWf5adl04bQO1VLIglS/VHjId+cCU45Uf9Za2PpNmdjN2aeOEFBp59D76HKSc4ZUo8dZUP4WL9fkk5O58xh534q9OHHoeRjakpd3pUe2nmg420ed1jl59XJRl5gr7x3h7foH/clgfqtUGZ1qJpkr415GLshDDTRP24R/aVQDwSUAbPjnsv2n/QmPgDl6y1U7HovFnPSqBKCcIJ2SjNuqpf/bdx3uU60Lr7//DvG78yd76GLhbCr0AEX4nzQ45E1W4GUQZ/j9wQD9rm/8SXJkG37maDMA0wwvDYl5obYf26xaIRqsrkNCqUcTabOsL0Ngb9SlwwmTS7sUzgngDAyuHvY7geht9wSJff8AkV1qQYyPXbfTuouqVRJjGIoM2d43918ASgp1mfXuw3OmSlXgyUeRQcwdLn9RITQLVw235R5LHogvkeaQqbrIETQh9Y9y+S3qM65ba1hKiC5077utWWxbqeNVnyHh7gE/ajwOn4uDAJvlERFZJdUacg75c22bsD0a0VTFL0qcI5CNAqAZQubaCsRF76q0Tw3+cwXKx0On4kAvA2fX6zgzAlQDInPlC8fgSP8APJSJz99BySBy5BMUnhVe+4r4IZ75fKVaAAXDJpf3zMb3tyawLXkhITOT4eR/v484zp6r+UNMouf56LNimsl8EpgyC1NvE6Q4XGkubNfWijycoEe7eJE+XZHsf/n46RgyVkiPzSn8gJ0nrAPhO1LP6J6pOlK4p8o5AJYpwtDTsO5ecdWPN9lMKvrIvtg47yXkqdeYIMZA4NJOXyKs2RwhEA3dRMaYOpbpO1KeQ1Bz2+ajyErXa1qp/sEVjIPQD95M/aUhzljYUyV8cCwL21p4NujoXKWZnHZ/eIQYQIzg7M0G+FSwH/uuoL8s1N3qD/Eumm9VKoLee84IGe47rKAz+B1G6eB48GDcOcjl0Kkrd7IVC1VQKQ5fwnq7E0c9Ubn4QLg8ceRfCU/g6Wl3Rxjl7YFKaWd6+qtd0kPHm+2z0cfVFhA+mk0XrDnltAZYDbE2ogIgbM0tmD+PWZ9KUnSOXlXzYmBAte8S+WvJkDuRVvBTv2Uvm9TOyETzxuHvu5dKb1fc6yFux8HF77qZfS8ex8WL4yPD3gXRQQBDZe5McQITX69irsPubvrsVsDh5jscclA6iVkFnJA0ZjJOK0pgh04/k5Lh+fsh3LBzJ0fuEZgLHtNpi/ND3U2+6a3MY84LOpVyNsfign+GxkGFxJYPgy6zgnVyvIMJL+t7mnrnj+zziehmEfVYrm7iF1yshlapP8HkiuBTHf/qWkJB1PjuueUNcqCGPi14fz//aZflSQPvzSthM1a34ma3+xt8rdLQDXGknSOdcM0pcBJ2eWQrjnQzmnm4lQuHlKJhKSNqPscrsGZGNw3TMejuPFqEom2dZq3mu2rTCyhPWBtzN8hwWGol69W+v/K9FNHe6TWo+fNZzzODcsu1XMYj2lXaj5brcl5n0HDgCM9DbJmKkcOuBRf4TU6dwU7nCT/pf237p6FwbPGB6YDbhvM7tFLR4KIxIF4TpAjUnpZm6Fi+oZvVSgMdWY+A5bvn5SsLe2DEcSspn+vWOUjw8kS/23G495cYIg1Wk5RFnMDFcd/d1gssA5m+hwcI9K+Zi5b09SF+q94a6ApbELVPVfpjnqeSBGUMGR6a0nTDB/xNUSduYFJ2XumzxGwAyHAKcwd1UYevIIUMAPST7GqZ2F1f0aYqyjxkUenc5VgaRlWk25bYvPwGHMi5JJQXHdsnAqQEi5IAgMzj8U+UyPFQhD6hPUHfcUW23cpVtIYoQVdsfyirWqFbU7Q1VnoEsYTlyCMDJFfgt828+X+PybBbIBogBDPoxTMfRHEYiJnbsaiL6nWWOUPxxZ4+CvtLKrqMLsMg2zNmznU3Tl5ni5GGtr1P+lLoBmTYxSK0e8RWiUHNYMJyUgPAFCNWMmUoK42Jq2bwYx6K8NNH3mlywU9i1IWqHJ5Odr+M+XezfoUvxJ517ClC9P+T4TYLx9QlF0UA+36SH7ga09jdGPgP9eNH1p7f5eGmHwZRYD0Tu59IB0cbW1o0wKD7uRmAO6DfA4bSeRrethuXH9Q+jfp6BjfvAYkxTS/RyBeESxK+UyksppyjXpC889Jfs7FeuJZDMpOeZB6N+zZzYaZEJFDB7xDIMvmc5d9bufQEzEYnIIEFQwW8ehEQVwAdCSbCfKCn+fpVzXk45+b9ZS3lLuWCiI4XBdMUkx7gXiVw7Ggc19SlkKca3eYlMUSta7Hu6FvNF8aAI0Ou5afUPUa+btdbJkNpln+qN8vWmy6tQYSJimMByvq+ddEtGz/AGnkau5WrFY3yjLCpbstoppKtomrxk8pZ/bQiHAoBVwRG6RnvUWcurNzIpj579K3gTACaRpdwmcI6h6YxYZ2As5WiFuaRUVenMr7CTmUpUgoDcY7PZRisx3zbw0GVxvNErB77/XypiD+dZRkwO0R3ZQMrxI1elac6Z9erFVnGNo6TSF4w9Rp7p7bO8gipvY9JSAKijw7i1xNjk68tlfwPmk6FF6opL2bp2TF6NCIBfOk6+1AIdBt7fR4tCS3cxcYY9Nuo/dGL5ZuNT+LDAlwv624EaTeq7nlt1cRGXYKSHBZ2O1V2NFuWdORTxtpnf+XmiXtLf3pGDE68IlDkAYoVO4UIAdOZ3yhTi+NZGpsBsebo2h5FfOylRzCYuvrb/mfxYegCo76pFYdVLE3WVOjIRMgDRpcPdOYSnVv4v9rfvbHhRnway6wRCL6ENKkGO7vOKZ+KHpmIrGg37huqcq35B+LZ7iJnFpNet0Q8BY5h/P0Caj3y6yfIbPurwd47KW/ff5vze94uDt5ykw3AKYnteJ9Hi11mxbJLNiMcYNYPcgh9JyEjScN1y/RQvop/IWiN6LouTUP46M8CPzuA420FMHGLv6uPtmLzKYR+jlMibJawa3rejkHZ2zC/6S5NQ8D7RlqmY+KGAV5+velE1juv2ZsyH84DqMDQoyChUkrnYPpjvRVkg8UUX2vx36MTCg8v0IL2R4TD0GrD5WUbSX0O9N3EfpalDFfvRuZYwkoOxnY3aQjJCMr27mmbyB6Gauo+xS7d44TaJWg0UsOwlnNRmoNxc4cnXx/esXNZERx4H+VlJMH4NL5Kfg9mkd6Xur9KzL4DP8BPEegY7liBV2UYds9ztO3WdJpPc16GCXFAqZvKOsJizKa6PGNqOfVhk9Xrb81MAv9++8iZVW4lgs92zfW78QSl6YAo7AMxNQF1hmKH9srEo/aaYAKZn72y69ARDDrQmoyfw8qS1qY7lT9Ec6+WY/iO4t1V3Op/EQL63D01OdOiHHH/iE7SIfNfb02RAfKo4QEkQxurExBb+3JepTOYVMO3rcSJMkXgX4mTEfCSftFjDX3onWXEHsKR5Ixd5acah+L6brGwNFH6+5IxwpdMezaQ2wpHDHdiYeTa3dmfx5NEcySRPdoblJilsADTmtAM+D/CsH/RHaKLbAzpAFtcfcb6DrP1B5N3oGbBAsXBMO7NU1BgYaY/UyZrFJp7hvSWBMk2bdc4MXPfl4kkjrb0osMl4oc2WtrMoXpVcKrBlpo4WijIurUm99ciu/WjLlxKDzAq0KwZNuoekgRWDW2jStgiN1tUncZ/pwaALNWv8vLXo7jdrgM7uJVxirjheyPohBYndcSlFM2b9OsAbU5KIK5ApaVGvT1mO81uY6PXOZxL+9mFb/TO/FBbxaFE9X+y41AAAW/9uvXgasIyUvs6rD6++KV8gnD3DSNBHTz4G1ohAkJ1sExwPJC/sbBnITgI4PbcMzxiUehcfwUFNQhp1jUtiAGaBYkFVqQ7wsYdXbtJizg4eZyMCctzcgtjPH0xVujJ36/NZoLrHe0thVcbV6rU1T3zKLEhGVCuqHvTvZ5edDiCNm2kziXoaYwYCoLAEBelR7HiiA+vJv+3IlrZnhda/biowJmtzvJ0UKWt+wjQGNKUF1qmnj9ULDI3T7L0YUOQJQ+H4KeWMylxBOBqlFD5Tnp4hgba920TYjef8u9bS6bZ7sXF1b8XeakmFNln3Bwi5kDdn16tBvMC/KDAAW61dEYk4zPkT6+yof3+DnsbrRY/54D6vVcKvQbVoya3FPS6Eh14Lg2EHoaPPDFIUJlK17YNRYmJwbiOGgrjnYSNsMdVRhF/jdH1896nhshEsZPoALjvTafBSFgZN47tSwwjznuLn5383exqVmOoQcvAWOXIWxYO0tsxYyM+dE/+1d17wAyQFcIYhmDcZPKIRenAJxUGkSLwXoFMX0qu0OxbYD1pNgZ98vHbwLWW8ETjFpsxt80AuEqmGK8r4uXklSNZOfzpsT1zdlHplKSiAsnAz2k9LZnlH0hW1pG1gN0cNc+RRnlX1JATMuls8PpKhjxlmeN6Kao/oaW70kRgxvcCRyIsVwIhgiKHD7AtTIfT0BQyo4GxN0mE5w/q/tXUf1XgNNBb04UJdnMTByCpLw/6M7j04Z6HQngrJ+w3YkBX+iE1H7kevnSwT8mRe+ehUe7ujJkvXATMxlbwfMRKTfcjTdUNalByNcnP24DlABKJl9hCyAn+ajpDlsFE6PCBdwJh6ONZ9JwNMJ0vn0K290RZhv8yU2ZNojGnXlGUld1SPUAjtOcG2lfswwPc3o3VgjFeQnEDaEWobMAgyjUTOw28dpdAhMQYBesO/p23t7qOrHf7fYiFZndv2f47u+u9zzGp2a552Z7XUhftkY0k1PJsR7Pp4C9u4d3b4UkimW8AYdQMw82tNv5/gA7SS5KEGJwrSAP7Yi8oDlKwGmyxud4G7wjwuNqfVOKjniRKn80vUOt4Je2vw+q/JJ1A4SknQLrHANKZrbX6+Y7Q5eU1XuiANuBqyabBS5KRQ7ynF61aDL1kxsyY8mwIs914U2h86n+gSAExZneX/G5+O3MOlvIHgGWdaKUpqLV0//v9K2XlWs49HK/FtEYnGbthbGcZuTbeJoEdP/w5fMc1nMHkyCS0XKMrhHOZLFb7en8Ykqx1QFbSGWIelOH/f5irXV246y/GTq3/rnix+V55dU/RaWJD0kt8CNOtJXUH5Usw4sclI1a+3Fec2jWVA0rjpQZNVy90GhuWfViBS/L2MY+CG1GU1/Z46Htiqp/UmOI1PgIqRXcEtw+i6hVPHEBpNT6rFj+ENkrvxKGru1BF/vehE5qPwTzFQJxkiJrBvtNvlT3y/MSFzkusuN5O3LkvlGIQTr7fdNCBP9c/y2pmdlFV4YsLxOcRrftyfDp1IWRp0PdPrlnDI06LdBgHezVQaV0iMNPC/QA7tbDp4BI5gLBFFqph33571sdw8+qrjli8m09rzWnkBEV53RazslJW9F2MYX1ji6TbWdlP6fi6b7JWdy8jK3+hk5nN9QtWPg4yLcL/D6SD7yR3VJp2SUAl9suZfYt4CCDOzrYAaNCjqUU/ILiDxN9ka4+dU2V7t8xCWHHf2uwoYuGzQl3CVYWLhKKUOHOB0IYR6948pXgrHcwyEvKYCmXsieWSW+iJpINKrs5ZyPtJYauhRXSCmz0QxoH2CQtB7WWcs6GhCobQ81PT9U/84m20Aiuu8OR7BCCm8Q7qxsYjj6mvdHvqY0F12khCdg2rfiIpyrukbhk+2UDG/XE57QNcs8txY+9D9E8b1fn7btdHMw2qlKkUGOhoWzbvPGcJIhjJTi6rAbwRAc5eO+EFvEteo4iTJAtZUaXtDv6biYTkNQLnhqCJN4IX8ELffh1skdeH8sUhxg+2RSkK8HMMRY6EthfbN8Epd1IsD5zvvCi2Se7T4Bkip2Kg7Qw6B61C2kemgd+GilKdUH4eE8o5dwP3MSSaXsZSlylu0kqkse9418OthsM5zQdzOYIVycrHbFsJ6zBRRuxYtxf7/wzlqxZbMeoKK/k/5b7lpt/JV1J7bg2Gm1Qlrqz0Rvhr70mfWWw8Mv7cnDDUfjBN3QGV8HfP2x3thYxb4yFY7/euUTLZRcdb/2bOmZ7PS/Mv9fzhy0tnwkTQPmoZiDKW+HDamdVaxomXh3TtDlicZyv9AmhhEk7Ue3ultId+IT/sFnpPbmSrE6C3tetiobqP4++uHmMfvXMcI3fdowc9/oThTQ4j1B3tSphdqRFgJVYLOx70tUbHTiProUmhbk2DX7fHl4ufwIiSJacGAkq2jSO+oq1BQtPkqE6x3F+BEI1mcuXQH2paUekU+5DAIiF0Z5Hnh12RyNnIXtf6eOLIJ+0WOvHJO5DacI4bgPzkG6kiYBb9zR9COOF/+y+fGqzGNNitDpsn6QRNaOJNtUvL2aNOmft3pbAljZxvxJ4KdmyoUyoi8O+//gZJ9wOgFCkd/m6GgGq/g6ryye8Hs08Toqs5LD47jyRDB0LuW0kUI5Yje9BNAeDN640yvhiAyKkqzUPrhiKQkenLlhAOVSr+30MDOsvkqpd0mSEvXxohzbli6Fh8dKLMNi01JM72TfrPq2mUO0Rjl4dJVKY42dK26PKSX1p2LGpTD0C2kPaLbaLuyVJeGgNX5tOhygYN/5w4Lx96HEAQ7c/Fubma6K+j8zH2GF2VrWaEWAsiM7BisBBDoFygfrUtiPVKKnZ4CyM4GS06oPjX7s1QUQAMIuIc2uiGwIQgpB+V4NaWMPwITgVxNF4OWr47n61frueCI2VrITZIv4rAc9Pw9wLtcMISPuXZI9CKQBugkZB75YLPhgQhFm1rRXCK0O3hMZvGD8RP5yKBJKP6aEhq9vhhRFXrGFqGC3vqI5JJUf83ToZEj93judA12TqjDOv/zmQql2k2TCp645VvsZXTYFCe6ughjqTOXiQmPR+etx0pEzHWK5JZ/cG5NF2Y23tAnF4y8HHIim9w5XPS6I+RsI+pA7LnydLdIh9hOexXgw+EsHttOQ2V4iAC+87tGN80I1y6hsynfXkl6trIKNl7HxAVxVPF/qUtxJT15OCWMXUo7BmSypFFP6e3lBd8g0KfioZTd8FCZimDtXQoJZLdx8r6+mZhpvhuo9RYWw6ZM0xExrm8Di0hB0Zm4gkzYe5eJjCBcTThS5V12QW/0IrA1Tcul3Tl9i9rHy4ta3eM8kcqOWKPEwMXbXScIQ6HzH9zyf4Lrq18aUxxATN36mCRY9YB8/w8cLDYqsAwLwn/eykOqxTok9o3fNhIv+iwxvtsDg4pTugPqjyD1kgY+rTWXA2ehiJlrnNHaWhsjZFOrXsCJbrm0UBy3lLaLIPZK7p+iVIDggMjk9ugAVBHTBrYurrBONElzFybSKL1vRQxk0TsZP4jJ8t++mN8x2iRVll/leUEGdRKu1mxxpOeVGSoPUbootnsyz8FBDeMx91RGnHe59O2EpOtsuSncTgWKnEEvR2JdUD3XJYX9sqqTpu5p/aHgZwV0MqmK3yq8dmq7Ifzm+5jM4TlFVWow3Az0uAxnw/YwOKvqmZSbBPSNknz0bistCjNvRl4Z3efvqzmLQo3opxVj0bWWrTb4rckip+jEr9aNTQcAxNP9Ft3+6tpps65jwYQJyAgKRbqaiJPjFLZQAgTVcwX4ZlQRH2AS3YAJfyKURohOTq9ow8Cjt1treFlNn20zTvSmHucgn4FpMmkXsSE2OYe1A70Zqruv1tai4y4vYaXiETpS8kcd7FeS2RueP57g1WBquCcqmKizK6enT8IZG7xuPctytaJ6ixvpbtdYn1Nmhqna+tH01B7oEwoQrBMwVWTBL0my+SG6v2GMms9gzAV5pYePy03Pu0bB9Wz4f0PBdWDL724m8MK2NmURnr/tmAo8qjsQpnHG98y1pSB2h2tQlqW+tnZdrzM4ai+ARKFtEzDc7liUni7flHOO6OR5oeAOQbxWyKuv9tL62WtCJL8B2jRqLmT2pIDYlwRuoEY7NJZjz0gs6PO2hnxwZZg9YrqjiymrN1NF/V3Plg6/y6ynmDk1dRzNayTZoytdlc5Uk59jsdKDC0V3TJxYVV9pQ4V6EPepzP/clo5dCrcje60iJMtMD3/4W1ZBaR3aDZyvANa+mjqwkj7NU/ZiUkpATfUlppEO/tatzm7c6LlwqmOKVLp7NM2dxpOp0I3e7DHUmR+bv2cHbbcQMqrpOx3nFfisYF2C3OMQsMvH9Wpkf0lBR/5q6djQWLbZoN0gnI3FCxXw4/UmCynWpi6D/Tw/tF1BpkU55B898cpbX0tY0/NcJwYC4dIn1uxSjdkM9KZrBLhifIlwFqQ5TdS/zmV/8xWxcxC+W0g6NTz0lc1crNHfASp2EInij9boJIknywazQVTD2NU+7LPy2gSJbVWyMXBmTPzhtAzThOi75Y/lOQQHMMVbQvX8YtauI/3OGT6b8q+Fd4d4izT1eJQLtHcfuLUa9cEFjZGOspaYMJk7x/gvf8qH8dOvwgTULqkWzzDmbh6wCNAAAMArvrNV23BvdkSyl4TaWjdrIFzBxS5SUPIHrcDbRYD5rxDl5tMqrMbUO6oz7kejGpHH+LBmmIMBoaI4FHpwed2rko3EPtB5t6oIwuVNQT4E8T661bLGQfQtUa8skQwj94+O3Wvm+pOxLu+tAto8Ksi5qx5cRHsYzmPWTMeWpvQre1Unn3Gs5GllL2RCIepEkVH3rZlUQYeWQAj9m+vBWQE0unAcZK7+INCFJgW52WfBnlWEf1nIE8MKNbs4OApONIvHecnlM35Eb/LwW+i9qIeTAFvj2grBu4GL6kZrioLnZT31McvyvD3PHdYr6BbsDfMJIP4cL/LjjoyqKT4byQg7JEiOkoan4LVd0vmVxWrNG4xjx3Em4bHH+pM2pzUS+SNqrZESqzG47ouLevM2zZenOP8Dcrjk60GZ2+fi23Lor9+SFcGXbWkgulJ5xZrfdm3RKC4T2IKqSrTG8BV1z4lSRqiLDTiKPEodK4O1gQnxGohj+hpiklUATLlLJM/DU52KJ3YZL2t5jom9cmSxP77la4Udq3iNoNcVPvUXluC/7SKw3VQUyht8nt4UVzoKvB/8ARbPN2rgJujp3oMekn9mTgWlteqQKPzt3s6khUcG2Oz92k1LTdw9Ognvq84JMPSY3JuaLGg7C2Jx6b0Hp1XM/Mzj09rzfYzVA7HFbJvMw90wt5CjzbUkoUvA1RGrvz7j5D37JfQmJqLLIqKYhm6IC2P3gjH82MNdRR70f0I1o/9pgCsn1Tb1psoFIqUXHtUWpxMRzUS7fRkT7FrTFDrbIQAlBo8goNk507rYcUcgH1qwFlVS/bH3FC5fJwAXPOZitmJ4noXcyueaeMzvC1sy41WLxfIe3nFtqGejJE5xpdPzt/ede1fIOh5lf8LyfK0FvbLW6fyhcdVAJQP3ZmiB71GUnpTh2G5+7qcbJUyKWyLn+2MCODlG65hyfF1kYKsr+GzWo+XargHlFiMnDAQuLgWrWu3d2lZYLB71Mv4i963k08qVR0ouo8jqZ+arb/ehXMdFUpeecrTlK1VGN9+MommGLVb3zhGmRVopsRhfkpot85qltOVKF2K2ySaVOKngvQMCGOGhGlr4ifHIhT/q40Rc4k4NltICQbOgYgrhRaVcagxcg8puRgRGh6aHiwVWB/bKmydI3PfxfuDR0NXLKmIXKm8dRdZ1NVLLrd74PMl9WN5rPWaHVq+ojUKzWgii6xNf6sITRSLfC6/XGiTSx9KAIpl1TzcqLypE0ky6EP1miCGnc1CtzguDs/nvRPCXjGjPdORF7ogSH2OGwR3+ImeuZKMhlaptn0m8CpGxAYX5fYCLGxp1YaHUcNzYrDw/DlMeJVvmIHd+ypqJPx04REjwtlPU4Lo/diKuZODLKkjk2at22E6KESfxKKUqukng8Ea7mONihOpzrpwS/ZWLmEKCSPAYSc17F79TExovg+VTtIczd/auFDMoz5r1kmDx7VQpIFfa9sqUc9SbUyWYzCCgleU5j7KXerSasDXB87vY1FSZ6ZFBxmI0TDBK464qupSEx/awoJ4+0HBI5Fqo2HiJJjXurUvHTw0gBz+4pYNKbKtN7/+N5QygeZ16fpd0JT1hG3gLU05ADdQ3Om2pGhXfJU8OYAVrVJmfp4KJGaS1e1UnwZzRALHg+k3Oj3M4znRrif6Md+0AYC+CVVRxU3XK7hHYveKenx0ZXTPTk2Mefh63l+rGqwRRZSd1QiKOMzAt/AG7BDvZGhIuIBvhyGE9dGWeIG6zlM97a7K8s423Di31Q6aOeEPAoMQtVQQys77IyaMtYH/JJCmACgNexyLUpSDc7CD7nE1p7lJ/QjZMsUp8qb3yAZDbynmOzngdZA0sN9+kSDCe1QR45Es5IUClSCf3uqf0zHn9djn1xQkYyqcfS1mkn7NZ5UT56hnOk2H6XbCJO7v3SWUXpVbYxIF7HLZBIVva0ssmUSBMsc4LA1MlCvK1og+TDHRI7ZmVOPkG1uAmp5zDt6EYNhfnp7krsxKSHMt4ySkOaa/AAzd+xKH8TwBO+JlWcKdOYWxQFIoAm/lV6LV/Yzt70RB9m4FbMJUsojv+GpQ9Zc8Ivw2bBJ6PiOoz+Z7JDxS/KaZrpm9btijTbb+LkMB0xZltcfPJWnCONgzQCtH+mk+meIxHmeAVcc83jv/EpuUSzdYg8tUKC74zyMjTT9toEUVX8zt1s5iYLjgE8suuEC1ALFW1xKJdIgobF082pfIyqzLSXQYG2ERb/cVFUSgfX/NeeWhpAAMU6klSmRZENhZd7yTwR9i+msyUWrjoocOwHQHSdVmUjzHua45XxHZJDdbkpLaUC8iutRIi0ZE9bxsSvFawJZcUjQ7ulFtTxFBpA97s/jryhziMwxq09Txh0EUkweAc/si5/5tgGjOdBKPYfYKAfrxDfN0ujSlD1qPPfB/yaJnRHrKLscIScNZ0fpaFxxNjMwR8EopyfrJ0kwjztZA2ro3rJdNNDmUA+/ixWc2Ami/kCI+KbfrY6mxoCbpKU5cPcmYMcPjwhw8iugUdpL4Qa+Xf7mZrDf4J5ksbfuVxhYR0glnVS/B7z9Pi/PHfL9CKG4SqSW0N0XsP5mNfjARPNYj9HrQJxNJiAxA6BRL52HqDncmEZWsnieX4IDlqiG+PeTBhPVrPWSLBqzgSs3i+I+tunhK1SuW0QPZaJnE2Akk+XMqgSCW7vUYVklicxDUKm8BKGvx2e1uCILb+8sZLsTOrCQ13MZazvlytXVYRjdAbzdWndzkMvcS3NYuDMFwQ9r6d/3B5+/zwUDvJmGZM65L2cpuhgehuWOAuY3eInvmKQHrzaS4XOQFYSC3Z/ypEw1ukdoa9fMvr2ErkSq4K39dOqnUtqyLhWPuySMHDQHCIT8MdX3t5qDW5Z0x4qaXFuzdFZNCIRamG3UtFdFtKy8MjbiSTdqZgQT+S8CeiARrXFSaLgp5fGPKoK37p3cnXxbUFeqzX1ItNatuDZLTwwQEhGcdiXPTo19hYF3Q28b+Si2+O+H22Fgb9tOVuPoLkn+YQxOvTQE6/lvEX6txzkmnFrZTJDE6PpqEodA1PKSiH2yZariAyILPy0fiYyM6u1Ata1cQ5qp8IFDEFy9N+KTvVMjS/Te9x8qyKcgR/7Ipx5TWmqa5A/fKEyD23aV4G4cuZW/p6t8I5bMn2rTJEDF1ptKSl2va3JJL728Qhmgv2XmjMG6ZZh2RTRLjGxdMrTcc13aLDTcXTryN/97g4s6QQ4Zn4ufXy/W+DmdVVXCmI3OFH5Gu1VWzm/x5k200pFUScPWVr/jC0AtWQRsULYpxLgThqc0ZDn414RTd3c01XrwkjhRQfJtGcNA6jS0ibVlvKznSkNYCwD8C+AV1AUt4a6vH7QkFZaWCI0GaM6i7u60t1/XopHwC2MnoGdVDtQyeM0JUndjwf8C/pc/AruWVvSCH1863F6tL510dljKdTJDhybt+ZwHm03qs7LdaYTakwaOEzm+vm2EKxIx2b4d7EY6CqfbNyuYdOkXh7DJhmVW0BJqzi+T5iH/ITnZfYCpd+fV1ZJJRqbcVIjoV2NBnR/hq57xv0QsNJZvzqk56XR05My7Blp8fGILCkLvWRIB5R1bL9brxbvKrXV4BkR9ID+BK6PCdI3gbK/m/dsJh7T4a4MrzGZl7WV8v+ihg1gQKmW2Y1fno7VJpq/IRfHltxRHmHBYm73gQGkG9xFBVm6eaT3Ij78aGwAIlUNJj3/VlEoLBVbU8NBOQNMY+GoA2V34txUlkQit4SYziuhu6MV+iD3mdR3pjP3IPmOkmedrAOTLtuKlX4lge5LFB4OSNg52RmDNTeX5lpq4LiLh2652KB2+DimqWSdxdMtvnfo0tpQa7k3NL8JlGlnreaa2SNbHOBasFAwwumPF2hPb5/Fl91D4QoatsanOJKBU57RtAFrbG2+l2UfUo8mitl2JwAdCNhX1BqkD1jWVkfjPvNARKRC8dGFJZ2aAfoFpvW/11cpvnxwtn6Z18kL6MXhaKVdnJOr0D6TTcumb+No7B90OQq32RI/+I5lRdN9pEiNmSC5Z8cVrTlt/nZTADuX9ciV5XPm5TDn0RVNgVl3qzzZJpAlZyPSi5dmlP8PJ3FmXkVLQbHycQYn6vGbasSuyaCNA/BvbmslQk6MZc9ZAfqTGrul08XOXDsD8w4LS7iP/+vNGW5yXhbjQseAxKNIQMH5Cqg8jysw2r+cdRfd0x5tQ+4PmJb+mJdmXP92tbMyX0iRXk1glG9G3E8OgjbG2h9K34kYpKZNgmdFm8owq5XHhCJI0eenzY3URDUzjsI+9DuWC8jKVwkYHAzp51N+rvhk1+KImMQKpuNu5jCy/nzwCF5TPkTd2Gd5KUAwmyH9iufT2OjUr1B+GV3J0aQkOg4mdLNfIEHHptQ/KDdWNnsQT7z1xsGLSSq5K7wU2nT/xQlBtJ6MXQLJbvzmsRWV2+Y3Dho+024es0SsW1m3xDl2Tt9uu5WyOzSjt21/8ieUnYGHIv+0PEvqIXysD5yhMJhCFoRdWHuVyT5l8XeYgLvamKBYUdR2N30oYCxv52MdGIW+FreDO0CX6CqaPgTzchhfaK2yS70pOkurobjJEIdcbA/tdt2LwENBo1IEpAP2fAeenaNuWpapREDrs8rYpFTpx8UR1uM0tP/J2qQvejuX8LFD70UtWOBOmZ/nQYtpoc514badqVE3040TrJLm7SKqvTzZHsVt+Dn9EfINNALtrtwlT9syED/gmKEHmlKjXxIXMRY7STIDm+be1ROF3C6TA7R1Xn4SEyp+1LdhgooPx+QGNlmW8hISYWdSx9qnD3tiJmFxX4ZIxtckYD8Wd4U2DCqPuy4Nchc64Ip2Lz3tK4dieTG0nZeoS0cojSX4P1LydCr5aDy4iK1SQr2tDfB8RfXpAHG2ZeAO2RrGTKWZBkjLP0tza0g8FntGX+wAAABICq6Em/lhJx3mFWBZTN4bzOff9sEPTeiaSHfknTpCg8EyM40P63gv9rcltj2d3Bu70ZIvcvmh12d6HWhwFt5MLtvpQl3Hq9HGuKixU/4PpgGMWMNxD1rqwcfUYwdUYpQnFm9nZJO0xHh5oO+trpUXonhYe7AtIRxxuvPs6znWZHCMROYfLj14VIFzhClnu9yY6Ks/+Q9+JI7skgIdEusg4Z6Mm+o+VS2eMouZZx8PU4jwbBVn3GUae6jeSvexXuAFu7//JlSGEQE6mNqog+djPntss0m7iYoUbR/zUvrN4xpmz4pm4aB/IPo6OINsmuegdwzqEBG4NElAnb1G01r2PdpEpqbqASR9cUSnyACQDUI0EeLRS7Y/zUED0M842p+kVOMgIrXAomFi0fIc6Rq1wnBWFd3InTmqK/FpEXARL1tz70OuMr/E4UxOxooIVcGVH18DfMLUyRyhVmDaKvL6qYUKL2kiR4O6vCjt9TnJd3t/6knc+TQclUKC0Rre/yfaNe5JvDRQfP7gH/kGLuWTU1i0J3b4S34O5EMOSwzPTw7fpV4Zb5ogKGVBPcakVwwtJrs96SSo+DnGbHR0QDyY6Fd999a5Dt/9uf15so0LHUzP+Ub0ZvilUY/lcSf6n0pSFMD8sZt0pK1n+fUWATZl/5mdpq65SmShCHi8ILF/R7aL1rMIKZ4Av40uRXb81G1T5TjlX1Eq/yrBpwNXbIv8trFqr6R2HGEgnUEcO8vO6YsA9u7wCKxcS7SuTXhEoCsYU//cTbv+ttuWp5eULbRHmwc/nprHGLEXPIjEaJeyHhlqmPms4R/dJoGwK3qNwxiisY50Z0IVEEIw3yF1bCQBZ2GGfafBw/eiG43DL0qMIG5s6IZxUvAviXNduQTvJRcTj8LdhZh+jcwOT9kOU1PHjI9BOYlRhfZs1XtwDx44K/SiwRYBNFJr2PCDORWOnkTSLES5PS8sphjPc9whEkFJUIML3PEYuoK0CKNATdEw9BOXOrPCzdLrSr7939AcIiQrhSO1vftiN1jrOVfD6KWuqcIA26OjKWIWykT3SmSSUay2rmb2TNaLXzFNYrlpCn4ZX6g1iJdg9X7k2eIf3cBgE3Kx7sGAD+bWCOSXDDMq81i/euw1LP1Ly1zb/eeftbXK4NvPeBLznf8QzB9IC0eA+h3dW+6hOgP+pv5tZXXmJwjgOhdar6p36YGF14x2lqJCXMNZ2SnKp2Va6ZVJgQh42WtPIemwp69G8bzbDuGqrl4Pxf3coIJiHh/eOl/4IMxXodaoCqPxri2KyHtDeJ5CoX8A61kPeDeVPfw4KhjqOyyo/qJiYwYeV40g/iH3polCMO4M3MXP/9TPp52qSGDF0ZA/SNJNu0jm2b6C/0DoaFE22TK/Ze0lCd65x5rfQjJrDWvwQiiNUPm1oMTNXbeVZUUQlt5Dc4Ee2vmQkNk+5X2jWFLEZ4KaOsBLBpYbExnZG7ZDfqIl0RTWsOXbbNqwAoBo04HPYSmvzkH2XlkUBCUpTi8FPlvExOqTh8H/Ij9tPNSIV2Ol5WW5JpVMvm3O3B1WKg3oMi802BF2LtjkZaDZ6lyvFZISt7I3QPc7QB7BlRQTjz0Jkvy41/2NXKuVImvzxZMVDdzaOKgG45/2Z37q3V3U44ql8abyS0aVrZv93Ybe/As2epzVxDA3LN6z/bAkxV/wIGYn0y3kDyfczQ2H46I63L5cIXcjJZU07Yq1Paox50GruTSjYvDqz9VapUNoVtBzVuVAHTLLkAzHKkwmP5cWCLqlHJVUrozSg0m+J6Wv+ChxsPo7JLT1fPHw2NSIY03fcQSP620rf/ife5OzKnU/+nBClkPlL1MBlRHMXb85q5ihIBZKVgE8RQMCe/cAHx6T9mlpkQFql5oYKMkcz20+G9BVs7itPbVoOnh3yfzs6mAP4GRiYxbD3NbhMiUh7YYMoSXz2lIB0gfb/8ujDP6V7XiUG+yDvETj35v9AfmyoG+MOwzMcj+bUlfuDp3uhSIBd8ES7iXp09ynDR2j7ZacwP1le/FjXMVoLJmHWviwP4L7gS72+K9lRdn29pSNYvS5+ThW01nhw4lKUAm1zVOAJ2Tq8EsZOkcBqfqamfqWeNQK9IsaqHVWaz839vbByE3vQZhZImtQBFzOAcm6sV7TLfPsHyI42+Og3VRYaJgtY6xPPRgpIgQB5OQRTTHJrVyzCvMq/YOnLszZbc2jWiLj6qE7pu7QqudN/dGQOPN9uk3538miXzIrSMSvPNaRaC1ALPd1TX3ln/b/NGC6/rqs2lT3m6FGzEC10QM6UpCSqqp+wDmOhsghG96TUq3w+qDeSebz5P7eS3Q9Vg3azTcnN4Bc/SJq2Y50XtI/jBzxINV8z5VwBmtAySUGsINQtgSXDwndceDcGPCz31acORv3oqU07eUHTzfgMwuEOYEOnGBvEZ+a7TZsHTKpC8pAGz8HiQmG4YMKty7UNS9oVbRDfyOCcPtofAAAyfbzcvXgxpQCHTte2ct8HDC98ea8Q0jQM3wKnJri/Iaw3Nofbl0nknWhSpiuDf6qTQjgD1oVB7oDMQS+DkNYiQOAZxulG4/7LLlVtJKoyujIFWqeOfs74+E2a3D7beJThMP7S/wpoF58RPSvpG2QVOcw79+DsSRRBTNRLgIR/Rav9dUmloCyb3nnKilh40nwxI5kW5KsT31JP5lmqgZ2qKX2XxRSjTYsVC6RMk6KhGtNVcQc595OPvjjMUap9xHbiRl2/ZnV5W9yNr7jtrs5cyHKXgMzCqmLvNvUb+BM3jQcmD/1GtrFzY904IAjjPr3ItHYJbCAjO6SLdqSwjbjtZz+h9RoTwZZx6ZNuGEz3QPwLjD+k+KOYb1j3H7bg+HFs5MNJnJHVcuRX9unNeI73QF4mviTshhOW7KcHsfClMUqefTdeat8kRFoReLpr5zHf3VYy1Ywxf26K4LTvVofR3iCD0EPlCISPMQXknwmKltU3jf5y7d4Caxw9jPB1V1fnJ/wx6ekoZM3MbPS09p5+FxefzjKHZFVjMhPmtmKXFVUy8CK3W43X5Gi3YNA+Ea4deS17nWzo0cw4Q8/Nm2kxlZqCLX+071nqYUyIbH/xra7LehdcT+okHnyzMfnAbv+/h8/HE/hichPDvuU9D0zo0hX4HchBq4HE+Ytnj4jeiLqoE9Wh0YKbhaZ2MT+Ow9mYP+HPBamby6/4rz/qpqA6wUCVALUHo6amy9HKEPQlocavJSJe78dFKvvLuvzfQGIcs7I0eQ650FGMiSiuDfgbW7P30LyRohOtLKT3L52e0XFDu/2HY1K+rjyetkut+7vddu7q/bix4dVEpfS66JA9udSWpzh0CiVriT28jcReRc/DPDeKUI16kSI+M8Qo/pYNqCMvqaMKgQaA8BUkcJYvEJg2NK2Tgo3skkXVnBcXrZpJHninnWwcYJmEKbEn0QqhLqs//EC8GAr49hHA8u2zunkQ9Z45lelOlrEWJr3J/jT7s0sensOOiid9NguK+90GRvpwqSdhv4f0Xs5U0HZLik9yj71MR0YO2/4Sp7Vd3qicRGbzQUqUjXIIp7jY2fWUwpIsPY5IBsHSkFMy4D+NAUSg7C8zZ5Ptlxx2SkBCMONszYfMIuijllTFLNN20MKn+NpCeiAiiDi1yniG4nm7HNqs4ky8l5GMcNuwlDwlkoTmYNGJHQ+rl6s1CUcQu96AYVma2QFTxej5CeY3Vx86RYkkc2LOi4mLJUaKl9muq4oPWmrs/8gTfZUKJCOuh2q8qQXRVzNhPoKQLVyFS8No2GZQvocda1AfxTzjM9DxhJ0zkNke4hycyHRX69B1tMh+XlYR2AeVXqjwxZUbWJdAr5UW2pNWnTxXp5wSO9QWYXHL0zg/UTYg0z+JskinDJ+KjTZJJaXwJBVOLK65V42PT3FEDWV0vimesWW6nYW+CiV9/oTnfecWtRuJilysNxjPO4FDbAa0arYGUoBvDF2R9yx+gZC6998/aGKkDOtcIrbsR+arDTlte8zR+1SH/nd1fyyNreRNzovytIfzOhsrdzvzIL+8Rzz2xRp/FCIdAeYBcN0wipA2lBDDiOgxzrPaF3LiuU6cQDP8tjfs27PPlVYHuZSGw3PEk0mC1U575yRaEC/TkycvWs5p2QxJ8Aqk7U1X9AN6LpJ6BoJCFSNJg7NhDfDiOjzblD8GxhFmCDLV/Ug6VMZMcWqnpW98c3oNoL5vKeZHVaYcF3t+Sm0QYoCbiUSfhq8JuOqFb0fJ78UtxUKDZOzALPJwrHZmF2LbVvaSlrMohwpzjBjQs1HC3eTt0wl/18A8cy1HGMQoO8punZdxJJU+lgZkCBxGNe1UVQ3A0lk7boHLSCT/sX8a+rrHu+Z2i0tOcwm+FljNx/q+UhurwU6azEHFMmkkeFhyZ/s4TXTla2EFUQyOTE699H6cIbt6pXNIEPZgby/mY5xoSaE2bb6z7V3RIov3lErqHxJo9RSSdYkKCTfLlMZfrNEaAXuZVRbeH2IBdiuNQoWQKOV2t3e4H9CxpsHKuilr3FuZWF1f3kLFN8FtgIDH/x4gBmtqfYScalfhR4pnaYOPc5gmWUX61jUzgIH2rJRxDL6SiVVwCoDg3YuIuebyFPPCfVfSNRrF5xh5pp+cGQLl37JOzGchsBj10Lnpd+4EVHyKd4+AnH0+2oBzGMjNpBd35rUTPRm6Lvlqzms7pwStG3VLmuzvM3Qr9VVHer7a8D+YypbFwEQDz5ctk4H4Vwoo0EyGPXD2OYkLrBAtMJTgKir2rIVgd6sNiN/IN3m2OMJvpf009i3NfvxzEJ003Y/a0h36PDfA19bt5OyWtI/XOXvKjbYFOaVOU0iF1r+Vuf4mk3audxnHxjBBif0HT1zoC9l/dDeNHaVjFx25YPQqXpLwYvI12V92sUamT7YKtLME0TtDYswkqPdwpBM2ZvbuDt+vDw/4nW1Wr3rPv546rFaRGko0AAAAGK7GIhC34ipnBFSZ2NZuk3l9enmjxYcIRzJJVtsYMEEBxk4L3htLkFEdmO/oAMCfwC0wxn0Yw3mUCcqe6rAldEywZWSoi1VVDQMjjcPWZJ/tTC5yS3eyAKIslK7YRAiBZM/gE8BMFzTp4TbZEWINHZS5n8GomYizZovEaUHe21P2JbHVSuJWiYmnFbd4M+LVuvn0H1wYuTyIgVkj3aI/IWFh/eX4xOjPmO886a/U9Wspa/NbiRprB9nCGbWGo5QXIWNB8ZXn7Mymq4AVzdQzEHcebpR/LGbeH+krpJSjs+Ui7XDBHhWsxsBqhquxOYUyaWnYk/PGvsp+pz7nKDHpUg6VLKdOty0+ri8Ql5oMEuZs9xcZY//zMdua2olp1fsqRu7nrnf9+L8s6eYW9A/vywnST40krSq59OirWvfEJ7b/LyDiWOaf5b7CtQnD6shbkItTd410/2bc3n03igQejtZsVlcT0hRHYJJ2p+u0MXn4NJThDs9zn1O6eBegPev08Os7XBJAyXxRnQiLnHylF7jlAnNWqCbzTQ2c8j69T+XTpsUt43/R4VGxqQq2e0j9xODsMvZ6j7oChHMSpVqX1gKQPIoyAzpgBffzrnR+iZYsWtYz+T/+spd48V3WhoO5do/STMSndO0kCjvtxF7hQWmD6bo4uZ+KJJ6+l8Gvcot/nnKj19OSKm230XAKYf+YxmoCwIT15Mtun0IPUOtjKBt0No0hj8/mT5zxXTrFx61FlWOTInVLDe8uFRB43AkcXEV3WNoH97+A0j8z/0M8TX2/536geHiPsuFFv/jjAqafitOk7Rxlw5zV8rRJz99AVrvwgYRjOuImaU4oBTSxmVi755KPks+EWP/n68f81UB+gthWtiy+5mk5BGZGPX0L1nd5yJuDyK4IZmwYonbt/DtCEDc/iatQwA2RPhHDKI3RpkfXFKJKlpKwRbuZbXOwxj5sjcap3pU7Y6+7BYbnHLBeji5a3uiEIYm8xsIuXLZeMMK88AevSGl0riURnyhlwPKDpnQrqvobcw6EywMuZoNQTclbbF0RHF0Xy+53MWzr9sUIvH235TF232MT+0LAAqHeKkHV4Gx05XlDVeAQhclYHTzS9g13/1sW2qplP3VKyBaJz6z9um8c/zLMovrkGit/vZwae3tMlmQG467sVGUCvZs5NqvLktCmHgWcpMZy5myOJlW06hpc8vxiuDwdqbNPJ00k6QGqFUrskw1D6nDP2IXIMWke6/V5n9FWyu6Aa95FJLe3DYJ9KQWVOUOJ6jD0iBLOZRHPbOd6AcciqsVcaw9v9FoqK5P3uxx86ssvqJLtbuVzlRY/1yTVBQ28yrf2a9lt1cbTvbXt2UECDh2e0HAwdBIiYKnvf+fF2ajRX7XJfQgxb3y0fhVOkleiZaaSQXNdconCOXNyggLwy7VlbrkduG03htKFvYE0HyiIf+8uigjQkzk2sq7QBrtAs0fnI4/njE/pWkmtrZs95crjZNr8OengLrI4ChiEJFyqsiq6uhrrMLpIb6hleDyt8OUXbxLBqbXOXacmIyv1tY5lkTAksnOQE15a88378cbTAebNNiYSAGVwITSWV/pTAQOgEf8II9jNFUtOpB0bgUsYUkxDHWZT/cw7gde8tFEBZ5hPbfkwklsEJg9Mvlj08deS+MxiB4EigbzVF98913wdGY/aPrT228TL0LVNkudU3ZEbsU9XnAn+zdFXfebySjOHr7zBjlIN+HMgF8oUmanxgf0dsCYJ9eLoV7BCSWfRyLOAtWIasH7Aa6fPD1bJYskH9PF8oXcYdhpf/qRi/bFsC2OE0Jo12Dig0HQGHmA/7FoJ7PRIc1l00Bjg59jA0/VTQb0ObCdA2HPyBZpDwCBdPZAe8V9/U8hiycvrnppmVu1zak5iuaH9zPHB6LIVUY2izhFlY+pDD10lScm/s845H+Bl2MYY7+9DcorUeDi9owMdeycmb1obT7qS9ipYqiBHCTHJV5caau9XzvG0Pu1mCTk1/VsTGxmQPdeThtYHc0y/olo+motZ8OsiWyjFZSzaMk+JF9CDnEZygzNyJb5mk+qZ8rW+t/i43BlOqgrrgTHuy8tm7aDaXn3SOfAR6wZypB0wgj8sWDlvrri2ThYSdzIfO+UGWSaAWRu6CXegvEy6b1U7uIjItvDotmeyiJG/bcCQBgiGtRZQmFnlkmbsoDch0snvwpTNqT2NkNZ/r/GoF0cd2KPo5iwSMdKdIRRZ/tnhO0K/LHCQaX02fL/gcrRpbnZEoP3hFIvQztoo8K2cQ3XGM5feG3VCeVYvU9bd0prbWyWJ1XZdMeQ1YU58VQ7QW1px3uUtyevKg0xZfVCuohATi4kyYhmKrLp25ga9ac1JB5LAuq2uSFf6OQft31RJoqcluIto5ByZV/kXRuX0oOYklI273FWFn44ECinYWGSzp168n959V9HgT20EAKeuchWO8ekxSYJV7Yo/tPyqhrPQwK4MChUqBB4h1XldUea+nOS1DLmhvBgcVTPgfHPaIJoOQrE50t5Na2YaxMy7ydmfM9rrWNpwOC9t0kXEnhwNGkGGDOMf+q1DCtg1PsU+6AXSxXbi1ryPz7QgFzmGoiTmGcxJ8/Qdyp4h+EEuhUwPvM/FN/grjzjArIvHJVJXA6G8eWS9CdfRcxFXexDsgc3yKEQlvJI/l2MSvv0RjbP82X53K5Emcde4AUG1vnC9ZGJCymcb7n27gSg6xCOXhJLu1ktksoP2EXit/mRl3DAp3mDkc1VhohzXER85gLP97Bs/FLsWKLLwae3h03JxXONPagIrJkCoPO2bspnkkCGIcsFdtOQlCWwSZOwV2ME2D7P6JBwAPTE3W69n4feIgKpKIUH/MzhnVkOcDox3W2W/IG8EFpijY+IbDV8bmLM+HUL38lyN25FRWomIKZ6+h/+iDPpoBT35Q4kLiqBeGSxT2mDmRT5NIf5Qhe91aBNmXEJRuBVt1wFGBJ4wSQnbDhVVRWy6yRgHGVF1H8Y0TNqEQXYQx+CTzq5LeX/GqRbOOP4AblocH/FsfqLZ8o56AMeR6u4qKZX/0eafnmltWAbe91UyF++3SdDOyDQakjdpqV3VlzgG86/jqeFZ/jp5721Nt2q+s/eBkHcGECjKlDB8BfWgLxqzyS997kxZBYr2cGrnMqDWpaO/iNuSOwmelczlNW6E3NVhnvtwCrJ467sONPVVPsGWqpXhy1CWNMNzg+HZ7QU+U1ZTVg/IGJSS2nzHIsotsQk1c0YhBUhTw4cC1YF4TNt1OmmcS2LEbn+Y3g+L7pRNZ8DizV2QlqJ/KbF7QOYlsPVbORKBeAzD3oNSPlOC0A0fgmsRJfU4lYwungkHtNyuLXUqLmJb7W5gjkt8rt79XSTMnzbR6uW/qqDLEVwb44ZQRMG32IE2o5hAlUciXI8v+IixB+dLdpVi58x1heOvXaoaBIa9Jah8b8DfuUDWVJHxZuUStdx/Wl0PGW3q7M1eJ2XTvL+aDcJYy+3cVZ6U65v37paQuHutIdm3d+Cf2A9B4lDypJBIcn6AxMfIa7zlO76a9nKFWgqy1m7Pvu5UnI7bbbmsUwydaSXsJMHVXrc6sCN+4ooXML3+7jXhTdOU7M3pSz8NJ8uTHshhgJJkh26i1VscVXlyO0inon3NPHoX2tOZpoYnRvhxQ1FCxeLFtT4QKg3q5r/dj7mtSmX+BqYU6pRdyoJfQGXET6uTV4CCOE9qd7CGPugZoM8v/Nxq1zCpYbNeAl3BPXLZWAvyI4LUMYRm02wocLHj4qyYqnAk0Awj58YKmbZJD62nbuiX4xeyMU8+u+pPhxiLHwYvjX89T6GF9zZYnDCQrGGg8T7ymM8C8ApAcv1q6HAlbwS/CbqWli2xPacj2CwsymXWrA5jf7jiktch3FDIuVr+e4nlOT1tORj0E9hCkyVv/4ikoMruG/Stavm74QbsYVbgNx+sOfU4ubE1sdvSm2VdiqSrHLQfkxMqsf95cC63184Ln+pJc4BxFdBkM67rPbDL+Qn8tgRLqFstRoc5VrS3kXU2dX8jwM8klrBeUdHFjMqauVWv/UQy6qU6PyWVWSCxhHhrp6vMpbRGo5LfRtjui6IIA4MUNUR9u+7DT339dNNn2RcUMTbEBJner4w5vix2J38Nncg93G1WZcenmxgCSbKqK+vlUxgzwjq0z5Db55aRG3DeaCODb9pLjX0zFthq0zXRKOEmThStDuWIn93jMOb75jRzp9eve/3UniNqc+l+t30OZU6UHMKxsxA91Kn1VHdPowBV9pK/OceSX0jNtflPaT0xw9BvS6gM6P7FK9GKvRGQACZ1QuQx7ATddgBBv+9/16A2duoDeULPZ/N1aPK1OOpBe5nzYeS65bfwP90jSnzlVbYjx2L0aPalBXMED8AU26M7U+O/UeXNReFIyLXqsljmyMAIvWljEH/wuw+FKoUAKWEVNcF/4FlVpxBgsSJ9mDnrBCYdSAFuQBP0EimE1qmfZvbutADW5XInIB2y9Y0guBeyLczB5n7/Ck3U6IdrA8Yao5fzw1IqN5Ac0mI9trCmyDieVcwQwyacTlBwah4k4j4yAqGaM7fKf+b4uPj5+FJ/qq0Xs7AeADztsz9yJNrVdIVVYXLAQkd0RPK7n4bjo8zqzfv98GDrcFGz3Q66l/6t0m0RGnSWvzJCfZ1OFYwtAbJckdrr6vZ44Ow4yI0i24qaJnKn3tLGVjz+MmfWh0ZdQlu1EsGVDmFQSSO9X5RoSc0HATObZRrI6hZDnGgS8q3m8tbYoDypDUDkfuz3fK3eX27owHfc4WLOEb8QeipmBoGBdUsZKycc187hR7oaplcddmLrPbv9ah6MH+2HLPIoeyP3OVQ6MKplAzEYq6aDbAg8csGZuWw98Mwl2CEUmmW2uU9WaztkovZdLl6rIFFvCfjWA1OSrPBcAjAogskBvD9KHSE1vXyADTnaXYtVuSQw26q+Yd+fsgtOhM1ZF+f7yQ1rzZC/tVsCKC3qfqgGpA5qFjN/LCe7XEwCjrXi96qxSxRBrpfo5XkbLBMVk7F314Kkp/9vSNxwRjN3c1/3DL7hNjVKdHtMSvlbjgtzPGi6zZvcXrHZ7OieViJaxz7TXxq92AMQEoSiqhq90KQIO55mNN8HFcL4KsF4/QPF0ZbKZdBSce93qDg2NydeBvFY1rcTOVJFwIkjjdSOYO0ztNY/1+KIKsRd6io9tcTiSexqW/TnY9tvPYr2qsHjCoEJN+hY5KE4Q/Yqheep8JLCQPR28VV9eihqkrxupmHu4oyKw4qwiPg2dvbecLfClMw3KkTwuHkuuQq3glYB8nT58GyrdkROqZYaYifIQrBxXh7q9cWxPLBHuULtY1imIo3U2xh/GpG/WjvpUeARrcVfVeM5zyLyrwXV1wzXPBg4A0BkmggdqnOLGvRxdIDoAAAAA110phcnwozhuZsjku7F266VVFzazuOpVdTZ9ygrDSeBnlVGrrQeYsemU797inSOx8CdQNN3NUCy5oOi0k1SKkckCamhYDugaPMZu5oHPL54heq1pLQDduh2XpOu5gDvfhov4XSa7hLeoQaivH0TQZBowTxKJh7cqJkgL2qkXj4WzzAfPQ1TbuPMB3IxWCDKQ3ImmuGCf4L0LsGy+oMVJd0PFw58qJF1UUrmlPVMZUwj3SoyWAsZyo0I1exl8phIJGKSJ54lNI4fDSYw/UsTfHuYwZ0vvYHrHN29NLcG1FZQTk8n+zSxFVN6AoKYHIgxziiVmsR3ymrMGi3BpHJXhOKF9G1PE6iiUEI4kswjWDGVgzBMMXBbjmR/EGE4RrOezQi0eAIrc9I1vro+3pz0v8ZgDyOykwAvH6M62mtkKw/Q2IrVFvHHDxRr4Sz+KVDz1Izn0C1bbjH6tr9wXPWvMQy4RwG0G0KhWIzcFq635Wp9GkJrFtzXpdwgAyuwAScuInIslOA9a7rF2CFUhiMkNPhRyggAg4xnXhPBQ2fqnWsK0uS/jMM3csMLxGJt8SGau06gPWS4UdNT0BoYgzZ1QhEfQHwg4vD25nwmrip2NDfEmLtDsmmN2tv6h8sJrUEwf1YpmnNLST7Q/lpUo2x/aicQLzjGl6l1O+y2PDod6WWWHxqcbsRxPfUHxPT21csaDiM8n0zh78vGmQAys2MZaVW7pwta9KlxAt/bwfydmdxNT/uYikC06onjr9LoMAVHQHaR2BDih2s6Qsc3KqKfg+KldWHpBeTdh3D5AmgIO2SXjGrrZ2Cex3wpc3GO6P3kj23Kn8nen3CKa/b2l1hUdHjA1pgzHrBTRbRFQwpWKyrYlPLvmAYn0lwVVZ6eLmLEwgpaCrDQAu22E4jmH1vNAqn5IH0nA5B0hEaieX6/xbS7G5ju4Us/U/2+pcwXRqS6k64dl3+djcBdCKTG/x8BGdsGoo1AEHdn+mt7Jy1hxEGK5Lb2xCmcyPR8VNZTDlURdqrTQcj+dMe6AJW8XW+/j7qL4K7W6HGpuA5ARW52PQSSATstz0+7GKhPDbxhjf0FE10h3Vz7p4c0uXba8w3/s0O4MYhl8qmcp08AXAJBCc2udOezQvdd/x5I97mU0+utaHvRCpo664AQId0Me6kHV8Ftyxmqfzq+c3V3mjgT6tM28S3LPD251q0iqmIuly8/Ns8Wla28VfLA09HyjsYR4qNt93yRjAdEoeiXx9l5rq7WMbSsh1cm1JLw/uttd4JUjJj3tHItiy8KR7TPq2x+oRMAVqK6PdwGiO3fOXkduMDqoe3OGVSQ8Tcsce33UvsFsi2wJNXUH6QPNPlKFw4B//uN0CTVjOCKA+AWIC5UQpWPv03qDAkDJ8Cxnkb1OwH30alAE5+8W6IRBhfIYUCW/a14vGrJtt94d0A8DOlDmoIwiaGWVwB5V1xf5gHr1folXH1SAAlYFL+722XINv7Rfj6ygD0esG/ub37qjI9wHdSTNKO+aSMBwV65ryh4M18/gq6xDIwGn4jAfbdcTtug5ltq1FeIUeOKE+mtimpdxHK/IPd74p2o2mpJpb3aNoFfQnQkKn46Yc/yIc888KI0mekuic4pilPPRfbaA2hr8kfTbKwDXt9Foy4H9LS+id8Qme4wYZenKJbnJXY5FnTLyQvQEPYcZSUEqbgV+7vZRjFCqVSISqT1HRnw0W3JnIxoGbHWhzBC0IFZuW0Ta7iR643w6IXdK+95J4wndTPaN6Udgis6trBgMnsGVWgaWbQDBklLxUAlimX6TzRWkTu7Aiy0Am4n0EJdc5OjjfGcS5UjePGIPV5ui+chXGOdkVccmfY2aEhe1WPyaY/MxzuXIymgr5eOR1fLciDbWtJbezQUNwZ3/eTTFeWqtPoHcpN+nWjeJbxvm5JhzU2VpYKoVCtp/Ppij2xMwGkg79+2vQ9kwgOVoAqTgdHMhdMr7X8EDX2UixvNWzeu2SOJNN4xu1s/nMeA/aaAvoqkBFElB0OEtL/avjqes/fPx3XkHymTyn1MW/jqASQFKOn59YmeN8Yk1nSPEiIjtY1Xj3qxob+S7Zy1MEHqEs31ryTqCo9CW9Xy8szVUyEQqDDamcrAoWOj6LrQB0fejNuJG424k7mlfzJeNRkxovjInhzyQstMPfU2X1+Q8kXR0nr44xerXkLrL4Llgj3JQ9w9/su1E4dvZimEDqz54jF250dBvQymBqqG0SC9nGte9XUoYy8j8B05gWWlmU9rLQPc8qX205hEdPo7YMgNSn+FYLS3IBI/2gWSMHq/Pw+J0+TDwaI7Vu1VLjALUZHVhGt/yzI1QyLtRd26TQYdQbi5gVF9XNhv4LSCDS7IWY5JcIsUdMzHU99EasUF/a+bha5yNmrLJzdqIuwgnTfzLlr++GF7Ve1eG35IGUrN+Q0koeQnQyX8FtdP+EwImszAvQb/4lfek0K/7CecmED2qCi/65sAnDRFompJGvoFAbDjb/IrthyBQSlKnK9cC6ZVBjXd0XDltHy0Z+eY1RzYNCBKR6x7wL9ZJM4rCZvCtA2krGNNvgEdqnpE+HdODk1u/j5K9cZTUnYQHxQfE6CRexIe3z4jTkIA/YxIHr4864HZn6gyc04NZdse3mQjZnARMcq4OUGY5tremxjWzUBDHyNls9sPWGDZZpfwX7kguav0wXngYzsbySqHJ7dys9HOjj3CULNCjFnImIuE9nD6YGptQXkAeUz7YYunld+xrjAPrWB5bQow8rVVEaMoh/I7slAbJ9v+lhzYy3sC+ySSw7GoO8nXYziITiTk20n8tXQv11iuCyWhTi1NhMFQszmnQOJjmZz3xMcSW2XpGbikJFX0yoMZAVkIIWnuMW4V+NZG2STEjVhwxR86vx+z6QuLaloKcGIBBdONBJJQmvybR084bQRPvrmyNVBCxtf+5O4Mi1i1vYDw3LeaCv1zCO7FmfvPiXUb1hlnhWhGgmozy+k9jDYj41V86ICTFkskg1LNxD1pN5Do9WTYaD6iL/EHjAtEzhW1HJxfPopLRHz+i1ZVGDMHedzqUdKzVjGdZHM7/p0REZlyRpQshO7LDnB6lVJmkP+9SZvv1jfUG0xgOf+aOSAOI9YFEUKvJN08GGQHzcrR/4xNJkLs+BHqXsomeIparIUJ0UMHrGwTVGU8mEFOuT0tngb9uvq9NbZTArZc8cy3cT4tF3iIU4eFkDWrEMAdwh0ZgwB0/LXzeqRKqsfwqjzhQyzZARcrrDrKzCkOE1X4Ei/8RPnZrclwof83+SQW9MUz/AxqnuCt5bqb6GtLFxDr8uPrcjeQ2L6TmeoeFghtCxiAgo6Md6N+kj6J/ZiLKtYx/NTQ38avXHy2zmoMx8B5OwikN0fGXdOp6WCv5/GWFMdcKxCJ3damoSjbCoN447cpet8zJGaCnMBgPG4JqGC8rwZ2JMuuZQ8MQh2Yy7/HS9/oFJqs5xu2mb+XiRBVCas0mZhM8HY1yC3/DevUI0Q6TY0+sONzAuy+XolhQ02vPd33p5u1Px8c9yRdBJaVu0oVkeq6unbAOcSg5t+dNI+NvNMnRb5VX91DIwr0YgN/7Q/b+gkYwctS6n5AscO6FkDklgS4gRrA+HoZ9YM1GihrujZ1BuYwMz4Li6gLRhJMH3agd3yZWUzmAW93AOjzlteXjaHlSBtnwK8OQzNNRwWSU+vEyWjEA97J/muvMyvb1NhK5tm8IWb6VGugGnVo0m2KtnpvyetzDggUbX3CBriNqHIUYBklqLgMKlxMZR5RCdg6knspmpElSGwjlcMIP3kbAa8RV88OylEh140MJsXYW6wKSqKHnaLC4De5kJ4pQKqaVRT96jp0b6fCnS81uV9SJE5qItOuhy9wIve5q0XG6XItSE3N6i2ziEbgDMMh4x+4zPDz/G8ngX8ghKh1q0T9TsutgyPmvOtu/kXDvEpA6b9XdFjzNB7tDEmEDpvcQNPMuFrB184Q7Wi10i7KXNRU7H5cVWwvJ9ez8HHokW3YcAWyEBSC/oejQth2prsB+R2gb7YeEUJ/O3MKuVn0kXpiHwMBkxC5eJ9n+PxaHhHgZTBX1oPxZiWBmTqYlfP38fqa2DJNbWJ6joD81ZK9BF2vBzv3xVqGhnrwq3MOprRd7MJpEGuz3nqnv7A1em7r6NoNBaYz6z+SrzJmsacsw6d7QVgw96ppOJzyzlrAiJF3abbbSiRBJ1WqdylTrlTsEDgvu9br78sqpLNUTcYzX4BLWy+SV/ArDK06/C5DyTXh74KrKxJIx1giehww54/mxwCVVn8nl+QugHIESIX0r5MTmonkPzF+ZEcxsxoWbvtgyPfq+X6dqOfYPcMJani/qB0pd+HgaLPNVRwrerIOg3F9eioFbhRY1gHIlXVASG/B34RmVnn8F6t5XovMKELTW+2G1R1a1UQhxkHaSTDzaOecMDa1hhdYck9UR+e8nNmwwXmtYQvHmtAvTFrY5YtVQ8toAQtThzQMJQ7xdFTev0pW4MKctRxfI3ADQ6iYg/OI07iYqMX2Ut9fwgKadsazp8rMim6HnK0mmpqad14la6GJTk/NLwR3Y76+lIZkbi9OqoG8JMzpmdk2BUxHpRRKEumoZZXKaR14qt5YJuIx2yqz2UaadShNuwi1YXALQo712//TB63WE8SrKJT4eYkAlYorAx3kHjIgHE8AodIlxe9pZR7dnzh7+KmpHJkiU7VwrZSo4LrZiHjVvck+HgFAFRPEWSmPI6PNC/r49+ZrxlxkPeqD/NMKcNLfOCDbLN4T1eV3DtGFGoYSzwLKcxHsAN/+rLMZTonxSwyoffbqUhY09z9JwoInQaL2WgaIH9j9s/oov2qYzT5M7XtbZBq0Mr5KehZbulSR+C0m2k/HtQuggmy9Y3EtpigZXuRIZlI+HPBVdz+FDs6z1degzmPKPyMVZrh2+zgp8Q57bl+35bA/oQJDxDFznn7CHFHyWAdnFN4itZ2G8G5laFlruQ23VJOkAbPD80SuBQIBwNbRmUgigJQtZ35i2JsqCxbR8UkINgpa8YJS1dlchwP+S7kNKWQ53ksFdMd1+TW6KcGhO4Yzs55YRINmQwCtdgZmOu3ImeWQeQVUOpz8N6SLToNVWh9Zmk/K2Xrbug5gEAAAjPKhQGCRZvyuxxnHJEv17Wlat/K6Qroji7a2Mb3+iqLvvZ3+HmXZBTKYcEaYwOTGFIdrFQQAMrykoPhS4mOvP1skjBODxvsyoQA0jYjueqcNx/eTnkvN2FpQXWNhnO8rSlfd3EreXyMYz1TX9jj7Rzq+VW7+0/6v+BRQ4uyOKNLfh6ZQtwAgqj72dl7VdgN/z+9wyOmP9sj42+LMRlaUqGo/k2gHjufyOzILJOU1/bObTIH6IzdNlG2vjSNThdLq0rKgwDBqbQtHOVsrtXnsTKJqDQbn58DaGYu353omDbj8nXDwVgLiuKjJUV/zOsE/v9VDTkjostxH7/sPf4LFO985mUtEzAEozopmYaOxnX7rzN/9vz3NxiJIxdHg6nmPdjbtfP9d7l+T4WB/0XhcwLY3EZLxiT+zYwUPaKjTI1UL96oeMRMicr1Y51s2jNNEur8UhlBeflx30JgupPHYkwIYxpY4xNTUGDQBzNt0vqlnudQ1T9+Jq7Jh5kTlHXbX72zVKcHWkOBFagEOphTUmHBn4sRggNY+hz6nYiUvfTt72wbvqjvbOv6cZxUfVl+499Rsr6DPfIqpmasR6/PR/BvtiRwERpVXpdHQyFcbmQLJmxvAOQtji7erbFoS2rPvYxQO0F4nS5M2GsKW+FVhRYATV+SG2QrtEu1ts0M0ze+K19n2nAh7lQGAeu0j0+iWlQQPUcRnIoIBbWHLMDGWXce56ybN+7hhKJe9ipNKfG+ss0TywPJkxhbbeFZLT5Ho4e2Uh5sXW5QB1PqXzYqAIp1vty6myFlhygYxbP51y9hVxIlM8dWokyq7IPHojhXFFo1AZm1kgy7FURZzwT25Iu4BFrhNPtrXEGKZrx8UdY/EBLce/9zyYicAdoDmLyAAPXx+HK+u5v31Ij7UU5i9P3pbYWnGrFWU3k0xRUMuIOzjzGuvSNPpqCI7vUvvNZ2FM62TQhQWUtWuFq4zdPLzB6FkVGgEnZraP4WXSaU1nHm+EYZggePd5goeMS91chfUC3VqC4RIwREHS7FzaoIaFqGTpNYotaEnXOjMT+zygTLGPpvGNlbtaTRa9qfl2fELfUBbfR+VWwEesTG6Rn1hAZzEcH21ehP0awq59nxxcMHvBfsbQSN89jumsY6VNN2b55jXI9CsGglkHRUIsNtqEgmJhNAhaaGKH2ViGLPsEEJRLJJR4C/bMKiuurZfqBtH7EOs58GVmvVqHMFsv3Q2Rk/IaTPdK0CZkRQk1glVd/ipShh97vyGO4kuc0sTOG6mMQ1D9dfeuYpYMCa8ajjjDHgnYG4TLtwItoRYNWb4/LPhseCRwMbxBHlpN4qowQJ0Cqg1nw5Jym+ceIP58QvzFZwIlwRmX2sTSHLJiq2BjrzlWROH8UpxSX8ZVLWLXVkzRuxeqfkyAc+34sEPAMQoduPf6DNPlmVBuAYMmZRMz2Xy1Y6l68BLtPiAMbXE1JKSLgha++REuAFM6zijj5xzfrTR1xq/W7mGlIR3B+FJik3FxAkP1ib5Tkt2xUcjpkxmMxMhYw9CQEx7Rxsn7mePf0vvAPMdszJc/s0gvxC5BnhQBG2e0smJ3+X98HtfHhVqmIzqnqfhAr2/ZlTdocqSUaG778XHKNqacMcn6rRTLdUWS2UaBNLUTJotRmzdTqs0jAJBbn1vVLev+Jqhatj0Izykmsj7MgKnHjMzGb5JBmW8qH2HbnImIrEk8yQC4bMAu4OeT+4KmpDJvMcu1PGdfuoR18AMqhFgpX2GCudDXWgrJbr/xLniRWAE0g9pEE13KZ0VZeux3H9HUB/gwiWDxpeadQi0eBoG2/AxZ9eM6jQvOEDKkj3Xdm00SGGK4UPskWJKr7bcWZcPIBFESVRAYlZQyagEDvtZC4CclOPj8pucWS3wdq8kxuCj3RYRIL9r/S7Skqo53O3jrKsdfMMWh16x1nSUcDrPhTFPPWRXp/svz+mnTgzK/F/WsEOeKljMLDqn1TK+Xo6q8hTLnJafyhSHTyScyeViw+vZ1yjHctjHeIanxxp1hb6KwPYHMFPZkk2Q2FSIDlFiuVuwyIf0Z9qMVEAu9Q0N6aeCryfYDS5MCaYjkVzNzaX7GuqOzb4nRLGqHiUrbOhdVDHpiAfbYwxMG1hYAqmKqZv6JV8afGFgSsC35q/0yPyC+oxxA3aleLyd7BIVjwSTt+nZkTJ6e9QvT1vW+6yVp9y+E6LPWDBuvwzC2A5X4gKUcOFMHxSzgYX7Cru8GGS3UpVK2rYuYUuo9qbaKOvO7avnJILSSt/9ZcAkMWMvQPO7wwszNIZEcY6WCdXtKhyG66KkLOgbhj94IkFbU6aCYtYUzmC+++Fej6S5tPRTTRCK9fV9VxtxTTisiLDdpmU1FmbP5AFbtZvGPwiDcVazwSlbPiQgz7ITEAje4oR8ePuoNBGM+saoS0A5tbKQAXca3oYUI+Vc+OeALQ++RaKAGvB/CNHB6pQF2pQjrRHxkIwusWw0Gtxp3g0qd/zapniVdK7DGZrEK5e/9OU8F1ewKK7AjuiYa1upb2cvPLJt3RKqzFFkMkz992m0+FEyQwUtHcCqPmeR1vI44SyvgO+mG1ir8CxMyW5/sxCYw12c3eVNY3z734j+Snv3I5fAmQTlN88naYBptrd8bkAMTZPrW8/CkHEZD7hisxWlvWUDQgSUYBo/zxAvQy7b2QgpSw1DNV0KAKtLbsNCLWR1xrvtuaBPsAm3LEnpZNbALpAxdI8+RgzkXno1e+yrk3qyAhOlwp0VHj8fj98cb2s4YlIKEvYC2KhuaSaAHWumqx+ES/T4KI/1gSD3I3tPM5GdRDnfeguQYuh1+vmCp6W+pjN3afKQsoW7LNkJsxJN/JNowpD9pvP5mtBXwhYM+0DdfjcY/XJ/ELdzx8UaMzdqUtaPOnDd6wBWrJw8+ZP0dgbU6dPl5Qi5KduvU/jR3Uo7Aweke8P7il0umQTu1S5yJb2HXRC+gfi1iT/4oSX8Km5CdA7WQewlRF8iCgWR3VhlnKPy8VqytJLCKAgwgfT97Jwysk4H5pntwXp0s5Nj7t24aUrgOp7HfMgbg1bRWE8h6JgaQJflBIg8pOlZavTy4FyShzO7vMkg5I2flnXrrr+9MSYjGhxFRzqEIb5K4+e2XWy3j05KaLWna+yA56+qUQytgxOmrEIqcJTj6qFdhQlJawUYXSZ+oxqIs4fonKQOi20d9pSB7QB9oUVXLqmV/VQXa9OcaU/a1n5lRa155DKpDqtazM+wLJCrg/TgiGxYgJD3ZXDqrZ7uS6H4wRWtNfDJUQ1liy9XPQd+6T3s1A2j46szRaGbSOxYDJ/G7DH+4y8W9FSZqCMFxzTIg8LtXvjzMVb69zrJbvDlHz5VARFdzpE2zWcBn/j+GSE91B3xPKmIURLLSHXzzg66R6JwtFDi/77OJN9wKJa8F8dPoe2/B0lWxxbqRvjyhmwxPbnqhDMa8YP50e7yIrum7yFnSBxf1IJq1TM0rXsNWCKGWC/5FiPiSYfbsNbhLqjfpSDBf8QI92Cmr1jCpcw8hoMAtpRsWWVWuqct406XdAJWcGGPK/rptiEmD1yo2AomXQuTRIu/FkCwKW0IaxPQOY6nfDvnx8gLay9OH+pw2t0TuO98F7FShkN/7p1LPmIMdZE8uzCtJu3gY1fi4PQvymLoLmS7eLajQ3vhVz6bwWwPB/WGJJq0RTcZFcav8yO2+6Fger4EC5JLJO09a8D4HbB+fFNXm1EGwFlMAufQeuu8K/TZ1yK8oEJkiTO9/1LLiW6J/rFK63UleXKvDPIjA1Kux23oxnTUGcASE6/eF6LgmUiiGUPQytfqTk/Vjk637QE8/JV8IscUMHvAEK/cJNO07QNiRYdiGZw6vWMcnx0gKazFeI3d43xRczVmB84sA6qoaSG+RZHtmknva2SK9glATmMARGxHKvh9KA6yCf6bL6tp8DjtXR07fyEujyr9Nde9ROyQGhWfY0nhZUIURxVkMKPZWWnPJMvvOTMBfLDoJUwZGmv925wU6lUQlBC3CdItc93H12LG/e8oGW6+tBJxHd4btn8nr8KMjM6LxzQJJj8JjIRHTiPBPMv0mzbHhxyQkeXmFkqdEN4fCixdYEYWgxjICcxNhJMzYFFtgC7vvkS2PyftbQro+mPvVKw2bKc+UPzhCEoMd9fptKS/VBHRlljMX9vP/7/NMUbRQPlDdnd/ieqpTjLG00HFm9OS7tRvR2W740LQPBJzB3O6aVJjQReKETvwtc/SU2/p1w6AI85wrJGudR0IyvcB0n8U5FoyYDgBUVKHZnfjdYRnIwEocWGsU/DoOqCx1V7EBBB3Sh4FfKtsoktycPg+j8oue9jCj9sUlxKxNJRmB57hGhVXIkqwrq+ZRFIY4mL8hIQWlPUjoJwb/juiYpbosClXWTrVdM2xPoBeGqhfd6+LLcKqSb02UqbD6HTeSrw7v/hjzTUpM739EtUV1a73EPHiC/rowIygV9XAnb8c6PxCzpCc4dvoVYB+jbA/62pBLGW3bfr23YBgH055Gdue+nZD4cGACTnKJdfDa0Ix2C2HNbOHif+LbRW3gLt705vLggHfPNo3kslEKwMO56ynPcN3tkqWrvdcJZxtn6TUG3rJ5I4FYe6MHBrbZZmb1T1L1Ik2pfGNTZSUSy2nPZA6E1vLgWdEkdOdCLqwoCtCjG3oZb4VoG3HrohM8oPR6VmEYihd9lb1ueu/5ExQjQKrSrG5w2GBy+ZYoCLyWgolE8Mb5SOZtNH+FxzVvbhwI/55gDQlZf78W5eGsGewQLqt4XfgNi+LN7V7gfqru1M4U9oPL/v0R5qZ1nSb/wePi+NvXeueID0lorDCaiOX5ri33fbHYbv7rDDUbo7ARIIyRwG/uIMO/PtAoLiq3m3+/YytIL49UY9pOLzR+PeCOlNp6kML2PxaLGacUg8muVuMPtdyvaZiZTiLQusKhZDP4929VWbcR7xLrGdmDKZVdUB00bcA+SLFu/VnpAARFywtoaJyxghxsQX0otfCERQGISHYe9oP+FudMlYdAufSKu2ocoLgRlW8IP1Ysrtpav7iKpl3k8WurKmwlLIFeIapZTmPIgvYeveab7Vl4ZVQkv86u5jpyovalNTj6eGOTmdXF1b2Cso5J2JmOxKPK0zgdz4hQlUtLpeVvl2xsssStTrXgEOrqqeM66Ak8F85XQwoiSFMQOxr2CIFN5Y0qWT2kIyzuFbaS0+AwsBWR2BpclOIsOvJepRrLIIygByvsRCYlu7U+PflSEx+DLJivpaHSkdRMrgpHzPHQBzTSBJLH/0mxtHukgXU1Wy6z18IvD/Om6NVzELoeeVkqHDFIujwGU1c1agARLkrRLS3Sna87dgUjwkx/6KcfiwKtOBqMIonTTKqunIETxlN0MuF0HRx7oygR2irPLR0ZD+Ah0xAAAoclReAn98RHDDhDANXM/Wh3c1dPMj1U/cLewQf1tfzQkTtb1tE+liXIOz14MpkX6XBrW/0DtWIrTtzU3gvEL7x+8/N7dIXMQ8fVc+Ej2oFVztjkNhqkWhRcKHQxhjS+/A5Qza4r7bLbhqlJOUqxAJZlBxn8RrJmyciu4hazblqdDCid9AjhyRQT9jV+BZWOKvEuPygGtWuEzK+C2TIbo6sHHNkxJEvCzhg8sPWIRPF0Ihh80emzmdYg5vMJebz7d5WRRn0u++nl1Xm2UhOUhwHX7cRuX/oNfsyDZIBwsUqkCww8A0BqHeUqVIY50PzpsSJroNwsN+i36yzNh+MMspoA5BUAJPhUJmF31bsBkEfFRmVcSt1425UENaGp4TBJcHOmxmODSEM2SRmdCCWU8mQbskngQdEw8Sa+tb1V91S+w6+QkbUKNARMsMyqfYnWOeJuiQA6cYqqvR5M/b2E2BXCyUiXywYRWcNBB/8Gla/hK+zlziiu4cmj5wTeLx3G+ME3cZN9zcGquMsHkNOMKsIs4/zcFVw2Nozs8bj7sA+VRJH78WdoXLo+tJHlpJBq9yF3Wx07KIKjPJ5rmJHtOWRI7eycJYz6lh4bEQPjrKmbLUWJ3Lr91t0IS6vxhqOj+hzbKmTaTZWkvYFusrVa/GqAK2VCOqgdBuhfLpx3FrvwH65QV9v6jD1Nq5TgLy376xMyfVKne/9aiiZoolhxOXc+2/cu3dHpBz4VFX41YIzdrrgK1HiiZ5BZ5jHhtPeMIi16KtWcwdllmkLEB9gB+OmYftAkbsfkiCz5qO7vpkWBds4dmzGLWU+YpeRYIV04VAU9cSxVisOPv35EQS0mGltN+gdx0/oFf0YZMmQntEWYn13tfKIqTA0FZ/B03cVfrtEEw09enp9XE1V69IVJuSYvi654J0dd0sxZMLzuBm6v2m7xWt/iovmWbUVbdF86nIn6IUQqmjDu8jjwKAlMrPqi3JNsAmQls+hStHdZXbNXFaSXV/r7E62FfpUOSdBheCAxfk73ONQSKaBSphy5w5wvliH6ZpzjTEGC5EQs8kKJywy7uNytjAHMvL9KAho2rGlXNPzqnK95ggBc06u+3MKqyAPdVt9iW09djKnRFD4kQqqxybfHGLST1KIu/FPoUHBEV74FAWYCJpFa4SkuFhuWfjtchuPGbJkze0H2gOLU7xJMORddtPx3FswZrPVaJmBeQm3XNcaSYFqRhgfOQXBB0AZJa/bp+rIEeNCfmySX/cFtMXJW1FFRIFqA+2tAvNsekdN0fgnhVKMV98/nfOSeatdybU2M5d8Qf24xycYvbp865uU1ovT7UUsD4094WTJvFyaVUx6KIOwB3wtd6Yf9dDPNMKk0Cf9kIuspdR7QDxxu7fm3dJMQPv4zYKsJ3DMnh+fH0KQ2eiCbtwR6vkVKbvHbNnLzYVV67my12MW0374gI5Z4TS7GgYP7d648277lNyjRlHxHp/cjtTAG0oqP6tqiNNPQ7tU9QnHki1O5ccB1HfH4+GCAIlKOtNj0FWX7XoCVTziE4ngAu+ZljZeMTlyT9t9vnG4iUb7lvMgClV7cOQfAFgqEZucJc6zpVK7UohuZrBXIzozl+ynSHPzjx3XC01dkPIQiVC09rW0GYQwk4zpd305A3KrGbc/i/ZM3ESnZ/b81Gp7RVJiIRTsceuC1+yMBlketXbd4BSmWR77NWLU+toDxlCVKnUAAO3aBbnIrqcI/xaZQ95SZuyiDdv8GUGPIMUbUr7fe44ro86zNaxOrvs1I2ByNYEKKHlj0hlkYiI0Puyknv473WeBr5tTM95l7ihR+S3t5RtMnawWe9z5wtWymiF7kKdUsI2+YLYgrRS+8I0uFnBQM/JhRrjwyCoia2JjMSDDzGLa+JPsKtXSHHT2gl6swSakVmjXyI6qwKVGw6t7nf6Q9mCm8CWmqREZXgo/Fj3gQuSJ+gMmKytYapn2qhrmrpycvtI7EbKk7RL2gNla+eBnHxs6573kvWuHAU1zomFbVrGtFroAxGqZ3yk7d+i9nymo+sx8Pe845CcyxpuuVg2llPA/Ef77wq9eYlWKsxyb9LXgbwvMDw00p2kjNq0/mq17rFTYYphWItnQS0IApJh6UzRK3DNC9Lk/tmb8YR4PmianSmLdzp8hUEj35EQPsvtLYBtHkmJh+vNMhwbxggLVFL6PFOugOHq8AiT7wenYhVWOTSN7be+OF2tK2svGulANAC5dCWy0Efe83gSNmSdSs73KOQ/u7SsUXqKyzM0ZxW8EGNT0kHSbHKEeT2snygQ2zS9UNXd0T/yCWS+Irpj8PgVzFy8ldUhTeIaBW2qNqKPuH+qw0AznnidxxCuE7jtS0zyBKd2516L+ARMwSr0XZyu9sx9d7w1poWdOxaY+j/Jthc5ulhIYtmViMd1TJ/7dQuweqkujZLaEagNhXl3RVg5QPGx1jGa7DWDiRn/386bJ620TVW2UbjinBjnGTE+29nl4YQmGjXSFTs32be/sDqgo2iZr/rwa6pYjnTY2Ou+UtRIHhyhYNj2NDMt09tBITBtR5xUsLwoXybrpIwTV/9LX7ry52nBlCvOQrvTZY5bHmB/8u9yyyTmnGH5vLSXKNlIAw2ByWUIQuGA3CB6dZ9imJx4/0ZaLNdrg9hJyPR0teWs0QOK4z8V/j9AOUqh1OK4AQdL5d+a8IBnxqqfXn4fovF/FjuLu/gWNawd5FrYOEnJ75xRVdB2RXYithzg0NZdp3rfWw2n0aq8Ty79Bjw5GW5blMCTf2pzVHnxnTq4gUWzzjkCSFF9jhdWD8ITmORTyNdR4reVhPptKrYyKy5O2z962rEK4EAWO3KQ//krnpJgCmIe7wR+lnDZ+D/yuDJfyJ2t+lPyBPuKE0qRuyAa5mTKhZV9XWChmolr7rGQLMK6TNdFvl5G6KU2wVLUFbeUh3LGyGzI6hjBWhKGL0TZgNCtCNU62K9bGUQYAkrOKiX5weeo9Zq3jKw/ABeqXiWLJ4gLeLJ1xzwDzGCEu0tNha6Lhphakm9ORE54aJSQFSXfG60ooqN/7vFTuL3Yx9nk0HQOTKAmS0/yv6dfE4FAA1MSw72IgX4I4yIi8VZ8NlLM66+hmSZNsU4N0AFBC5WNiYWRlbJ5DPUBHe+9sdrC4B0pRVb/GQawlgw41b+HpeLBsP+asypMkOLLS+9aRRQOFhZdBzFzo7nClZNOs19p92PbL3uhyu3voz1/FNn/7ZPzhwPVPoDbOTfdn7zAO50i+K6mnqiAkQQwOnCAGci+w28POGJ5deLUvCE1VuEqEgfSC+wJS/3YJzjinOcwwgOnilsF9IIjyduGFNuJrJmZhYlhOk3RDqIN01SKzhWDDWr/KlAP/E94/aHZ7ieVYSr4PV1nS3Jend5qtZK1NlyIwe/PPu5sJmuZkv5b8aJIN4qeLXpd+pvznEvczxQ6uZIMo9BVvTYjjLlhbDrEGPPMrrxD7g5flSOb3P+9Y3WPAuqqet9tBJ82TmMNocBWJbrMi3hilYJ1RuAL152WVUtzmCELMO+nTOH9PK/XoReHZ0hN2tyuyUyJwFTpq70LFpM6qwUaG9FOprm/DPuvFRSIPLFS4mYwaBPf16R3uMqseW2fy6+qDiMvDjiVCUh3eqebMyzgWQz5B+QYFiWG1Qdwppi9yKkVawa4yt6OWjiwQ9ucdMhbg3Se64TrTwZS+MXzEFtY79myYNRHAUjEUVA/5zCkzBuWV5qKj/7dXCzaHihqEqv0JpGJVOdndipwL3Ik5x9wdiYtVoAiPtewuWfTnUuLt+kKpohFQvb3tMP+oBBB0U5ZPWeyKxQnE/hpqVM16LI6eib86SoQbv+Ll6rSc9r4kKmWv2iRs/uCaf2vTSqTMaZ3LY+llf+3znLoOhDXh+PUJv8jbFvKLIkQWNNAWROLrvimSlMLRNeEfo53mReFbtxbA1+HvglD54Q+tyQRP1yY9BTxflCcNxpeItXWJX2HRSXl5H7UMRaUs+1d+M8ZSV0/YWrZ+g5EfSsIBFOPsIZ2UnYTZmqu4qHezRA+8CFjzEytRtqtLflFVytcn2qhOJvA8UmomJwYU1N/tcVkwiKENA7QlluqGbzTv5snMGzGw2l5GceH5lOw702mTKRvXpzPGr5jyENtooLejNUvAjAvOZB1zvZ5SagKy581z9AlfSBVvW6CAHv6v5UzNp+dAnMSjZfd2WrpeoSvpIesrSJdH5CmSrxYjnCgLr8pR+JD7IJcwHhN/GbkqJRgL4bb+d8y/0Trlz+3c6GH5ByZYo0lrw9yPllJUWam6Yvk0XgGx/U7Y/h8O3qynxDsOeqmlK2B7QqTLH+EKPsUN1iGCxSQJIan4d8pmQercm0pd3ECRbakxhLxeCsHx9kcp5y4kDth+Uo2bn7NDlZObfp0Ybq4MEllmcxtYp4JxkDtxiQEIFFGzXpLrB85TlB1bHiKcjyRSMDIV/nx88nqHLD/+T2bKIZou59uMoXwqSwGsfemfQsdPvI29u6g0z0B0whMzPjX/M4kdhndVmo+Jo5rFDvvq6xZ2ymUa8KSii9AAuWYbTUTCrMrMxRJWzktlqfAUuULX4dHlvsOhlldPp84kTJr7jlA6FcwzBugdYWIAV7l00MLQG7RbkBz0nqGmPlpmbogJ2tPU5bswzcwdctdf2Mm/kqgt4TdbH4mdwgqxsvO/ICMa0kA8hS01D/WiF4C1Ig+m1kbn88PuRTkVusbXt7/+YivHofekDuWe+7zGH3Dorjk8+mpGnhMKVoMmq1AAAXdL/W092szeiY4mns2kJboOWEqXqVF4EeGXs9WKgP/4q4BraNv/w3lfs5jCDax3H+af5wYViEXKQyYKsV9jz1LHR1rGx9HQLuSh11Fn7eVtpAnpmrieX13bwc/9/C5phGhmbgHJBFzBT/R7TihSs+kQSn7DxVKk/Ac7wMjwOERj8JDfFh3a8hSdlE3X8oulL3tLGclyC812ok7nywpi/CHnE/3OEUKrUDZyLWP+7KRxZNv2KX+8SEx+Xl9isBUQOV1Nm+/O3IOABhqAaWMFTt3B0aYC1I8xWJDuXX96x1d2G98a+eJSjRF3pRw4npEY4+AOlIinRm9Wl29bEyPFnKzsTmOlo/phg3NEMBGPsPLKk+/e+Vdn9tQ3UDgLesR1+bwTCZLxea9rw4uD5JfGZySjlHocw8h8f0CEm2puzPFTpkmjEFNkWTRRSJJG6TJFTxh/dNRkLd2n7Ibyt+k2E8dkkOM9Vcml1oBPbhiL+3esspugC4F2WqUNZTGcTDeuixIlSg6i2nJKg7j7wGCvL7/wUN6xwYpHO+rqXu9Lu5vvKUFZ+yUptNAiZZwFNrU1Wo7MHbo2wwJXvdawh3+2CUoRvYeQL1xSXQhqjrLyRVHh37RDunn1Vr3thmSHslhhwxIRNAVc6qhYi70JETIkvFVy+JlZhymXhI47alNn8jskDh7RIiMF+1MwwuSFrmy1Si7ciSyflu9O8Gf/P8EimJCBHcBYFO0kA1TFdU99VxUgyOicAakYWbaRTGPtFRZ+vP+Qr5M1CBGAdsFPIzVLUtToMTwkwilVrWot7IW66Dfr271KWooSer0irJHP/UYGCylKoRDzozQwSEvU1+U6g0x0Ith5w3NtmUm1CchWbLe/6g7p91a0EpPJDP2xkZfsdaykIqCy69tTL9gVlmWXG+mc+sG3mpkgZ9vSN81bptGmjUaghK9cn1SoO+zczAKro5csLNAz1NfLUqvBwvNeLvgICOuxQVxRUVoquz2hYRMpGti0XyTMHOfnb77+jRzOSScQD0aGahJwwYi5RBzOJMZJ3PxcuCesWc2vLoxIxpL5d/Xj0ElsBKn9/0SEBwtIDc69jbVBv1b07MoQeZtYmjMLce1e11ZGj08NAXG82jekVGBxLJt9KJM2zLU8+cHXSu+RFoeiYgeGba5Si5NHw0u8x2RSdpcgjIlC90fRF5NUSWipO4ciaoo/+YxajP1RZRi14tt+kcfnShWQWi7PBvd9HqWuHcWidGtSuXchb3lFncZj1Gw5zxZjUf5h2EiDS7BRDda0/LfresO0CMTwYuezP3hrIw2bmdM/WbogyuQLrshJ94mqzQpgOmkDRr8kGclOGqs6TR3rUqHcqNVA3+a3F6u5msYN+Hs7LfMMHzvrdRDp78D4D0aLU1rZIBb+0cVmE0L2OsaBncvrcn/spsQpc7+79JbdEJwHmdgT04JeomRn30U7l3qi6+pqd4c2zX5RNEAREl1kn8KB34XEneyhg/OlBIQs1oGUHh4+s2rjLFQb+8/Nc2juypE1n5DAiQpGfi87Rbl57iu/O1w/NPPTjB5wsIMgdrxDs3+zo9a5E9ul1UEH+hob3+yCAH0BLbiazZHIE4f6l47w807AXltlanOYj1Mqi8iJLvNxOfmWuhG9Ovhu9LvOPK2myIZIG2eiDabCAooQ6NqhgYrlKRzcJc4PnTe+pz6yhEnfYzzS9rFAa8mz71LfHaXCUzBILtNromMHqbyxW5j0wYay5ym0VvOxal3bs5nwahYZFtiU2LLvMTik/n7Uh5SiMrhorul7TqjVYy13i5Bflc7wKTCWStk2tJivL3r0OVTBVBRLWdXoDBU6yz0mTDKtKj4SFYDaWyZNS/lJLqYAvWlOUxMRPKBUNddPZkXf7Annh6R/QZdED1cP0hybQN2Nr4zfv5DPH/hPsRl54NIElBSsvmA08vUdoICwJzCFFclOj0+1tRKCKwvZiLE3WR8kwXNDOYeU35AUsWKEcZeTfiHp9HkRcNFXxliRGiwvgFuSDbJFlsjtTrKjKndIASxCoaqLEUOMNkDDPUG6+mv2QFaDbUK/WiQgVEKE+PwjyFejFKxNpmUHfmUr029Ac/nGy2vcZ+BW6hQyIRnfT35mVvJl4y7DB4g4JI35RSElR8k80wsGqKSUraZiBX4wUvuLTggko5ob4RaMpudrR88Od1rqN6Uu+DH/NJsKAkkuZgMzAendrEWWQrZ4Kr6KdDk2fb7PZE/YX4gXwIupW934FBXypDZzimLYe+K4DUkO9C1B0p+TJp2IkD5BF0h+6ZR7hyD4YQSaj0HmY+FKpxSAcywe4fPMhNss7VqZaCgY4zUgGEnBl4mEQQU0IIQ+bbxnbAhXf5Ff8wop2cs0CuRsdIEEgnUJ30zS6SAOvdJPDVy1/as5zoKLPP9SCanUMuVefQtOp5HprICdnVo/sYz3tMpcxfUwkOP0Rci/bjME5VrZFh/vFALuYlWbg184lvWCaeYhJxfAlh6KNscCOdQxFhXqe95OUX047+HqP8Vx2+KqnHCVvKAKk/410dAj2h2tZuWqeXwJexny1h3J2ClQXLuVAfTEgIEfNL4fucrlA51lYbyiWHV3huWRTNzTjpPN1J2N4iFFNmIVevIOqmw1Xxt5rNDwOS2S1Nhy6cFEwoBcGdDO+jcwUX8OFBeIvP1jdlHqCwCJvmFHv2RXCG10+fiOQckUiuqYAey6CpDvUQpHHSXNL+zYkkRYJ7I2nBgFtFj8FJEk8iGB1kzq4mHuUv8UHiciJFTRWfamGNKWCRSHiy76z7bQvDOQ5ryxDIsvmoqY6uObqDr44Wh9lFkhdfY0QV7ASaxrSGx8ckp7R4g1w3sPY+ohiuDRdln6vE4/ZUc3SrOxmYZ6ltmXcz4teq170Qdm3lbMLS2ZKggJlvIGwb376ThFU1rTHnxn8zw5qqDTNTNSyIiGsDlKutzH8ULQ5zpEavFjxNGKE7CDt5GsfVeso0UsO7eqLcAWi0Gdxyqw5qiZl5vg3TUt6Bq3aYxOL9ZO/qfEUP7fr/BGE8WlDzBBVKdce8U2uAXPTMpqZH1deW8FxRzJugXRhjtS7lrSnp/ZrtYEkuc+rZOJq9VSfzZmeljNaYcqBR4JXL15nkFSpkyMZU/rrENpaa7m99vbas31x2Ri30qYvQROFE1ladK2I8IzbLxsMI1Jr5MGUsCQQWXSSaPCVVfsT4/SbTtXxRPDQh/cm4aGpLLS7dpvQTbyDrsE6G7sX0kAF1e7oc5enPiOU5wWOQwW96R7JOuXLEe61t6KYH+zskTMIdQqhWSfhDKhW4zKyC5QulCTj77XqtmvGwjOyGZBFU3bxfuuug68vXi2ha9XNgVTtXjpVTD2cLLGLJTk/Pe7/L8KlgjuOJuqsN5IKwAP8vkyIOU9h+C0y4s3SinZc913y8mlerys1aZPBfX6zDMAdTLQuy1+JyaUyEbdetICzyN34dvOW3DU2eOFQaXuUkuTpbdV7nM8EvPp14UknQtxqGRN8rNjjxMA4oMYCeGd5oLn56nln4CNS1mGI/NL7WltjIn7qDXok7C15HAghF1y8Dssr2zl8+Oqq69KpX9XAQdD0F9jAoMrxbywd/P260IGvUorXcZLsAoyT9dTrEIU2ib/Z99O09TeZy4sRRbHG3kZZ7A0IxWCzuQ0pJ3MvyIzenaD2AXZjWwy5DBtRH87XheFQQpbWw3a9wETrMh030Mpsl+XdsjdXBVhi3I00YzHUniSe8p9CJ1LC0zKSUxDo5+UXgMYoLYfSeDb6m9JOweg3bOO4Igz+XA+1wUDAUxjBKaXwWt4ribrG7agFGbGKYAG3t979gLppB3MBLZWrfENiCjxwdhaTC6bHAvcT2fFZ5BGeJWKojxLRN1nfprj/wLGgKuNP/BVVKw44BVPUCQtO07XxL/qr8Tqt1A62rbe47tcnLAJd9Av8u9CeT7WUPxYHrOjtqTy+yxuZ1KYKxclObqr74n/7im9hCtNej6BtyvslaQbPRucoV2NveqWHGqkh/C5t9qkWzveqscVjVOsjLMvavAZd2odp3nyNxbfQrlHYh9iJN9h4xw4fS/jR6SSQLkgu7zBo+MHj//435P+QWLf/FrT8C+cRpDXtsaPZjtTGtk1nDkCTU4eRYEQT4Yt/qjRfJHIG2U9IUY7tyUnBVviGSJ6oJkUAVrDNyWT7KXKMImoJPPt1JW0vp4iCltrXT0GXz7PvfPJStij+NPpmS7k11iUwRCg2KcXk9RL1TQwRxDDYUpBNcQ/DZM+qgr2gnLzfJ27IsBWuVa07CussqNrb+CRHNjDdJW8+oDAbpCIt52jU2YAgDcSpGCh6cDnGiceg9nkJ+kJesLas8M7QXQc7zbxlNPdlbO+wPK/8i69nzP33Fbbc7OMHqhkjAZdz6uxEG3iTSFjvI6bzLfCG+P8OAns7VRqHWeHaxXEaZ4PHCaLeeH+lUuJoYK55pxa8i/zbFCzwg8iTnXIA4v/3VtuNffvfcapmEtae8gUtlTgfTJ4SzokpspxRpf/JeR0xet5GCsaJZscWvuytVKOds9txO7xC0JkudWXr1bxqWztFS8XeFcyxb499HcDbngxEXgpGvY6sXoYNS5HQmKA25sT5KA6ug5PjXxDHJ7p7dPOBNEw2crtNh3e5ta0HMNgHp5LKfcr5rpKl3JG2Jf9mMtqzWnanm8BNyAMh0ab660yem2E+gANtNTUcEXyuVDf+E0wB+sl0sxMQGQ5RWZiO/aN76YEu/jpwk0HDIyziWF0U6dt2FdT8KbDEfzglqikDfdciaKuYeeNXeG4g9T/ovDs4L/FPxyGV260dxmbnwR0ckFqOumL1BtPMQh3Sn5QlStu29aspdv3NpJ0+cfnAVNvp3ptVNhExRqAPBx4sq0NuzGb6actSZQPtwOuSf/ZKKcIS3SWAwgInAWj/uF8DdoCUD2QBONsmRdgsughLKn0mOuDvm7WcmaN0jZWnoQnsg/8wCYGlypOKfG38Sv0gALILNDdr2Pi9WS4Wn7+4LNPuoq6deyF+Df3VwvLzyc6Z5Z7Lgpe7V/5KJ057yVj4pmCGHixEUkyjD/EFN3Hf5l5ewVhPaZu4TqD68rkfqZ7vClDsFhkNdvvxtamA9LHg9Lk5YW4z89p20Km5yzy2i7hGJ9w9MfRxQ6LChGsnrSyssYjqLXDOFzVCS6SzyGvxEAMSq7NkcOrFmZX4W56IMOlXBS7Bw1N9Y1MF1/4hC/F1wINqmE0jqEx8LyEZeei0G9vw3fBdpxYuzQ6rGLzU/mQnuOPv+AFPNG3k3A1KHi/sn+8y1TQ+Ai4i9j7F2Pihhvu28wmgOLUvI6s02I8qKhyBwLKo5j+McOABvIUiae+WIJAAAAHupxX3aB5uFaP9n6OifQ4zVcmR3ci/jnV2taOK6NDhFW3nKoKi3I5+KSnXltWPsbI7XK2rAR+vsk++JyJYkoZgnydGjixQL3nNmyZQmmlOkvcGIaAclLIowh+QCoBOCSxRXZNqxiKomZwU6AioIVytPEyrc8b0LYuWGW4+mDZ1vdIaUl6fxPF7wcWLc7CJEd5jgEHaH4QpDMvpeciJ1nnKnEfdglizkuPng9d2pttMUs/9wg/2AnmnPkOTAB5ZM/0xb228PiRHvrvcbkiak6k7ESqX60NNYLBFVHxSu4HNaNrXkuzmlunk2ppKR6QxX+DlZ2aGY2ikozgANOvcYrq4485rg1JPiz8ESDw8TzVo2lIIW6vkItlDd7VcV9M3hPyl6qOLZib6q4hXA9ZyA21aXpPrZVGDbmdV/Q4yXQ5sNRu7W1gS1Y5F6M5lNQwJxnl+0kGzMoqA34F1OQXLSfB5uF6cFTGUTc9iqplwECawa83gXqnTf1ZO73ap4UZzgsrL0p1LQwlf5onmd0FB85kbDewKEMyc6MXTjEPncNah5eVfJ7/bQDN7UD4G9tco0ylK2XgPKbNbLL6EJDAOXIyQnX9prH5dsmJF06RYKN1iP4LHAEwS0c5AL6OBwNfUksJNtJps+6osHYP5+n6yfVKKwJlGLSp2SnqR1aYhkN38zt07G1n2pG84zMFKS9U2DL1A21RxuZiKFdrl4y1q3SZJi1yOvigI+GNwbFIDASIKOZgxbpNcO8eYFibQHGrlTwmCcJxisSuojQ0xwxRyoAdCW/DTyBoe4tcIc6iXtBMNabQwkeZk60WtcKYtCViVR3O6COw+Oemzhr6Iu95T5kF1r1rmDoYPcpqEc8otY0coJuHeKUiQTr50xbGQSkQ8NI8WugBAUH4dYwObdl0M6cFvrZd+lPwW4qYOAbR7qQCaXtyCTNxz+0FL5ogRZ5T6C0UnW6sFE0L37YxfBl6vPCVo4noasSW7ZMYn3ygm8MBWm4zwzd3bq1jh2fKVM6YJNuHwWNDyKNn89q6gExi4me38wcRKzVEZUPgloFOE1YeycxLVPps00EP4kw7GzTxj5mkQYOObq0m+n+FHS1kHBji4siyVvyQYcEpH8TAPsT5/a3lN6PF9RU/Z6AFJOK9dT9/G5qxf8LvYSTrC0M2z2RIo4zvFjZToMsZ+23lDEtDwFfRLTAcbUIKbQ9+gJ+U4r/w6EoevJILKxhN2sSeZdhMNZdXpo92HOi1vZt87EiSCf0QIQ1tXc0T1V3Pe+NrLZNBQvAzFewZ9dt+r6tbN/+vPBa6GtUlJDcE+kd3r2+wolWYIRHDIkjuzMhbWh2X5LlqY7VBZhFUbj7mu1xYwQG7g0uEGETl7lfKRMrnS++mTPCELVvoTdATxdU0JFDQDpQ96Q33hhvltNtZbqCEj4WbWL/slhRRx14epoWhRhgulbOkr8pzdDFeYVoWZQtg1saL0EF0Qp8NfvZ+yElu9xa8TuF0i4qknYzDdKOYYkwOVk3XCoIYXvfLelHsHXRuWXw9l9vFdmUFxwdKpWjF1NnMpZ9+76ciwH7FrIVFB5tWU0jVjwPW9tt82OzjeeVXD66Psw4YLQls2cUeqp/Orpb7Su7BqAniHPXPV3EGCvXgvZee8WPpFlBQwPQd0a7AjV4MQMCtHNLwyZYLKIh/H54ZjU8yWPw9Bn56ADvuqXeLfoeU5E8xQyk1We0rjERy4RsazeIsUL9plxydfsmv7xQbIrOPdbNCcjMyX12BVT1aotJR1aC0lmUXIIFcjdYh1qeRw/4cyWIswH2luMxgLCDA7MYye3aWpG+3cEdbdYsB5lE0UJiV6QuYPGplgozPuzxh/K1HE5eUNii+XzMiufF5GmZHSxH7yg6elMc42er6Z/61+P+xhp2D6OvqzFv0PIC8KahGd3w7RjB77pP4fdnyckVj5aov0kFOf1MIGl/uZmkPjFfxIHSZr4+c7me24QdMs9ZCVG4J6baREbfJ8yJf4+fCahOZisWTbsbCYO6E7GJFlhxUknq3udb0B/LjdBpkM/CXvasI4KmpWaSktMGyCwKjXrOS9MfA0yzmkmXIGY3sSbVrXf7fLQZwscoZi7tNZ1hgAQiVu4jgPgeD3YnFqnfsuS953mNXoyrh634C7vcp/5HkqApCOfPVIMzqgJ0pGczyDiekTfhb5gaE4U0R+2phgeSmBTQ8YOrhqTf95c50C4VHbOT/5mu1rL64QveNjtz1/TqAtky/uLrNsfwFlNlvdb2pPL6C3EgVyziw1jIVxPlh1dsu6TTkblvD7xW9YVXtnuGTZx/+g8O09esAANxqLCFaw7HrQQ4Pocxmgx0fiMpVxsET7Mddoeic9HtDIo8DCB41+bUbsLbNzR80JoBj0w1v1f/SeSBDn6Y9U3MHOTWKgtWRrg5+/TcLB40DW33JqrWknMQzFG/cypZfT4mrIMhgH4TdREuWTdrM/pt14Hj333rXzNIASb27zHs/UlAVFHM9KoUXFXFB71Uc6+GLsEUNHzutXO4H/yLN5616g3zJ6J98ziGWwTh9wpSlgd+8Ei2zIYGwQKq6JOqaen+HJjHW6R5FinS6KmeRcuCWxgcsbc5QvpmPyR1ppI3dEUkAWqcdtKGY0ef6chDxLaTk80enArmAwgzSFIcbAE5DmL0KB1kMc6y6ppQRQdEDE/ADgRpzBsbNmnlRVLbpkXbeN+ygxoeA7Tdg7DSN1EmU/KU6S1L9MzvrYmG2VaZCvHx68RSdiXqfMXTZ8GuzgWhaZCB92yTVCR0NKVwiSTXrQHsHCcAWW98vL3SCM5Zo42bX6Gw9kBfk+su0MzA5z+Xgaf8ZWZyNQDovb14X/1NNE7O58CdWMyV0lFI026teVhKBvUSvjVt4bru8H8zpvcOLmhqRu9BfUab+v2adkc7GkrhKVIyqIrafV4NNXtodF6REhfjOZVLu5Utiy6GSfYREZZqemCaJqJqnq48rHV9QU3DW52lBQYAUbb9O5nN1nSG9Q9ELgn81WZJvz2odBK+UtE7b9B906eL1BpvPuDh0du/S3TKGDjtm7ii03fMP8Uq02cWi5dmBTauVuF6BXFoa7Yk9s5CaAXTtkcS38uosw27fjNXM7yFG0EeYkIFOBIG51UITFAD/VtwHXVBOfShLrRZqEU5LcOToEKDdKVD7u85r33tNldZsot2RAtPNiDXirDGl7cdHDS74IOgeDUWUgTP5e2YYgBaDooEj9gV//El0uTv8ZPlt8JGvMYjWsBsyUPM3dpsOTtILhw5ephDiNNmst6ODk28YH/Z2BYGtGGFbo+VSjQwyLakkXe6Vws3g0+qtot6dNy/iX3wp8Ip9qnAS4uNpbto3d9PtGvHOZAxHXZQRThWvmOv+lxz8NgIXP6FRqUeZGSw06/ZJEusm48Q23mN7HJbmnxfazuW4qXYaMbZPTcGPTJrCXZ3H4RB/FOyJ2TDxR/+CFOgRpMY/UO7ev4FASOl3+tBbWtdwY1PcLhTJEoLkKedUXCyaW1iPMaA68v+Wp6feAsPasSeZoSE0ua5W6OTy+5wRxhC9fU+8aRSGBXDEQnBBJsPBlFFWPUf+l3LTnBgauJfXMPHXE+zrAykQyADeVD7mappUxKAAhdVS+nRj9O/K7RAnMIXjWHA5WEc5MdQxuNkJHB3DmL1NguvEF1umKVNEYjgML8ZfmngkBW4sYyMSoXNgwyQhgxdlK/e3dmrhjeTGqdN3a7yCFp+8XYL0zPh75YGioNJhqLw87Y23j3eDDgY9CgkbG4hRKRnmb5m8SvCBGdta0EoTK7ocmPSRRosgS3GwBadm/vwNOXEH56vR50ZcIMx2S1xjZ2VSVYV/QXc5VeZXUqkVUCV8c9YURh1qqTWWIGCJBdc4mz57aktwrjaCin4t1W+HIdGjTFxJMQbsDzxJIhGhy5xrtHjqpny98zugTzAwi3n6TO9V07waoJQPWyoZes/3rGV2M7SP6ylcdc+8KYz+njXafB32wQy6TIUq91RD9kI86dJ3mzbwWSDjmwPKqTGFwLWAoSQTy0C56f2NizEUSrU5G2GWlflJ4OktFIISD/JIeYurcnLooQcFDJHikhZ8DmyhjddVGsjx4rgTNSjTIr9Uum1F9FM/jQWOuSbk+EDE5fo0NUTMV7V8ZddwSHNOGL9hD4Bbvr4qIyBBBenaQEqqcpPlimDw/6jlef0l17oUj/NCEPaaQDNVK1SfaNll6YntzFQt8vXdqCuMur2+rMyYnrmqCgoDSqhXk8e19IG5BXMqhxk+2wHPc4WD9P+sXFaaz3/u8kVrMBb4lFmN6ijO9x+sfcpXLcmv7GvKgo+nc/e/LxiTGxTn7Ixg/09RJpEZe4h4YwhHlHZ6CWe86ePNJMRdYvhq4PUf7Y49ES4KStkekWa2F2f1VW7Yktz+dWEgMyygcdQ12VNeO98I5+raZugnuKrDHD+fr1gouF9Cgw3MF3JA2sbiXJo/Hqwx11Qy4S2P3aBANP/BtYkwltFyWb19CzppMOIMteJZQaGnrQv9Pd8grYt2MKG9TdnE8tGO3WaSz6DR22adqfIZ8zl94OQf036m6sgMdJImPAocGzcZDApi9amHAYjyf9UENpmwSKMqjzzguI4xc573tJHSVqy2mMlpxreHXGtEDL3XufWYtpTPfMbF3y7oe+qr/7G1GqPtm/7JkfO5nDmc5hG/UGelM9Vr927v+Y8lp/ZNKMpJfIniPu/LCw+v8rMUlafhCHcl/reA1VEl/d5NQRB05+BkLa1I7WG2o/RrbnoXWnImab4UakmWwCzpoB5Ybqy2C+xzJCPYN30rOHyLIGUjqtKEbZBYd3JeS4cajTmv/dMEMBbJmIh49ChZViwtBNg7sUL/CMMUH3H05aXQ7YQ5SluIewC2kaWLHPftbXT5VF6Xjp9oDANU7MwN0L+O2TcH2COiJ72oKnSOZpNTOAAAlxgSTz7GiQqtXgFB/gQEMKceL5yBlc0kdSWluTRX/9QzSUs0GRy1hcoLZA2o1QRK7oZCUro7/EfXAZAIK1FMvhPlpLC2H7OX4qEZnad7hIEaI6O1BdIFE2nrJXLWEBnZcRCNwldSmNS7JhYTGWFuQj/Cch8gob3bH+9DC4205jch60pClX6xo2VqNNvZA4/yZIXMEU71xgdwCwo/puzkMIi8oYATSEoWy9ZDXOOPSw7hVA1e7o+2lY+paASYEI51w0nK8PJnfAb06EAHeWYprUiLFjQ+JmyF1yzz66XgE4vNh/nXUlXq1GANrVcuGuaUX5JFCL1HHuo85msUjAaZsn4M2c+oeybAdsLY68RhDuqYeS8Sz4pzzBzi9QlvZKcythCR5L8ZF9mimARUfUXCPB6gr7sxWmwK+HCiw6bPWVpw3+mfOcmOVRO5GaKF1OdSmrSCukZhiJBwLzEa7YydfTYd3EB49QTNFQMbepOEFA9Bh12Nu02ed2TqkDmZyxyTTn3CbGSbJIRsm6nYhtC47xZITQw/10V+sHNeOSLGOu5BHsgy+NCHfvQrP5MCtJNPsO9IObudaA0YVwAcTP9KPHNtXK/2K47haj5WI8QMlP6igQl0zMMkiv3OF12IJ0fnUdEs25VlA8M3sO4t4JfD0kaoVqk4xzlI5LDT3plm0Ao23DVHhVmzG+UCaGkm+FDzxCPNM/DLcFNreeywG4k2D2FKwrpk47kBUb8mmRjk/AR8HmOk7UYyrlEFE8qpbzCTG+euodSyPyVu8D0a/pJo8N/fXp61ibLaq74+HidWIW5Sh3Q+KqqEtejvCrNgpNWIld1D5Q7nNGfZXjqIQ1lzfrIzhASPU6FjA/KRNtfGvtnBpADwd87y58gSvslRVr1G2mezqrWPGo6suShUxaLWBgJ3xikQFG2KqlZwksmo7NOeBIiGLf6cdSo3GsnVc5dD07PPt25jJXDgkKzyipF1auMm2a3laa6klhMesvCsMr0Z/tYq/HGTVQ9XmYuB1MpSjFzjepRNi9h9KFokVBDzWf5b8WS6KI9rl41U9PCeZkpVimYJjeqnXX7oCJ02sfL1bxbYyQgpJ1nuon8fFGxbKdx8j/MtjPHGTfT+JAKRpWJEAmow1iCW8BdKwuT1EImE8CqBpCfK2q0BGfEn6rCPoKe8NOWCyxrjOb6KtfaV+fdmzOVPEB/85AGgUxtfi+77Cy3YW5GoHdFOfK9Pwa85j5pFQeWWjETiwA4uUQAVrBafbZRAhGwpqN2s2nwaPEzg+vf7MBxRoMq0qmRcWoDVbbz1YkDngjHu+150QkoRIXZwNRu4QVkJJ3x6wZgwPjO0kFQvBql1hPQLFXolepDtbVwJ6j3baJjg5LXyGZrcqC2JgR6XcGXy/QRKuJbhNzRX6CiuBuo8XBKyebeaSxQBx0EqnmEsKfpmzDSOKiimLYAoVAUQwy7aHZYqRYJtpKEkH5zwn762wDHyJvusX9GcHCzQNzj7941lDPH6+hBSnnwPV5l6lDE5WrnRDOF0e3zfVesk6dEXQwKpKbcNHACWZv1j0vNp//EdeY/IPYS7TbTz+UmSPTD9dzdxM+zufAOAKi2j/eV6LFoJe53pRRmN85XqqTVbOT8yBRM7AxYygJ0zFDlE5AOsUSFEdQKSjKS+4oqpIpFHOsRFWOMyFp3F2eF9JAgnYPPpKeRbVYGbMctI94rQzkDitoASCXBPMCc5WtQ8Hpe2JeS59v6pXTx5DtDgcL/MgQ4dSbMdB4FPx5T3NdaVJI3sOiswXYUZllBxIivbqYxV3upc2hFtUFuQ4mdrZiD7WI3JB5tPqnKpvg69JUWYpCeS88AdEt74qoEO2Ow0zoBlQWcPbJwboCNkcKFlfExjjJxczzRb1Fjr4nqMgSWD/4sC+H+AlHqXH5OFDmkjLCxz+s8kTMG3DrsKdLq1eEvUo/i16LVTs76RWXvYDrp9dcdvyJvHtwcgNck3J4cIesdsSp9CtSvgZjjTwL5tZHyjYKGdKYjb7ojeSMokIC/JagsNAolJ0bMHTCG5ay3t0m6/Ld7Oq7jB7LTkhs2OHddDxwi4DNhXU72Jy3KGLyaaaND984mQZ8LGeXDxlwSwWIfvzQanrM63LUWghDzFTK1SR5tN6UiyLYaowqSb1WaXVG87/F6kWCexgGe5wT717S2+zxDzoiJtX57TelZnMAfJCm9Vgj+u/7raM2Bq/fSrFC+BU2ckQcKSUPq0lnoKJZ+JIGtBHALzAGgmPqyosf7DEERlKkXC74xtOL+yxQVP/RjgI5O0CT6UfCKZfl9ZqUrBM9cFfSJfalFe2u4+vz90kz4y5m4eQeM2EeGdn73Vml6sKPKgETCaqOHA8SE+hDd8JvXTkN79Iy7jnMt/BZ19UAfyH/1F+VHPtZ2GOv92dbuwRjrXAtPDyhZdwPjtcCUZYeqD+98xjxWffwkM7B+rfL16/calH3zY56VMsuNMSoxAnsQw7On/BHC+lnX0WM9YtI8Pi/QQZ30MCafweC06IW70b9kS6887DEAP+QFhJkzt/uci2A2g0enUjDn5pJ0a5mctjHg/GmwN4GhyvS7zL5TgR/n9RpiI0B21vXFyf4tLUoyw4Ghhl+KVIpD6juXrIjDO5nXmZv7sBjTD6ffurwcs8Vs+rfHbZVrCt33TRf2GD2Pm0nDMAGoIFF6SO9/LM+XcjgY/rcpCLVghW9WNJY8KZEWdY4pytj/KdGLX4EE1FnMMkzYVt32A5F39dXFvgi3vGiL/Ir9rY8xreQ7zuNmSHocFE18PxLZLMl9ijdc9I1oxRl7aifHAAtqaMw1dURkBibi0UBpMZA50TUWif+0jXccMtGupYt4yZ8RsCAZvwv8uNTi3OyvyJaoAKOLLSh3avDv7j7qSpqViULJWWa6xBOLuM4Uloq8YUe+CKtE/BosCY03+B/qQdivxLazHEHp8RVyZx2S3M1aJyRrFNH8NAVhV2bKdCLThLAgs+EQeHylyp0tOfcqL8dZ+W1PWS7GPmVCk93y8mBhR/BY7rHS9zgmkNxrkM+lIhOehW0yyKzLf6PgoHxa4esOBC+Grfh+NoOIOUQYc+pO6Xfpv48X7xAMVW7u0QUAdjXtebTYlH+PwPO6zSLL6fqZfGqPogf9UZOOwL/Z7t8uKZuq7KBmraH0/wt3sUcMpcnxrgnDCRParG6SRKMycS7Gh3vAqWP4KONh8mUJOsSODGH3vvLclQJP/wks4KlpmZkPdHs5BvzJb1KgCL5+0l1RCSQMX177Kee+9rm7EnvW7zMVJmdh66BqV/MlA0BbntCHBgPoz8ife6INbxGyCtFn/5h0RuK2yJGtTGd2D3g02xBQqAwJJN3BHZ8Q2QoiugvDDaG0rFQqFB4RrEgPsQU3mOVl7q61NUTpjIjLZy+Enz+cwrsVyfJCjys3aunSlH90XvZneEOXpcemI7ORTWRdFovQmzi0bfqz9lyFO1HaUYgHLEh6LWpJ6WD7FOBIyquf/q42TZOalK1L7vxEFRFHcXyo1u2ORR+sVA2ZO5QVj18sf18XwmoWWljkB+LhVyegAhjM5SHs2hiqgsv7/QTvkLkn+IrfLErBw/o4PgEX5zlaJr+YgUzWaQE0xJKFCMG9kyAn1kEoreNZOAI9qEp19dfPj2+Azrbk4O4Wk+cOtglKwprru52hZ5te6WBaf36WvQdXpywEi4lLHh62Ro/qlYuKDSKwvyBus6Jbg982CQAvPgFUZn++XNEAVA41+k13aaRyx/hlP4sf/dY0JTuSK/aWoQEE9MxvGDK1HJZg5/GHOglvOtEm19JQ5bjZQwRN/xohBG0T2OObG6wsa+c8CIzXOmWDOQF+sDEnPPPzcq7lRPG/nX877UX4Uc1RjqLaYBhfqpMTREWyCTx2yxKmkWc0PhFJ897tYiUSjjHz3CfziMMWK2N1yvGAAATGcrniwirwfLO2mQiHZT4xpvxQyQkogqela4QUFMTdA6tIFllLncvC8+0OUzuUZ6+R7Tth5zvWCcjasXwm7SsUgIvgsSrg9GDa0/NRSGwnLqByfK7Dy7dIqcfOmIiZVpW5S9I6bl+TaqkjGSwYRjmW92WbzfeItRti9woPhpvVWo/cRoAb9ZCuSG+77v401jdW0zHg6671TOnQUutEbRQdMxA/nlw1l732ig0dmcB3dHAtEaZcIN0OqTHe+NF/jXTMFBv5cjaQeQ530+FiVUehkBegRwLPJmWU9GsJmxRIKWgGGf90axUc9ywOdkBWk2iwR2b6awJ07flxjOTx+g9LKCgoe9FSyRluVSwz8BnZk9c4liFlS5ggY6+ZTc9+zqdFygGiXiRDUPt8VnsmOjh1NILxNVopjfVfH+jK9W9xjVWgyz9oGrr6fu+x96kVMws51iJ+SOZTw5lqZm8fP6loHCxuTZiND7+KGColi900cyIr8t+ZaSzw1l4zMH+xAs5WHm9k9R/GohpYWGwE0hP4FfErNSWIuax2YJSOKAyZxpJl+tCzyOtGueR5138bW61sVEKWUmyx74cTm9EJBd7UAyHFQ+oHF8ZAIwNKlEkwDLLpxrFSDCNX306/Z7mSyNaJKPXV1q2vy0K+0llk8QVNx1BttHnnQFZA57ocu/jLwGf3f6HM9kYF0yfCHVMWY7cXOHXXlnXY9fVpW//xpkOQf4HAEpPknS4BPRRVd/uJ5xuM59x2NK3BXaCqOS16sJROa6z9a0edhiuPGkUnuLfxvFHOFxp+i88hhTVd4JF2j7njgG+p5f8c2Rb2XfDmj7EFT+T/Bop+ka4l52xtzo7Z66FEOOYHukaHy2ydFSU9aeD+BivQmV5mx4JOD3EKGHcFlWOjM2y2ExHw9j4ghkVCPqBLxJYZUlFByCQct3tcVJEH5+dP/EDm4B1szZUst2MlFxb+ODxbKDxNE+TT083u2BE4AXin9xAtAL2ZUMXJUwekrKm/dO66MtQeW8LrK8O1OgLFo4SlZR5cPxLydyaZ0qOJzYiRoF5NlEc2puqkMXYO4WbxoA0iIRNfz9HMRZ8JWoruz3tG29Upe0ya28d1LQLnOI4H8+Ed5yAfYSS21Sf+/obJ6OampO6V+GVh776YU3FEIHf6MCtEhjupV3lq/jnm+8MUd/lslz8EIm14zHVbp2ujPV9bW/MYIW/qw2k3DuK1gjbYPea6oy4vLIjsYKYAxSHggHBwmOdzyPXusWpnJ6IeSmLxWkAza+3nFeHsJHrVtJRSo75sX3n81Uv1ffnL3fLKrYDZnNNRnPzEjW053eUyv7cI1V5en195S+c2i8zYQ2g9U9tQA/Iv3kx3uYBFvdR0AkYx/FPV9scIzDMtNYIIM/KgjAnVFyjwS5Uvptsp1qPMoWffrredQFtBhnZdBDsfAi/MOiIF1m0+mtfti/MeYUZwMIwThqtvAWJsl16denhb+sWev25UFb0iuPTy8gkCAwGICinq3f7pEALaXwS92szEqw5vufIofI61I82zF7+otAvtNYzb9FT6vI+HFhr8UYRhh3W6r676PvNqVdLxx+4oRyPbXykC86Er/w3xVARz/BzjEv3lN7G8d0xhs1ThPv7nC6hg1nshrCSGIjCcRvrS0Pmcd8I3U6cTAmlafeCHIKOGCWoSATBnn0d+T2lSUfkgFY/LbpBZshIvIoNuWsxMbAO+QBxZ7pXPu411NdjH82D1BgD+a9d9P1+/LTkfr+3jB6PHZgSRu0UcfvdF/4moabnDYIRonNQpB1mCPGHCvJi7SFQyvBenHt9FkBMlbco4Zuh9n7ziEyhhF/8UsyE1Ar67PXwYkvZrezxtq7C6IJVsFf4+JO7ofQCa4PX/J5M0RxniMsGSHs2f0ZaLokmjG0gZdGQIx3Rs+M9ZMT9IWpN8vV1p1CIsggi7zp3ba6HTDvZYENekac5p5oHP9xrcRRmvHqsHiwaNj8KHLYFcmHDCwqdfMSi7jhfggbqXNDczm69m95cQ1SzXCVLojfyCQU7W6KroO+Yo/hEQQaXOM78CGSc2luP3WIV4GdyOGWso99Nw0k8l6fUJpsD7jC47uD/SSu76+473Kk6Z8tGnIjW9erAG5pcsya0CeWXyAh0MXo9c6+HP9RAIzmIqO4UGb2IPBgFyySv+DypnWrFtpjkFegf8IcTswxIbz3wEBHPdtpaKQf/RXykwucwOhyN9aBMrlEMho5knVyfRCo85hIMcF5oNNKPg3OBSsRiaYV6kN1DNzP+rH3jPV+Kg0JtLGc9vbOnaVXQdEymJXdcUiUFx2uzenOwavsk4mhDYkvhDjYU6G4xone4Bsp1qDwVHMBaWHXzNz7+8UnPbmIoawoswkaIx47b1dSePe22lLpReFeGau0rz8hg3q1zKCKSlAc9EQdr4nwKfixvU6q3Wx8quLzXraCQMBrzo5RfDCLkM3qBJilzuo5RKAZGIbyRO/Okbq7kDCygt/5gXRkziT3XMSWVFoXHJB1feYLx+uTxhiLzABgO92PTAOOfPFcbok3f+5UN7qhT+vlr1b1C/DwB2XbZiBh6mfPHQVQmtnY39LI4fRCWPXhydDzF3WCfR6lOBmBhdn9RtEMU8XiGnef7bmCbztFi6Zb2ZUpi3LnK5yirWxC+HyZmKwG6aNbW3tc95Tl6bJBsqLk/IdhrzPZvoIo5i9wRwkzTf6mr9a2V+MoJOWQQH4c+fbPXvVWdc0LUNuNjUM9EMDcQz09uUcC7gXYkZISiG5LpVRi+HMOZXhnhrEZS+oezTBvIoipKN/mFn2VtTqBZjPi1tQgRIgPYSnrC/yqRLBt/JFB7HlBity9kDedcatihTUOo3RvD4yTSeVwMZZVv6NvW3j94QRkF24VdKxD17cpXCLrXhyaqDjAx2LUFcA2UIplruNoBGZRYkVdiM0y8YHoniUqk5IqYuR1MqIfRDDB4xWzh5vbji7p0FbsL0KE/69jvvVrB8nWONvWWUrkqmzWV6O1nH7AZ/wNLOSiNcbARZTa3o/WMoEfc4lStU0XSHtsfaDZp18Av4aXcPLocnoqd2VlBNbYupe3VLFMW2g9wzjQePS4/zmZEqvhHNHwWD4USv3ksutf+uet9L7qWXJeqjm+kCtuU/nc+D/9sV7bmT5M6fDJGOKzz+3KKX4pPOZbNE7k29WlPn7DGUoNw/2XQJ9rvegPl0WEwn/s7+lnoF0SShdQHjhGkLu3vnPiZhvb35iL+F6SMc+dkureZoAbFf1JxoJG044zmJz06o2oomVsR0Ku4pfhqCbRl3Mo/cNfoH/4lAUSNS4VIbbPm1bxgNlX1Q9nEbjuOqdaRoxnOlJ4JZXxtqfWLsCbwUfY6NHHAmPWDgYf51qXygGGdxun7w158STTbgTEGaXLSRQ/e4Sy4WN+Z4ETDSVsq57s3izT/tFsmhwCIfjlqSsEgXqUWmaXzPrVRqTih6LZyuOTBCbLogt4h05uyuF0UI/U0ZW93O4WkPx8tTBv6ge/5MZ5V0TwM1l63rxY6mMWIkXt7fpfZpNxHGynWRMCxWbGRMcbAv/sJ9u7WLaB1nm5JHxmO33wuTmYtOy3rI7Bikl6fK/slmyTfPkQSKPqnYLLUbMDmcWOQdhIhqFcu19ywkf5YSrt6RNdJhAc54GEtO1E3BWduqxLhrPKCD8rXmMdQoQS9BOOML7hfj9WnUk5n1qvDio5o6m8QMABb9fgNxQ2AgalmgJYt8iXVYKNH/dC7dyjSZy77dvdFsEcGMVkD4KVyCWvDK+A7he1mRIsF9yQuGxjsP2pt6Snweumt3Q0m+D6SvimNC+zok0Ko4W/Qhw7cACjbALhZqeMhhxHutSI2Ax/rFTR3saKveXYvkIWbW8l442+etH77A8UB/+1NVCtXcheykXu43Gqo4FUQvObPbFie68gonCo65FM2FPmKx0MlJXIzhAJtcsFrNtQgXRqhlVTtlUxPfmosuoeq7Zq0+nXPs9Ip12VdM0qBLXr1RnrkuQEwhwTOXh6ag6YXVEcHQr0Ua4QP1NRUXjMdNiuAEcnRNRiL0mk5gDBf/5MR2tqaP0elbu/oCZVe8+BWzBcfAeMihK70q61nxqnjVRlmMnLigRElpkNT2xQ7wTLX2lMs5XbwQCiCBhvzTaPW8eSlV8j4su0apb0QnO2bg/ZerPMhdNR5SrPU6Zy+Td0hpKPc/+jz/5i48/AIHTejnz91AN0OXazvjxpHAio1ignqwmjyJ/ceSfXwldPBhbGGvDxidXI4MI/a8w2MqYAOLT446TK8hxtBV/HxH8P2D+sujGMmfXnziyvyPpB92HrF9tcYNhMkkZ4Y5BSD3X1w0GV+Kauw/lg12pkQzfZEd0swGSc6fit/EeRtLYSvlvh3w4OSN1WFhfltvaFWqukDgcXGXo+eL+Wo9LXm8fy6eXmB0dnZk8k2zjYfzWohWQ0q1nLyg8frMivo8J80VMPYIVKWzbeXW2cJXpKaVNiQhrJRIZ3/4elidzbisk3tvNPaszvtDHUeTVNxZyoOihQt6Mej3Aa4juY6mWytxCIEv3h8GMhnRdvadx5Bpin3V7K0ZvvQEhOkwvLHgjcgmCiEoVfp5+iK9Kzlqy6hODooJ3432uF7bwfHzmQgztphmcJcUMA9IKtPL9QL/PvVzRhKf9TS1N8ogsdmz+prs+Sg0kj0DZ22EUVLkmyhskCwkV+zCxTUfZPXSG0dVexslBgADY03OLljSrFVJxPLLeWqiN0GdFFX36mXROAm+rqXkWQg09OyvIxije8ljUGE8JHjBr/mLU8FqaDNDkZpOp1pEK+byGDPHTIP0Gr1SZ9Lm9XU9wqwkP/PNXCE9dT0ON2cSw7sOihGtyS1Q1lS2TDN9EjipH3S7yCQzLGJkePhjxlSvGs2ZbhxeicEubmgksTXSmFRwFLfqjLjw1wMHVwk0jwmbdAmAfAtiuBubTkR5+S8KLC7wu0ClnaBY8LBgxaSufn6neIpovx6juzn/IBJMgzw8TcO+z4/psTDWm8oxgel68IZERZEfZgyxiNF86KBNINvuZyZmKS3xfKyfxNkJcPC0RZT8TeHn+FXo7dNxF53xmLmXnlejuEsY9AdDmsRbnBOs9mRiuaPfNp9mbai201x3AcKHFgIfHScqEjt3KCVGhp6baKMvksJdjUohYyQ4vAg0RsUuHlaDHT0GPM4AAR0oKd3xlfMjeL8iFzYNHNIp6be94pX7IPg2xuokijvp7mEqpRdyGYF3r7B0kYViy+PEmEHoTun6gTSnJQUAF7rsthQmsKgPBEsCQDAGeGwrOYfYJbhupciiMq7jb351Ymooc8eoGfQkDSlLDMTrxFwGwxR/jUjmmrzYkaZN1DB5DfwFLrTcljVwHcbDOIGIwI8BaurmoNCWQswwarFpi5ietIx09bs6aLZXJ0dbeMhpqphq74MIy5TikYLw3++LS+/hdnWa7BOjtnvCCgMRlr3QXqmRAqQG9upkbWayTdNDv6eyyvxKCy/GYl96Cm0x8mBGmELb2bDzHqaCVFgwMY3fCwu33WqT1Krq/JGyS+0fd1YUf0W+HMvLixgqaq7wpoAm5aZBQ2U24lMCAC+M4uXT9efJMX8OlnKl1c7nVryh0R2nue/djcpe4FUP5OmdsYIOnKju2wyUdGMMd4p0OJDxsUdmtL/0rFU/E70YbrCA/wGqw8Y73OG5LLK4aMmHXLLe1KA6Keq4S1A6+JzOFVaJ9YJfHdTpC/5tSNEEY9EnXmlgCJKiYvhUtuRNUw2b17eLPEJi7vUR7znFe+GDkawfC4FTE90Sxcjo9nyBpIWcKxVPxEF2TwkyoLLDUo1zVX1fQTGWNwgoVcmWetAjk7xy/Gc0FzuXzkPsF93naQPN+l96SaUJdTiOR17W9eTdCrR/7NDCZfGihVUWPu+cvUkPw9kUr8iXwa9DGGBVYkTN8XzJJ2/1DDZQBfLf8cPvpnKHoFg5eryOLhh5PISVpiBlQiPck1nxUygaioZ/fAA8nkqfYPSZcK2sLO6aJcusinDDo7SR5ZIXTWVNMRGX1H3DO38JyGRzoCKjOSGsZ9jCy4nbUKc6vsjv+odaRA3HdJsQbSPqnM9uebE6WEpLP+hWdkOy7c1z5SmK03YMCyL65LOKRgFgY+e4IA09rpf6EucVfjUPRrIBQvpdc2CGb1ApqznfVLZJsejI1mDSQUzPWLm8Lqmz+L8rtwl+xGOIFKPAJEeoqQPASA2iLKcT14AVqqNgBHJoyKlHO6YUchAWUd4+B5RGTaJAjokDRN0UR+EHiAdYY7hdZZdW/ENX5ojcj4/NmU0HNMqOta9FynydCYOEnctY1FOaDC6xTSenQYrGU2NYxPZxBwa8aXIXi5YC9RwI33WVJFNbo8MgzzGDq325Xk75iKzwwyRZFyo3HGOSFqp3Qpf/GnCWLdhl29xV5iS+Da5us23E3ayMnZcHPD47KFGzR5V81C5TZztAo9pVjOGolhTmWpFE6+k1QFOq93SvJMrVUFxypaCED0iNueNeMzn6r1Vc12S1oWlZ833LIIZAnktCyoO8wMw/A4u79BHRtIaHByePR+iexhV8Ms0Pseh9UmqYzSd4ipA2PnPDAECg4XIL2WF81IGkL9z22k/KIy5EU/ujt3ngcmyxivCQxyl9T5Xb0Af+jG3LT1MPtVN/lf6qq+6QJBJ9112JaMIMwX1QsIGBG3lzgPCOg6BZCCfb3tUcU7vq00sSSxq9FYCgaxHAPGnE8sgImyfCT15D2HH/dOLhd0P8ZC/5OQua5Y1+qJcl7zli9opIXjNzSFcfLy181zo4fCTyn7kp7tPyJr0BmMhP1CR2RrmCoMEJTol1EaovreVcocBp5+G8mYz9WsVvREZ3cD1+Ekdof1nYPDdCRz45ClWqjADPtpCte3dU4wXtsv28tEjnDHOoXhz6Sx2pjGSBoUggSn70v3bsiTAi3sFg44IvJZKCOSvulFQFiOy18MZ5tOsyN3DhQ0mQ6UjAib8CRlZuHmP45M26VYYu9ATZ3FbCnBf8GJjpfXSe/QSSeZ99GsZ1oOplueSL0JFrgo/ufvp4Qbn7OyRkffgbhfzueRCtgIZBz/jcC69LtFclOQecUZ6x0fyTciQRvpz+9UYNxIv73ZIhjVdz6NPAAxynwyYqfPKGO7mP0tmsTzylXSrJHOXeYN+R0DDjz+H4eoTai9ZtXuLvL77U99XuNyf8CAh+LGYstan7Wc3e8dBkaj0BvvwR1VWUh2/T53RpBqYfGJhNMFWZJBcX36h73QDlzOaylF7ef1dpW5jKHRvUxTuqpr8JzFElNGPR0yjTP9V4eApd0cbkLfJYJnV19aiepRpUxsZ8ooa6klDzVcKcZBPhmhecK5t2q0LqQia+d2PzHiTYOsACFuJFLA18mW/2avi8xFWjdZMzMYc6ZKwdFNiabWMab5VDNWoUeIFNHg2CC1uW+Im6ZuQNkCZ4FD96HlnTSdslbVM27+8n/qBQfqP2wBeCN+hk8pUZnXDEmUFVSYo8DCrZKkMBfZp0tLNjqWkzFl1PO0nQmC7XTeQw8r3MuG4fIF7+X6JysGNUvhWcSsbd5WbVqa3CzxSMv4yl+aq/IoVeQu3ccnfRUNutAleJVcfywPB+ZktVSKR+8+gbi3cctjhJSXr2E3ufMIsXxbgO3K3KeMEJmHa2Q6O/xeSrjzMS7V73aSzx8TRORVCX5GEtfw8vuz+dSOrqk9mNzOHVebDspFGioC+oy50srBp8RFgeJwA+ksSjyWi9yvNGcTAiNteBJ2oGEJWHhuYco2VLDjrTs3MOVzKX3MjFBI61bDgdpV+k/aPuj/FuMNoU4fPtaJcWAUfcxfRLDLIq5C/J3ispaLZ6x8LQu+iG53B1TekwDYvhxgzg8xbpJ8wcfewkK2hQIpcPkxsYi5G92DMn2Y1U9nn2BdoFTdrDzg06y0HKE7odOVR7+SU3A8J2H716qoKXnDjzfBoJ0Hc3BKURzvb/TNBkhEYyFIcqG5FltPuuKYx7lMi2oxkpXzaze67OgWcX8RGK9FX+3kSgL7Yl4E3zdc90nvE1koVOXaeQe3G9BW2l8Op9aWQD2GlbWuL9AjHJH4wtlAy1SITx9Fr9p8CVm7W4VUzI+2AOAvTymMc5BamOzhj016dv5WN/kSga9tnjW9G97IuE2ao0C5q25wfCE6ljWWZQ4hkH/gRUKt691pcn+vBg3DfUAY7gJqRtt3hfWWPnxl8VSkWgV5+ASaJ2mrojBh0XHFM6Q3Zp4Cqi7G2CsuDIIoaslAkIJOU6Zaf0uAjyH/kN60igzB3rhOz54Dt3+ahZSevM9NrNp1UmZp8VOCIreg7cr3xmLpI4aSadsvzqgA9fgzD8GYu8qip7qoeHIfOmorMONwMYFZO4V6wRa/HU6paZf1fnxyvIopT7pLWGY3ymQOHaq1a5SXINGEAB5JCkogk8EqBli8ORITdPH59G4WPRtX8M/8PbLg4yg0GRCHlY/UBPv+KX9keHGSvHt+8kDLqc1Vs2qeQt8xRRbxqxSECrOKrCCrA3ECZOcqMHUgzEvJkDb2scnUdNyTBVwv3Cy7t2tnahGudX2nbzzen8C/zZetv/pD/Dzd3T7ivRFLTvjMxC6f59fRHxMDS0ldQDo7Ag9DOTbwXL7BQxAPIY0KCnK0TW0hek5/GtLYLLNUES7YIV02Aa31mQLXYIEjm+6mmCTBlR1a3/K0CowdQBRWK1m/nRsKChxcceTMIdAv6JdE/5yrmqC96lUL8XUaxlx1+7ZfnY/EfVJrfDy7N3Y+f6YwqF64IJ/pVEQ1UWWcMh5HHVO7eYNDZWf1XJ9Ko4V28vdDT+LY3hfSCtggGXiUIcgXdWP31Ad1zDpwjCmeU+2Z2PifT7OhIreYBaJ18hquGXti7aA3FWiZcOCT5q58cmecGuNKPu7CcWWKPjD1egW902l0JJ1t8y8aEdKtq6MxzY6kIw3yW7fZLn2f/tGfmDB6L4uhn5vlhucahpnsX022dlGOjVv+3r6MlQ0QM/mCd23zX6GUly4ZkpC1PmfmNIQreEeVhXFBYCPTeFW+a9PKW4V4drE/e0jHM0tYt/aBD8b8SNoLeZwplmHUa/e3Ksr+mWDTRFzLMU9MX3h9Nvnalm9o9LIs0o9eZQtr1qLWni+nUjwJ0zIxnCRQd+seE0Yl2yj1gn6NFjLvN0G+lhRXSuO7onwpBH5I+Br9J61h0zDw5mLbQ/Zgoifqyg+4c66W3czlUchMfLSf6Nx+B8PxZPfCrOKS6kPouXO5rv4JXggDZpztOBPJ2h5zVIEhcq3Bkbeb30G6CiflyEl54GvZrCbIXdvVyUlPEdI1Z7LnoOXm6Y+HJGp96A3vGJe7T/c9vKvJP4vJf2H+dq65CrgLMIyQPT6sbcGozSnYv8oCtI2/zDYS1HDs0d6zr39bTdQBFMMAGF48ho5IG4lZw4aqSkVCZcF1jEWisQEhevLaET+fnIIb4ywfO/labXXtyx9/ZXxD8+gstjhZix0Y5BvmQFroH2PBAbyg1u4esMfdLl+RykE2GrU9C9B5Qp+i/ilXZP7VvLXIZZw5EycdZbu7YQX1qG5x3gUAMH31TSEHU5aLWqr99+BZZXVc4nD89cj8T/zo7TCUo3gFIx0haP0WZ1oLvCIhkdOE1pqeSMUi3qQOzkpS0p1AOP7mVXOADLLIq+indJQ8C/pYtN7Ztaitwu9vLGF72wSrWBjJvAeFJT+/QYrWztCkExRrcqi2jOinnbK0mtseaqfr67lfqFTwfgFMBGA+r7rL4pniMIw4gDX3200ddG/n1dB41boc6/Bj/QYAY+H7F+hG5CdHa3JCypzwm8EQUTfcFBBRJ34mL/7MpD/jz7AQxs8oGEA1ShBptg8B+Trp/jBVQ5qnddZSR80/2cbaGanAMFms7TrWFnmg6m25iCDvTLbcFsM8ZmdzOhxytpdr3a28WcCQ1z9kp4iRSDWoGdCEIyU99VYiAzelcRxGcdoTymhIjOFhEvUmbQSWKxfJ6uEIVyBYSN+O3JxsPpbM/dRkkPtId+70AdTQWBgwYLvBf/l0SrlpqgsiLSESmIV85AC8i3QuYL/f/sAn8QRKa1hVnoCZtR698bi/UvlJl/Sm91WJR/9XdOSbaWyYBzIi/OVieKJcoFEBg2CBqelUASs1DbI79SA5WDKgGj6hjtb9oVld8LgL2hVBp/a5gVHIvtHlPBjtzXp63hvkHoxd8OgpqlksMPXDHwCT78xWigI71b+OGZaNc7gmbsjHbpl3nTdWPzBaMaW72WpSUdDKtSlOrWimbzGo4OCb0eaKlNLhvNGxjbPXJX+p2KD/XujF37MH5N7GE/lwg5A4/PVC/9mmEVw8JVMB4yCj1NvxTKV+G7G/OM3kgCEM4nv7eG+guVooI41FFKWIW+mwbZ3pewaeVR0vzi5EBkY2KsLeEiF/+LA+z6Z9EPSsJYJ3yWw0dWcynkItEmKOGX6rnwlPLtrdc2vrg1vl/ZZ7DhCCF4d9909tEQZM779KgnAMgluHIPoDmCvMbAZOjX7hBpj3xXziio1JQBKenzadamYtDsprrFNr62Z9GUSGT9ttJ/Os0NRq/rQtxsXST7ulDWqKgAAjWeblUqwx8TKvCk/akIvn2mOhk1hDCzTMjojVS2zImtcGrxJ+wH7LfxI8YCBi3ft0ZIc4On7YtfOTjOh71AtcF9bVgjZkQIrH5wtPRussyIo7WAFjHUJYRDiMrdoa0lwlQCVzJcKGk0IkB/i0RG/WwhOgRp25vyaxoaTX+E4vvYje+2/zg0PUr64x9vlh96RbTGr3lD4s2Dh2vZ2pBSsbhYYXhPVO23SbpKtmH3t/6TOvFUOoO+9vod4GZMI1Sr48C5ZUHVREpA2Bl19n3XtRzU5E0gkplj6lD2eNnsV6Vhb1xzw9+xCauA7YfMhuNrz8dxx8ZVTMRUk0t3jFLc/XdlxYpznwFOifKwsNavZY2nNIGNVpLctbJNPqKH5a6tQpHMKhQUfoAyuv40c/5/terFumgw0iJa22yI4sOoWwwEUSAtLaXaV5Hsxa4UIKJpF43v5s3t6hk3uprVyR0ETFzh301BTH8V8ejWCpqdxq0N+rMtA5Jj50kCEXhLNcuiXLGy43QVW4K4BcsqSeA/HYhHp8L8+Bepaqtdm4bDYnC0X9Loa8myNwngSlu0nwe+Lg2D/AgvR7bb4vaOqpYq2NgLn6QcTDadOEfxhgtLEs6v8PIihIWhHVrF5NTjKn3aLZhioHC3QkG3pFpLIYL/CxIU99LhSKxRwHifVcj7vVS2sJoLGZDdOC8YBcuz57bY0Ss+NzmUONClbqN7t+ALckAQpoGmTP65wtVFTh7DiZRdh+7Z++eoKUR2EFOAJIRjtWNY7vTAssgbr3JeoXikS08+N140Fxl65VxK6FAdr9yrzM73iC9ej+3ZVIkXj50yznYbAo8LG6GCRCYdo1DPNGigQIlQB5RYblD2IOxIwK0JOFHw1djxXDWPccDBfFBBg7LRC5lmBmnwVEPAdPzXBkf49CCxSynOjvLzPceV7nrG6xOfbCSeDhJO8j+fAyc+E7pgRraOHvEtiw5C8hjdaN23K5fbd9UkTv1Pa+Q6gLT9qzUG6vuiqc4pveoCsR7d+vZVNiFExD49H24OPpKjTXcpHPe92Y46BwFSEW+Ac4VJIIn/joiQ5KeU0mXnwO1TrsGREmChweWRDryqEiDkwyKU4XflVC4h5Q+DPiESx6JBGMxRHR/UYVw8rzufyD5v//6UYVNVt5lgEzA+ur2lyK1yM07jBLMmVJBANJXTrg5AjTLI/HOvmnse/FJucwQPDWVa0Qks81vQGRqQwW3mWb09JHb0f40dJR7ypuwbm2Pi4YxGIuhD8GPLhOSw7wBh51qG98ccYMIexTeaP5hQoy2+4RXVIxzm98Wyt5v8s7K8aK+/uyneUhQxsnFphkUQ4PKfO3fyRlMA7u42WrGDRpf1vHNY3IdX3r3J+PFZfkM77TlJMq6BYMFZm3Y+7+MuPVbLv2FUPydscN4LW1kml42yy444PajzWS1Y+HIXZuwF/SSRbBrquagsvxB8BUDcs/l4LjGIuUPVIVM+T9lEWSN/8akRW/taVUHS1Fj2xfbp/dDT6vP0GDJF+OgTJpUjkFiVaPLtWu8rWlMh5D/11uEniZVkv03eW+PKwVUuwiJyV30Mq75EF802K/CpF7s00TDPCF6apGbTu/iQq2cYJvsZk25b/aVMza7UtIonFjRXeO7nyIJcB6/Y3sDINcpTwvtwL3GVSZLiIKqrPm+y8E+PQuRZJLZ5eUzyw4xE4D/LmcMMSg+Ii1LJb6ibZP1hxS2uIW+RBxBcEVaXH0DU0iZTngNU0KZKx/+TZI07Npobd6acV8UxiVOYUgykjaC2T6AGmpIWc9+lWpVcgeYseV9ohHGRYK5j+MHY5vaQz7ueZp6BOZprraxNDMHGaje98UR+E1zvCre3SR3edsHboovW+w6sdoNmFcq8pP4fOUBw39eBh1FxCzqvQKg60jTL7E8F/vMC0fLPnqfGcFKWDlTX9o0bLCHeykaqtsDmWVr9mQKfqf9dAo4NZsFa97ROva0xFdovMpyncPrTFJy5d3GMREV5SE+mxKtHJEWuOV7kZJ+NTVSSY19tXSWvMSVoS6nnytdUeQiz2e0K1F2CrurgEI7L5e+4afXGsjumv4wtAIYDTYOBAHQJWCTIIfOMO/7PUE467bO7e0wG0b7Lvd0X9AG8mDJLVvyFyBKBwVhy21AXckSNf4wfc1uA+1RovySH2nT38dONzw7JYVhFafVzd4OXJ6DvKjcS0jZuMA2kXFN977zeIRPwZQlJKvBEo8kAiDjcCmtVd3yMNu2jEYGenRRtAr/IW/diN5h318XyeilhtQtSspfR+KAN+p6AjZbQVTvFJ9qGHO1dy4e7KMqiP+4tgDw26aDPjwtEiFwDtAEWajS+tB8qYdCQu4KWK1nDrA4QTdBCC0LtQD2AFBjFCF7C53RKbIpR6G35dwM1UOwgR89okuGSNbwoQIuiANLdpL3XM8TnCFNlRrqZcpNfuyTZgo1qP34CdX9cYl5X2YPgB2TcIqiQN3xGyBQG3xJQ7Z66nGa5nyeuuMCGJyFz+rprZpt9oy2dSfAqQs4ZgMYFUx6VPgdZj2PZESy69kZucxfqdDqFlt6BT92sil0i95dGrR7c/tVqcpljsTe6WxArIOJF0eFIDwVR0iL4FfQLvr4bZva9QfJ+uMWgGVqsPcID8QQCGeRURKXZoK/esQ7D4mENpnln2dQuU/lFOGr0AGK89ucOS9s8Y2G/v0jWVVRGAnJ0ge9xB5XRPDRDfX0nBhsagoCqUJEx8jQ+UimCr9a3Aq2rVTZdAZR/8rFTgBsf4G/CVJM1m57rSxpkzTBtZUHX0KizMgDKCfCaAMf6Jzm4sif1QND8ztNqUPD620CP9xbRS+r0lVnM9pYxXE69SWo6H/uS7NE95LqV/m9MEvs3eMZ5vzt5+6zN3B8fScPPU5tnnUQ2Fe5dpmyBIK5d8SOVvnJqJ+sS9j/lXrSjeQO6L9zDQ8JfXvD6FqlfFrr5WhfNX8xMi2+IXNaprA3H/bZ91KNBUOr67pKYhXPwnuaAdzWREHLXfKE4lTd92Jf4aQWx+SVf94fXfnsuFp1ePSptDbp9DjR1X7Asi0jZIRanK1UPUpbCELnaT/yRgLV3nBNEEJqqjEj7Fp/GSzkwU9n/BQszaTKINQFcARl0G6LOu6yiWeIEM0fZb60KdD0ExcZEF+ztK57KO/V3YsoaHT/8Ol+yGpcjl2+X2r2aIo0fl0M81TJ1jaJ8F9bB7x6c+7J8Fn5cB5DP4uKVsltzkuhaSR/oyxhy5gWynOv7chh8fylxPTc36D39Oa7tpgEX6yGMaQuDIMSfwjBk28tEYxWPCvAh1pV5/Q1a0GfDDdik4eWWQAIw1W2iJDXP7F6m82RyFzSaSX4KvF6BRYbsGaERI2ncsUq9Yq+W+NnfnEjxbykwZOG0pzkiwgiyjW+OpEbSpvw2Ff2Qn/Z4d+mzaaapp8da4PSTEQLqknNoxac5cXeI6AP1kUZ4LyBNgb1bh+jb3yffLY3Y+LaUhs6ytJbZ/X80PjfCIhsNXjlLtPnVesQbgwj81BhcJE2aUbsjzz2P+J2PElbvPNZVQ4tXMQkHZ2mAjXbrzJfLZmaU6g2NAKojxd6cmD3khW9hxhk4F+NNu6Uog+1KbinAKEm7gC6ERmQzoBeaP3IfexIrzMB0dPJtwZd8rEWwysQFNku+Cq99I4qDKC09b6otaRciWzvMKPI8acQycX1KDnJnsVDrC4lxs2eEE9Jkugbs1jQo7FNbCxpVGqqDPMFOhpqtx/0RVCcCmVxdq/z2QR9apHM8L+JyY12EyQjSiNEDduL68Y9/7HeaRezkZUwNE6/50Vz5gDDBI0kSyZQfDA55QtruwkFUyw8PZm2x0ltQcXqH4smIPe550jYTVNqG01rtvAh9ztMgjMevNEDXnW/xBcHfiP6AI8ahS3c2a90abNAdyO0SRAA/+B0oGIUv8wYyNOkfWBuL7rJSonnT5nUsZO2J0AsTzgJxM2CdAwTXy+BPaDNVs2UezK7M78/A5B5I2x1m2a+DKk0brBGttuGzHRScUcqE2zHV2vSEINFaqPPDjojJt1pfOJ7BdEZmZPWpd+q+zlkx1GcfZBey3kHbpPGxTMHQ6YMhenVlYo6Rt6u6qtON0phG0mzQIqxDne0IPJSSghEEZAc7VI9Sl4mlr+s8/ZWXuL5kwftR4sH7cUu7Gz4nowKgT6/GdnoQ3vzNuoCR4z6q/c3ZMVsitgw3z0uH57PhLYJRbiIi9bARv+Pjx2cxNU6tRPPVQ0XB4Gn1otxuViXIsvjd02gh4aeBqsTXm5ocxyW2wKbAP9trwUuWD9uwvLblDV2aSNtVimhrCtz1Xhj9TQt55dGonhpghKRSY5K5Dvl6PZLNwHFvY6x/+36YDJUA297S/oVRJH7s9INSTxdhTihE/duNLF728B4b6XYRxh84XXGsZiKNQqKKmuiVMUEKBAaPwZKMy1pnq4AmZMqx304n9LaCJ4MN8vTDEpgF3aHZ/zlTNusuq+68iy/5tytqh1Xs9pK1PMn1yZNEdHINu1uw7iZ0pdhneNWap8K5ECM/0Xg+vogjqhTFI3mE951KzOwuWiKwLbJZUK6UxpPZCDF+RF7VpCD/ntRy11Y5HwzwR77m5QIzeK8mj+4B7O62dGqK+L0QoZRKF01jNeYgz5xK81hJ1L0YtlpU1fX3vY0rY6Rq/vOhsWGtI8Ip5Aq/fQaTfxMMRgf7XZH30Zxyh3L5qS4bVrWkFjRi6yI2X+Gz1RWVvfVoc7W2U8N3pk45guqFzU5Eh6ZYyL/ljo/PvjIvMiDHaNZ6C1ukiuE/jQF4S99qvyfKzvYN4cGjZHcd3D/yumti0DPmaCxDmbak7cLtvU1SWbpgcwkbl89ClfWnhN6WtW3LMC1VmRX5/Qc3/Mm1F0ywshxv9KL9ymeippWOfY2hCKtdGwSQiY3jObymJ1n4czp46XlpE+mXx/41Dv/4s9JyZ20wSwBFh7or/D1GtkjAJtudQxfnIkIErVYjuU1FMN038IINWyAhA2nmpYt4SEsMGwSx0bZRmUvO8+MFKc7Rn9k0JhvPt1sVxsZPG6LlXYKQzBlPW7sqqwhetyTa6mpWDjrLwzYAACqpmP5WCKk2opw6cbKZ1VkNKIUsfl5qyqxaGOCds7JlXE8RriSvaR2BK3e+yN7RK4WOmfI2AWfZCdyc2M3vzd3ol7j1NZG2VfzyQ1CGYGOLP8D5eW1aVRRO5Umq+02NMiEiLStxLN56k+/fybiNcApceZjl7xHzXY8oAUD4M7qvB236dDhIW94q/aJZMRNXeFruS6tG6mPw9mmXqUd4Hy9kG8Ie2dSQABBjevIEiibOeNcvYQPUs2YnwmWukHI/M3JMk3N7350IEC/M/HL5KrNWHRb08JW6CtiUFownAAPQPlYSbOkXFF19taBeJjR3vhFFTlkuOG+dEUpe++92a5k5N1nQdnaTZG5Lt+RPDbboM9iioRHVHoCvMf/wtXx9VEGWrLUb9RdvMwd8leAQqHPU38SlX+AxkXrdOSoCAE23otD1KLV4h7HNPJ+4sJls3iPsMJifAmcvXmAfIeRSuoLsRI/cdpHsOJXY3DnriOJshMTrPtp5HAb+Awpgw7tVyKJbMpVm4Akr8cPo+jhn1rLSGAFuadAumv1JqUBGIEs00i9lzbq/EWvTRi7EJ4Em6U12ZhVyrhsXBePOlPetOPP80A0mMf7VcUySYM9TI0/F9RJUB3uypxcrxc+79u/uEO6ohC5M4//ND0A/lPcK3nmu6i1oWELg57CaVNurlmajVAHuJ/359kE0bUmGO2qi9IzvhMCFlQW91ArXJGZRpUgw1rmdRAWaGG8c1x2xelU97bND2GYhNEn9pUkgR0C6EC/2jqX8K/he2j8qEp2oF0sJmTPo+Ms5OvqtyREkxzbS3DBjNc39h/bVyIoa2LUQSP7Nx5OJ8SHs8yNyfneyLhHr5pRmHDRfZt6l1knfgbA96qVlAJ7lLp8oOMmEmklZiyHDhXCRrI08NLrYnsnADLv5piI/cgyMnfRo6Q8rSF73bOgWLzvtiYQWo2uHymwbvLiVRN/qvxt2EiPcJ9ZAHJqBX2d9F2hUrqqxfyXJeWj5nw62mWD+BsiDmu9UQejZnmi/M4s5ixGh2JQ/D9A4hBUnhWjYubgO6QfaZ+Pn+VG2ZQx32aug7woJ1MCAwxPRs3isDj7TmDcuj79NDRc7V9hbuFqVcW5wGioXVjXWp9Z8+okEq0lTNEC7snMFCzmYYJ/S54I0jV+IdlHogMIXgaTr/nlJTXxl/BuSgsUXK/tjnNm3lj7Soq+qkSaoUOXvAEB4Yrot7Mlr/SMYEYxZPowCXvtABy1uRyODEyC0eXKLxYD6EKUOgFH4phDO+OlNv4mvxFXV/TYtu4+H8tSuKiB3UadHwxjpdJzAhgkrHTC5gUwXdP/ln4pghVhmlMcTWMJz9rEfCTVtAuc9oEQfBS6VwPDhWrW0t6oWkp78K5hwpqQJsx9rOx4ikWllRnCxhthmwVhKZz8NZ7VULBR5RJcYCnxOMgYZ5vXCyq/nwi2W7HTwZq8gRBwY8WJW+HuDWqYBIWu3QLhHM8xDvSd7Ctt12IhI0T/I1tby8QJaIiO6YIIQ1oUa+GZ7uAoq8GpFxIv0d+Qz/D/PoCroNiEITjCChDLyN9HntUSMDpz4JyQG3w+DQMpuf9rV6qhut7BpnkTr5oCmAIjLoFlM1RyvJCpKaGMCsStcVRmH08XHxgodzGPyiQRhdDzPq0kupkpxy5wEZ6FZ61hXekFFDpIuEL7YWZVPO/Ki/wlHEtyX6sUb8c6U7OS3E2D05C+ytriQYOVQyDaiErM0t1cLlm/QJQ5r6H8KpKGwMWzdzTCxea+tZluEVKB8VUgVn5ZpbULxgbl7mgWerxzg6fryU6BKTqXvXypKVqNvujLSTiRiW1gLExiGEz4Ir60qI1tKvkXTapoUUkxr98lS6Z0zAxKnG5nvq3jxDtKMszmXjZcRAOL1paNlomfkitqIOaORlDcSCZPzPG9eeYrAlF96MkipaVI1tysIftl+TJ6xw9pT3pdthPzuJ/CPdhtQOwI4Kzbr4lUGuJAiKooOjEIyqcsgjSBBWA+OGsqPjxS1lh9p0JtzFZ/EavMSbcCWgU0qzmhnF5CU2c0JCDN5RZTw4ldzJGWDeM7hrl0T175zkyDWuSN4oUPl/gdY5WQMJFF+Lp1BqZSsQF4Zn9N+7dYqRQxBANLe+2GVs0Y87eT31egshb47iApotnTp/0CoZXP48//AkRLZUMphGEUrtxuMFxjIsxPIXAEvG5ozG3sxMHJJu2SNapNcq9a2ClOr6nLyDQCn40HqXuMJq4DHwqmFlUBmfW+/hXmuFEqq4r0aEPaO6/x2We2KQw6F2TRNr6fa36dnGusCFmR9H6ZPmMYVfowyuuET+fR8b2/pX5IEh/T15cO+z2MSnKlR3XKhDv2M6hC1cLEaGiYh7YFu/9U+2CODBcAz1soYus96/NduxUGPtmjwpG6Ig9Lf0KQixAE4xbYCKRHbkxRWpyphyX7kAraMccqccZXjnmQQE/ENUqFfNJjnTZmPKsPlEKOKDQFbwSULSU3szg8KCgotBOa3eDSrd5gWR+w29W+DPSdwUdzigQIGsHbVNQkiihiCc5WLFHEm8fRiXxugaXj0U2xrqZJX21ZDrHjRq/O2Jx4udtpTj9LY8uHniMDS3K3B0/La/lVtvqsSO/vsdhnZFDcOTRowktztMCBJjCBV1+j47hQdZSFGxO5NntkTfE1jfBV61s3PTVP7aVkNpwGK0IuMqKa3UUnO2A7E6I/b8E3FEvhyQKAAS+FZIKjSpGny9jQcTr1uDH8s9r1qMGLexjHcasePuFqublPgs2n80SzLGcypVa+p4l5zYlvuFYUN3RKkEWOifJjCc9z12BxBtQfIUHJ9ww+Oj6Yj4OVD5PAaq1qlvvI4B+tRgKy9+cZPRufzc84cGrbDjEkWJqAf2aoRTmmQTr5Vr2KNCvov1OKrWwzEWRIq/nsY21q1FxYnju4QRc0cit2hKXFUCr4bWVYpouNrnXZ27PpsAixUCFwTP3ARnXzteXAxVbHeBFWXpSldyxOHyszhl4Nq8bxOrjeezFcvXxI8aE8HiW9rkQpAiTpAelhPTx00BYNNxWV3BgbVE0yVD3+RH5/SSkd2n4jTN5j5gTTWjkGKjZC57ENQ+po4iPfBAnjLone1ZESe/jfqMegVV3ap2RG+EDX6+awDum96Ns5XRChA6njghxQrTaokUPuOml6ssJlndaBO1g9LVrnHBPSaO0qNK3J/AklWSqLpr1R+jxvXxLkpMIZSvx/iSOJw4qqukJonyTM7n7cPiBD0otuzxTd25bgw+6kxMqbgkbbr1AP8/IdFlgLqVbAa/LpLh8j82Y50EVpKmLo/3Th98l6nu5n5Kh7imZRVb4Z+n4YlPuSnOajIKMrJGF3FhR448LAmijB39eHUCo7ot/8g33ClLAaVv8HZo0NACJ+ZKsaca4Fe9WcmHfvNIbbP/Q9/hoxj1cdNdnTQ/qOPKOqahfmTWHnV5gDutQd05WTsCFKCHiyKe7FZv5glsYHq3vjLE/Oi1CDWQQ4uKULbPjCDXCZSnyRcEjiKuW3V1dJgHcPXqPbIxPyLdrsDNbscIcdENnRd7NBzrAL8Wj9/nHeG9HJbjnRhXs6rMokrUAM8jW2Z+78+lfGNDu7t1W4fzvsnV1jetrXBP6CKkawpoutmDPVtuQzo6WAOeMFfWBhzzwOYtTIvPess+A6wnCR1eBBUFvpsVJN6dAKetYwOPNkJoQde2PAsp9S8JN3HYjm6oNO/IMpU2cVGptnBFbwm7RU+PEJ5+3C5QFeKB72cFunVve8kA+/2kNQX2XMaahr7ja04Jk6lXjPzNJwnbGXPOJDrJvpub6ss/2dfwCQqyLiHolsMkDuMaEnzE3Swj0YPDcw2hgAuFwDo0sHh/AO750/5F4OLXpPXPE8iuLDR3tlAlT7Tn1eMWhYxNrhr/0nHWUqXn+50uM7rFtGc5sCEg730cB/OQUfdNVt8IYUHR6+DFGPVkl9hb+BUqqboEPDJ1cn3mhTTpgHdqjX8REx7pGq/w8zaWQ8C7psVhAV6MprPW9GwZU2efIinbw+qEiI3uR5gTN2LIRnvVK4rItcqY1gWQPxv4CokIab3HNJBF1ViJxW1uIn18IoEzvFmnBArO5ZLgxP7SN1Px0MoQfWTiNqUbK0/OWk4Pe6u+o+pWr/8Lt7TFhvSCCVFm4wJ/FbLl3M37y2D3C3hmTbxe4ZuGtq8svIDrr9ctXazUdtUDZ7ApVupSLgUeEPNB2L33Ft64UC32x9Kw/aVjIKhIzqUSRi+KNVXASvHiMxtRSnhGhVyjVOWrZ/vi42wwENLXL/vxMnu9f4249cFOKzKBWgfjP/HrIMiyHXanX342TDmWzCADglbAZQhieu+lmiUePC+yg9swOIZVLZ3NaEri81P5IJqiQj5LeCnTOv0PaFr2erQ6upuTshDqVGg9ibEk6if2mboI70FLO8GQDEOUHaxPmXtLgrx7QKS9P99fZzkjBhh9vIS/whJM2fUrt0MmrpLrOP6097CEUkISyg7slWAvNV/Het/SkwrBbv655wiOzhZgeTKKur+0rvpReG2IHbuvttNK+hkDo3uXN67NJcBe2L2lbMb4lirOzyvSb/pSC2XFghKNdChV3hlZD7t9kQOxnLwv0wYmtrPLhI7UdcegI0ax5j6FRTfG8hCCbNXWCdNjMskBoZOCqMIP9gLe0Qb09srzK8egx1n0nDc+asVpl7neVGzUrNwwMNrbzeNFcjiimWulwnfHNoLVm8VVzflnnw8JVcXan1X+ztwvdrC1EafXDhLiFy9AvZIP+u0VZAAvAaOarIX2t+xDoAp12g2niQpnlTW543lDhGve4oe0sNdp0EHEt1o8QjbxNLC0VVVoHQ30EYBqatVr1lAeJH8UOwY1gX6hgeLVk2sTWLHfZyda5x3DljxM/jYE2uLsn84c28DmhN9MIMoYNY1OqHzSDnLwMcHUCwC2QZkGbQv7PDlbAvP1ZQEP46BHiyKh5RxZzFpWFMY1UXOW+VRskRwR3OoJCOf4g27ytx0+5hSKbnUGJI0AACn0eCk1vOjkW6pR3QbOQ7Ci8jUxVBxV3lKdsHKpNOwrxQDkYjn5ENCBpAIQU80j4PyqpKcfvItHTNVXR7ypGYaBUloS3HzaG14CM4jmdHrbyZfoRgV8SxIsPCoC4oStMQSQ+qT1GFYwkeHax/QGv0tt02KT309KIEv/hCRtx0E4uNwy8xaW+2Blxdm2koIgPa0ku8uNXTfL+0+GVY/83irBxzJpjdsbWskP3sIZ4xYSRVBPrFtKJujrwRw/yUBoXArjrBv//skvm/4MREFT9vs/PfSl0eV21es2anD/OtR4hu0x6DoFLRihZIJAfY8OVdBQb8S9iU9zP1N9zIOBGGwAGIrjely8uVcsIMheOu6Ldn4iTUZLAeT8D1jPUc8nBZnySRbO1S1E4tDwNwFaj2m6xpXqfJYLCGBVoIGMItjdEboNHJnTnxXW1oghDxtyasepoFXSEdaqCgUU0Ic5Xdq27M/Tv7Mt5FVHwEpRIjFTuvl9PLwE2/eJ06i/ZkCVcGrg93hyD9J4WLPY6Hj2uv2A21KlXLy5sfnO78ab1jMSu/PkL/kjzxuM33tDYW5ZLSQBK8ECTxOc1sUljVX+t/rY0T4Ib6DG2Kbw8Ryd1OS3AA2KpXg+Jqk4dhRQl/Q6/sLNir2Ca3/aBG+rvEwK+an3SWSteSBl2ZYIgo/3M01RHXR15vQ3UN6y7C+yk/db0ijRWP9H4EgK3szfBQBJ/VNV2TZHD+p3J1sTzS2xaLvu3lwNL2qFR+vsRsmLRvXaMHs2tcTJNwVMGE84xmegVOhaRZglP+MqIWCQAoUz2wXk1O4SIZJa8QY9XZedggIrkHNbadvkBKkg9QvOpJUgtP1mAHVFDpPApy7D10dr1KxGnJpucQejV9oYmwLNB3v+XOIDMKzAGgcuBgqCPxyhgCjbzYAo722A/88ioqeHk1ehGcnmKS3Ac8O2JaFKFX8OB2WT2lnlY21fxeVWAfVvwgxY3Il6klq6daAI982/Maceoh82vHytV1JrpoPFeQl3r2/p6YQkKmL5uV4jpT6fDbEigavNRp/xJhc/+Kzg3NsIzZXxueCESufgCeTnlGGZAhARRBKS2ZRePjUV+ErxRys+F6J2tSUQGL3t2IVJ2Xb0/TWTnxke29GcQAATgoWd80wdrbvCnH1wQiq1EGJi4QrWK/gJ9yHE+R+dCtCmNIn5rvzO3hqFzZjGuVSF8bwa3m6Umygv1uvTl34O/eqqXkrHurvz5vu32j7K70+JCCeEvAxLkZWb68XzutvLA42Ed7JbieW0SbymSbMpAkviR1ug4ksDjEtCqiUvIFuUKbReyHgUEh9ryGAu7NMJr70amcwFBFZGwPAJjKlhB/SId7U4GbWNvp5ZNQ4d9NuxwW4HNH9+6S/sL0/Fr4nk/DoyWddwxms5XMZfj2Nrxh1QmF2OHIyH/46rrw2T4dSOkQ9wb6VNcCe9aDzhzxyvVd5deHg29CB1om3Xy667kPofNG2+zNMIg/zThGjF4mrXnEHVUa6fvQjvHzaxXBVX2LnBkU1RHi8D5P5FpP+Imkidcm1cvOvFLfrDnck3qbW8K1H0M8cPKG+Eq2rsxkGSXAbuSmb310oMZuNnQXXdOHtJQOauJ2mf7ahsX+cfU7Ip/GvSxXVOIbp8CqSL3zG8U9a9aAoIv7+a0juk8S5bzdVKp1dNLwHt07UIrC8qXli/7349qSPtYe5rMYHmCVJNcCscs5VSlU/UT0hVrBf5mr0dp53GM+YaZ/5/iAz9WF8FHiA47027pK+I6WXFMO5kt0e/xZL3dYIK/DksJ/mY0pgCNAihxEwwj4y35fNhg6El5IzLHnWSbjRJqfav4TFKzAl/RKnTA36qDxfsqpNvKCLpqR2R4+ZPB1BBw7lJAhbpHxcM7jguqcJLVH0d3tj8Wr09Uv0tg0juTiKQDjirgfTf1TqdMNbKyJv98eb1mbl3wQ0Bk/LKYB8Tk7s8NciYt9p6vExMV0Tzq0NWzI8qwVH2m4zva80FoeGLZA4k4qrVl6ZRL0KpvPXh/MNXf7bZ/3GiqkpmGz83esijFFKcbej0ziC7W+aCqTbeVj/4vAha7M0Nkrc/wXAsM11O2obDFSNigRbj+FCSEx/oexXwE5XC5iyBUzxcZMDD/6cMh8YL6hFGmFaHcaAFqwZ8JJCdv55R3OwxHJHp4N28lItGzVtBfKfv6TlEFxIm428r8kuL8jy+Gue3iDXhbU31EfrYPY2R8+/KY6fvcwOiNIYS5Y7tBaRWzt+liHYrVwFBHueXtGJP5KOBA1G5tebYosBRKIoeFyF5/P43+GHZOLmiJCgOD4juEidHsLvbq0WzWsyKTlYRcSsusP0G6GR1AutgMn7nm6neeQK3CjjL5nUY+vb7lDeLk8D8ktC3I9AjhQnaNxLg8JhCxYCTXc78UVzJuv/V7Yohoj5ddqf1dPamp7aRlB+PqebNg9hSMbZBQ60NWKBelyqwBg61f4+/+vGoT8qxgy4MnF3ftmmiS8BUTTgS6yn+wsYPDsdbEyixHztxSV1lxrMq/kaeeMgTcX2aAsRgtsb3ntymjkp6QKDZR0Zzv7wwA3bUBWdQv7sCBQU2VyZjkNcHW9gp9nqJt6qyEZcMTwGSVhIhGi2AtPK6d4+4QGLm5OyiLIGIXbbc8zb/UE8zhCycoVjg2Ldk7o1y7gqMuJbyHeG4lcpQCQQaUDO0JFnOemKRy/VcbnPI2Odw9h81RTRCvbJb+zKcLVf7fFNsUDoZQXF2es9W/zyT0FopLOi8PBP/6Rtl+/nHju6YZJDa2Nkfg+SE1DzPt4M7VHXPSY6LaI8fjVSIHe+JwH5h7pmHbF+jyevM+v/mvWIsZSqDMjiiC6ET/KSk5LCGPPhnUbDywGyRaigq9WtdcJ5cGSIZoS0HTgEC1Mx74gaM+gfKdkaBDZSxqZ6rchSeAxJe3PDDgrqy/7di9Q5FAcwVu7WsrYNbRl+pi0xkTAlFwHuqkxCnD/pxtRM/VP/S2KY8cxk9COLHNnijxhRdiAajMSBHxsfcaz0g8zgJnWiDP1YleyG7nFz58O3VjKkbi1zmCi8O99Fw085BQZikx/zN1qnLSwc3KS5VpdYC/ogdTScg0ZdnqDw4IqGgna6Kc57Ew4e2UHgv5X9o4CrFS0x5iqLnN9fmzJflWCQ0W6E7992/7y4A96mi7Inb51xxaM7H3W5VdQmINtT30Ll877tf9s39RYz7AfPr+vFgUExJqd+J585sz0TvUQHfNPF+qdwR0SBsOKsG6KKoh6o22bZ+0GuWHEdTG+/FeQtbE5Q34xsMCYziW4qUr04ITQOHI0Ovs3JJtdo6ed7+YDmQy8HRXfhNvHEkYEVGQApQcHbvHFcZ/hR63hhqOFeHVaVWVHcQV0Dk9KqEEZGFaMnWqXf1suHkB+4+hXILEthCiRmmsvf6eMkw1R2xwAcr23L/1KzY5pgFzKYFWbM0foNE2qhGy4WsrU67jMjpg9g9ZErTM40N3mQZHZkcux1aa16O1oPYoygTEmxRVIh7pitm1E7D7+qCnoN3q33yGGSWGo8Issm+x2Qthte+yR6TCj6Uz3EN2c5wTbA8RZtTHhDVelPn8R/bbPk0c8EfEeydD4DVpW2XuaEZC4pbGNlwRmS8GpSzcu6mv12ZSgqkiFqwNDQxOtffTq+XSsnzWkrJUwe3zHu8tAyehKrV3vbi3nvcBzIiP7fS38yMYrSVjB75YvzEBqCYINEcUGViK1SrGDbfMrzghlj1UTuDWXCwCqWEkzoGOvHwg26lrRbI0fmKM+oluVKqBsG/GFS8Bfv91iWfKtKJiurY4ndf/VbvUkR2rgxeYrg7LMx0xFE98pfPTLaFuUCfPDVAukfFcM2dugtzWdiJ/XNyraN6Ggs9PTS26Qz3UPA0etlEpFUy/Vz5idTtCmXEyxIeZJFfBtb5oltP5uVWfygseSEWMX7hM3EEnDyHq2iWKfA4bTn1S17LPJxjscF1FPoqD90D5fjJkW92RgcZRaSIiu4vc9GIxquEFZ+QMgt0bWFDs33x7RmLps9WWTqSkJcGSHabDFLptxkKhceKYKxz+YsZ0qvZjf6nMhhsPeHzDSnWqdJ/cYwrEeDF0Ek2KoKQgAif9Di1wBJVA9e/puNcWPJAUBIAKkiC9/ZR4MA7xhm5aAlK8zNpEV4ZeKqXzWUnBU309PDpVHyceZTnn5AiJRN/5eBtmmJBeXA/TieLFombx9GtDB8tLx41UYnhfY15+teR74aNTZ1PqB/wCcJMe4Kn6Hfq4RgGcdSALt/ec7GcdqwOZk6o0glit4V28J8J73aje4BY3byMpcwkWNwGqcnKEBmld4V2GD2DfPJALsOgevQpLKcQkSPfj+G9cxBC/M3OAHhMK1ABX9lneY39Zdv8TwLMJbbwm9bLVUAlaFrTQK9ymaqYEWX8bIybF/0BvDdPbxSh9TGRoKE7BYy04RiwH8rddm7k+HfqVYW2eIJMFtYnkdRKrm6n5Ww0uIiKEMAOw1pSlnBpCemSejDJUptNjm+Qsu+JwU5vkJwW9FHNNag3O2DeB/001xfcmzMILwGNUb6aAIbqGH43+g+1gYQRwoR/rUix5qCA3C8C3AfnsCs71uipEGD0FBFbB4hFuGM0rOmVTd3OWYOIPqiWiNqnZMKitoBAZdoBAnfPbtHn5V0ilTVonpynlD6AWQryvAmHEoJP3UFt0LEYdcTkCzrdWbHebYMV0gW3iun8KfnSRWiklpg9lmG3iJvbrjv+jSt9SOmHRsQpoUmEb0/KjlOmvLJZkdk0UtyO+KJ+2F52VyEiBj320pON/3ba0/1432X+bJqhIMH+xqdkjzwVUXb/RAJSQ//5BmXbEDXhWap7S/6Zry+8YB9lh+zsJSALgtVRVa0hlkoTM2TgJfxjZuvZVbYyepFrUIdrBHWUFxhC7UTmw1D2j5gr87QkPOfGfSrbGykB1fEMw7MOHHM0pj9rjyxtWEJrXGYus+3g+rE7qBn+UjqWn0EHdyExFhL4cQhWkhiQQ8QIthtZJE1NO1PBRmMgvfEcf3XSxLvrcjefzUSxCYVF/B+ZdyHwkoSgiQ5ZyQDR6qzw4wv/DVeHt/2KIIi/VTrNjHXSs2Gi2Q62DlVN9i7vH+JtQeaF6VaQ2/qH0XwIY5BRnWFgXRVKzrkeVeqItgwrwtrxrSiOOcKHAS7GOXdrXds976+gqAAAACSaoE90o3kBo54gBbTymQfoKnXZuMShP97s76K2DyD6PEEHP98BkNAlTlQ7pnCBR8RhJVXz11vm+oOaUqmQMlqeQ0Z5eJTQRqAlz3XITTBA+sTBayA393VDE/yM5tcuVK+Hbifd3InjHdIX+LhP1nudWuyfzV3VOHesWo8EVg0qPB6B8iR0YoS/Q3gfobPMRxiwVldvZ2mGR9sgTrcbZMrmbPyx7tXyVZyHlWfzl2fdLKIP22arBhx9vscl8sm2JXObVlOFoTXWVFwpPjM+kHT4wGvksYjjpNGWw/UDq0UU/oXsmVESFoNCVCFArlVpStQkMHN/k0nHT8DDV9h2zG6f6Rh/BrFiduUnDXI6RFejEoM7HnB9Ld2buqMsCLFhMVJu/CHdJkf4CbNposmd50kVSZvlCctbEW/SLQfw0u7URdN+yrn4cM937ooS3B7cksU5Aqmh0ymvmJP7+EC23fUDUR0nPY5n8k+/yyhxrg3TEdPfiqYeOKUVMBYi7n1RNv0x9Jvqs9hBgPkVdeBn0IiveWf+ydIAGkD7/G/bt7clpEkHX0ftEpAHgiDWkrgvIivrP23U4+70H/eRlqs8p02Nl8BVkuRh5ZpaIAwhPXlCifY34UUugjYO8ZtC7u4mKYZrkPOGHrfD7No7vNjS8scMTaS0sFQsVZhH08SKq80QGuZ1M64HEv64bN8FGT4HAs8PZAYb/a/qjAPi1P5bc1H3Ze4nZVXq8TYEJkyb63jheW8skFHyQC4l5rtKRCj/4a5mGLRZNt2aWE82nNyTXQ2BLYAdYMdZ52gsVl5rqHalOJpqR9iECYeybp8vFqEqISnYC/vjgx16WT1pL14O0ZsyFySYNkEZaoF0gh7N3YTzEa8M2A5VAy5Xih/Gg/gR9bu93yTIzGtp0Mb+LbOHOvrnlEclLO3ZfENZiAU0ZmYPzDy4XvG802UDoZR73nnA6G1+QELWItiaZahTYPIj2nHP+8Idy8GkC6CR81o/3UGIIEk4eXY5bTypTIYN9Y0OylCRxqPsuFxL+kBTPFpJqDuTOHKNm+iF65aRLr4TMDzh6XzcLaWt+udsgnxQyQaDeN/M2Z9frK7+8a1vpJAmbRJg9nutNRJ381RIdisGNBvT7fpEmUozcpDWrIl3D5zjFgbFSMqCNwYCpO2j92mnplNSeLuoihdYSHmoxN+ls7XXr5pR/DMU5AGje74bYBl9s12oxIEcUzZwcA9n68KW9z0TSb+80HEJDQD5MGyHTs8B5i6pa/wrxXQt+oHuGrOeNFSlUqLhSbBTzpMaEtITnv2l1oauAOOaEF/1lhwIHyLv3VF2ehcbZL0DwGeSDazLSt0hCS9gOSX4imI4nl7HnXiIgJf7hshJzZR2ASg5On2zaW3Z+13i8i2KuqtoCf5kFn0W+Rs+lOaDg5Dobith5GHtH6Acl0siuRKR0er0oz+R/nCUxCVvWM+/dDC69pW8eONukeCVbCfP9Yqv5/ApDCshaFuplj4Y+Z4XgfU+1fNo6zHuFmClYGaohdRnQ+6OzexcmuxezRGwehJUTYnerrXRi5RoiEGSDH9JvyM/CwvhS5nRu+IMsKizxsJT0BTFOPTLck7jk+oUD9I3EBYwJboWqi770rdvjZFc4WiYjGJmO2yUuvFgY7N83kjPp/tzMrMTv64G+mNfty7pWLhpQmpqEcbLqbURe8+8BNOQuqyaAond1b0p8XnwzSFnhmH8JKSTt5Ufl+ThG5neuzCxJov70I6whUQV3m1RZ8wt1YnSReGALcvbBQtCXu9y+mXMwz39IZt6FFg99r3ZvfrZ9C8pA7Stadb19AgxRZCPC+q2BYgA5ubQc4FVzK/lfXt+qWxP2jRmeGyuSGf10gFOSXt4G4tcW+c8N4MUhN0RUaavnT1rXw9IFBMgHyK+TqkYITkX8nZlp5u+ceIla6BCjnOoQcLDLCh+N9x965pKHGGlV5jAZHcpwHqoZ2mIG51ug9FN6EzegH2XUOiXBgXZCZSBBlzLyMgOFPUdcWTcD2I+5pBtN0bdBqzEUKAGQjnqcQQEA86XHZIRQiyzgK4zzscvvm7rgOBHrIT/d+tt/GHPtd/BXuMfMgU19zRETbBJgO0zfM4nb1uW6mGqgCWzg7YG0cdKkxKn555SuK8tMxGEI0RfdgBOlWoFbfNraL8FMSR5aszRiQkeqz3uIc9nBIp00c2hPipHJnjtFR+V0bI2G+7/Gjt47DWJ0u1MuLm+R3yFpQOt6iJQGlq44ZqULFcZs6ygF5BopzdsHruxrq2G/TBQ86q6Zvt/GukiXTKakUza4ktKUmIxglRyXOYm9HI2JbBjG2gWLg1MKwg/X8xaJXXmbn5hWZOp2iG8TdTdVwzzKcgVmqtA2lCsHAswZcP7htBFEPTJfkN3COfF4X08w6QX+hhgJQ03o/XtLo8bPvM4+XKVRtcCAPsSDo4DYPQwDMYUTPkwXKox6f20hR8N3COTqiNlhLnvoPdFWZYgMszoKPqVRxH/YCPFHE5rHQ9owvwrwvbFKPrHlNLJUkFRuE+SDVqO2iETVbSyxEN2ypWgF8fKmya3dRBZBJCi5dQAC6U6aoBk4weTzn1GcXIPvRtDKUeqxnaxMUBXKMAeX4/Ywoko6e5q7rCZPAjbU2yasabb6RQihsIqGXxUjjFwzebJivfxr0Kd9yz+pkSwAT3WpB/gWs83wagFlNzA4EZGUjicMuplfprL4Jsb7AkLmwm9OELfLzGi+v6SMAHpT4iK0Ltp4FygWV2LCjzoMzlyPptqRLQS1geQK2iPiW7MW3Jx3HRaFTN0nOd/R7lnn7GgvYAcgEF/IqCxl/44g6n8+zRMXb7HrFLolFIEfhLyBCEPKHq4V6YyCx+WjwI9NbzLB6LgH3KDwb/L/ts4ChORjGOK0Ptd2DlFLAeztvaKq4Fli1YIiZOmA3ue8ViwHJVh8FEngiKkPiHBfr/BkdK9R9XThmQm/YWYkWVX/K5UXiN8+Fuyt8eSTNUh1YsL+ZZjy8CaWweepa7b3FvDW5Itb403h+g461zdr92U4qtxNS00HJnnvIfNjcfdF4u6/UJL0x8nOqA46QEuisKca/Mpo+GPhaaBcUC79oQi89Rr2VYbSqJUaPmvl2Nrtc7p6xbuv0n/B9bqFMGtA2eRo577zRVPzHxPKV5rsXZzb9wEh7KJE5uoHm5rb2jvF+HcuiQ/M7hv6XeZyctbNDbEzAh8t5xRJKTtn3EJ9moBOllFkNKsTNMHFvWEDqtaEjQk6eUlj4ersZQ/ob7gVaykzCNjMXpbgVlU4UyWbC9NGDGbnL7Zj8qg2/EjPxswCKypjGWFSA254PWk+RjY/vLRwU1/tkeIfZmFaYmsS8QQnxK63Bnfn8T3N8cXZTxBI6YbrMRH3XDRM6DQJBT6ETi3g6fAotPM7wrWBkXg136fAX+ncUiUJyMur/1nYsNamPZbylVm/9zXLIOLfhdmOU7YgE17/KLGFM+DVG3CeZgsroF2XxKEhSQ72E6ekcOp2Uo0D0URZ6yH5dvi6ouOOqA9bLsT4BTYmHQ1zEOhBJFlfvN1XcTrz83B7ubnKamnzdK9wjZbTnYmzv1PNh2Ypc/BJV+ndKhW77mL/thtYW7iRqSTZFutk5Xc29/9Vl/3V77jNsBKQUOgCA94BZtnlLFPCXiqB41vOwRJnUyQXVsxUqmx/HkoW+Kyh2o4KdsVuYTK89wF+fhN9wPSeQj/CPaEF1tW8q7cgGg4iYmoA8pPglZK7c1EEyTVUC2sEZ9BmnRBwDeH1ypvvSllMZ7Y+drcavdwptHELkBzAaq2281jb/qqWQDhIu9/uMW6GdI9Hv95fqkHot8C9MTpVN2dd97QWh5h3Bsv3WKTZMfRFiDxOrhNMIhLmt+bgludCAR3W3zS+x3HsqGxLiAf7Sn694+O3FCrmEBsLHCJMJ/8wAYApW4+125gPuuyPelY87bNiR/174ujzieaE8QESosTz4affK4wwp5Lu28R7eNLup4vLHvjPD7LBFgBk8mLyF0m/y9nKFS/a9U59AjD7YzOmNb38JDGoGSJDCi1e3Ebhi90LMbk85yREufEZiX/27HWkPt8skcW6W78UkOcWP9fN7ndNEEii/Nsg3IT6StcF3YKN/iH+f0ErYfTrjKB4t1hRhgj508a+R3tJoFb5P+d5IAdHqlMUvmvZjpVC87FzVjoP5dfw+dhlI3Gz1uESAaZbEhFip+kHViMPk3qeWetHSPzFhpLk4T/2wAAszOGJ5xrWDyXqXNUtq2COddQfn8oN2MjMDqmfbZDbd2AAlQmsmab8CH0cs0NVPEtRreuvYTFMjOnKsHeoYHVkJJurLsxA0o4ODjL2eQpMvPmxpI+0yM/o+cglbk2ffLHiwYuecsXLn1264YXCrmcbcLLbWrCihVnLgeoTtjo9/VpzeHVdqs5egnJcCfnyVDmqDsoXPn+MthiYAzr3gY1a9F3KnYScFeRs7VM7J2FtH8gvzBb+stNVUll8A0TnWSonyc1Al3fCHA3qKH+EH0m73D+48hq4K1w/0tABeoaeRpbyHC1ZJvKcwJ+jzYDvzWX2muNOAAACQCnHcReHdLKpq9YVP3Yzb+Kflh1foCFpDrCPw3ec4WFvxH0xjQwbO1GEGQUshbf1HgoBpZpuyYO4yu0kyq4EPIFqliK0BpU7/3OG7ybpg6V/jq+CtZpEJYYwqEjI9M0nV7KrsPWqqDrdNzLnnapIKA7uJkrwyUa668PDZCuIB4OCjFAdgC4YoHplvcBGSm5xmU/boCwc/S8Os0pq9tQf4ZL39wZbw72eIsUu/T0sx5/4uDporhcQF9/jvVyzVmI9DMr/7jK8CtspCXO/tZy2pppEzFp6/I/P3zeHr8w3Az8r5yeHtqoYW0qj5uJJq6wyjhGyaZJX3y1ZThSW4UbbVOiAZ4+kpn0IhGy3N70fxTLhd5cP/35HMN79IQUjoIHZ60IkDLeIHYZk0HEMHGtmwQorFGXaLwbkYhsek45aJpvoFGsMKIu39ZKrz5vBKhymJfiRFf2yny6m23mFIxpJWRU11kW23sbLeO1XkU7cCPxWA9kyC5gkbxGfXkigzDYEGti+l+g+Lk3y9/zEb1GYorpHgh/UoaLXpVuIeKKBlrOmQDmvQElmu8W85ejrfuTqVpEzhCukeW44GBkTkR6rXHAZh5IOfK3ghHoEoq8iT5BraVhshJRgmsYnpll+G+j4b7edf6E3BZlt0e9Q1otym/J+Kp9nY/9bukor+OzoEYm0/PMgesVVJ2LC0ZNWKHhmA02/5e+w7ezn+7r0NgLxNDxavP1RXAHBnLYrUdl3M9UBfH3CWotT6Swqj9SuGuKOI7SQXHnfhyTjuM5SJkhQEfC6xAU7NLzvcyHPCib3yakSbZC9EZlKbiPdPorLx9pTgdFwkzhLbg7voW9bP6kyXeYBxXQXorqj8qCveScyhrIJCcdc+xsRfFugwftUzN3kpfk7ks+v4QNNpXsiZH7YlppvYM6Khl0itSJCUAEzctbeTLu/7G8s3Qa9Lgbi/Prw8lsTCAyWgqzSYUPRtCdxDj7aLoCVfUMKcX1WzxLFa8ZJlXdla796NMYk05ptljFVysBTT0LRzFml/7f05XS7nTWClo//5zYCpYng7t5zHNimeSg9+806aZ6PUFsiLLXpz/lGBEGM1l5TQ4h1vaCLmSI6bAOfyx3BH7IEWpmvH6gYFBcHLBoXi7gCsyUEqhmvJKPwhvIBODlepuKsh3Tt5Z7V35shFmqlDZ/d88TqZ/lLF0JPWKVgZw201Edv/wspK/zA23BdB2UL/7/zPdY1oXJcIG0FdgOW4p1i7hKynJo7tv6NFzLrW/VLDfyOXa4Yir6MSHXNoyzvdeVkhkrllKkf40UzM0Pa+gwTeXmDmcYHOxfNmLSy/67m4XF07VBastxxK86KC3Qc9NZTLgDIE662/cR9z7JmImVy32Y7TIny/QC8M/UDEHdLBYAIeG1kCfV6fspdOJWBEa1cyU2z2oTkWJNN8jPgkCjESb7uysT9TUeEvfi+QChLZFLhc4YVpQdfhTw5pvxClveeGfSucexN6rU8l4TcTz7Z9lICedKJalSw7Al+49iQf2Y1392PPl3cUxA19hvJjo4pys+goaWQjtbu2NDErcgkiRLOf4cYhKfMEH/6ck1NVLWs1t8m/xuy9JkgWk6HIWVnXe1iKCekNcd3N1u0wp/GlCOsTMqi4sGk2Hbco9x8/Gy0324IsHrLmomsaDo0UOZByPaT4dLV49klnRK9PBMAei5/JzqAPiXbxMdheUELX/N8M9755pOtWZp5xefVrOD1Ernb/C8hkluejSoBaFXcZcpG8zQj0EstssY9hyRWRF6piyS33l+lmFRQa3G1d9JEoojKIkvgnBVbeWnfSVuSwIfm5ybjszngIOp7jO/HEoBPhR76BRn3u2woJwFjqNRW5RnY3TJ0ldsjASYIFCmg1wf7il4rAWMCWlu2gAMG2CB5H7kz7Twi4xpeMch3ReYTlODnA3EUNn83+E5OOLSINOEtNg/089dWG+fDlc3nzOnC7zZIQauOMp6jn8ki26qM6APyJrlYzGhfz9w3zQ3Fqk3G4RxaoepSvWPNShWoFMmREWOBP2lKCHQXg7bisYTUdNmO1tJNML72lXckIj7THd3APBV3sGlqOmaLyZOLW4qSywNX4E1Hz6Tqa7lqXYIBpqFMbtwBDonj93NfO+WzSWbMYj4lHR+PurbHnRDIYsI6vYkPzrcNneAGV3qSRYFxJu+tQIFxdcRCYr5fFL6gZjTr7E/otuEEqRIaRVMp3cgH/RXs18ow3ULGUAFe4MdHf3Yn63uU4jTBA3RovL/ZPBGTNaPCRtONQRkziY+V5GS1nr+TN8hr8Thelpq45Y0Pyjzi90ZoIgDAyr0NP4/DxF4hMW11Eoj5ZzlKgbk4DOMg30NQMoU+ZTRoDbpVwu2ft8jG+QKf2ejfE9ty8JO+CZQVazGbGHZEDEYbOy+RJXGRBhRyFW/prgZVoFHlpk7/GndkvuMpNPQeqNGnjnat7pxAAV9zZr0X0bZPN64+q20dM4gkevPWYSq5u++cXZrvbI3eF+c9ROh3E7y00V2SnCWdCaF/YV0q1Pqi6afH/kyMAnJTAgZRhIW90PKaMcpMaNoHI1kKqSeOuzGh04exu0nG35C39eKAX0wDki8bqt/Yy7ESr9Nvn1z7wTfMnVUAu/3aV/4sc/8SNafwII04SWgih49Pq/0I6v0JR8VZucZIv/zVw44Dz9iLfS3d9Iu0hWRfW7gRj0n5fxmJL78JBqrI/DaxnD36P35Hr0lybqoSu6zQu1tebsT0os9bklHDWC6vPJDOOgeKVVus+FY9TsoMkoTrbD31h5eUyS+24xt3jTKa5WseW8mYkOihMAvB5aZEJDao3Bm87PiXQnYV21DoNBaNKWiAM7kYw5Lkn8++butee+pCgaPab/GiPOdREgyVWEUCl1KfZIXW9x/Ppppui5qqWa8favlT+DsBrhEnS73LyzhE3k+gWFdMPzDIdRbGvh8eUUl1clmHZT65mlgI3vp2vbddW+dQnWVitdPc8cbav1X+NC8hCpFFxwNxvuOH/IP99vE6Dj8Uac8B4pKXg4yAvgDEZW1NHWtgqZaopOT6RRSzEtZHfdP370y6vVYVEST5k3S7W0247IYUSmJd3nRdGSODTPJvKgQJxvgnnCkt4q5KYSWQiphxLHAfKrogggKDEJ7+UGYKcwV8wBr3dtS7ZszZY7lbCHEAYszh2q3gDM7ewqIzuF6nIXFBLnpeQ20AxcGvOnHwUeb+gYGz3Tz3dtrzGbeEZvNA/s5QcsEmqUnLtW6PPECFdomukrypYkPzq97kT4oL/NhededW/y182cxHUNIGhx1Wcp+2ADg/akQGEzzFzP0fVYdpZuBkDkrGfjz1NZaW5z7j4P6pSa+y58NIEDhNqVY18KnC9BhjKmwBrHv/jmi5geonO7+9j23HnP3fljm3Frjgwu0zsmvIH3yaJyh0lbvvRfEHKAlwPfNjZTib5aCa+08Hs4Aerz4rVtgF8YMlV3S9mSlOq0S1N0yfftuJ1/WQyRSzFmIR+xtTtdLH4x7zi623rbMd6FnPxObNX/Jn0jMPi/ZVa6OB4jqQjY8hJPs/Wplb2uEmBEmFTnrYZzZpbM3fRjNqbnnyYdnfWzrNLfJ3XaGGAS0HwMfQDzSHDrH5qtT6VhAa32kfICpwcBpcDyM1X0O9JCBBjXICXbQatoC0ZH17xDveiYOSNw+RCtnl+eH7zvFNtFZLkrDDKUClAZSDVBnsL4HPjgJpBO844zGUwi1bhtQO+uk/MUSGEmhExUTY5wqcQvKof4VULPGSAhWlxZO22UgQjFg6fGQKPOjNHeO8Hj6BctLxfR0THjbiZ61Q6QcShGhkv33gdLU0JOd5CS/M8pE4QfbR5CMBgHS7Ura8PicC8kGZLLpeqlDeGflSxnpY4O989aC9l/pyXnsjHgz0meOPbsD71yIsL2SosM6ecWKnmCfERQA1SLgk7wrqfmIJeDjc9kA23E0eHzAk233IHqL5OGQElTpI9Cs9SOYn/jZdz3y2uoO1OAaXW4wOlXWOApGT1y7srNLmUfjJwXINuGe/RIJoVcf6gywgnfUrZJpvZ6viIgdgw9bL5vdpjlkJ9FCGj5o7M+LTkSNjqmWVl2/zSitiPeMGWN1QCU3BjcNqt+qv5I2GcMR9ZAoQMUSEm6LM2KZic4rNgR3cIA8MHZ4ZtChoOUEJ9wA4AAAAfpfd315bnUtrZ/Mp61InIf8UeqDLrcDGq7UJOdYeUQf0dG8ovov+3mCQwA+H7CMhzQVDWbJPme5OQSFA8WUJ9Pr6rzBVEasMusNXZVJnqKFbELM3Xs+UFP7AWMFnJWA92r7JoQmUGDbO6vyU3I8phweL19dsmRbcUkPGP+AiG4IQcPgeD9VTPzlBbCb/FLpAuuUG4I0625QXJ4DdWdI6jy8LkP7wGrEtWlzbddlXmkd2Mc6Z47XcFjxXmgksEb7MY0ZgqR0syko5qdHsDuUV6Mm2D9DWxO1cx9H+aSD6IGMDLZMU1UhvSCMLhYhvl7qcYR+MoIKqdSJx4RF2XWRsyHThDcMbj58ppACd9iup3Rf0Hw5Q7AJ+Uq04WLbWhXnl8WoeUzoe0Yk8yKLHn44+RbXpbzt+tqz0dVdYlq98aKgWah93Xsxqn0S1UiAhB3PI1g+pyIv+2320d5aCx8BsydLV1Sm3oy48MGZbYK/K7kNXKAZQ616Ki/UfMa3qob2C9ZdoM3YqP7+j7+Fnkni0qKJiCpqwZ6BpLnT5c6p/mCBx0NKODpV9wHuVKrDyBxN7UKqG+RX+/G1aF/g7O9x+QSOlo4hf6PEiqg+AfoELOYajbO0fe7rR9RmGlb5vISToaYkajXjBkAVHVctDb3gzWWjzyDNH/J38RUV6lo9fM03jiX6r1QvqhW/ZRa9GcK8WXPFQozpuMgH5myQffoLkCmeGYHMYhLsiSaKQRTvoCedzlv1GQdZqSbb76dm9LP8I/kBz9GjVYGFiYFjjwgA9RPoSQTmFwci7on38S5BygGLzDS5MDiaDbQXu1IFRnqYPAuzP7tC1eh27HwvPSg7Awpyoq76dhCm6DXG5WKylVqVtpkrI+R4F0NlvNXunr4sY08zwMxDb3COwoLW5BSzhLZ0AhIvSbuz/smDq7b0EhpYm+dffKYg9CzKoAmDl+sH0+WSPqJ3+9i25Aoxm0XyZNM8LAg66ULJR+lCM0XKmPx/O+X0X68zLuxgUs/espy0T+dWUbvFpdOk0nCQ++p0SHu+ZjhaOV1rHwfkqQIBTuQI6kWY5S9TWeRg48mbnUw4Wk/2h3jYVh2TOGLKdczd8IJLkg8/xOVV1chKt07phKC3xQqTO7+NHfsNkpjQzeG4SWNgtATGiq/fYiOaxQ1JS2klxZCf7Dw/e3ZbhGyhWw950DpOacePS9vLX2PJVXhDLu6T58fpy+UqjVIzGDrOfemrJluy8clsbTHHKjkWQE17BABwGY+YfOe967WqpNtByCBhJ/KR5OK5wFyrB68JSFoivhNK1KeDj0QkcpfgZNFyqvT8Q1p0f5T8E/eJApN+CvoljEEkYB8tmBr7Gi5aUgaWuFVxlzzOHRCxfXiQSdOnIszLc3CK9BZqnbS6ZaQpVrfxedWSFvxNAalUwX/amAPZZP1gGBn38niv5utaczfycFxqi4I7J1Ekb2dVWyM6bpgFzToxx+Iz3ge6wJ+Bw7bQlW9zsdjuCGZlm2Gw1OV7VLIodD1vqMkrkGEcruAhr68vyJQn5Ms+wbVP0X5g+rqeWPuDTr4k8ARkkNC01rHSpk8shHfSleaMh4aQm1Hj7AyVmLBda86meKnfoEEeBwfCasp5Jo6g9KsyEMlGSSQyQY2jRZADAps8Rs0scEofwJ9igt+ivbMBdVcjfEdY7CEa5mvYS7Vr/BGAHl7SWzhWlArjwn1Q90UhnP2s0vF+mronxCUCPqmmK/ubyH3CC2oP2qpUejUyrCaKeMZcMl4VYPoGnnHH8Nl6ZqEGzHD2Ml5vM6A+k7cQcZdnBgb27pt1zzAipn5uU5rQ24MT8J2lDae8FOG92q5RB9tb84pZBkCT7/vLRpazbu3kU7xn1kjv/7vk8xADmGya/sjjqqgcFFGtgIc3XJgaA0xutbIj93QmfkyeylmOcC+Dm2oZTCRJppoYVJL516/kgT5CcSBGbFp5R55uaERAiXBAgWecaVgc1njCppHgkKpqDzvI2GfSGtj1Kznt5bLBDGfz1Srnbk7HZ0NQEeaA3p8R+poqCgxXSTBjGVQ6fDNXx9Xg6c5susqu5Tq6TnaO7BVbAqB3YlT6ZKbb3oEDF4frTe9VYZ9EBZATbHmt5us97viRfk35sUAvl+LY5gr3NJdiaBa1ydSaoHLVUbvSxk59+2UYZXZqgn/HkB1yR5cG1edg9verF0DboO7KH5EM7PAxAy4W3j31xmkwCp3l8csZp+BP7Csjw7iu5PxY42H2fRo0ENt5ESu7/IfBTAC8b53JYjODDX3XzmvRW7fQGxHiyN36IAQCdKEtEmXzCGzQVaM5U3m2i356dTzoF206k89+19Kxk/i7J0oYKF4PKDa/6a0mNJsiH/+YvwOVV5SN2ilGeTMmEe9SqG8C/Uq77wiFJZnNZ16noTr/a1MFmY3npT+mfKyyeg1PqtVq5aORnrxg2UvTGgT8To/65EqpWbPRrYXJvuoH+KkPy+osEnBzfEBo67NWFj7JvPqSsnLOJHmXxSwUOG7KRwPyL+tHcENbgyMSKQOz7KXI7G+qsw55aDqgR0O1E/Kx7Ex/P0XUp6L/JKC2rOpI80VnUjghZRC8ZA6LhhtsBApei1lbkTuB3LLWBEZDPeoJUE/UKjKaMtIkqjnfqDJY8MOcg5CKEw0Q8YY3aaT6IdOJJsJ8Q/qNZHz87xbCKKwVL7m5FRlyyH49Pzs9XMn32im3OX8fQPJkEP1xnSTfw+1Pclf4MOxvBKjP7PGGCykiNYmk9TI0HTK4Dm6h28o7/3ziDYZ0t+dHNh+8h2a7bLiAN9S2YXwM8h6RoSAdhARcs8TExWzKxTs0FkW/5RjjTZD5eBJn/wEjxjDi0rcgPk1A7EgsXkgeUX/puvsSE1d2uoUn9BhRR1nnH+5UVsJp0wNEkc66kNxylwL/5BJnVZZUvKhbMZUkeH/fxXlbwBVWLZlmgcHk2t8WxwXGFwFtvmPO+hpWj6+M3xRQDhMW7ZBjaOdQAeZKA5ZQ4w+XlIcWeJTWuYIcCHzHqv2DFQskvbyLdjCCqfjAp1tNzsjbAjF4XxCnobaAPmaY3yVNiYwDv5uKRKW2NUco9L3aUdwHu2kGLQyoUUzWyC8fBvqot07hTyFob62uEOX4BzHbKlO2KSaLF96mIKSd8glulqRsvMu2Udm2UNMEV/F9reYnunW236BNl7bO9TmtJboE43xQmSakMpj65kruuobAEuNj43DrNslgLL/wVosq4Eumz7kgbjxr1VNA0LDcbMIt0PP93M7AJekCH9xxeDGXH4i2FezZSBW8SW/IiKZeZEtE5YJMGglvVbWtjEeg2EtYLUr2eInqeuavLlOlgo80j9QFyu5NBDP5PHqa0TzO0O2L7pPvl09gxcxRqAkpvYLT3tNE3ZCnESPP25M7HAjiHoVNjO5jlpunvFkN1eW3sIgKyXtg8/H9tGbMoNtPyQ9e+LuVyQfpOQaNu77wMvJn1eOF8cLMPyN5m2DPXNc2XZeAi/ZzJ1OEOazTpyNBHmFo5deb81z25UmqaV9WuUSK7R5B/9bIDuYLxWJVE1HAvXBId+fP6J+dzwGAviIwvsaAuxB5Nycm90dJhNIA75b114E1KboeWpLUla9yYh0rNcz1YgQYYFTGY01gkdI7LAOPC46igv4Ce/qObalzfoqEY0I2f0/jqAAAYgAtx+kdzRF0/GNMGgGz4qDWgz18ECk90ZeLlrCp4m9Y2zn8E8JgtMirvuIIxSmUKM0G/rmR9e9POTUR3rqR+x81jqnEx2tUWABrQYeHicxzE6oGU/8xcT1d2gJd0UxUWiz1jFIGI/bBpeEahPbPARbJFOwm44j+uIAs2hyeo13tgKCR0yRTs8BE1bIrvVVElnDlj3xMZ9uw0NrZnVonGOzAhw+zJsWnepFQ/9eCRCTTmjPNi7v7iykhqiFzdWpUsjLzerDytzaSUtOE3WHF4/mX8iOv0boOZx+EHScnlNL2FLmOegstPoPClLUxjgQD7Yd3ScT0YCS6C+5pOnFCiLZVnyc5sALVNow4ZG2OdS5hrCZANb3k+8XfuQSOo8bLZVB6Fk8lngiYKfDnEPurBADgdkwKJeHkX7Jngvix1JwYFXNcWjGFqVgv9g7CqlB1lpxKmA1d6Ucmjjr9QkmtJ44wQwTQY9ONDz1IEYs4uzTTNJWj7WnatsnJ5qgARv66qZ0cNb/yybAzPn+UiXnlxGzYg1Q2j8hxqXp8+oVLevNC0PR84JFCWOWzDo7RW35yXqkmQIERIB8Y/udL7NG4G1tEKiOBAQko7h0wZJHKrzDCHiFmmPkve8+pjxFSa3K+htmlIbepFVwNMRUl+E/5XYhkXY6IM3qLyPs9VW9nufgnh96WGGzaeppra2b0llpR6/2ye95LABhiOvv+pxdB1M9h2q+lcrFZQyqbh80C7BavTQY+Fzkc8lvKg/XJUJDQ2nTI2vlhHorICZolNEb5iDgEZfHwpMOF6TVB1fIugWjPYtxzy8Q7c2mmGkjxB1Ie0s3nqYDrn4x5FxLzGb3Ucgjo0RkMnUvcjhQh1nl5QBQ9Wjp167pd26t5RSwpbIsyOOKOBDwLc8LzAxyiH6+z+dbCt8qusbe/9Vc3yVyTwqQyZnqdx+Z2Eb61WpzVsqH3359IEzXi72zKj2eG75kL5VmbqIbhDy382QY8Np8sMD2eJpvtyN7a1iobRyXtRHFzbaeQ8x/3vzTrac0Q7B4kmNTwuMzAD5IYNYY25rMlCMHRcVr0w5QRQ1ACc0wILpgyWtB8ePhlHFLxXxcuMA4XHQyVwikWSWDPKEseC+qZ5Wx+Rj+6RjCGCQnt+4cyAr1NNET/TlIH8X9+Djs749TcFSVyS6agiMmua9Hx9nXmCnbyb87nicJWudHSwXTEalCBdnnn3H9zBVeQsWgSuVFnmNiIaV1XnOlvmiMY5fyH195OB6MW6XexNt8PzuYODEF0xcDJcijGZH1q7m8C/MN3qnpA5kHI2RP5iE9ithtNqOb4oN8xPhFgVJosJ0xt9MlKaRPVCImWwkml62PN3ZSYH2QHsy/ESRQKKz7KkVpmv5HB0bYaaaFbcFrt1tRR5tWlirQp+ZV69XnMlUgst7WN4nxlM6SznV9sknhQSJ8HR3GYKfUJyq6DVmZWkSmrfnpiUfJV8V0Xvd0+O3C1WESeAK3iPIfM5OVmnpPXxtjAE+/b7jlefWJ9MBC+KlMWNKX0REAPpKQaLQqF7lTOf/piJIO9Xpe52CjdOnTZ7AZdHCSjPU6CqphXMD/KuheFT3XoWV3woulINC+M41hEea2CLnAdmCnN3rvmXaZ1sFrGTShDGk17aMWFov4Vgrby3wGKBCNfV/xcwt5L0G6/4m7Ua5QAhxzlYHI6Vj0LcZwLvxkqGNam3b7HvULwx4iA002H6HUr6OZFmBNiLtUEZfzPgPTnqllzOaYqJnq67eI1gzIhI/I2IctCMsSGbsNXu06QvtDKKQdmwvJiMixqOV4lQQsQDz4LzIigX+yiVVoK1ZtrkO9U/DlcVjJla4N26YTnpie1ApuzenOxQLAUIimf3azQzkHWUrcw9HPanQyCnqz0vfyyI59a9bD9MVIdU3PY42m/kZ2cx+UcB9OavOOeZvE8agchprT0LhEujgUcMyAOqQIzZfgmS+7Ebbq614aqupwTEx6z5pdpK0U9rsFOgftQPdfJrQCws6gKACvWg5n0g1v9NAtjHeDIPLT2Ty6R6ncP+rnotWDlGumDHpSczzDa7e7qNN84TLvTdgdEf3u1lcDvSkIzEPj1DtpCKmS2f1al26mdZ70dopheiKxWznwaeGR5YjOxKOe6snVRyu9o2FGZu/qCTgLtwfTcqLpm1Dt+37MK3dVYcldK8LQto12FWy4FKdxCGuLI4H2biZAclNPpBz48qXgC8d/UHORsOpBG2pVtz/QnDXKHwv9aSTeNfmSXwR21mTZUHMkZs516VhYk8EOkWDVv8adTwaKLx2aB1OpD3SVLA3x3aO3YEIx9JZslhAmpP3siqiR0pksjrIbUGJAAuj4q3FGfxtCvBYJrg45HTv2XL8mvslE8uZC2vaGHG0gW7w+K/Wk1gNHTHA3+0xXoMVyxRLptcXpf9tXk79vWWkfribTrxryA5BWKi2IOksyZpo+dgbwJNZSSAC5bejFl2oKXqQl/o9+L0luwqJZq/t9B46Q4ul6kETereFSWqfgNriYEkY/5y1/kK7EQtvTSgAg8jQ2NE/u3Lv6skde6xqxK+6KszyHiR4A12nyRnIrDIwTGtEsy/FBH6Bpzdyl1N3e1f2ozzlGSMNIRyXevwxmtgPZKSjiNJBnEp9wsc0CU0qyM4aoA4XW3SG/39fsXAYz+8+zAQ74aH3IzsWqJDd6kBtSgSH2RyyyTPHnMQr7XEyG5oLQo5N9dtnv8Ktxm1dVh0fvOkiCMS4gEMMXRyfFJcByngg3s8ykDOdfpbP1Veg9WHj+9A/pUPYPBGKe0JSbHXz2rw2dbR7l5gOZfCNdXGTF+isf4VNU67j7F39PZPxmnIwsXQ905//C4DPFQEq1Lp5NAx3R5OM5XYKdHMJC6WGu9+WOb3rRQd18QO1GzSVlU2xGtr2tqzSSE9b8bpVvZL4KILc0xtUaoJCP5vmW0Iuy3Tfv4b3g3kBswmQtQSW5rtz7VMk2PKG8bISz66XobRBMualNkalauUACBlEA5Ju78TDo+3qi7X/SpYeUDqxrhpNPLC9tCWHN5hoqGy5cKLUR/PdBal6Getgly4P2ngVXWw6QLGykbch+9FdgMSz8hK1XzwAda9WZ3EAgO5sz8m983M4RCzj5H+B9iLAEmG1C8gxxmgQLGO43Jj4VvxJR2MWPXKwaTRfpC9qlejImREmxTqDUdBp27r05ysZVLBI/lWiV4+y4A43quf/03HkLA00/pUxcn443eNvr2JkY8teeTlm5f9KD9CaaqFlOJBYJkNlHyQcO/1bqZ7e1sLemhOj0vu1T/2PluF5qJpytGBGvmG2Zvrehw8/u4MqMENJ/KpLj9R03kax2bZz85jGwvn7VhtrBw7cD0CmlzdsAOb+/8xXgQR0Jl92NoouMSXnKLUG697IPXkaz20uS1APoakotul3HmKbgV9DBJv55EYT+Rquia9RB9GR1sAKiMmeAek9rlSO7Qd+juNAv8u73aLVMcV90aG9L8rbP4E/x6zNqnH0NgdXJjs5oEufim/w8g3bSjI/bj7Ir/nomHOX2JStKQOQzg8zoSQNJoR1Tl5MgrfA91GRy2v+fmNraAogEQxqZNa0pnbUe/or0D1KwNcqTDtpHvZgwd/t4VzUShOGRBHroUxvZqOH9GjpYjsz1pAAAU5kQ5nuNykZ6z4YRPR8YSEnYFgmP/GEXnrDhBFXR6TmeD1V4RlwRvs5XbHQr5SBU14zUkHOdbWcAUYHtog+HMs/lWQKttpq44abbpMC+cGNH1qk3h1ZzjppaKZrrMtvOZ9WGGk/LY373dnUhqZeteywnYSlWzHdDIrGr/NwRnIFNRGcIXZtdCLSV36QPe6BvvXOkPKuG9QFh0MQCQZYifGJWABJDnJtmZ5WtzgmpOZ+hWDpWNv01sMcx8vgBVEdTgGhpozp+95eGLuJfIP0wi1Ywgg7Iq1em0DDjg0NUshbcQzWdp8uLdt+y6aF4r8xeYtkfZpOZnPx5n1zWh+jzgthHldz375BBcU6hhn2MfZPk8ggJcIJMxIRfYHmrLZdnODtzD+RjEYPbkafcAPMKipZj7fPKHm0bI1sPTohZM6BBZhmkHQ+MkM3LbB2xE+eRD25uDroFSk2TiJWTXOnteDwzCo5cAEwoMcrSqs877BkFD92NjA+JtkJR7ObJfx8/em3hfnAFiGnpTHNbuFwP9I1DA5eS927HcvLGubhe4RMXPwdtGGth+QKGOC0qLd0azCRThUA+CeysGgIFCGKB10r83w/joa1cUTiEe3vGOkY8zY9CviHoWdhiqmgW0aeBLk9PJqX5+6XcA2E//+n1BlYomAZdEqKlTXqX/xKmCuXfb2Y5wlURR0lUu8RHPJ0+EirQhjpNme4pR8mHHCMZro81xY2xnfTa/RG/SHsHNKVpH9dSqF3BgGqiWNyeTfQTQTcXD08e0FhKonqt2+W6tmGFs3vzIlwAUUbywK+AdafK8XdRSdMVycSldpVNeYPUWsjORWVwCRAASCvkY5YEgaJsznpeHnXSE88To3CgDEK8cmA6PWVvmaxmFPpT0kdjbw+gELIZma138KX/RYs4gR3GuN3nNmNNKr8CX5KxoG4ChYl2F0RD4FhrJBL8N8jXTCVpOm9xfTDx4z651HFIMRx0v+Lve+sSXIP6NXH4PxeHp+aDJgg9u7l3Ya4JPi94dH8Mt0ui+jG6lttLMpdc2lLDYOk7CbnnYtD6EbpBNtorrmYsgruhtf22Fc4mOOelWdTM6GTW2Wl/bwcDmnxCxBkd39Gt43rwXUx/KRi/em/bVr9K2qEDtYO3dW6I+5OE4pjyIHaiEBXkrKe4bsX0sXDLbCyIonmPzf9xgAlqMHtLc7WceiUqgzt74q+jJRoHwPHksXNGLckt46p4pEAEf97hAIhNky3/huLYPBSYQ5A27pf9ncAEu5Z7+0gyrwreU5ygCsRxld//OopX2j6OK1hmKGaIXo3ZNQM7P6op/E9Cf9Dy6volAp2mY+Q3b1fCpTuwJ9+pGb6RL6104w45Dn7szSWxAMn8mEveblei7y8LRUldIaDZXlEHLXIg2orCGuPWZdgmcCzuoUNrnZYnd8K4Zak7mMqbebCJ+PagMfUvgs7jLHmUqNpdMIll4InGGZuWC8PELGL7u8sWZBnc6sTZPBDq5xi2I8GjEip14LXNrvkMhNfqZpzta4S6bUGaSyH2erW0MkPlEhtmybkmj5LF6aGHnBu47nT7mTnwOUek+jlG0WDAiNYhd+k/ut9JgnpD3JbTBFOZhr0cAssBszz9KMFIkns4Ex64xrbEAzYI2Uj/RJoKZCHgIAf9f/3A7VIoxpEeg98MbHkydgWHwHTsnF6L5Kc1eadZQ01vh7NdG+X/j+Rd5HfrVUmVZrwLQkzYSVrAGZPkDhfh4524fCJZdswTSzLzTXc1QjrVFtn/H8/ZSFJIKmLUF5OSHz456/wlhrLDFZjGlqdR1u0nYwMl16iA7mLsGnq97ohnWOPqydPWrBJWJMND5Hp9XzQuZuxb3WzP8Og+Rr9t5/Bf/DVfBLFXwpJbjtmePFkimp50hLfijiBgsKf+c1nyigFoEBJcCvMSXNUHenMmFHG+L9ZfDlDdBII2BCDztXkUz9wOazNdr9uP+KmPDKHx7NcDxmPBS7HfwsViQX4w15azto4h3SpPAN6v3yTVb8cpYV6DVnp3KTpPPgNP2na2AotbnuWeGvmAT18Canpv+2rEntB7JMfO4DrkTYvTl2Qq6WHfLfbajoPBS+GuxOi2vFrNSk2VJkZYLDfZ0B9HE7i6lKwRK9VHCuCZWQk+oiJQOdk16ImBeCbuzwQql1qBpMJ9/8liUE+zP0fVIdvVef/AE09iz5w2Z2RhL1odSCbr0uwNAx9DmQn2liP0iL8qDMP3VCltE9vKS6DRzVRFeoRQxZwxkbqHcnSco8BYrkl3bS6ZpHmwQWGQ9Kuw+zWATXcFHszP76KdocDcTypCcrkPgiS3hVJ2n53/VStonAg2aWb/sUsgT/9vb5yTjwT3WRlUQs6XNn3hMxXgx8dZoNhKWCnr8qrSU5hTCcED5lfgVpcSTxwClH7fdIOzcUA32JOOCNxvSTBFQYxegQJvLXzNxIpdkZecZhR0RrD48f+FahAML3tOj2jiRIq0TITujSNfhEgnkmNaovrBj+Y/9kR+p3th+4S98o8nU2VoHVoOGP3WLkZj4NuB/snjPWauSQzJLVXIrkkuXNrspX0Uefuq0X9rtydxMrmeJb31fNLtqK2x7VIR9aBCtsl826zRQPXpOVD0BUuFt4rZrwfyB9pQtMRcwN1Drp9LD4Ga5GIpvRR1vE6XW/fGg/R3R3YSbr02OWcjW8rHxNg/QJ/MoNWhYL/xk7rWOLskPcjfOltlFnUl4jqH0PhAe3K0o+9NE6Kc+Ftrl8oD+CQVT2ISi5JGCybkmh6Jq1YxyzScAKMxA6NY9mROKMdXdC8y6e8NT91jKgv52CbDDKWONdkn3CjonjVsgp6BjNRdN8jFGSJ1O08NQU2M4eMJW4iaaVcDWosodedr+9s/sClq/KsU2UKecE+Gh21RzT6NMIiAmYN5CSkZLUASnPOBDqIUFVMLW2HjkFXDsE3d0XNrmgJHceqnXhrehWjqceMOP9BM9w92+RLGwO7Fv3WiZU/AVTdXCAlNrpxAd+6pFMHXPxnVUOnNX6nkoV76w6AfPSoiq9/tzGCtQoLzQOht+5RO1guRklQKI7Xz+TZwdqKVi4Qw1ZxMGaePkojqM9ShYPOtK1lcMZXmJEXkF4Rye7adbos96czbqf2F25uzpV/TyRvZZrGRBsK/+ido6taZVPhCL9Cf4k7mFXh3uDAXee018jDujDaeMNwQCUZpwZrdXwrtK+8c/XqQPI01oNn02gNncShOKL8R3vmBwtrQ3X0GeViJsEaigjd6p5KwztRNjsYftB3fH3e6wKfOFMjgiVPOttSw5sj9UOQDD/780YlwIQH1PkqOcJ+JwTQNV3oO0BUIjQR11poCIivTKWAd+kjpRR6SKnr8z3ZpiflaBP/tVboKAD5jaEZarIxJmEAG9EtOUbpHP6Y7OuDptRRru2mZLCCDHdkIaya6CX+xMQ7h0hLCSUTNw7zynhM3uYl8LPMVH/E91WP+bNVLcMz8vVZCv4qO/SBOQxY3T6pYPUMPgTfOayXO/xqUX5dGwGRjd9AR/J2IwStF5V7hz7NT15cunEGOC1ei4nr01wV84o7sXZhucPivgqTyIZX4+27ryDWo8shMreui/whFBaGm3TEKAiqWIAV1nmgJx+DxOj0wt/29ZKCdXwlC5crmsNjEwfsLufQ2VKf37Aym/et4I8lRxQcXpw5ArEPGQwlmnxjKR80ASi2Ksd7/pc8L+wDwDH57KM1YrzlQ79VZkJBrwnD6R1ChYL4lgZ3kLYFpK/yyJ+zxzDNJvtdml9Dz8Su7anYyx0+KaV0wjR1nsTXlEZLQTQyFa36A9E4LePRIHZQKsCmY3tWvXEvcKF70Cl8PuraysObsJNtEWJ72MDGxSLEiI/E8BNcuP7qMoU7x2Ub9Dwak0Qj8ktsUTHOzKkg9sne73Nh0bWiJ8LU5d868fRIEozLCiU5Mhednz5wPOfTe8QSdUeJOdsY15cRp7THjjNXE2Q7YB6Axk9l1e09bZk/tHWLfGeYgEAAAqyK2GRp6tRAs0Zw0MPkmw7rg/OK3MgsyVclo6kYARfel+D2qBKE5G3QdNhJ6Kru8mzam+p7ANKh9jZ741ZY/TeQKXVqBzEZn+0Gat1vngMFm5jGeThcevQT/Fysb2HKK2bW8GkPosLnuJKWUYjdr1K/FxSpeI/D/spgvEEfCV37BYrk4+9aGJ7Hd7RloI0jAqaoX9rFRtArxhvEryJMAi0eGzEeHHzsppLdh34vBz0iOTe2KDiYRLk+6WBxP/Bg0tKWOSVZv2exmVErrHt2RsjISzb6N1uawPo3Q2KCu6w/LGIK5dTkexjNTSZrmrXrCmd6dMg4EwV51jrJ5Kghd07BNlHL9gug708bqdIL5ndRYpq3Q5Za5yvyjjiOvQW5dj55FdyPTVw/LL2jabbZTGgUKl4+mbwDcyyymocJAOpapv2fgXfSwX8vaRmZApUweSA0ZrP7Os50igCuk2FM5wC79wZFndQWLIN+RpNRkgsEVaTcLYrIaTb87RcI33c4q0N3dHh81t+fZ+S7HwEAJicJL3ZwZvlKJZX43npvh1/j2Hm3yok6BdJ4hKSRQtlr1aSVYHMRgw8ERGT/EwT/c5PkDPkRV6c1fJ/mVm/RaiQOh6PLPtp0Kh1AtKiWRrmhfSmVXFJN1qAiXouxrYnisLXomWm2de/JaKURmYEZeJnEbf9XjYKulUlGmc8bWnhZG5I+JjIfz3+bT/Neh2RzUPpjv80vuMeMEnXJqg0cIYK0p3RjU66hnxDIWYq/C/BZhb4gFmMePD0nTFKY48F7w37z1p2AkLQBvndMfYsSU8otJmDQyF+rK7BF4rHUQ9ORlNeLRGKLtvoaP/D3WPm9j7Y0BMzfD/BXnrK1xmbTSJydwsnqjDA/2H/JaJoH7yw4BWuC/hsfA/AKQzQAWZdwUhe2MyulT/UBfkmgvSuaQ6IU5hUsIrCiIelR6he1AQMCoIhCRFw1JwvPsY7nUQfUZiCyV51iE/7eLswwu+Fj5aI73jeq6sOJ82F7nz3SJ/CQEY1MeWYxeESS7h/bu8l1Fsuf82duLo94/KbNbxFsPPhcQuKUCcHtJ8EjxK3ghypia5zxz1L1pObli6xWMugacRPnsn34Bsv8jug8Aaar9aPy7fQCI9u7wm5M3tOmQZtaPsGIoHdPgQXWfEaDHeDRYMB/GgENM4/a+SP0GfNVO/MoYbOMWQqB6munajX6EDgUUXD/5abxIs7J5LEMHrW4y4JVyQq3exwIBFQItmyfahNtmBuc59a0x5MTA/KZnz1t84dLzhzw0c8+Wr25WzSZgCYWqSKUWNKJ1fftmdZj8PVRy1fEXj7sPEauUQ/7nH/Io3qEEcfZvPVhS5tmNstC+sRFw0cKfPGrNw+8arLrfG3TJVwDbk7O7s36XZmftS/qP6N051vNQNHiF4r+jXKs0w7j5zlcBLGAdT/dsuURcdgx2ANdATO1X4i83Nra3nOOxkZ1f6KUlJLLPsQDDm+hTlHusC0YYuW7XOGMeAaeCMUbWlVmOjFDTD2U8sKQK7mrNSEDN7Vm5yQ8KfpFmS+RXIp4esTcpi8If6EuPpqvtZk9aOihFjRQ6Z/6ZIrc9FiBdXMM90N5sk8CY5dEmBxbbCVAZ6dWK6oLiFysS0tWWxno7pPLh1uG9wznFGiKsc9WY1GJFdpOTuhSzPb/FfU+2SIjaQ3H1vtrk/WfDiree8iApZbFU5DMdHWVjcA3EJqOPPgmtCmslkwOgi6IGmWNeg8fun+q10vWa/PGihBEOcLz+XG3YuLM9cy1mfYmBEO5hzHOfFSWsjVaj0Xu2dq6a7Uvohx9/odd7X2wR1KAQc5dcjt3GKBTMW+Hg6He9BBVtFhfbBG3Jc0pFJCPj2Qd6mQ0xXBZFAV84HnJNEYWELS+G5w78bmV6Dbuvz/TA/h6/ETJBWypwmW613GqsUIZjuCcE6NJHfbM4aozAOq65C/fJ3cGZLpXOTVRuGdfZ4Y9eexb99K/033dXaHVjII6gWsRR4G6iKyI8e5FjnXOYNEJpMQuKm5DoU2I1nD7ghYivdjbpOBCz79bu3nIxAo/S7uRUB5MojgBQk5jqb7JmUWdz3sC2WPdZ+2U9YTA+sHLo3+TGlBeKe2+yCpSyYlWxxoh4LwAezObX45gPHb01j9U+Q7eCu/3u271TOXVA2CfICC4sXvRprL0n7mncrE9t1oBqynQ3PVt/phkXg8ONXo3jf0y2qjFf5K4heLe1AH/6GD6IauVMmpM9/1JEPKkovw97m1AODCSfst6fNaxnlfncnxDXVY/CZ7kzcc9mgD7/LibM6ErLtVEjyIu4kvH3zYXbIBXjUiOwmEW49zZ6DtnbIuso4QozYKXDUGrR7Jcp/w1mP7RGW4IFeQcp6HmWP2GKG+gkCEdY30ItnFOJMeNJVc+PL9qf7OVqZV0oAGX5j+PNBI11L8GY7lO5Mv9YFpu9gFHRMOAg4T3Gyj1LnLRbzpzL4JF1okvl13BkV0KirUYLuUuMvn5VKyNhtEJCb63WHks2JHRgzZ1f1k8/adDzPHDhlzjhSqyRVLpFzxgd8z7/FOJ2eBnbLfIc6FpszWlLS8dNtEE9oN2MmoRh88QQz9aeZ2dCHf1I3tKaygq1VmzSOxbtg4YUlxUTXtWiAAUJuMqoK/xaEtu2CgJ5mUX9gqc8qhT5bWwgUqusqLPFaWBV76gQ+QkDa+Kc5AVisQElrn2nQev/tHLnfP/m71/R/9fMTWPMSLg8pR7GXYmIsTrPRHP6t+QYvL+X3qmNJSdmrpif+ZoDiYayzFOzUkTBTY/L2X2P5dMdUT7+uIg6VnzbX48CFlWidQp8MzIgUbaqR7bjVxnfLXseo9d8+uZbweQDGJA3VsNZgA+rHYL77IFrRe82wpc+nQ+DsIUcJA//J2EQ9CLwC66wBEr09n6C4D95eigvlr72V1Ui84NejqybrMS5k8ZnS2q/0CT0mHMBplpo2fJjDzzav/5DBsLMgvcmJFbREEXNqWKYCKk4TWnHLylcjsYUqTrp6cH5V95s9h20BaMxfE0SFf1LPl7XCISHp5FVQme89t6vQBYj6hjoHRsdBqs1PxMOqQ5QRL8OxQPtAnJz+eD82TtBGwV+R41uOKAMYwtJKqsEZfvd/EvcPyEurulgEUavdRG+qwNsXIWYdheGEoyyhILWmCcB+2fqtsYO3Iv+dx7oJzX0T3Lbu71QTmp59zTsSGtrDeb/kT4lhwIAd3mbPHMrsyXngI575GnXk5TAyon3THbOOyS1EJUjXZy56MuzAU/8H1I9VJS7JiG/AJO9SZuMW8LJH8jUuW3F/HVVffW5e7mFjCspudD7+vch49kyk3pub/AS9ryrTvWTiTGA248ag/A9ngVFo2gdaqPYx8g7m2xxTyfPfzT1iIl/PR038stDqce3LXb/e7rIof8CTxhf3IiFgCp4PXPyf/JRrGca06cCnle+RXHS5OIT+lOKvMLD3BscqW6r1uyfgbvO5hMVgF7cOIvtRJ/mhLspMWFKiOhwmf19/6FmOKDLDPyQ4h5JZnPoRU1bbv5UjLriGeV5KelVcuM/FWp3EUJtGdD+1Oqlv6X12MYoaqTrGvizUzcwtKIS0vEyFbpTAv0rORfOyjLt18cRjfY5PNZNixveGRoAABJZxDp+dm56mMHahHbMV+Fg5zgDMwdUHtE2mRNawcFGNy1Z/gOkQLUWJajJM+NJB/FKg0pXaCtAbjgQGhAuI3DcrXi3APMShwzhUZj84TgqRKeEz3idwrb7sn9zvORFnaMxh5z64l5J0FvRLmVNv255EdaF1BN+sDUgFP7DzdBgMBAIjpSfjE4tLeQJSUodn7OftEpYzm/ZeMRncMjN/dEEg3J8USQezpkyZsvR4eBnPseghlWECJulULIT6JycTmY7CM1Gt8UbkKJ3i0P1E7mOIblFLf4LvLEpwpeIPS9YQ55lZ4DhnPEfjytno40b4IyFT4zxCcoyaZogpmNgAOdYR0wn9FwL3o+ZkLdSDITFvfdczYG5Wl4iegwnIjoPowuUI6wDRvRGbQ/fwnFpswMyVgHI/WokcjQYjM8SIwswiaw1c4PFZs9034myckF9YhmYEJbGKSoICbOPU3yX2Sn3sVg4gioQ8Zn/BcVShNHcOgx6XUGpMnEeUrL7wefLymGDjk0m1tk7LLY6k2ixsft1K2v++srljsUIs/rNifTzEivFvtJbCy9huGCeD/MYoPa7xICANTK22S2RlLw80T3EuKYmXnFClxjUigfcIENLLTUr+EmMBLwLxOgCcILs/X2j46lp2gbS47vdysQJJ8WV65MOirw7tC7hM+qu0Bq2FcRTvTp31jve3VfCxN4evUGIml/f8cqkq8nOMZj6o38I7769QGS0d18ZQ/34YCEvRFcP4J8mwbdMdZZ3o5ZjH2Dvbpqk7m3HF3EtVixErJXckSs4zt1QE7HGXUKnuY3j+S45RekX5zvkaKGtqOy7NRsD6TdarUOheMql1aqQwKcPO4YcAZ16F4dU7r/U42ZRT1hvg7ekl3dytXhgQsUz5OMOGGZO4s3euZ2Wj/5ahZlG+kuLXHeieVrHLtB3zFVkxRHYh2Rmtj+rsNDB+mLDTTOGWGHE2RBTteuySoZgUqmnmPbw8dE17SzViJevKEJUUf/PAXm30OHT8zxOraiseNpKFCVpS/s+mGSn41O239aFC4KWwpABzK1bXARbUWGO3r607uCyupyyPEbFHFcD6dOTyRtPpB3IcnTdkfNoNVzDt4F93qDpZipqizzQeztbBGRMOigpnE96jCa17eqzjwwOMSHHZQ1ng8XyzhS+uNGKoYqJ7OlxMIb7SNTJEIQCVGoHz02TJQjgNrnnKx4rlnREpHCPnA9xuIDYhhOU7BvZ8B6kZgo8xKLkcOdkV84UPUfF5RTGFfKjJ7zvMhovb2SOE/F3F284PFdkSq/YznaHw1188U9o0gvMRT1htXIK4oXzAX9ApFbRJ0v47yWLXWtlsaobANF3TxNkwSFeV9qzlrxxzKVfc/Bw8I17/+0grwXrcKLYm9rARcfTNJeUS6WOKQPnNLpI7vI1kLez6VZxSsCmOaLJ3SlUd7wLXENJUpb3JpS3MoZBZ3I+z1l0KdHywr0viXP2Zcm3huTt6MleDxEoWBAJASqok3iC6WBTYxaFoQrQbi8GSPQ835GjSIUSwYmnGutddKB9k1sq4nZ5w9D9RvlfbXnV39I84PZnVbWYcRLgMu9AwinXM9URTfXrCcFnaE4PRp4KJNhbKwapGKs8zZ8eeR5XTKCaLyzYLQ1K83uGhDdHGdX9Ac4IeRtpQyAkhELDqmKBT/ziSR08FkP6Ma/4aZoNdrcMZJrGJszzkjkidiJNQUsNdlQxplMIvn4sD1kAN1napyJrbfB/tY8SUIxCOzDIDMsGn/17DNvcpczAS5WqDlaJngkZiYTejqqWBuWceY6jFJLW+9A6GwClykcFL8kU/6CsKOYZ7rnQUvrIfIFrMuIeUHwIhxoAKFtwpZ7kwuQjpI9ESirxXXE9i/H1Cvb472TMSdLbz4iKpEifK1f00tJ6P6tAtLdsq2eu2+9ufFGDreyhG0kXYu9kiiEdVXYMyO4039JZCBmDJ10MqtdPeHUy9BRnorJnNUfPnwO9e5zrmoTAou/T9X1YCsoghhwAWNPGtDRodjdav46yLw3L4p9qM2EJlgJm1//a9mP7V/GopvtWloCNM45sd3Oca+f/wmrPn96SrjZDJKnwGmycdf3K2hJ97HcY3xWoD3Y1pANdnfBKIhaN+8UEwgjWqTSe8RQVKzmaYCkAtMilHuJqplE2liEX0c+6P899w985DRjcYlumi/h2NvlJAzrtMb/GDKJ5D+K/dssOrjkN7EWefQe+PosUsFHLjkHyqdNu08koVqROJznluMGW3jtiXwOn91zOKOwbmpgXysaeSl/J/T3jjstkc0N53nmYgjCODQYRuorgLL+DAnokKocRomGhfdaGqgaR+dekwquCc6fi6TjpAwHyCytPsk3Xp46o3F32vZBGVR7mUgrQBeK3hNYt60igFl0kAsZMuW+DCe8fwuHJpbZQPrukrtTF+eF/P/zaht/nbqdNPXQG3P2Ias+Yfq6/607n7zV9AClc3x366AAjp1Q3PMSij83YL1FBn8TdTM9xxPCL6lpCsf+dEnY8/wrN4boKH+Yj0NtBHcglEsg4FM77mYjZAhA4BPUru3NQMjtvrgoyywMw0LsAzItmF7+DC7rtAlwpoCAsVw+tZR/KKL0urLtpO7hZu2sG3TGyqOXn/FEVjUIo7S1i/DzyFLMbPlDmt2za6FTk1o2A3BLRHrUXeUImchIzMGlIjqyEkV1t3Xk1oT12dBXAKmRZ1XPbHyLKVSZ3JEgJWpkYeYTM62E9RPIHqky2m9tIqfaV5ihec6tT6QZ6BIj0fQcPUXaIGi563DXlTH0AAy3klLvhkwRaF+4OyjesY5S5cG/512i2Jjb2iCetItvmTzLOagXF9d/aTDCDn7gjb876yTXX8z+tLZl3yhgIWurAqrPnsG3LUbhmHQ9bfMFKty5+ue56bJBQFCI2YSPh/UQvqK47Ti1h6ffIxQkNeiK8+tGY9hMEaWkvrQkD2+w8l9EW6ffxsAIa975kUSm1md8c6+IAqWCPaVYortZPFjlTTT9roAbh8AFuLLzo0wG5N4xrizWeqC1Sirvj3X31hrNC7X2kQCRH6Tx6ZWNVL6YIae2bMfiObp+blmhM7G3eSV2ox1I6HbwO3mBPC0MSfO4CTk5w2L6EunshrM1H71YACa45jVU7G6eA6mM5kRmi4PHvQ+JOfNxaj30IxBofeiT4Ti2UQQkN/jD8nyxxtH4recf/ywgd34PJKCBJvcu0mvc/8Ne/Ch8F5nswgP++vRMG94DB2C/BloEqcO62nR5LDaQOEpTGyGEmMK/nZqT5i1UCBf9mvpxdCYOj3gvA89KT4VLEW1J2TGWojv9Q4+K1CDFA9LM+ycSnac5B3lHwazpNw2GqP8dooVojxS9qWjKPN9ceJzanDHrb0YhL4gM1LAn/kjBEmD9F8QF/uQYTFx5JJXIMHx3oOfAd8fxBYniwNm8d21lyg/NlWgF5vxLZMhZAeH4XD/LWBMwPSu2E4Uus4bXjBtD7Wt99ZxeBqQvDyLbvIszMG4mUofMuVMisb1u/2Ei9b6yms2bpWUqNMqsRrljqizb8uN08cu5BgB0NbRv88xYsg4mCXJ/Weuum9eaB4cfcPcqrKkhp4k8IRc2VG96L1KtbWzTvl0Mg2cPwsVKp1oUL2ZhufcR6drSBowF7unBTbXK1DxVHOhB/zlXx7Bv3SvF4jg0KzUBeEEB3eoP5opCV0AtPujfPfKmqpymBWzQM2Toon5TWvLGM1aAAAXYxDwvlkBKBGH9uNs2fzi54zLhJ3LYb0wN7bJ/4cpKSWxrM8KgPSdJhBAwgK4miHfdHjJldp4Xpdl784dkLonSAkC+xIZUDPlKn7EKC4W8P1V+2YPT+8+7Gl8086/G2FP+LUEwK2Xd15nrnX4jy+hz0EQQnBQp2cboCEEFVy2borRk4fsroinCTRWyC30ppIY8gJ2WR0ObsDZcll+eLyTDDywPKp1GkdXrfr/xKTCooZPyfDVmcMUow4X/Vy4XtEvNACJ4+JSKcP2YfN8SvV7hdU9bPqSj7T6R/5MVr1dNXpSjl6oQe3WghRFOejXIwlNkz/8aMEDDpWrKIkDDt4f43Is2M25LCTvbYYtFAdqf37AfQPrcTFav6xx4BtC8glDbdGd2xmsUprwNdRhjmbnZv4AUUWBBj+h50AaSl11Qq8U1sdsLBPeVKQzIA1ZMTxoyGoA7CA1gO51sGMdEd6oGxpwQJucbb4UTiRioykJ75cRgOJNxAzHCxrP0wPVRoGlX93fd6Ho8vctwTPz2w8YMwt1H2r+I9VFZNgswVk1S7oJX1Ti9sUMDxFIcgwbkc3S15pdzXm0JncdJ6Jcxzd6lJ+jib5vIwreSJ9R8slOA8T6E96Dir/jRVsKwBUwiVdqTWehmGDwMHd8z3CjJsdYzz35oFUyRhUjP5h3D9zpO/XUB6GyDzRmoiObjeZ3KwMVj+XMSmBYMjq1OFmWz0MtVLsfr6QKXPWZSoWQlKkC5hesIkYGxwf8/HDJDVqVACWbVgdCK+p79lErej8wVXHsffI2PAM+8ijn9ZX05KE9/Gyp4Lh7yNNyegMSdOQMNAbztDQZNGFSaRgYYfhhIUaGPMp/lnJULJa+fap+C7+E05T6hwwlHaHEOCWj7ppqcKnQvDNVz8On0XYc30OpxNXP+80MGOQYFMd4pYnzvt+UoIpUgZOy87jOOkltLEa1I8W7HPlDddb7as7Fmr8V+mUbKxt/G7Pb3R0RUEU5pruP7nPYsIkjOHxxLQwqfz7zMcaUS2VL9wXGKh5Nd6Lpff4L0R7J8UbCJRFfaT0hkujcgXufiBsLLrLJexD/kXxLhgvoo0rq/WR7Ya6Ib+KfWaNzy3o9Tvz1IYi3oys/578p+NJBCww8AZaMIC9m5XkILU1ZkWCu5zxxp43onKqPfwYK53OZDGJIeG4kX7lYqNIQTCvMaCFoCA/3c9ybo/XyDKv6iF9VBCEqdvtFUnyYfaWMvOF/F6TpaHNAwCl5QJHLYXqj5FW+AyFaHIQ5LJcZqbAyZaHX1MHDYE4gHFV4cNLWEyqOPDKxXrYM1bD90/ZWsRsG8+6T9bRZJZ3UqHuRBXnXJL726SxBSRHk8fR1tTLQy3usgRLMAxxsEF9aU4pK9GfjPKTwf71bpnFwjpuV/SF7+xaymzVFtFrlWd7DtmVsTxFGv3iSwKts+27ixaZEf87xMHZyWdDjODnc5Pe3J0GOEnC36FofWxXPyU5DYNT3zMwqmX5VMev/mBflb/18jvEYfVN0O5cl+jB/gEK3XpVssWh0CXVY+lqyFzitCu/UbfZBxrnRut+86ls9zBbRXOiDbX0yXb5PUwCMOoCXgEWfk/CgQckPL7BWUDBgJAyuLq0AwMII2dXTRLl7r9TNS89HNwDLO1qvmRx5LWSIGJr+w0+pK6gpWaAu60S5suyJ2opk++lPGvW87eB6RgMzfBPS1i3YdT5hynfMnz+hRIUFCTBNLFQFFeJkNNzkZLuMthYKe4rfwLYtkdFhf551iPDuAsv7FCsgJ+Z66yBWUX1h9qfP2YxATo9KHCvs16iOqF6JhK5l4e66WIm/RQQa8swxvZJV4QxF6EsQy+YvVXoYfwgGw/48BsKG/GqJgJOfjxYvKXw4CWEMfVMlebTK8Kj2/tHsbw9/Hf9DfIk6yjIcZBw1apQZyLmTQ//zThoSFDtIeWNGdoYn/jUHBueox0L9t5znj58Z04HSkNiUlSayxUC+NLhyeiO34WIqnEmi1XinkDT9djRa45ejlrsoAQyawFJuEBNf5bWUTkx8EQnRt4fJMS4Z7PDE9GNQdoiLz87C57Fy4s9dJOcVN7vBYHQr5wyeCX5Y1KxWPA5QG3UxODix7AaTBnPaPtC+OvKTCK7mgLu3zPHmScy02rtWw+oG2tKb4M9/kj3V3hObGI6eaPJzvWUm6vDoDY/oLT/dBo1L2ozWCc17U9OaJri61hPv4l94WfsfVp6Xc+tkxEkUq3zLxD5QSs+aCsNs82bIpl0EKzkdA5jf1CyMjnOwR5lEentfFr1u7oeJ0btnIdcn5/L9KswkBsUZt4UdsgKu9sTBtydyJTOcUkb77MNIpPey4UAKQQJ8j5gps3S9wpC3VQkv64uIFBfNg0XjdE4I7krdLK3PTqJV1DcdoY5WQxjFj1YRZLe2FsSdJIikaOg+7viKSOEQNYEtZERpkfA23Eh3O7vbA8aXCUODsLikUQVeE60+Tdb4unmr60501p4vI8zi1uktTHd37Gjyx69ZA69bFaNbU6zLHI/osgVDxcaG+81QO1haek8t1Er26Aojkanj1vpy/bUrja2n/5NSmP6BojmrZAvsHV1VqOjI9uiGRPAubFOoOt5B1meLqOZUlpCe+kyjJXm4KOr3vab15KKz6+0AXEABbbXP7UEsZFq/BJpzFULPV9WEJ31jlNRW9OulPv/9NWUaA8H4ClQ0brjKAOPW69PM5avgjVIq1yyx+S/8yhjANvJ14mwk2XXMSfOmD8Lm9ZGkbPr1s8DZ6TrQiho2mmbmo/R8AtjjURqKRMy+e0/73wPaJEbNuEwoL0zJ3vQIZA9xdjZGGzL5zhFYFEVxGDfSKJ6NpmUdi+So+o1wpVuQjevRqUUfwcK3g1ctSJIUFtl1mvJ1aPwgupoV+Bc87k1yB9iFeI86pJ/U2qJbx0MIJYdXP+yvqucf765Ai6zCMnCigL8Ip1C3beRLqiaYRe2tLCEKut5O50943ceg8MIkMronH3fhky8QzgEhckPjT8l+yuTLivprN5IWhsQV5grE0puE6Ofylasr7sRrZyRvgDGdabmavF1q9C848LMakMOXk9IkxNUzVmXUV3POcvQ336XuysDJdn0H4VEwyREh4TlLzErlDnPDbktf+gwrb4alMA+AcHDfqvmldZKlH9n42rguklRr+0d0RKeh0Fr9tSmSis/7wA/P/pZS2WYpnmb7PghIcbkD0Jej1YTJ5tszFlzaqCtL+AOIw/1deNl+XbJSwt0poiZeqaJZ3ECQMv+HCoXxmFVuIeW7lZ38IRngyyQdNUQTfp9BjxGDR6KZWbc9fZzA3e/+UYGFFiVgDQ2mJY3DSWtelWmmcDGWxY19nV0QifXx1wUK3tUJlnJsNyrf8HXd2ytQpuySn9RgbttxIkRHql8n8us7qlZkAqlfEfJCE3CcVYF88WWNXUzsc6YH094J8M8MJ4s2PHbjOwcZFT6oFKwB1914VqIDBW+cFAuOsr10aX1hYbwZlzCrBsXdouFJoWZiJgxoRBYM0OzjXH/BTfEr+Y99XDLF1ddgNuuzM50fimzbATW1PLHpm69IXr9XsEXB/iDCg+h48DVQDo7yjO77uwOgFi2m0v0q8GA5WNtQLlARMzaiQmdRIUL5iHJHu+HH5Ay5F7nRW6BwqZsEbVaaa98SizfDBfOWdeHYhjWgew0tObOm2g+FySK/B1ou077mgoWSTSoY2z8M/3fXiX0ShO40u/4CD3PdEaWqjzB8t1XlbGQTerL3bOIWwMJgXiX0gX/uc0L/fwczjjTfdt5lGCXLzG67xJu8TfiEvUbsmorl/nAmvyDeu+7vo3YXdYQKM+Fu7MHE2vpkhf/eVlS7tEtPUrPsVaXEOFfcIOMjkJIGw5ccv8Ue9OQRko8qAdzLy9izC1zamFB0UjRcaCyQpwv5+Gv+c4hQPz6EDZENN4DLRzQaYWK2hi/Z/WnM2FzHgd+Xvu4CPkcvVPSqiaUpmklby6XQw/uBndqyHKXpwRx/mbHvJmfUNtYxLw8ylMsvMhhcZwDB68G7UXy1seDEyfTE7rvyWUX8VqQ9Y9VDuCober55aV1kscGEpFMQduZAPjYXaBwC0Hxp2tUicAGF7NWDhk3X7Ixe4q9z/b0EtsPiCM7tOH3w0fU143bxuNER1R4Ot8RrI0LOcefNh8gfXr+olsAX0mip3HTvoJ0IpiVQ1be//e3/w5iGZJNykhsVV0OffWA8mQsxSm1oY5FHtMq/gpnzzq/SGzRb5+Db3aj8OzYcowFECTQhiOHQhEpun8Xwk62VoqtXx+m1+docaM6eo4K6pxNNPq680wy2jeDa8xudDf0Edl+iUyA0r7OVWXgesjl3NKuB9Ne6y+bIkJH4I8yrpzimpaGqpZLGmdNpz3tgAABER3kk/Ny6trg0UZH0M2sTEm+kYDna/Dh3kAA+4wLvvp/vykOpjPoCL1Hdbzdxw3m324p8tmEEMg2TO/eNSTVf+shj/e2bT9r3a44Z5mu8x7gUKvYYEng0MhET4kpvhgsfnYwKWH37q23sGrMN7LsCqZj3TS0BOlqGRmQs/rEx9AbVvveWRgCLHVdBImIJFCROqhzPRFJ+KeAYfbiQcmNVQsajMpYbCpVmDmnRJRWTQ0xrtMieoOa7a8x0zpLYPKJOh1a593FHongST28sV3JhzqrjuUrpcdRkyOE3iM0b803e9ANlYzRww0Nwj6JfmkVBaNeRztq5Me4SRRuhV7VXzFPPVviPvWKaXiMmwynYXfMqN5u4MgyYMzphfpO2GwAieFzCAn1QZUIQkoXGeLWgE7VvNmRZhF2ZjgHFwoS6A5U38GUOA5A/l/OLa14/YZvoPSXJ1cGCSrT2qIvjszy03NBTujB5ilePuaBU+B1QHSQVOigV1Yc7La6o+ApZU6Y0SnsMVNB9EKoJSDLeqeIuQN4/o5DMgJcACArX+/r/G7/zIKmdBmKUgLHpoZpibT4xslSs5hJuB2qQzaJ+DhXXHvgEqCj+oTcr+8hXIb7ME0gGeVaFSOVxgioz3zPZnzebYPUyPUfJg8JAkMGjDCDwHffncyiQHyGvF9mdfP4dPDy3VITbmVviqIBL1Bf+oRyHKaS+TohC2y6Np4RjSAM/11YcR2Eq4HwonIRAsav14RjGEfF6VjHwnNGaZEAlHS4zZJP04vT0YbFaGMQa8OQVsKI8Gi6+Dx6dPchIklfJ4JNTvlO4hjboL3TGVRQvQQ8YMXN+aHoraAGHZRH6c+UsoAMx/YIL+e4paFUhCvrU9lfGtAeQvNEfNaer6lA0h722MoTZBIJdXSM7KFTz4So1xKv/IiiWvt5qsUV8KOqc7SvdDFv02eTmTxUJFP+jNmWzs5+Gs9zskNE6vgE2IJtjp4FRUpAl6E/1vtiEOXjfo0RRSU6N61wxSMXLOK3hHKEzKJW7LS7AUolZ8aiwWrG5v4jw/axLzd9+FSA81GlmlWfXf6/v1am5y+zw71j59cciWlXJ1ckhTTIvfPlZiRwWCvB/5w8Zx/6+HFXzfIqHxv6U6BoYgmHaQmF/2UjSQOGW7KxjXynx9/DZvLTUCYj45CPF3UkPc3YzFjNj14e1yJH9DIoam8fgywGD2Kbswu4FwIdXBHmVoVKf2YQHMmt+0l8H3GfIsDi58OFFVN4FomRwk6wzYL1E/K/qXqCZolMs/dYFjamlkRA70Xrr8yQGla7qFIepND3NZwWh+DxAyZmuJ3Bjol/ZCuSSJP8pv0j16ZOaBYHIKz4zmyVfuvRR9Ggy4igFFLwsz+XR6K2hZA3G26tuXx3EWvp4vjs2UDGe0cOyQ0XIzG0IbRV3YPPjc6uOCdSs28LCBlTjxjt+u+iAFzvs9LSS2nvFoUQmUTEzJXdryL8NQqgeNIHa3/jhJdtUdsUu5PGs9Uzsn5Ghwh0F/yBsmSsZ/5ZcvMjtPhrbDIztYzjy9aOXmb9Z55Z0VWfKSWqt5e26/GeCy8xJSu8YeKnMzC1e9c4RzZs9vaqVmhP+kAeTWCZ6fZ5Wkpz/6pas2eP8q/oEW/VQ/Da7yT9/eq/AVGQOn8j12TuUVo6NMkbzbFVMB/sKYy4RKygnQ3zA6JJxq6wUPRXHGAzrbIRxyCktrXQ/KQ0KnFCP91akShXiNpUNTiX0zyDT69Q8ds0+xLK3uuuIIFrrdHdEB5G5brIsCk47Fr63gXvNXwKpJ3Svz9tT4iRESOZ1hqcuvRVB3jDzN229PARPdiGx0Ks838mm96bXaUKkMXrm0it2EnBVhkbrb6wUJxl2yb4WiCmjz5RuWk4neUBwwxKoX0cU1yi3ZTMS8Q726MsHBKRWGavIXXdn+/OtbEHxaLN7JtnxGyxOKPKv0L2ODLbl1zVwuXE7IjE40y0dcXGBtgU1yvMgKHjSHBs0GBvuUonPNf3ZNxmMSjbRJOoFBzN3qNG0snXMxSt+rifKcWlN3d8d2jPasxoyANDul2tKXK7y5eJb3MMod6aHOy4sBQTHWcu/gLOtX2e9i4GVm/ZhPykn/ar4lHwUmQsTBoslMz2a9DzAYYZAwwt+U9u/+HDVzzfAqM/4n8gB5U99X2J0xThFPIABjPsG+/TOwsMldtPMiGl3Oh/LCsFYKufnQEInENgIv6ep+/P4OW12iEJ5A/ZJBWqVLu4aO5rHecrYBrUEvghGkt7QeIs2n7nSreBccCPAUlbfMQ+Fl2Ziyw2jwwAXUPi1dIT4eIWdc8vtNbRu23djYX65rCSk5VO3trl/V8Vgwnpmpo1ajt5yJTxEkVowFHps4X46hdwezYkM4zN+yd4DuDlvsNxYHTrLBLiYsL3OkICCTReDifNonfCUZUgUrEobS+eknRNz3BFX85qm6+ZZ8+BiIIkXbOMLyRBl0LOfMssHkKk5bADNNEXyeOCbMWP9HF1BPHRPksJ6HR6VYRsjgIEuQhtiTPbqIQNmzprUDreGka1+wqHoTYKYAsYsW/5v/J3Z7OJ6ahdix2neTNDiwSEgAdq2Xqx4vk2eV9yTrvvTdSw3APs8Gnm205vGdXiqO+H6OGhIhZ3y/d4AsftZFBV72YYfTsMZV5OY/JE4I9RCTDD5SbGgwQNCxzcTvrW8xTRRw2GxaUpHPYkPncIQ9UX76ZE3TcMamQovQDJsISFf1vZmN27egFlaYedN6Wra5rJInuucp5Rf+tti8pj/YPswC4v8zGfxJmAlEIF1bOSgrmzZCPCOzWU6lYXiYz4IE67iT9UIwnavgMmt176muydOgs6UJ9pV4QTGBMj3h1x5MJuL1JCoMjq3F60tIPGgqjDB2WBgmUjEfGDTzMql3JnMJBOMmCA1r0mmv76EFEVJ/g1g8VaXB+XmORoh4leP1GyL2yMofznfTrHC0JQ8hUn5Gw99t+yLLCOEQzXH13tN2linKtPFTinah3Sp1qmVtTYNQB9zhUZSMmEGo73gStgHGJPZiFO72N2OrZYErpFxqzjqEjq/gq2bnyYFXhx2LPN5BM7EjZiMg2+Do2Iq3O/jqTVtfYxNYDaURc9Pd37dagwSFah5cR+FQzvHYrbEX0NqpN1Yms1izbDeKuHV/48zdouUO2mq0IZ9fRPjkvD1ZPSk9fQT6T1FmwI4YWlFWSiqq7n+79K6nzxIm8CryJnYCni/UQJotQx3JVgWLWt9lbyxM0rGjua5tQB0KjiicIMxHSgFKKzXRMtnmC3BCBOGWCLiWFsLPGYw1cMKi+9LNOs0k1muzoalL8bEWPW5HSpKjhGzLQiWqXqyhvW2xv7SK2+dP6yBQtsib15Mz8dAH2YnTkTKzRvSXTITLKJW5ojJ/N7kOdIjlQFgD6J/vvCgVugqeT/KpB88DVvOn7cByt7CxK//dyCHeFZl7+ZAY4UEtv2f0DLn62lYuHeOw0npe59EHLY5gScKYs7cVBz2q44V1wylEv6YKfSAStD6XVF2MXkgNz0YLkQ+kuCSp0IgXLjMeqTfRG+kqfqS+J9nEJq7sekcSfTZMflv4KO0WthhMeG3G0uo85FywJFP8E3sHc/NztR4QcsG3In/mUb9ldYh8pMYThQzyqq/rh601DnJYw+mCOXGJ7INU8KXTEDB9X8vkr00dEjWsrwXkUD04vDJcHjdY/cB6+auRIiI6PFRfmQ3NVx9TgIz7mR6e/vW/2ZuoM8fEvN6aN8P+R2/u9aDiQlyZTURQIdZ2WAR79f3XA0Puu8rJyfZJDAaweGpqC5Ei/ZzrZdmI8wU2zxRg8Ue/33U8KX1AQm3gLlvMNktctGfqYazDR8zxEGoUbOaKte0zL/zpwIpr3bgA9TagKYd4Fw33qBeL4u4YPOeaQ9fGnXjJsl5Up5LhDMM2Gg0cN+C7UNV/ynbt0I19BgQwFQWNLiLQRxB3CWzoaM2akVzmjIbug8d+PMgXPc5VJA6j5i5HjjAboKhaSzuovrQYe/ffnfTQmdOfYxEj+2R3/gXrOZUvsGQ5av2hgq8FsmxqYlDkTymgAb9M/VOdWUyZqxHwkNhieRjgTakXsnYztmWKZf+oPAk7gfs8WPRiMpdemsiTB1WqVFNWd1dj5gJvdCEpKl3aZ+fsc/9Yv5RwpacM5edNkaWHV0wEZL22Is5S4vsAECv/hkoqvIDPMJppWTg0o/klc9eLUl0gUmG3OTh9DdbaZnQq3vVeOnuNckezKSL4ubhvau9LG1kLM2kerqbDLfzMrnRyOM8zXdFSDXuNCM5C7KPV+aw9IGw9+CcJZRHepcFcYs5db7DkDH2LJUIUfLZ2rBMBfcAE89GoUoivM0wky3+8LSGN1fKVUPwsiTCV/irGwU0jr/ncRYJWNDg8dziBEhmo2cHh8Vg2kLrYaEgj9UVKtc6taYzJULF+tNjnn0OwU71StWhijO4QmF9gsjixMzDtQrhtIiwD/VB9smIQxFTbIEGivtigKndc8eS690r8IB5IfWXDucOoqT6S3KhqOkJRMmNf0NWnvZf7ZCXpgUlVH95bdzQMr3T5haeJv9Jygu+X5UV6hZ/qR42umgFA3Vzih0WV6VyLWIE/XAUYb5VDxqjmOk0nPMBb/jn+/8Bz63a+/QRJOEqwtFmQGujdieDqgCmgIN8l33ofxojhJ5iqhycz8zwND6PmFog6TY0ywwMOVYDCb+HmfEeuOrDmWrIR4aJ1TkqgFf1AiJH0BAFrUSsKSxLc6Z4bU/Nx4VhoYYxyOmeooMAABkIYLGi6yMWUua+4tJmDowRWYYQuK+s+RTPusWqzozrcPrjdXiP8T1Ir4TS1BKDqYTmjPvu1B5D2Lm+AXwfbvxzz8q2T4qSDFjW4P2zXQT3FuKmAD1tJ+A4fcy7KE1hhGafYSwdo0sI7PP/y/u/Hu/Xc5AmfYxJoGdDTPPvO8j/mKvF4/i/8ETkJ95V2GAzG7W2EwPOxigyqHaSR9PyOMceTmzeX+qNI8ezUDebG50QbT2KqIvU8757xJ9lnoowhXTWaMHEN/GezPP5GbDF5ix7Xt/Ow6R/w1QrnhJJHEuLZ9K8LcOqgp5sPM5/X6Ho1W8Wg5hiXKqgIwSyB5aQ9YDLNFBmDuf9Qadka3YmCKezuibQ6GQfetzj6aWFprs77mu858RtTc+Tu6OWbzh/WfsqC4pgjIzDR306oJSSvldyCfJ94Cbr3Zexu02qTUZxDX0FkKXh3BCnQFKsoLB7bDOT7/0hTsRWbqkdQEWZlqR4zXnIR3H8tqUYksGAS0yczQU7hZY/LBRD5x2tciSBR1R1e+vwCIRYNoOTay8pgI97R99IBHQEoIM/hswNquth3jQFI3ErcXFAVsGUM2JMR1eJPLT7VrUaC4XL6CQ+gaaIKuNNzfbFk2OUp0ejC1Q0D3Fpa3ftok8tNcQlGqjRUgp22lTKNj1z3T3mzeVfmebKKEVsC8pAh3cU/cpknuYTpQYhjGDTP+Vo22R64Uvl0DY94MXoLOxZdC8R7bjmbs55tFFc0Yse3aNzK68TeTfzvQAJS8pSyFaAX5cwfrzSJPa7UFpdpOOfEq+TmZvcozak7ZUfjZdt7l6+hmFDTR90bLZ6wZhTGMgMFJwiWYqJB0Y337MSLpYVlC0dZbung59we/65rkCgsYbjxr27/lHsY+e97mkDHpkhLu1PGyfyRA+3i3B2A8tFR1+sccWmaVj03Zr/L9YZjuAHovPAXL6ajtP0ErDNlSY+bAYFPkG8yWAALPI0V14kluOVAv/3NI5aTZC2LvOXOLDxf73PN/U6kW+YKRyqHNuryAekkPAby1Nu5hcB1iPxR/Xd5UbBGsuO2oOWinZ4uO4I051SYyl7GEMONL+oN/cT2wlmVhTZvssa/QJx8ZIeXa7+hSo8Slsc5FfsxAgNYmrJcPdhvH1VcC2BlclX1Rl8JPLp92GoYmcbj13OrmJaQ+V7DI3JcOeU/L7EkXc2InxP99ilFKd9oybfVO830m7q9V1eZnFl6e1CoGJV7Wlt5zeO1Argkhidr+tfkuSixektt48sn9Q9hMPYGaItoiBnn9zCuWHQI7auCTQrZmn4lnCf+Jo605LWVWpveMy6CbUq2Sj6y4OpEKgI5XLKHYnL1BtODjQ3vzYIje5m5Xg/l4P5ecq8b00ZAJCt438kWplvs6RquHP4EkxEl6dgnUO1u5wripANT9ucgXcZ6ZUAi2Ns6MzzLIS4Y5hzLiA1DGop5GJkdig3hwwtMWBk0tvReA3JPhaC2kHkQ0kauJlXXK2z+Ve+xx9wpT2iTq0NJ1ZRnCsIq2m6x788XT9wN7ZnJpXnimp3Rk/tmoMuh4Q8IXw+2hK6XNBin5K+wxmtPwTC8XDVBB8y1Z5532/T7NLjRMJPn15vjcScs8i2hc4dH1yGNtECohv/Vf5h4oGOj1+LJ909C0RjR+EdxelWUWCS6erVMV0HQJEOc+TIiI6CweFB6LoPk2JyEq26n8kEiAxcCFDxo7orI8xe3gjUy6kXTVIYdBJu6NmsuR3n3x7tgOFoN512L/hmsLnmLQa15NS2yNyCj5X0Ucz+uKb4nbideMdYTg6MX51/d+WPDEYy2zSWOaBMgySELQZBVSxdqayu4nMD4smRx/bhzp2fVXEbxLi1SMc8km0kv+FjkF9GpNDZTcQ/KwV2aAt7J31NQGjbMcLSJ1IP+21c3mHf3lnbYMJJ/Qq0WtfRjamVeN7fGexd2MJ/osEaUhnCsrwv7MA9v3bo+9veTpV2dxxcR5Svx3spsnicU0slqCDPmE6L9NHRAStlM/tfAIqhxBBS8rMGgLy50Km637PJdTkyxtOLjfCwMlWEK8XpGulcRV16WFn6KUiktJ/XduyIEkVLk5ttE1C82LcEGhHJwJkIWYH2ZapuN7w0g8sWscanHiZoma/Vb3caMQObctJHr4ZSdg9dX3YsM3x/JLgfESzzi7q4T7juS4oH9Re6hCyjJ+rSuOO4JUMtwwqGlNDK+4jPIAQUCv8tlGNF9Acq9sbRX/+UTuSLrgALYBdMPzzE9GXzOYavsS88H82e66qkW4PyH+kA5pLcvlUODBX7f5/kvSt+6vJiA0JRkgwuA/kLNbXz0oWMZOoHdR52Zuy71GjONld1/jJa3Otu0K78shs0LPPVSgYag5KtuthKcslW30aqX6XRNUd+PW2sRFmddhv1bHqCBtnVjCXk0n1ZO0A3WGzwvT5+Kqg9RD5ZanCRNZxHbotorb1104aaOha1wRH29hrseEBa4fB6sdkvkIO+24ei105FezzXRb0XqrO8uDKP99Va+gLm/lPq0Q1631QLW6l43oZR/sShhMXiSdyH3kdYCjPuamRj1pq1qDM1WDYXyX9lpGYI6UzFPnqIHE6R/CAjG3g1LrLiDIVfc/vyGZRwMCdldKT3Lb1OcYT0vnSLMKpsvuyqCUCeGVXfTM4pqb+7WFIU1xj8+MSD4q0sb7Wrn/lm3S6QF6KovnUFNkK9x7lWOxAJx7geS9ibB9loXF80Vo+o6hu9Gx6MghlrNG3ZVK5D8Jg2Y+DYZ9HV53nzhJJqU7hevezXt/ntW/JZkI5aIB/NOuBUT0f4sXkvR3AaRdom3XD1oCpAAAEZrDHcLH9LPURuoLFhKVB/pkDMZcUrT4RfIARaKgyflPGWCSNBWkNx7j/7B12qQehB30S/fXC+8XrsNrcyR38YNzSCnmhWkYBdoac8txGCrmvKQwMG6TdLcjFwxsbbp6ksgcjIR8OyNCpjwlG/nIdVTR4e5JK9zHhp9lPD7pWUmyNCzZohkzETMZa/D6my+Mm95tWubBRpo5wEkckJqavVR+bYGZyAiGN6P1B2PoN7PMRrDytpC5XXSH0z678sui9wKBZkP0JIxiPKw2qKuhlXz2MJ+Fsy5ttBetDuuQf4FhpsxuJG/vjqn+UdpdjOhfWFAI0HfeGTMN0d+Uy3eu3wyjgsJEYe02Yxvj5JSi2FsWAGJgbWrxKpenm3y/quy/S/kdCJobgAgym9sjPsJErGkf/gHZXvL6eIcdpw15VFlaAFUknZIr2juTMqtZ2V4VUW+TmLfJ0POurTWc6v+OCtSc80YevcDzgETEOK6QUMY3iiAHv7xqaU3tDI5DQ3tJKqpSxtgyFm9kcPrSiS7E3iFUJbR267Yvuu7keLka75cK9uFeJPww0SlWqVlY4lZ/eiciJfgFwmBVy5qkHrdoqweffiC7WkCqOWyhcU0b7D53vAXejlb+n50IHT+PG3tAaMnlYIe6ADybHheLNGzvUdZ2vVKlZ6cyK4YyAmZa89IHogK2w/LN4tq2vAAUltZflM9IQv+r0nJz7PI6YJGNah36SfatrU01ymuxiNj8MrTIwAWcApQH6YBbzTfqyo6+MakjNYwIVoD2JJ+ZUYhFxIqglEPJeJ44h3rsjjzMWjJAIaEVoOaBKTwZmnNXM1AYnujzZ9gpQt8mMs971KHJZPUpssmNMdtbtRcqLZ1i9wvdzSgsFeMJliWcNFcLasKM0Vuqbo0AS8tdcsgZgUdtoJ9ratr+/XW6ao1r+y1Sy5NM5I1kiDtDaJm5rOTkFFdA8zk0m7xagmNZta3Grq9hmM0Zb5/U6nIX7DE2Rj0wq+mRQPlFEZWqcENoSulznfSnfKcdjwhyPakarf1rXAGRylDXLKtsmkmmCf5GsS896qAUg07131ZCUzqhQsHCtw8YCH0DwBMTAODLJlhj4snAxn26eISqe4EOaU8t+J37WbQW8KGqlu7IYSaio5sLAxlo+bUouuUNc8bPHaSexQwTQPZ584Tkxig2F0RlvfqodZ82mO+rQt/BMeN1hMUqDDUSWJkA51Jmi6++qfNp1KgCmE3g3EFVf9ZFB+cCkwKtoPUvyflG8RSbRYLkBYCP4swenFK83rFChGRB3GmEJEM3Veg+a7L9AjmdwfogSG46hLfghBfq/EPVaKdJhI9AjvPQ5ChEiQdbD67xHnryC2modTrUeun39P5+A/mnMHkc4PVaWnIDyWWOTw9zhU3bf1E4TtfTEqQu8Ilrec1hvoC6wwKPpmroyUmke+Dr5lRNN681p3xpgMsIssOIILm4wUBuPmwLKcho5W5gF73CSEhPfDhYw7fggiiHz6zWG6O5NzlU9s4yOCcAAAd2O7ztEAsihpfpFy22aKOVq35mEjQ1bcT6I5neiIU6TIquhevz0dbvC7Y5/BGiznDFmkj/5I0gphkXP7aSJFYpWTTaYjllCEnVJIOxLnCjvTV4pvj90m1rCllgOocPGfs40jOx4R3Mq4TnXyR68QjSwZ8sFPkzAv6NxyzU4soYxo9dNZ63qmLRaqiF1A8BFcBQBjx9CJ35a5qAbPCiV7xQfuf9/peU6Y6aO/XLZpf4rO0/8wkeZWfi1Uo47NNixJoFcAId3xt0fnC8r/kdy9eJ5Un5PB7O/xXj0xpOHARQ0STUHcyZGhGDJIbIT1vTMatl7oncGBFkj9vIpAPYKizCS5j1aqXXrcN2jdKNzn/O/xt4ua8MpYFTlM/kjWeQXKzq2YbG0u7dk2kUMi6eNjsaoaI+Np4wl20XZ9A8wdFDDAUNnuqnWy3XgEE0eIZU5vheIQMJtfzYrBSWqv4OxU9yDai2sLeenFG+3VIqshWaI9hdZj3k9ZwIGbLLAXqxhRa+W2Dx5z71R5IpkJ2uCOP9qLTZz2BCbE38t1zi/lOFgPBT9fwZoPCaUJpCc5lI5Yrrczv0qoZLQEyNZFqkmaNQJBwWxD+PD8+O57RCpOcYtRNoGRDHysFGb0+QvzXLHMxl5waMsVzYT0J5fbL1Cm4w/u6/lfol9DhtYRKyBfFYBFqJZLzyfFnRl0+qdJ9zgMHL7FQeqSaIXN9vhrXq1H4SxAQlnD/b0X2aOGMnLlmW2jMubBZfhYE97N76K+f2Rpu3IhTSLFZVPprDlj4+fMD49a1dvy45xItBFkW0IPNNHbM+73M/MajGlDEMMLKPpLTAl3RZDnVKSeJXEBqOXdtZPS1LFMe3WT9MWoGBKZkO444k4nRd9LmKl0rPRp1ICzVUgI4elayACEo+pVnQv0hU9EKl9Pxt7pSBgL9NVBZ+X0qaXh5kFjimjqSsgNdSjHaVyCisAxsDl15jzfN7W6kVONNSwOjBVjNFDBoFxmiHSxfUJCDHR/o8APCOvcvtD+ZhjnQi9s58fP8lEa3mIKKCLT4kfrDNtfDeqjXE/ZqfVCQVVg/pG73utREVW3Vu0Gwy/m0nSqNcEnaquCB0znopH8GNjNit8LkoQTPu3CHseyu1CPtiYiT3yFrX/h4XGNSPZACFYJiAgtbTqqjy3n6M2Rmftlq47aFHL2pR9KOIBuFcXEvuyGiySIPxhZyYs0N38zx35WCSebL4fe2TT7KaobSTDHVdFInuXxN4zvrXIKiP/BAetnkjBMJ55erPIZxlDc6G53UOdpyU6mC4XutsBNeEIVvkG++ZKwaSTgM/fVCgoaflZSspD7pGgXSMsIEy0gk3qP/kijuGJeOhCkM2o4jGUjK6qXZ8Z68SXA21ArVAIUhj75GgH/7pcdpQNr3lFsOjkts1D6X6sOoPE+D9eVqTzECnHEnTJMWNc2YhcwWYoc0zlyQsBW9IzK7PisE1AdUkuVSzKibwoeoRkhz5uinQkNI3lAMroP7JHfQDSjsdac1ta7nsD3PWfpJV3Z0qHxkTe/kYz++hO66iFMYG7oxuGEFnQXJhOAZ/sW2isQQ3JspIki8zGK7nkGDURmhT4oLxHB+TmSSNYInfEjmxIQ4WlsC6gwiorQiQYrDVtuFxL0vMg648R+kSF85+OuaNgAO/v+JauHHSgW5HAHXTvxiwWm9SZ00D6iebNCWU43pN49Yee7ZjFjOS1sTo/rFTXTphgPJCHUw6gr/g5dvail7kJUPeoZMahW7VkSNkbJdRKUN2eL9RY6oSIUX7Ve/AtT2vLjyr7BrOBRlNTBLrgdimO6YYxM7kUfzw5ypyr4j73gxDvK33rGOtmHo1OztNEIH6aazl7mp3mLmh2r5KCgqn8wx7LRKQMNZqokhjx5NJamCn1JaTpTPQEdKlHw9bCzyflBNM/sSRmJ05tNiKDyrW7YJhl99jSrSyIZHtaEJy2E2Eus/3xSQrunQFeP7t3Dbt7A+9MdczjGuw5UkURNCNyoCgZkYkKMXlp6GdyUmdHe2aAZ3D5dzDqaR8OVfe4giwBxscbGwaNCMVNHCAgegehZ0mQWMSnAIbnyil+vYW4kq8LrMqpa+/fxmrh49Z2HUfva37nSS3hFtNjAteU2TvgRgbZhJB+zkM4QvMk9PogTvS14/KfG6nYMJ3joiweeOWnXenWfYNTKn8MA94+c90rMjTPjwZLRVVtlAFymZKt09M+unWs7TsmEPXybERSi2BhDpjGN5K8yonS/cMaD9vA7b513i2Mf2A1zcWQtlwf9hT0X/UC+b8tOiQvlpG71zUd+JnmczqIPBxzKMKDlAV91FZefEPdyKajhr1hWKTK5WUdjF3xNaBJbc0lnWEtmbhHzHYGSmsncSC9Q5P1alUFj2TUh6d3HXX6ihFmiMQi0wCLdYZnwUpetwBt5Poc6MjOiCTSVBkXkbXb0D3LyYYFqWFSCPQFPStD0ZYCVDTV4vLwL7VjsmXsREcOzgbDKTMqEYBW8P7wMzBobIVRBEsUWIhS79DFlKE9Hw7/c1DdjkS8MKR8B14LgMcccJYitH2Cr4fgmUpAYJ8uBn+cs43d0QPz9ZwMO2cAk8HrnA2A77YYQENGhjPhjdYW7uHlnNJBvFjKtOlmuL3JwBoriZsDDtqCQA5rYwp4XeH04QF1QGSSSZRonP0/rUAT+fJ0vayMGEugVb0lPIVM36pxtEfFlioSvuO0RI3nQZTSI0FialuoDMEwvIJz4nGXgAGTL1Fcs2jZBEblxoFaQC/svGfEm8azGz0xZ6G3TOqdX2/6ixT4T/j+9vV6Uccg048+lBBcggTyVuIZkcgQQPeABnTV5F9f+kl9Ulh6Na+tj5Kqehl1togjYmqdp31dnUrWbCmkvZnu0vKmKjU2CHbmhOUQL/knrxsDuLzeaPRzWhHBVldSkJC7ReeaQ2Ah3E1cX8Moopb1Lg0GGVVORKXtNhtzN7tCCtLjbxSIgm4vj6l/lP5S0j2aw674+oG6r0/cWpQlhkwHnjiWxIR5zoL5YKPKXwfxxM5K9MDd5uz0g53XF+On2AdLwlHgtpIXjk2fVuvpMSxlLPp2EbiiexI2v7VTft0BYo+Vid+zRx98dWaMUzwEOkJa2g5HGoz+PKKJgTl3mAm9R7KZUiXTRflVRBuo+7LzasUomVnraPljS/h84TJrmwNQi/loR6WX1xov0c2v8WpvYasmZGB/LS7EglZ8scYhLkWubD4gucFAGnKEAW7Y5uUWDmPf0XP7nJqgSYEc8aSXur1N1zD6gJh5seXRQan62W87O50I1jClmlmv5W8GLaiD8gcGMbf114Hez6gbG559oDseNVo1pgtX8AdtxOuUSWbIvBST1f6YRpjx00RlsmxA/prHKtJzJbOxlPqAbC4rR1BD8AxNJmAAGnJGeAmRN2cSFPR1aYIeLYKO/p9E9kJJ7GonwrcOv0/D1BSV0A+YeUiqnhStfaSn0DhsoCm02KaJWxUhLC2jZaDQTmuOYsLYqh0SYOTT3Uh5ag9F+vf8g/zFj5C3vR2Y8ebc6/25ivr7zn15o3K0Alk/AaZc7/d+DxEwBn15gN1R3RbblxcwfshfC4WLw4g1ZiifrhZicDkDNOPaLIElJGSHkP+GLqiDAf3IiXs05q8pPW3490r+5D0ykpbkJwaUNMCVMLdX7icGxu8npJ1UQgsn68gOUnGeMvZ9b/ZKevGQxkL/nlG/qE3gP0bNuV7HlFTjE/anbopCi+WrxY6DKjUqe8oabF2HjUaOUcNh10T6WqVYcBAmQPdoZjyfZBTSZhYhPvVlQMJ/SMhHmHC2jBiWOIb/sCerK6Prc90Wu0zq55vZKTYbYXbAdIG0FL+pbF7rL2YQzjuoSHouMHgijx8pRksEJLRgUvaMPnKs3JZ1+U1NbckCJzOr8iX1uo8sVhXPTn6mVklTqhVuQu08u5DPmc3RTDmhSRcrZevyXinASDwiDID6lGCNlPuwwqvvAZxu3zmBhRDDZkII0YbZQ5MOL9ruu5hKbKBTrx49BzQyKnQ6fzl3fj5A5ap0NA9Z4wIizfKM+Uzw0dfUeZTlGWbC5s/g5AvFe9ncOzGKH6J+hEepFWtMMgEwdyasIRGadhYLPtBPJggYQBcX5+0oZ6ux3lC/am4w1gGRy7CDYC+lZcuNQpU6EYZbyF82xvr1Pr15TWKGHwcCzo+mm5GoHvq3DNrpRNm4dbxXBxiftdg/RGQKdlyzxH/ZUSh1KLUGAUdb/+k7YliEIEpO+vr7dkWxq775ZOqDUB9RvJ93aQmC7KGNE2THUyTbUjdgCVAkt/1viyGEnmdJ3JJGPj4cC7knIV1HVYXPseyz18AbZ0lgY3/PY4Kkuk6kNeSGKgJ4LjvIPxAk7mgboAqihn+MOC+I1M6gJF1WF5wSw5MO00KzPS4/AzAAZG21fCm1dav5XPbaL2Af6aToYmjWbzhH2LBz7fV91meWzDAINF6zd3kGt3xb4AE1aAmHu967LQceuPDoKrZw3ygELYrYbSZC9Eos/U384ybZ96Fc4q93qSV/XSCzmmhWj9MFJpUPM7y4SsxGxdcZNW1AiijrCzjgdk/BqajOMP6fQAqF1ZgY+Ojd5Ekl0AAAM/clxHGgAi4iEiwk7eXgCv1HosqtUqAozYZY9rTvOQQtPKIPNzqdzYXMft2I7QleUi52S8hnh8c+YV+zDt16xwzBzrAKTGcBUK1HWEMQAQR3s2IeKnbxT992crV1BU1yKmiHm1DAql0ONxfylO7Muw4yl9QjWWHCJosa8xTWB7OMBOcVNQ1KKU+dP2vvTeItz7uUKZdUEDKTzPm8yptvaY/8/KQot/ajgtptQbZEGO3RNajF3QBcbSvx7XgOckdnGtntW57BDsYkwqu+1uCh4t9zHERg8qmG9zd99iVLxfvl9/84RHMhFE9dMNewUFD52WlslPc4sWeA7Mt1bon0/NHPi3UN/CZdBMLFN8+XaMgHoY/jRs3HE+jcVRhnOCjP5wDfR4OGpO+bNlOHuuqsnpQ58p9rwQAN6WwooW/ofIxJRBQaWkQTIQaflKR0XUDTJbZQ6hoXUhoJwqRdl0mI2wuO+jxcSwc1hBPXaOYeQj2JnWjhFmxVhrXkdG2t9nrJLySXY3MUoQkRHvALZMLwDWDUbqxI2CZK7VNvkFq0kI0DsWqPP0LB4/UHzPTi98tb7Jguz7a0a7SwFxPABxX24BWCq3wPODAqnOOv1V+0sI1em0/Vqnps36PpdtlueX+3lLpup6It7fcl8G2td6D3Pf9sPNpI0HwTRQiGRsRcv9KaFxk885nSWxvVYj79MzMIkWjphkNqUg0PJPZKHGY3AUi7AZvFNAL0dSNsuwwaL93JgVQEht/IpZrf923A7fB5cxepHa17PxymXiyvrcPK2bxB5WTk3j6yyaaWkdgNa9kjx4Er6p5ac6/9BEWyrtJKmMaAAUMxgMk6i5/lxfoSCACI4iFdiVrohOwoYrXZn1d9le/QFp8yNGy+rIq3yfHUuxU0Vg486KHK7tHZAGNc9CbYr6i4W2FLqsuAoqgl+GZfvyPQEpnAsHD0mRatlBTp85E0NXIpNk7hEJaBwRRB5qEg52/xcr+hEDI6C1pt4rWpKJB/BywbzTgpny9TkkU9L7ruad5MmcFYnJDGmG9C5kUPYvG0/cnwRPgnyczVIJP9efIkYR9esqcAJJxLhi1wOGU1iDS14WCrByeWhY+l4LsaCWFCwYZqo3kFsBim3DBC/X9XuzQ1hh/u2kKulVjSXH29CPgAQ6iA+EmE/qk6VufRa99FCJa2PA/Yvn0gs24ir7CZWC63wMCqYfxPuT6kkJD8D3MFMlpH1PFWzmK09716BiYo0yFCOeWCVhrjbDt36yD31a/y+LTEK3azaeMxwfW0J9fiVDTU0BDClRAR6AwTQqoQCqiAAAAAAAAAAAAAAAAC3lzAYPrQpQMIAAAAAAAAAAAAAAAAAAAAAAAAAAAAAAAAAAAAAAAAAAAAAAAAAAAAAAAAAAAAAAAAAAAAAAAAAAAAAAAAAAAAAAAAAAAAAAAAAAAAAAAAAAAAAA==;clipPath=inset(20.41% 24.33% 20.41% 23.33% round 5%);" parent="WIyWlLk6GJQsqaUBKTNV-1" vertex="1">
          <mxGeometry x="90" y="620" width="375.3" height="239.04" as="geometry" />
        </mxCell>
        <mxCell id="iqmGGK62Io1WVzKbsAf8-1" value="I3C temp sensor" style="rounded=1;whiteSpace=wrap;html=1;fontSize=12;glass=0;strokeWidth=1;shadow=0;" parent="WIyWlLk6GJQsqaUBKTNV-1" vertex="1">
          <mxGeometry x="530" y="740" width="120" height="40" as="geometry" />
        </mxCell>
        <mxCell id="iqmGGK62Io1WVzKbsAf8-2" style="edgeStyle=orthogonalEdgeStyle;rounded=0;orthogonalLoop=1;jettySize=auto;html=1;exitX=0;exitY=0.5;exitDx=0;exitDy=0;entryX=0.826;entryY=0.586;entryDx=0;entryDy=0;entryPerimeter=0;strokeColor=#FF3333;strokeWidth=2;" parent="WIyWlLk6GJQsqaUBKTNV-1" source="iqmGGK62Io1WVzKbsAf8-1" target="iqmGGK62Io1WVzKbsAf8-0" edge="1">
          <mxGeometry relative="1" as="geometry" />
        </mxCell>
        <mxCell id="iqmGGK62Io1WVzKbsAf8-3" value="LCD display (paralell)" style="rounded=1;whiteSpace=wrap;html=1;fontSize=12;glass=0;strokeWidth=1;shadow=0;" parent="WIyWlLk6GJQsqaUBKTNV-1" vertex="1">
          <mxGeometry x="320" y="390" width="120" height="40" as="geometry" />
        </mxCell>
        <mxCell id="iqmGGK62Io1WVzKbsAf8-4" value="OLED display (I2C)" style="rounded=1;whiteSpace=wrap;html=1;fontSize=12;glass=0;strokeWidth=1;shadow=0;" parent="WIyWlLk6GJQsqaUBKTNV-1" vertex="1">
          <mxGeometry x="500" y="390" width="120" height="40" as="geometry" />
        </mxCell>
        <mxCell id="iqmGGK62Io1WVzKbsAf8-6" value="Analog sensor (NTC?)" style="rounded=1;whiteSpace=wrap;html=1;fontSize=12;glass=0;strokeWidth=1;shadow=0;" parent="WIyWlLk6GJQsqaUBKTNV-1" vertex="1">
          <mxGeometry x="320" y="450" width="120" height="40" as="geometry" />
        </mxCell>
        <mxCell id="iqmGGK62Io1WVzKbsAf8-5" value="SK6812 led (1-Wire)" style="rounded=1;whiteSpace=wrap;html=1;fontSize=12;glass=0;strokeWidth=1;shadow=0;" parent="WIyWlLk6GJQsqaUBKTNV-1" vertex="1">
          <mxGeometry x="500" y="450" width="120" height="40" as="geometry" />
        </mxCell>
        <mxCell id="iqmGGK62Io1WVzKbsAf8-7" value="HC05/GPS? (UART)" style="rounded=1;whiteSpace=wrap;html=1;fontSize=12;glass=0;strokeWidth=1;shadow=0;" parent="WIyWlLk6GJQsqaUBKTNV-1" vertex="1">
          <mxGeometry x="320" y="510" width="120" height="40" as="geometry" />
        </mxCell>
        <mxCell id="iqmGGK62Io1WVzKbsAf8-10" value="RGB led (IO)" style="rounded=1;whiteSpace=wrap;html=1;fontSize=12;glass=0;strokeWidth=1;shadow=0;" parent="WIyWlLk6GJQsqaUBKTNV-1" vertex="1">
          <mxGeometry x="530" y="790" width="120" height="40" as="geometry" />
        </mxCell>
        <mxCell id="iqmGGK62Io1WVzKbsAf8-11" style="edgeStyle=orthogonalEdgeStyle;rounded=0;orthogonalLoop=1;jettySize=auto;html=1;exitX=0;exitY=0.5;exitDx=0;exitDy=0;entryX=0.959;entryY=0.628;entryDx=0;entryDy=0;entryPerimeter=0;strokeColor=#FF3333;strokeWidth=2;" parent="WIyWlLk6GJQsqaUBKTNV-1" source="iqmGGK62Io1WVzKbsAf8-10" target="iqmGGK62Io1WVzKbsAf8-0" edge="1">
          <mxGeometry relative="1" as="geometry" />
        </mxCell>
        <mxCell id="iqmGGK62Io1WVzKbsAf8-16" value="" style="rounded=0;whiteSpace=wrap;html=1;strokeWidth=3;fillColor=none;strokeColor=#99FF33;" parent="WIyWlLk6GJQsqaUBKTNV-1" vertex="1">
          <mxGeometry x="90" y="250" width="556.32" height="310" as="geometry" />
        </mxCell>
        <mxCell id="iqmGGK62Io1WVzKbsAf8-12" value="" style="rounded=0;whiteSpace=wrap;html=1;fillColor=none;strokeColor=#99FF33;strokeWidth=3;" parent="WIyWlLk6GJQsqaUBKTNV-1" vertex="1">
          <mxGeometry x="200" y="630" width="110" height="20" as="geometry" />
        </mxCell>
        <mxCell id="iqmGGK62Io1WVzKbsAf8-13" value="" style="rounded=0;whiteSpace=wrap;html=1;fillColor=none;strokeColor=#99FF33;strokeWidth=3;" parent="WIyWlLk6GJQsqaUBKTNV-1" vertex="1">
          <mxGeometry x="310" y="630" width="90" height="20" as="geometry" />
        </mxCell>
        <mxCell id="iqmGGK62Io1WVzKbsAf8-14" value="" style="rounded=0;whiteSpace=wrap;html=1;fillColor=none;strokeColor=#99FF33;strokeWidth=3;" parent="WIyWlLk6GJQsqaUBKTNV-1" vertex="1">
          <mxGeometry x="240" y="830" width="90" height="20" as="geometry" />
        </mxCell>
        <mxCell id="iqmGGK62Io1WVzKbsAf8-15" value="" style="rounded=0;whiteSpace=wrap;html=1;fillColor=none;strokeColor=#99FF33;strokeWidth=3;" parent="WIyWlLk6GJQsqaUBKTNV-1" vertex="1">
          <mxGeometry x="332.65" y="830" width="67.35" height="20" as="geometry" />
        </mxCell>
        <mxCell id="iqmGGK62Io1WVzKbsAf8-17" value="Accel FXLS8974CF (I2C)" style="rounded=1;whiteSpace=wrap;html=1;fontSize=12;glass=0;strokeWidth=1;shadow=0;" parent="WIyWlLk6GJQsqaUBKTNV-1" vertex="1">
          <mxGeometry x="500" y="510" width="120" height="40" as="geometry" />
        </mxCell>
        <mxCell id="iqmGGK62Io1WVzKbsAf8-18" value="GPIO" style="rounded=1;whiteSpace=wrap;html=1;fontSize=12;glass=0;strokeWidth=1;shadow=0;" parent="WIyWlLk6GJQsqaUBKTNV-1" vertex="1">
          <mxGeometry x="320" y="330" width="120" height="40" as="geometry" />
        </mxCell>
        <mxCell id="iqmGGK62Io1WVzKbsAf8-19" value="LEDs 8x (GPIO)" style="rounded=1;whiteSpace=wrap;html=1;fontSize=12;glass=0;strokeWidth=1;shadow=0;" parent="WIyWlLk6GJQsqaUBKTNV-1" vertex="1">
          <mxGeometry x="500" y="330" width="120" height="40" as="geometry" />
        </mxCell>
        <mxCell id="iqmGGK62Io1WVzKbsAf8-20" value="Buttons 4x (AOI)" style="rounded=1;whiteSpace=wrap;html=1;fontSize=12;glass=0;strokeWidth=1;shadow=0;" parent="WIyWlLk6GJQsqaUBKTNV-1" vertex="1">
          <mxGeometry x="320" y="270" width="120" height="40" as="geometry" />
        </mxCell>
        <mxCell id="iqmGGK62Io1WVzKbsAf8-21" value="Motorcontrol?" style="rounded=1;whiteSpace=wrap;html=1;fontSize=12;glass=0;strokeWidth=1;shadow=0;" parent="WIyWlLk6GJQsqaUBKTNV-1" vertex="1">
          <mxGeometry x="500" y="270" width="120" height="40" as="geometry" />
        </mxCell>
        <mxCell id="YcjqrykdXRi860t7obV5-0" value="shift reg w leds (SPI)" style="rounded=1;whiteSpace=wrap;html=1;fontSize=12;glass=0;strokeWidth=1;shadow=0;" parent="WIyWlLk6GJQsqaUBKTNV-1" vertex="1">
          <mxGeometry x="140" y="270" width="120" height="40" as="geometry" />
        </mxCell>
        <mxCell id="YcjqrykdXRi860t7obV5-1" value="Touchpads (TP perip)" style="rounded=1;whiteSpace=wrap;html=1;fontSize=12;glass=0;strokeWidth=1;shadow=0;" parent="WIyWlLk6GJQsqaUBKTNV-1" vertex="1">
          <mxGeometry x="140" y="330" width="120" height="40" as="geometry" />
        </mxCell>
        <mxCell id="YcjqrykdXRi860t7obV5-2" value="Encoder (EN perip)" style="rounded=1;whiteSpace=wrap;html=1;fontSize=12;glass=0;strokeWidth=1;shadow=0;" parent="WIyWlLk6GJQsqaUBKTNV-1" vertex="1">
          <mxGeometry x="140" y="392.5" width="120" height="40" as="geometry" />
        </mxCell>
        <mxCell id="YcjqrykdXRi860t7obV5-3" value="Buttons 4x (GPIO)" style="rounded=1;whiteSpace=wrap;html=1;fontSize=12;glass=0;strokeWidth=1;shadow=0;" parent="WIyWlLk6GJQsqaUBKTNV-1" vertex="1">
          <mxGeometry x="140" y="450" width="120" height="40" as="geometry" />
        </mxCell>
        <mxCell id="YcjqrykdXRi860t7obV5-4" value="Motorcontrol" style="rounded=1;whiteSpace=wrap;html=1;fontSize=12;glass=0;strokeWidth=1;shadow=0;" parent="WIyWlLk6GJQsqaUBKTNV-1" vertex="1">
          <mxGeometry x="140" y="510" width="120" height="40" as="geometry" />
        </mxCell>
      </root>
    </mxGraphModel>
  </diagram>
</mxfile>
